%TF.GenerationSoftware,KiCad,Pcbnew,10.0.1*%
%TF.CreationDate,2026-05-19T21:18:18+07:00*%
%TF.ProjectId,ExpansionBoard-V2.0,45787061-6e73-4696-9f6e-426f6172642d,rev?*%
%TF.SameCoordinates,PX5f5e100PY5f5e100*%
%TF.FileFunction,Legend,Top*%
%TF.FilePolarity,Positive*%
%FSLAX46Y46*%
G04 Gerber Fmt 4.6, Leading zero omitted, Abs format (unit mm)*
G04 Created by KiCad (PCBNEW 10.0.1) date 2026-05-19 21:18:18*
%MOMM*%
%LPD*%
G01*
G04 APERTURE LIST*
%ADD10C,0.150000*%
%ADD11C,0.120000*%
G04 APERTURE END LIST*
D10*
X33833333Y33440420D02*
X33785714Y33392800D01*
X33785714Y33392800D02*
X33642857Y33345181D01*
X33642857Y33345181D02*
X33547619Y33345181D01*
X33547619Y33345181D02*
X33404762Y33392800D01*
X33404762Y33392800D02*
X33309524Y33488039D01*
X33309524Y33488039D02*
X33261905Y33583277D01*
X33261905Y33583277D02*
X33214286Y33773753D01*
X33214286Y33773753D02*
X33214286Y33916610D01*
X33214286Y33916610D02*
X33261905Y34107086D01*
X33261905Y34107086D02*
X33309524Y34202324D01*
X33309524Y34202324D02*
X33404762Y34297562D01*
X33404762Y34297562D02*
X33547619Y34345181D01*
X33547619Y34345181D02*
X33642857Y34345181D01*
X33642857Y34345181D02*
X33785714Y34297562D01*
X33785714Y34297562D02*
X33833333Y34249943D01*
X34214286Y34249943D02*
X34261905Y34297562D01*
X34261905Y34297562D02*
X34357143Y34345181D01*
X34357143Y34345181D02*
X34595238Y34345181D01*
X34595238Y34345181D02*
X34690476Y34297562D01*
X34690476Y34297562D02*
X34738095Y34249943D01*
X34738095Y34249943D02*
X34785714Y34154705D01*
X34785714Y34154705D02*
X34785714Y34059467D01*
X34785714Y34059467D02*
X34738095Y33916610D01*
X34738095Y33916610D02*
X34166667Y33345181D01*
X34166667Y33345181D02*
X34785714Y33345181D01*
X33757142Y30545181D02*
X33423809Y31021372D01*
X33185714Y30545181D02*
X33185714Y31545181D01*
X33185714Y31545181D02*
X33566666Y31545181D01*
X33566666Y31545181D02*
X33661904Y31497562D01*
X33661904Y31497562D02*
X33709523Y31449943D01*
X33709523Y31449943D02*
X33757142Y31354705D01*
X33757142Y31354705D02*
X33757142Y31211848D01*
X33757142Y31211848D02*
X33709523Y31116610D01*
X33709523Y31116610D02*
X33661904Y31068991D01*
X33661904Y31068991D02*
X33566666Y31021372D01*
X33566666Y31021372D02*
X33185714Y31021372D01*
X34709523Y30545181D02*
X34138095Y30545181D01*
X34423809Y30545181D02*
X34423809Y31545181D01*
X34423809Y31545181D02*
X34328571Y31402324D01*
X34328571Y31402324D02*
X34233333Y31307086D01*
X34233333Y31307086D02*
X34138095Y31259467D01*
X35090476Y31449943D02*
X35138095Y31497562D01*
X35138095Y31497562D02*
X35233333Y31545181D01*
X35233333Y31545181D02*
X35471428Y31545181D01*
X35471428Y31545181D02*
X35566666Y31497562D01*
X35566666Y31497562D02*
X35614285Y31449943D01*
X35614285Y31449943D02*
X35661904Y31354705D01*
X35661904Y31354705D02*
X35661904Y31259467D01*
X35661904Y31259467D02*
X35614285Y31116610D01*
X35614285Y31116610D02*
X35042857Y30545181D01*
X35042857Y30545181D02*
X35661904Y30545181D01*
X33757142Y27745181D02*
X33423809Y28221372D01*
X33185714Y27745181D02*
X33185714Y28745181D01*
X33185714Y28745181D02*
X33566666Y28745181D01*
X33566666Y28745181D02*
X33661904Y28697562D01*
X33661904Y28697562D02*
X33709523Y28649943D01*
X33709523Y28649943D02*
X33757142Y28554705D01*
X33757142Y28554705D02*
X33757142Y28411848D01*
X33757142Y28411848D02*
X33709523Y28316610D01*
X33709523Y28316610D02*
X33661904Y28268991D01*
X33661904Y28268991D02*
X33566666Y28221372D01*
X33566666Y28221372D02*
X33185714Y28221372D01*
X34709523Y27745181D02*
X34138095Y27745181D01*
X34423809Y27745181D02*
X34423809Y28745181D01*
X34423809Y28745181D02*
X34328571Y28602324D01*
X34328571Y28602324D02*
X34233333Y28507086D01*
X34233333Y28507086D02*
X34138095Y28459467D01*
X35661904Y27745181D02*
X35090476Y27745181D01*
X35376190Y27745181D02*
X35376190Y28745181D01*
X35376190Y28745181D02*
X35280952Y28602324D01*
X35280952Y28602324D02*
X35185714Y28507086D01*
X35185714Y28507086D02*
X35090476Y28459467D01*
X33833333Y40945181D02*
X33500000Y41421372D01*
X33261905Y40945181D02*
X33261905Y41945181D01*
X33261905Y41945181D02*
X33642857Y41945181D01*
X33642857Y41945181D02*
X33738095Y41897562D01*
X33738095Y41897562D02*
X33785714Y41849943D01*
X33785714Y41849943D02*
X33833333Y41754705D01*
X33833333Y41754705D02*
X33833333Y41611848D01*
X33833333Y41611848D02*
X33785714Y41516610D01*
X33785714Y41516610D02*
X33738095Y41468991D01*
X33738095Y41468991D02*
X33642857Y41421372D01*
X33642857Y41421372D02*
X33261905Y41421372D01*
X34309524Y40945181D02*
X34500000Y40945181D01*
X34500000Y40945181D02*
X34595238Y40992800D01*
X34595238Y40992800D02*
X34642857Y41040420D01*
X34642857Y41040420D02*
X34738095Y41183277D01*
X34738095Y41183277D02*
X34785714Y41373753D01*
X34785714Y41373753D02*
X34785714Y41754705D01*
X34785714Y41754705D02*
X34738095Y41849943D01*
X34738095Y41849943D02*
X34690476Y41897562D01*
X34690476Y41897562D02*
X34595238Y41945181D01*
X34595238Y41945181D02*
X34404762Y41945181D01*
X34404762Y41945181D02*
X34309524Y41897562D01*
X34309524Y41897562D02*
X34261905Y41849943D01*
X34261905Y41849943D02*
X34214286Y41754705D01*
X34214286Y41754705D02*
X34214286Y41516610D01*
X34214286Y41516610D02*
X34261905Y41421372D01*
X34261905Y41421372D02*
X34309524Y41373753D01*
X34309524Y41373753D02*
X34404762Y41326134D01*
X34404762Y41326134D02*
X34595238Y41326134D01*
X34595238Y41326134D02*
X34690476Y41373753D01*
X34690476Y41373753D02*
X34738095Y41421372D01*
X34738095Y41421372D02*
X34785714Y41516610D01*
X33833333Y38145181D02*
X33500000Y38621372D01*
X33261905Y38145181D02*
X33261905Y39145181D01*
X33261905Y39145181D02*
X33642857Y39145181D01*
X33642857Y39145181D02*
X33738095Y39097562D01*
X33738095Y39097562D02*
X33785714Y39049943D01*
X33785714Y39049943D02*
X33833333Y38954705D01*
X33833333Y38954705D02*
X33833333Y38811848D01*
X33833333Y38811848D02*
X33785714Y38716610D01*
X33785714Y38716610D02*
X33738095Y38668991D01*
X33738095Y38668991D02*
X33642857Y38621372D01*
X33642857Y38621372D02*
X33261905Y38621372D01*
X34404762Y38716610D02*
X34309524Y38764229D01*
X34309524Y38764229D02*
X34261905Y38811848D01*
X34261905Y38811848D02*
X34214286Y38907086D01*
X34214286Y38907086D02*
X34214286Y38954705D01*
X34214286Y38954705D02*
X34261905Y39049943D01*
X34261905Y39049943D02*
X34309524Y39097562D01*
X34309524Y39097562D02*
X34404762Y39145181D01*
X34404762Y39145181D02*
X34595238Y39145181D01*
X34595238Y39145181D02*
X34690476Y39097562D01*
X34690476Y39097562D02*
X34738095Y39049943D01*
X34738095Y39049943D02*
X34785714Y38954705D01*
X34785714Y38954705D02*
X34785714Y38907086D01*
X34785714Y38907086D02*
X34738095Y38811848D01*
X34738095Y38811848D02*
X34690476Y38764229D01*
X34690476Y38764229D02*
X34595238Y38716610D01*
X34595238Y38716610D02*
X34404762Y38716610D01*
X34404762Y38716610D02*
X34309524Y38668991D01*
X34309524Y38668991D02*
X34261905Y38621372D01*
X34261905Y38621372D02*
X34214286Y38526134D01*
X34214286Y38526134D02*
X34214286Y38335658D01*
X34214286Y38335658D02*
X34261905Y38240420D01*
X34261905Y38240420D02*
X34309524Y38192800D01*
X34309524Y38192800D02*
X34404762Y38145181D01*
X34404762Y38145181D02*
X34595238Y38145181D01*
X34595238Y38145181D02*
X34690476Y38192800D01*
X34690476Y38192800D02*
X34738095Y38240420D01*
X34738095Y38240420D02*
X34785714Y38335658D01*
X34785714Y38335658D02*
X34785714Y38526134D01*
X34785714Y38526134D02*
X34738095Y38621372D01*
X34738095Y38621372D02*
X34690476Y38668991D01*
X34690476Y38668991D02*
X34595238Y38716610D01*
X33833333Y43640420D02*
X33785714Y43592800D01*
X33785714Y43592800D02*
X33642857Y43545181D01*
X33642857Y43545181D02*
X33547619Y43545181D01*
X33547619Y43545181D02*
X33404762Y43592800D01*
X33404762Y43592800D02*
X33309524Y43688039D01*
X33309524Y43688039D02*
X33261905Y43783277D01*
X33261905Y43783277D02*
X33214286Y43973753D01*
X33214286Y43973753D02*
X33214286Y44116610D01*
X33214286Y44116610D02*
X33261905Y44307086D01*
X33261905Y44307086D02*
X33309524Y44402324D01*
X33309524Y44402324D02*
X33404762Y44497562D01*
X33404762Y44497562D02*
X33547619Y44545181D01*
X33547619Y44545181D02*
X33642857Y44545181D01*
X33642857Y44545181D02*
X33785714Y44497562D01*
X33785714Y44497562D02*
X33833333Y44449943D01*
X34785714Y43545181D02*
X34214286Y43545181D01*
X34500000Y43545181D02*
X34500000Y44545181D01*
X34500000Y44545181D02*
X34404762Y44402324D01*
X34404762Y44402324D02*
X34309524Y44307086D01*
X34309524Y44307086D02*
X34214286Y44259467D01*
X69878333Y25945181D02*
X69545000Y26421372D01*
X69306905Y25945181D02*
X69306905Y26945181D01*
X69306905Y26945181D02*
X69687857Y26945181D01*
X69687857Y26945181D02*
X69783095Y26897562D01*
X69783095Y26897562D02*
X69830714Y26849943D01*
X69830714Y26849943D02*
X69878333Y26754705D01*
X69878333Y26754705D02*
X69878333Y26611848D01*
X69878333Y26611848D02*
X69830714Y26516610D01*
X69830714Y26516610D02*
X69783095Y26468991D01*
X69783095Y26468991D02*
X69687857Y26421372D01*
X69687857Y26421372D02*
X69306905Y26421372D01*
X70211667Y26945181D02*
X70830714Y26945181D01*
X70830714Y26945181D02*
X70497381Y26564229D01*
X70497381Y26564229D02*
X70640238Y26564229D01*
X70640238Y26564229D02*
X70735476Y26516610D01*
X70735476Y26516610D02*
X70783095Y26468991D01*
X70783095Y26468991D02*
X70830714Y26373753D01*
X70830714Y26373753D02*
X70830714Y26135658D01*
X70830714Y26135658D02*
X70783095Y26040420D01*
X70783095Y26040420D02*
X70735476Y25992800D01*
X70735476Y25992800D02*
X70640238Y25945181D01*
X70640238Y25945181D02*
X70354524Y25945181D01*
X70354524Y25945181D02*
X70259286Y25992800D01*
X70259286Y25992800D02*
X70211667Y26040420D01*
X76750057Y34504762D02*
X76702438Y34409524D01*
X76702438Y34409524D02*
X76607200Y34314286D01*
X76607200Y34314286D02*
X76464342Y34171429D01*
X76464342Y34171429D02*
X76416723Y34076191D01*
X76416723Y34076191D02*
X76416723Y33980953D01*
X76654819Y34028572D02*
X76607200Y33933334D01*
X76607200Y33933334D02*
X76511961Y33838096D01*
X76511961Y33838096D02*
X76321485Y33790477D01*
X76321485Y33790477D02*
X75988152Y33790477D01*
X75988152Y33790477D02*
X75797676Y33838096D01*
X75797676Y33838096D02*
X75702438Y33933334D01*
X75702438Y33933334D02*
X75654819Y34028572D01*
X75654819Y34028572D02*
X75654819Y34219048D01*
X75654819Y34219048D02*
X75702438Y34314286D01*
X75702438Y34314286D02*
X75797676Y34409524D01*
X75797676Y34409524D02*
X75988152Y34457143D01*
X75988152Y34457143D02*
X76321485Y34457143D01*
X76321485Y34457143D02*
X76511961Y34409524D01*
X76511961Y34409524D02*
X76607200Y34314286D01*
X76607200Y34314286D02*
X76654819Y34219048D01*
X76654819Y34219048D02*
X76654819Y34028572D01*
X75750057Y34838096D02*
X75702438Y34885715D01*
X75702438Y34885715D02*
X75654819Y34980953D01*
X75654819Y34980953D02*
X75654819Y35219048D01*
X75654819Y35219048D02*
X75702438Y35314286D01*
X75702438Y35314286D02*
X75750057Y35361905D01*
X75750057Y35361905D02*
X75845295Y35409524D01*
X75845295Y35409524D02*
X75940533Y35409524D01*
X75940533Y35409524D02*
X76083390Y35361905D01*
X76083390Y35361905D02*
X76654819Y34790477D01*
X76654819Y34790477D02*
X76654819Y35409524D01*
X33757142Y20545181D02*
X33423809Y21021372D01*
X33185714Y20545181D02*
X33185714Y21545181D01*
X33185714Y21545181D02*
X33566666Y21545181D01*
X33566666Y21545181D02*
X33661904Y21497562D01*
X33661904Y21497562D02*
X33709523Y21449943D01*
X33709523Y21449943D02*
X33757142Y21354705D01*
X33757142Y21354705D02*
X33757142Y21211848D01*
X33757142Y21211848D02*
X33709523Y21116610D01*
X33709523Y21116610D02*
X33661904Y21068991D01*
X33661904Y21068991D02*
X33566666Y21021372D01*
X33566666Y21021372D02*
X33185714Y21021372D01*
X34709523Y20545181D02*
X34138095Y20545181D01*
X34423809Y20545181D02*
X34423809Y21545181D01*
X34423809Y21545181D02*
X34328571Y21402324D01*
X34328571Y21402324D02*
X34233333Y21307086D01*
X34233333Y21307086D02*
X34138095Y21259467D01*
X35042857Y21545181D02*
X35709523Y21545181D01*
X35709523Y21545181D02*
X35280952Y20545181D01*
X37454819Y31204762D02*
X36978628Y30871429D01*
X37454819Y30633334D02*
X36454819Y30633334D01*
X36454819Y30633334D02*
X36454819Y31014286D01*
X36454819Y31014286D02*
X36502438Y31109524D01*
X36502438Y31109524D02*
X36550057Y31157143D01*
X36550057Y31157143D02*
X36645295Y31204762D01*
X36645295Y31204762D02*
X36788152Y31204762D01*
X36788152Y31204762D02*
X36883390Y31157143D01*
X36883390Y31157143D02*
X36931009Y31109524D01*
X36931009Y31109524D02*
X36978628Y31014286D01*
X36978628Y31014286D02*
X36978628Y30633334D01*
X36454819Y31490477D02*
X37454819Y31823810D01*
X37454819Y31823810D02*
X36454819Y32157143D01*
X36550057Y32442858D02*
X36502438Y32490477D01*
X36502438Y32490477D02*
X36454819Y32585715D01*
X36454819Y32585715D02*
X36454819Y32823810D01*
X36454819Y32823810D02*
X36502438Y32919048D01*
X36502438Y32919048D02*
X36550057Y32966667D01*
X36550057Y32966667D02*
X36645295Y33014286D01*
X36645295Y33014286D02*
X36740533Y33014286D01*
X36740533Y33014286D02*
X36883390Y32966667D01*
X36883390Y32966667D02*
X37454819Y32395239D01*
X37454819Y32395239D02*
X37454819Y33014286D01*
X86954819Y37157143D02*
X86478628Y36823810D01*
X86954819Y36585715D02*
X85954819Y36585715D01*
X85954819Y36585715D02*
X85954819Y36966667D01*
X85954819Y36966667D02*
X86002438Y37061905D01*
X86002438Y37061905D02*
X86050057Y37109524D01*
X86050057Y37109524D02*
X86145295Y37157143D01*
X86145295Y37157143D02*
X86288152Y37157143D01*
X86288152Y37157143D02*
X86383390Y37109524D01*
X86383390Y37109524D02*
X86431009Y37061905D01*
X86431009Y37061905D02*
X86478628Y36966667D01*
X86478628Y36966667D02*
X86478628Y36585715D01*
X86050057Y37538096D02*
X86002438Y37585715D01*
X86002438Y37585715D02*
X85954819Y37680953D01*
X85954819Y37680953D02*
X85954819Y37919048D01*
X85954819Y37919048D02*
X86002438Y38014286D01*
X86002438Y38014286D02*
X86050057Y38061905D01*
X86050057Y38061905D02*
X86145295Y38109524D01*
X86145295Y38109524D02*
X86240533Y38109524D01*
X86240533Y38109524D02*
X86383390Y38061905D01*
X86383390Y38061905D02*
X86954819Y37490477D01*
X86954819Y37490477D02*
X86954819Y38109524D01*
X86383390Y38680953D02*
X86335771Y38585715D01*
X86335771Y38585715D02*
X86288152Y38538096D01*
X86288152Y38538096D02*
X86192914Y38490477D01*
X86192914Y38490477D02*
X86145295Y38490477D01*
X86145295Y38490477D02*
X86050057Y38538096D01*
X86050057Y38538096D02*
X86002438Y38585715D01*
X86002438Y38585715D02*
X85954819Y38680953D01*
X85954819Y38680953D02*
X85954819Y38871429D01*
X85954819Y38871429D02*
X86002438Y38966667D01*
X86002438Y38966667D02*
X86050057Y39014286D01*
X86050057Y39014286D02*
X86145295Y39061905D01*
X86145295Y39061905D02*
X86192914Y39061905D01*
X86192914Y39061905D02*
X86288152Y39014286D01*
X86288152Y39014286D02*
X86335771Y38966667D01*
X86335771Y38966667D02*
X86383390Y38871429D01*
X86383390Y38871429D02*
X86383390Y38680953D01*
X86383390Y38680953D02*
X86431009Y38585715D01*
X86431009Y38585715D02*
X86478628Y38538096D01*
X86478628Y38538096D02*
X86573866Y38490477D01*
X86573866Y38490477D02*
X86764342Y38490477D01*
X86764342Y38490477D02*
X86859580Y38538096D01*
X86859580Y38538096D02*
X86907200Y38585715D01*
X86907200Y38585715D02*
X86954819Y38680953D01*
X86954819Y38680953D02*
X86954819Y38871429D01*
X86954819Y38871429D02*
X86907200Y38966667D01*
X86907200Y38966667D02*
X86859580Y39014286D01*
X86859580Y39014286D02*
X86764342Y39061905D01*
X86764342Y39061905D02*
X86573866Y39061905D01*
X86573866Y39061905D02*
X86478628Y39014286D01*
X86478628Y39014286D02*
X86431009Y38966667D01*
X86431009Y38966667D02*
X86383390Y38871429D01*
X76750057Y30104762D02*
X76702438Y30009524D01*
X76702438Y30009524D02*
X76607200Y29914286D01*
X76607200Y29914286D02*
X76464342Y29771429D01*
X76464342Y29771429D02*
X76416723Y29676191D01*
X76416723Y29676191D02*
X76416723Y29580953D01*
X76654819Y29628572D02*
X76607200Y29533334D01*
X76607200Y29533334D02*
X76511961Y29438096D01*
X76511961Y29438096D02*
X76321485Y29390477D01*
X76321485Y29390477D02*
X75988152Y29390477D01*
X75988152Y29390477D02*
X75797676Y29438096D01*
X75797676Y29438096D02*
X75702438Y29533334D01*
X75702438Y29533334D02*
X75654819Y29628572D01*
X75654819Y29628572D02*
X75654819Y29819048D01*
X75654819Y29819048D02*
X75702438Y29914286D01*
X75702438Y29914286D02*
X75797676Y30009524D01*
X75797676Y30009524D02*
X75988152Y30057143D01*
X75988152Y30057143D02*
X76321485Y30057143D01*
X76321485Y30057143D02*
X76511961Y30009524D01*
X76511961Y30009524D02*
X76607200Y29914286D01*
X76607200Y29914286D02*
X76654819Y29819048D01*
X76654819Y29819048D02*
X76654819Y29628572D01*
X75654819Y30390477D02*
X75654819Y31009524D01*
X75654819Y31009524D02*
X76035771Y30676191D01*
X76035771Y30676191D02*
X76035771Y30819048D01*
X76035771Y30819048D02*
X76083390Y30914286D01*
X76083390Y30914286D02*
X76131009Y30961905D01*
X76131009Y30961905D02*
X76226247Y31009524D01*
X76226247Y31009524D02*
X76464342Y31009524D01*
X76464342Y31009524D02*
X76559580Y30961905D01*
X76559580Y30961905D02*
X76607200Y30914286D01*
X76607200Y30914286D02*
X76654819Y30819048D01*
X76654819Y30819048D02*
X76654819Y30533334D01*
X76654819Y30533334D02*
X76607200Y30438096D01*
X76607200Y30438096D02*
X76559580Y30390477D01*
X69878333Y15745181D02*
X69545000Y16221372D01*
X69306905Y15745181D02*
X69306905Y16745181D01*
X69306905Y16745181D02*
X69687857Y16745181D01*
X69687857Y16745181D02*
X69783095Y16697562D01*
X69783095Y16697562D02*
X69830714Y16649943D01*
X69830714Y16649943D02*
X69878333Y16554705D01*
X69878333Y16554705D02*
X69878333Y16411848D01*
X69878333Y16411848D02*
X69830714Y16316610D01*
X69830714Y16316610D02*
X69783095Y16268991D01*
X69783095Y16268991D02*
X69687857Y16221372D01*
X69687857Y16221372D02*
X69306905Y16221372D01*
X70783095Y16745181D02*
X70306905Y16745181D01*
X70306905Y16745181D02*
X70259286Y16268991D01*
X70259286Y16268991D02*
X70306905Y16316610D01*
X70306905Y16316610D02*
X70402143Y16364229D01*
X70402143Y16364229D02*
X70640238Y16364229D01*
X70640238Y16364229D02*
X70735476Y16316610D01*
X70735476Y16316610D02*
X70783095Y16268991D01*
X70783095Y16268991D02*
X70830714Y16173753D01*
X70830714Y16173753D02*
X70830714Y15935658D01*
X70830714Y15935658D02*
X70783095Y15840420D01*
X70783095Y15840420D02*
X70735476Y15792800D01*
X70735476Y15792800D02*
X70640238Y15745181D01*
X70640238Y15745181D02*
X70402143Y15745181D01*
X70402143Y15745181D02*
X70306905Y15792800D01*
X70306905Y15792800D02*
X70259286Y15840420D01*
X76750057Y42704762D02*
X76702438Y42609524D01*
X76702438Y42609524D02*
X76607200Y42514286D01*
X76607200Y42514286D02*
X76464342Y42371429D01*
X76464342Y42371429D02*
X76416723Y42276191D01*
X76416723Y42276191D02*
X76416723Y42180953D01*
X76654819Y42228572D02*
X76607200Y42133334D01*
X76607200Y42133334D02*
X76511961Y42038096D01*
X76511961Y42038096D02*
X76321485Y41990477D01*
X76321485Y41990477D02*
X75988152Y41990477D01*
X75988152Y41990477D02*
X75797676Y42038096D01*
X75797676Y42038096D02*
X75702438Y42133334D01*
X75702438Y42133334D02*
X75654819Y42228572D01*
X75654819Y42228572D02*
X75654819Y42419048D01*
X75654819Y42419048D02*
X75702438Y42514286D01*
X75702438Y42514286D02*
X75797676Y42609524D01*
X75797676Y42609524D02*
X75988152Y42657143D01*
X75988152Y42657143D02*
X76321485Y42657143D01*
X76321485Y42657143D02*
X76511961Y42609524D01*
X76511961Y42609524D02*
X76607200Y42514286D01*
X76607200Y42514286D02*
X76654819Y42419048D01*
X76654819Y42419048D02*
X76654819Y42228572D01*
X75654819Y43276191D02*
X75654819Y43371429D01*
X75654819Y43371429D02*
X75702438Y43466667D01*
X75702438Y43466667D02*
X75750057Y43514286D01*
X75750057Y43514286D02*
X75845295Y43561905D01*
X75845295Y43561905D02*
X76035771Y43609524D01*
X76035771Y43609524D02*
X76273866Y43609524D01*
X76273866Y43609524D02*
X76464342Y43561905D01*
X76464342Y43561905D02*
X76559580Y43514286D01*
X76559580Y43514286D02*
X76607200Y43466667D01*
X76607200Y43466667D02*
X76654819Y43371429D01*
X76654819Y43371429D02*
X76654819Y43276191D01*
X76654819Y43276191D02*
X76607200Y43180953D01*
X76607200Y43180953D02*
X76559580Y43133334D01*
X76559580Y43133334D02*
X76464342Y43085715D01*
X76464342Y43085715D02*
X76273866Y43038096D01*
X76273866Y43038096D02*
X76035771Y43038096D01*
X76035771Y43038096D02*
X75845295Y43085715D01*
X75845295Y43085715D02*
X75750057Y43133334D01*
X75750057Y43133334D02*
X75702438Y43180953D01*
X75702438Y43180953D02*
X75654819Y43276191D01*
X69361905Y7945181D02*
X69361905Y8945181D01*
X69361905Y8945181D02*
X69600000Y8945181D01*
X69600000Y8945181D02*
X69742857Y8897562D01*
X69742857Y8897562D02*
X69838095Y8802324D01*
X69838095Y8802324D02*
X69885714Y8707086D01*
X69885714Y8707086D02*
X69933333Y8516610D01*
X69933333Y8516610D02*
X69933333Y8373753D01*
X69933333Y8373753D02*
X69885714Y8183277D01*
X69885714Y8183277D02*
X69838095Y8088039D01*
X69838095Y8088039D02*
X69742857Y7992800D01*
X69742857Y7992800D02*
X69600000Y7945181D01*
X69600000Y7945181D02*
X69361905Y7945181D01*
X70266667Y8945181D02*
X70933333Y8945181D01*
X70933333Y8945181D02*
X70504762Y7945181D01*
X5004819Y43383334D02*
X4004819Y43383334D01*
X4004819Y43383334D02*
X4004819Y43621429D01*
X4004819Y43621429D02*
X4052438Y43764286D01*
X4052438Y43764286D02*
X4147676Y43859524D01*
X4147676Y43859524D02*
X4242914Y43907143D01*
X4242914Y43907143D02*
X4433390Y43954762D01*
X4433390Y43954762D02*
X4576247Y43954762D01*
X4576247Y43954762D02*
X4766723Y43907143D01*
X4766723Y43907143D02*
X4861961Y43859524D01*
X4861961Y43859524D02*
X4957200Y43764286D01*
X4957200Y43764286D02*
X5004819Y43621429D01*
X5004819Y43621429D02*
X5004819Y43383334D01*
X4719104Y44335715D02*
X4719104Y44811905D01*
X5004819Y44240477D02*
X4004819Y44573810D01*
X4004819Y44573810D02*
X5004819Y44907143D01*
X5004819Y45764286D02*
X5004819Y45192858D01*
X5004819Y45478572D02*
X4004819Y45478572D01*
X4004819Y45478572D02*
X4147676Y45383334D01*
X4147676Y45383334D02*
X4242914Y45288096D01*
X4242914Y45288096D02*
X4290533Y45192858D01*
X70053333Y10570181D02*
X69720000Y11046372D01*
X69481905Y10570181D02*
X69481905Y11570181D01*
X69481905Y11570181D02*
X69862857Y11570181D01*
X69862857Y11570181D02*
X69958095Y11522562D01*
X69958095Y11522562D02*
X70005714Y11474943D01*
X70005714Y11474943D02*
X70053333Y11379705D01*
X70053333Y11379705D02*
X70053333Y11236848D01*
X70053333Y11236848D02*
X70005714Y11141610D01*
X70005714Y11141610D02*
X69958095Y11093991D01*
X69958095Y11093991D02*
X69862857Y11046372D01*
X69862857Y11046372D02*
X69481905Y11046372D01*
X70910476Y11570181D02*
X70720000Y11570181D01*
X70720000Y11570181D02*
X70624762Y11522562D01*
X70624762Y11522562D02*
X70577143Y11474943D01*
X70577143Y11474943D02*
X70481905Y11332086D01*
X70481905Y11332086D02*
X70434286Y11141610D01*
X70434286Y11141610D02*
X70434286Y10760658D01*
X70434286Y10760658D02*
X70481905Y10665420D01*
X70481905Y10665420D02*
X70529524Y10617800D01*
X70529524Y10617800D02*
X70624762Y10570181D01*
X70624762Y10570181D02*
X70815238Y10570181D01*
X70815238Y10570181D02*
X70910476Y10617800D01*
X70910476Y10617800D02*
X70958095Y10665420D01*
X70958095Y10665420D02*
X71005714Y10760658D01*
X71005714Y10760658D02*
X71005714Y10998753D01*
X71005714Y10998753D02*
X70958095Y11093991D01*
X70958095Y11093991D02*
X70910476Y11141610D01*
X70910476Y11141610D02*
X70815238Y11189229D01*
X70815238Y11189229D02*
X70624762Y11189229D01*
X70624762Y11189229D02*
X70529524Y11141610D01*
X70529524Y11141610D02*
X70481905Y11093991D01*
X70481905Y11093991D02*
X70434286Y10998753D01*
X37254819Y15004762D02*
X36778628Y14671429D01*
X37254819Y14433334D02*
X36254819Y14433334D01*
X36254819Y14433334D02*
X36254819Y14814286D01*
X36254819Y14814286D02*
X36302438Y14909524D01*
X36302438Y14909524D02*
X36350057Y14957143D01*
X36350057Y14957143D02*
X36445295Y15004762D01*
X36445295Y15004762D02*
X36588152Y15004762D01*
X36588152Y15004762D02*
X36683390Y14957143D01*
X36683390Y14957143D02*
X36731009Y14909524D01*
X36731009Y14909524D02*
X36778628Y14814286D01*
X36778628Y14814286D02*
X36778628Y14433334D01*
X36254819Y15290477D02*
X37254819Y15623810D01*
X37254819Y15623810D02*
X36254819Y15957143D01*
X37254819Y16814286D02*
X37254819Y16242858D01*
X37254819Y16528572D02*
X36254819Y16528572D01*
X36254819Y16528572D02*
X36397676Y16433334D01*
X36397676Y16433334D02*
X36492914Y16338096D01*
X36492914Y16338096D02*
X36540533Y16242858D01*
X69261905Y38845181D02*
X69261905Y39845181D01*
X69261905Y39845181D02*
X69500000Y39845181D01*
X69500000Y39845181D02*
X69642857Y39797562D01*
X69642857Y39797562D02*
X69738095Y39702324D01*
X69738095Y39702324D02*
X69785714Y39607086D01*
X69785714Y39607086D02*
X69833333Y39416610D01*
X69833333Y39416610D02*
X69833333Y39273753D01*
X69833333Y39273753D02*
X69785714Y39083277D01*
X69785714Y39083277D02*
X69738095Y38988039D01*
X69738095Y38988039D02*
X69642857Y38892800D01*
X69642857Y38892800D02*
X69500000Y38845181D01*
X69500000Y38845181D02*
X69261905Y38845181D01*
X70785714Y38845181D02*
X70214286Y38845181D01*
X70500000Y38845181D02*
X70500000Y39845181D01*
X70500000Y39845181D02*
X70404762Y39702324D01*
X70404762Y39702324D02*
X70309524Y39607086D01*
X70309524Y39607086D02*
X70214286Y39559467D01*
X6148263Y24368991D02*
X6291120Y24321372D01*
X6291120Y24321372D02*
X6338739Y24273753D01*
X6338739Y24273753D02*
X6386358Y24178515D01*
X6386358Y24178515D02*
X6386358Y24035658D01*
X6386358Y24035658D02*
X6338739Y23940420D01*
X6338739Y23940420D02*
X6291120Y23892800D01*
X6291120Y23892800D02*
X6195882Y23845181D01*
X6195882Y23845181D02*
X5814930Y23845181D01*
X5814930Y23845181D02*
X5814930Y24845181D01*
X5814930Y24845181D02*
X6148263Y24845181D01*
X6148263Y24845181D02*
X6243501Y24797562D01*
X6243501Y24797562D02*
X6291120Y24749943D01*
X6291120Y24749943D02*
X6338739Y24654705D01*
X6338739Y24654705D02*
X6338739Y24559467D01*
X6338739Y24559467D02*
X6291120Y24464229D01*
X6291120Y24464229D02*
X6243501Y24416610D01*
X6243501Y24416610D02*
X6148263Y24368991D01*
X6148263Y24368991D02*
X5814930Y24368991D01*
X6719692Y24845181D02*
X7386358Y24845181D01*
X7386358Y24845181D02*
X6719692Y23845181D01*
X6719692Y23845181D02*
X7386358Y23845181D01*
X8291120Y23845181D02*
X7719692Y23845181D01*
X8005406Y23845181D02*
X8005406Y24845181D01*
X8005406Y24845181D02*
X7910168Y24702324D01*
X7910168Y24702324D02*
X7814930Y24607086D01*
X7814930Y24607086D02*
X7719692Y24559467D01*
X69361905Y43770181D02*
X69361905Y44770181D01*
X69361905Y44770181D02*
X69600000Y44770181D01*
X69600000Y44770181D02*
X69742857Y44722562D01*
X69742857Y44722562D02*
X69838095Y44627324D01*
X69838095Y44627324D02*
X69885714Y44532086D01*
X69885714Y44532086D02*
X69933333Y44341610D01*
X69933333Y44341610D02*
X69933333Y44198753D01*
X69933333Y44198753D02*
X69885714Y44008277D01*
X69885714Y44008277D02*
X69838095Y43913039D01*
X69838095Y43913039D02*
X69742857Y43817800D01*
X69742857Y43817800D02*
X69600000Y43770181D01*
X69600000Y43770181D02*
X69361905Y43770181D01*
X70552381Y44770181D02*
X70647619Y44770181D01*
X70647619Y44770181D02*
X70742857Y44722562D01*
X70742857Y44722562D02*
X70790476Y44674943D01*
X70790476Y44674943D02*
X70838095Y44579705D01*
X70838095Y44579705D02*
X70885714Y44389229D01*
X70885714Y44389229D02*
X70885714Y44151134D01*
X70885714Y44151134D02*
X70838095Y43960658D01*
X70838095Y43960658D02*
X70790476Y43865420D01*
X70790476Y43865420D02*
X70742857Y43817800D01*
X70742857Y43817800D02*
X70647619Y43770181D01*
X70647619Y43770181D02*
X70552381Y43770181D01*
X70552381Y43770181D02*
X70457143Y43817800D01*
X70457143Y43817800D02*
X70409524Y43865420D01*
X70409524Y43865420D02*
X70361905Y43960658D01*
X70361905Y43960658D02*
X70314286Y44151134D01*
X70314286Y44151134D02*
X70314286Y44389229D01*
X70314286Y44389229D02*
X70361905Y44579705D01*
X70361905Y44579705D02*
X70409524Y44674943D01*
X70409524Y44674943D02*
X70457143Y44722562D01*
X70457143Y44722562D02*
X70552381Y44770181D01*
X86954819Y23557143D02*
X86478628Y23223810D01*
X86954819Y22985715D02*
X85954819Y22985715D01*
X85954819Y22985715D02*
X85954819Y23366667D01*
X85954819Y23366667D02*
X86002438Y23461905D01*
X86002438Y23461905D02*
X86050057Y23509524D01*
X86050057Y23509524D02*
X86145295Y23557143D01*
X86145295Y23557143D02*
X86288152Y23557143D01*
X86288152Y23557143D02*
X86383390Y23509524D01*
X86383390Y23509524D02*
X86431009Y23461905D01*
X86431009Y23461905D02*
X86478628Y23366667D01*
X86478628Y23366667D02*
X86478628Y22985715D01*
X86050057Y23938096D02*
X86002438Y23985715D01*
X86002438Y23985715D02*
X85954819Y24080953D01*
X85954819Y24080953D02*
X85954819Y24319048D01*
X85954819Y24319048D02*
X86002438Y24414286D01*
X86002438Y24414286D02*
X86050057Y24461905D01*
X86050057Y24461905D02*
X86145295Y24509524D01*
X86145295Y24509524D02*
X86240533Y24509524D01*
X86240533Y24509524D02*
X86383390Y24461905D01*
X86383390Y24461905D02*
X86954819Y23890477D01*
X86954819Y23890477D02*
X86954819Y24509524D01*
X86954819Y25461905D02*
X86954819Y24890477D01*
X86954819Y25176191D02*
X85954819Y25176191D01*
X85954819Y25176191D02*
X86097676Y25080953D01*
X86097676Y25080953D02*
X86192914Y24985715D01*
X86192914Y24985715D02*
X86240533Y24890477D01*
X69878333Y31145181D02*
X69545000Y31621372D01*
X69306905Y31145181D02*
X69306905Y32145181D01*
X69306905Y32145181D02*
X69687857Y32145181D01*
X69687857Y32145181D02*
X69783095Y32097562D01*
X69783095Y32097562D02*
X69830714Y32049943D01*
X69830714Y32049943D02*
X69878333Y31954705D01*
X69878333Y31954705D02*
X69878333Y31811848D01*
X69878333Y31811848D02*
X69830714Y31716610D01*
X69830714Y31716610D02*
X69783095Y31668991D01*
X69783095Y31668991D02*
X69687857Y31621372D01*
X69687857Y31621372D02*
X69306905Y31621372D01*
X70259286Y32049943D02*
X70306905Y32097562D01*
X70306905Y32097562D02*
X70402143Y32145181D01*
X70402143Y32145181D02*
X70640238Y32145181D01*
X70640238Y32145181D02*
X70735476Y32097562D01*
X70735476Y32097562D02*
X70783095Y32049943D01*
X70783095Y32049943D02*
X70830714Y31954705D01*
X70830714Y31954705D02*
X70830714Y31859467D01*
X70830714Y31859467D02*
X70783095Y31716610D01*
X70783095Y31716610D02*
X70211667Y31145181D01*
X70211667Y31145181D02*
X70830714Y31145181D01*
X7254819Y32557143D02*
X6778628Y32223810D01*
X7254819Y31985715D02*
X6254819Y31985715D01*
X6254819Y31985715D02*
X6254819Y32366667D01*
X6254819Y32366667D02*
X6302438Y32461905D01*
X6302438Y32461905D02*
X6350057Y32509524D01*
X6350057Y32509524D02*
X6445295Y32557143D01*
X6445295Y32557143D02*
X6588152Y32557143D01*
X6588152Y32557143D02*
X6683390Y32509524D01*
X6683390Y32509524D02*
X6731009Y32461905D01*
X6731009Y32461905D02*
X6778628Y32366667D01*
X6778628Y32366667D02*
X6778628Y31985715D01*
X6350057Y32938096D02*
X6302438Y32985715D01*
X6302438Y32985715D02*
X6254819Y33080953D01*
X6254819Y33080953D02*
X6254819Y33319048D01*
X6254819Y33319048D02*
X6302438Y33414286D01*
X6302438Y33414286D02*
X6350057Y33461905D01*
X6350057Y33461905D02*
X6445295Y33509524D01*
X6445295Y33509524D02*
X6540533Y33509524D01*
X6540533Y33509524D02*
X6683390Y33461905D01*
X6683390Y33461905D02*
X7254819Y32890477D01*
X7254819Y32890477D02*
X7254819Y33509524D01*
X6254819Y33842858D02*
X6254819Y34509524D01*
X6254819Y34509524D02*
X7254819Y34080953D01*
X33757142Y17745181D02*
X33423809Y18221372D01*
X33185714Y17745181D02*
X33185714Y18745181D01*
X33185714Y18745181D02*
X33566666Y18745181D01*
X33566666Y18745181D02*
X33661904Y18697562D01*
X33661904Y18697562D02*
X33709523Y18649943D01*
X33709523Y18649943D02*
X33757142Y18554705D01*
X33757142Y18554705D02*
X33757142Y18411848D01*
X33757142Y18411848D02*
X33709523Y18316610D01*
X33709523Y18316610D02*
X33661904Y18268991D01*
X33661904Y18268991D02*
X33566666Y18221372D01*
X33566666Y18221372D02*
X33185714Y18221372D01*
X34709523Y17745181D02*
X34138095Y17745181D01*
X34423809Y17745181D02*
X34423809Y18745181D01*
X34423809Y18745181D02*
X34328571Y18602324D01*
X34328571Y18602324D02*
X34233333Y18507086D01*
X34233333Y18507086D02*
X34138095Y18459467D01*
X35566666Y18745181D02*
X35376190Y18745181D01*
X35376190Y18745181D02*
X35280952Y18697562D01*
X35280952Y18697562D02*
X35233333Y18649943D01*
X35233333Y18649943D02*
X35138095Y18507086D01*
X35138095Y18507086D02*
X35090476Y18316610D01*
X35090476Y18316610D02*
X35090476Y17935658D01*
X35090476Y17935658D02*
X35138095Y17840420D01*
X35138095Y17840420D02*
X35185714Y17792800D01*
X35185714Y17792800D02*
X35280952Y17745181D01*
X35280952Y17745181D02*
X35471428Y17745181D01*
X35471428Y17745181D02*
X35566666Y17792800D01*
X35566666Y17792800D02*
X35614285Y17840420D01*
X35614285Y17840420D02*
X35661904Y17935658D01*
X35661904Y17935658D02*
X35661904Y18173753D01*
X35661904Y18173753D02*
X35614285Y18268991D01*
X35614285Y18268991D02*
X35566666Y18316610D01*
X35566666Y18316610D02*
X35471428Y18364229D01*
X35471428Y18364229D02*
X35280952Y18364229D01*
X35280952Y18364229D02*
X35185714Y18316610D01*
X35185714Y18316610D02*
X35138095Y18268991D01*
X35138095Y18268991D02*
X35090476Y18173753D01*
X76750057Y25704762D02*
X76702438Y25609524D01*
X76702438Y25609524D02*
X76607200Y25514286D01*
X76607200Y25514286D02*
X76464342Y25371429D01*
X76464342Y25371429D02*
X76416723Y25276191D01*
X76416723Y25276191D02*
X76416723Y25180953D01*
X76654819Y25228572D02*
X76607200Y25133334D01*
X76607200Y25133334D02*
X76511961Y25038096D01*
X76511961Y25038096D02*
X76321485Y24990477D01*
X76321485Y24990477D02*
X75988152Y24990477D01*
X75988152Y24990477D02*
X75797676Y25038096D01*
X75797676Y25038096D02*
X75702438Y25133334D01*
X75702438Y25133334D02*
X75654819Y25228572D01*
X75654819Y25228572D02*
X75654819Y25419048D01*
X75654819Y25419048D02*
X75702438Y25514286D01*
X75702438Y25514286D02*
X75797676Y25609524D01*
X75797676Y25609524D02*
X75988152Y25657143D01*
X75988152Y25657143D02*
X76321485Y25657143D01*
X76321485Y25657143D02*
X76511961Y25609524D01*
X76511961Y25609524D02*
X76607200Y25514286D01*
X76607200Y25514286D02*
X76654819Y25419048D01*
X76654819Y25419048D02*
X76654819Y25228572D01*
X75988152Y26514286D02*
X76654819Y26514286D01*
X75607200Y26276191D02*
X76321485Y26038096D01*
X76321485Y26038096D02*
X76321485Y26657143D01*
X49654819Y34590477D02*
X50369104Y34590477D01*
X50369104Y34590477D02*
X50511961Y34542858D01*
X50511961Y34542858D02*
X50607200Y34447620D01*
X50607200Y34447620D02*
X50654819Y34304763D01*
X50654819Y34304763D02*
X50654819Y34209525D01*
X50654819Y35590477D02*
X50654819Y35019049D01*
X50654819Y35304763D02*
X49654819Y35304763D01*
X49654819Y35304763D02*
X49797676Y35209525D01*
X49797676Y35209525D02*
X49892914Y35114287D01*
X49892914Y35114287D02*
X49940533Y35019049D01*
X50654819Y36542858D02*
X50654819Y35971430D01*
X50654819Y36257144D02*
X49654819Y36257144D01*
X49654819Y36257144D02*
X49797676Y36161906D01*
X49797676Y36161906D02*
X49892914Y36066668D01*
X49892914Y36066668D02*
X49940533Y35971430D01*
X86954819Y14757143D02*
X86478628Y14423810D01*
X86954819Y14185715D02*
X85954819Y14185715D01*
X85954819Y14185715D02*
X85954819Y14566667D01*
X85954819Y14566667D02*
X86002438Y14661905D01*
X86002438Y14661905D02*
X86050057Y14709524D01*
X86050057Y14709524D02*
X86145295Y14757143D01*
X86145295Y14757143D02*
X86288152Y14757143D01*
X86288152Y14757143D02*
X86383390Y14709524D01*
X86383390Y14709524D02*
X86431009Y14661905D01*
X86431009Y14661905D02*
X86478628Y14566667D01*
X86478628Y14566667D02*
X86478628Y14185715D01*
X86954819Y15709524D02*
X86954819Y15138096D01*
X86954819Y15423810D02*
X85954819Y15423810D01*
X85954819Y15423810D02*
X86097676Y15328572D01*
X86097676Y15328572D02*
X86192914Y15233334D01*
X86192914Y15233334D02*
X86240533Y15138096D01*
X85954819Y16042858D02*
X85954819Y16661905D01*
X85954819Y16661905D02*
X86335771Y16328572D01*
X86335771Y16328572D02*
X86335771Y16471429D01*
X86335771Y16471429D02*
X86383390Y16566667D01*
X86383390Y16566667D02*
X86431009Y16614286D01*
X86431009Y16614286D02*
X86526247Y16661905D01*
X86526247Y16661905D02*
X86764342Y16661905D01*
X86764342Y16661905D02*
X86859580Y16614286D01*
X86859580Y16614286D02*
X86907200Y16566667D01*
X86907200Y16566667D02*
X86954819Y16471429D01*
X86954819Y16471429D02*
X86954819Y16185715D01*
X86954819Y16185715D02*
X86907200Y16090477D01*
X86907200Y16090477D02*
X86859580Y16042858D01*
X3850057Y7628572D02*
X3802438Y7533334D01*
X3802438Y7533334D02*
X3707200Y7438096D01*
X3707200Y7438096D02*
X3564342Y7295239D01*
X3564342Y7295239D02*
X3516723Y7200001D01*
X3516723Y7200001D02*
X3516723Y7104763D01*
X3754819Y7152382D02*
X3707200Y7057144D01*
X3707200Y7057144D02*
X3611961Y6961906D01*
X3611961Y6961906D02*
X3421485Y6914287D01*
X3421485Y6914287D02*
X3088152Y6914287D01*
X3088152Y6914287D02*
X2897676Y6961906D01*
X2897676Y6961906D02*
X2802438Y7057144D01*
X2802438Y7057144D02*
X2754819Y7152382D01*
X2754819Y7152382D02*
X2754819Y7342858D01*
X2754819Y7342858D02*
X2802438Y7438096D01*
X2802438Y7438096D02*
X2897676Y7533334D01*
X2897676Y7533334D02*
X3088152Y7580953D01*
X3088152Y7580953D02*
X3421485Y7580953D01*
X3421485Y7580953D02*
X3611961Y7533334D01*
X3611961Y7533334D02*
X3707200Y7438096D01*
X3707200Y7438096D02*
X3754819Y7342858D01*
X3754819Y7342858D02*
X3754819Y7152382D01*
X3754819Y8533334D02*
X3754819Y7961906D01*
X3754819Y8247620D02*
X2754819Y8247620D01*
X2754819Y8247620D02*
X2897676Y8152382D01*
X2897676Y8152382D02*
X2992914Y8057144D01*
X2992914Y8057144D02*
X3040533Y7961906D01*
X2754819Y9152382D02*
X2754819Y9247620D01*
X2754819Y9247620D02*
X2802438Y9342858D01*
X2802438Y9342858D02*
X2850057Y9390477D01*
X2850057Y9390477D02*
X2945295Y9438096D01*
X2945295Y9438096D02*
X3135771Y9485715D01*
X3135771Y9485715D02*
X3373866Y9485715D01*
X3373866Y9485715D02*
X3564342Y9438096D01*
X3564342Y9438096D02*
X3659580Y9390477D01*
X3659580Y9390477D02*
X3707200Y9342858D01*
X3707200Y9342858D02*
X3754819Y9247620D01*
X3754819Y9247620D02*
X3754819Y9152382D01*
X3754819Y9152382D02*
X3707200Y9057144D01*
X3707200Y9057144D02*
X3659580Y9009525D01*
X3659580Y9009525D02*
X3564342Y8961906D01*
X3564342Y8961906D02*
X3373866Y8914287D01*
X3373866Y8914287D02*
X3135771Y8914287D01*
X3135771Y8914287D02*
X2945295Y8961906D01*
X2945295Y8961906D02*
X2850057Y9009525D01*
X2850057Y9009525D02*
X2802438Y9057144D01*
X2802438Y9057144D02*
X2754819Y9152382D01*
X86954819Y19157143D02*
X86478628Y18823810D01*
X86954819Y18585715D02*
X85954819Y18585715D01*
X85954819Y18585715D02*
X85954819Y18966667D01*
X85954819Y18966667D02*
X86002438Y19061905D01*
X86002438Y19061905D02*
X86050057Y19109524D01*
X86050057Y19109524D02*
X86145295Y19157143D01*
X86145295Y19157143D02*
X86288152Y19157143D01*
X86288152Y19157143D02*
X86383390Y19109524D01*
X86383390Y19109524D02*
X86431009Y19061905D01*
X86431009Y19061905D02*
X86478628Y18966667D01*
X86478628Y18966667D02*
X86478628Y18585715D01*
X86954819Y20109524D02*
X86954819Y19538096D01*
X86954819Y19823810D02*
X85954819Y19823810D01*
X85954819Y19823810D02*
X86097676Y19728572D01*
X86097676Y19728572D02*
X86192914Y19633334D01*
X86192914Y19633334D02*
X86240533Y19538096D01*
X86383390Y20680953D02*
X86335771Y20585715D01*
X86335771Y20585715D02*
X86288152Y20538096D01*
X86288152Y20538096D02*
X86192914Y20490477D01*
X86192914Y20490477D02*
X86145295Y20490477D01*
X86145295Y20490477D02*
X86050057Y20538096D01*
X86050057Y20538096D02*
X86002438Y20585715D01*
X86002438Y20585715D02*
X85954819Y20680953D01*
X85954819Y20680953D02*
X85954819Y20871429D01*
X85954819Y20871429D02*
X86002438Y20966667D01*
X86002438Y20966667D02*
X86050057Y21014286D01*
X86050057Y21014286D02*
X86145295Y21061905D01*
X86145295Y21061905D02*
X86192914Y21061905D01*
X86192914Y21061905D02*
X86288152Y21014286D01*
X86288152Y21014286D02*
X86335771Y20966667D01*
X86335771Y20966667D02*
X86383390Y20871429D01*
X86383390Y20871429D02*
X86383390Y20680953D01*
X86383390Y20680953D02*
X86431009Y20585715D01*
X86431009Y20585715D02*
X86478628Y20538096D01*
X86478628Y20538096D02*
X86573866Y20490477D01*
X86573866Y20490477D02*
X86764342Y20490477D01*
X86764342Y20490477D02*
X86859580Y20538096D01*
X86859580Y20538096D02*
X86907200Y20585715D01*
X86907200Y20585715D02*
X86954819Y20680953D01*
X86954819Y20680953D02*
X86954819Y20871429D01*
X86954819Y20871429D02*
X86907200Y20966667D01*
X86907200Y20966667D02*
X86859580Y21014286D01*
X86859580Y21014286D02*
X86764342Y21061905D01*
X86764342Y21061905D02*
X86573866Y21061905D01*
X86573866Y21061905D02*
X86478628Y21014286D01*
X86478628Y21014286D02*
X86431009Y20966667D01*
X86431009Y20966667D02*
X86383390Y20871429D01*
X10157142Y12345181D02*
X9823809Y12821372D01*
X9585714Y12345181D02*
X9585714Y13345181D01*
X9585714Y13345181D02*
X9966666Y13345181D01*
X9966666Y13345181D02*
X10061904Y13297562D01*
X10061904Y13297562D02*
X10109523Y13249943D01*
X10109523Y13249943D02*
X10157142Y13154705D01*
X10157142Y13154705D02*
X10157142Y13011848D01*
X10157142Y13011848D02*
X10109523Y12916610D01*
X10109523Y12916610D02*
X10061904Y12868991D01*
X10061904Y12868991D02*
X9966666Y12821372D01*
X9966666Y12821372D02*
X9585714Y12821372D01*
X10538095Y13249943D02*
X10585714Y13297562D01*
X10585714Y13297562D02*
X10680952Y13345181D01*
X10680952Y13345181D02*
X10919047Y13345181D01*
X10919047Y13345181D02*
X11014285Y13297562D01*
X11014285Y13297562D02*
X11061904Y13249943D01*
X11061904Y13249943D02*
X11109523Y13154705D01*
X11109523Y13154705D02*
X11109523Y13059467D01*
X11109523Y13059467D02*
X11061904Y12916610D01*
X11061904Y12916610D02*
X10490476Y12345181D01*
X10490476Y12345181D02*
X11109523Y12345181D01*
X11585714Y12345181D02*
X11776190Y12345181D01*
X11776190Y12345181D02*
X11871428Y12392800D01*
X11871428Y12392800D02*
X11919047Y12440420D01*
X11919047Y12440420D02*
X12014285Y12583277D01*
X12014285Y12583277D02*
X12061904Y12773753D01*
X12061904Y12773753D02*
X12061904Y13154705D01*
X12061904Y13154705D02*
X12014285Y13249943D01*
X12014285Y13249943D02*
X11966666Y13297562D01*
X11966666Y13297562D02*
X11871428Y13345181D01*
X11871428Y13345181D02*
X11680952Y13345181D01*
X11680952Y13345181D02*
X11585714Y13297562D01*
X11585714Y13297562D02*
X11538095Y13249943D01*
X11538095Y13249943D02*
X11490476Y13154705D01*
X11490476Y13154705D02*
X11490476Y12916610D01*
X11490476Y12916610D02*
X11538095Y12821372D01*
X11538095Y12821372D02*
X11585714Y12773753D01*
X11585714Y12773753D02*
X11680952Y12726134D01*
X11680952Y12726134D02*
X11871428Y12726134D01*
X11871428Y12726134D02*
X11966666Y12773753D01*
X11966666Y12773753D02*
X12014285Y12821372D01*
X12014285Y12821372D02*
X12061904Y12916610D01*
X16895199Y9616668D02*
X16942818Y9759525D01*
X16942818Y9759525D02*
X16942818Y9997620D01*
X16942818Y9997620D02*
X16895199Y10092858D01*
X16895199Y10092858D02*
X16847579Y10140477D01*
X16847579Y10140477D02*
X16752341Y10188096D01*
X16752341Y10188096D02*
X16657103Y10188096D01*
X16657103Y10188096D02*
X16561865Y10140477D01*
X16561865Y10140477D02*
X16514246Y10092858D01*
X16514246Y10092858D02*
X16466627Y9997620D01*
X16466627Y9997620D02*
X16419008Y9807144D01*
X16419008Y9807144D02*
X16371389Y9711906D01*
X16371389Y9711906D02*
X16323770Y9664287D01*
X16323770Y9664287D02*
X16228532Y9616668D01*
X16228532Y9616668D02*
X16133294Y9616668D01*
X16133294Y9616668D02*
X16038056Y9664287D01*
X16038056Y9664287D02*
X15990437Y9711906D01*
X15990437Y9711906D02*
X15942818Y9807144D01*
X15942818Y9807144D02*
X15942818Y10045239D01*
X15942818Y10045239D02*
X15990437Y10188096D01*
X15942818Y10521430D02*
X16942818Y10759525D01*
X16942818Y10759525D02*
X16228532Y10950001D01*
X16228532Y10950001D02*
X16942818Y11140477D01*
X16942818Y11140477D02*
X15942818Y11378572D01*
X16276151Y12188096D02*
X16942818Y12188096D01*
X15895199Y11950001D02*
X16609484Y11711906D01*
X16609484Y11711906D02*
X16609484Y12330953D01*
X86954819Y42057143D02*
X86478628Y41723810D01*
X86954819Y41485715D02*
X85954819Y41485715D01*
X85954819Y41485715D02*
X85954819Y41866667D01*
X85954819Y41866667D02*
X86002438Y41961905D01*
X86002438Y41961905D02*
X86050057Y42009524D01*
X86050057Y42009524D02*
X86145295Y42057143D01*
X86145295Y42057143D02*
X86288152Y42057143D01*
X86288152Y42057143D02*
X86383390Y42009524D01*
X86383390Y42009524D02*
X86431009Y41961905D01*
X86431009Y41961905D02*
X86478628Y41866667D01*
X86478628Y41866667D02*
X86478628Y41485715D01*
X85954819Y42390477D02*
X85954819Y43009524D01*
X85954819Y43009524D02*
X86335771Y42676191D01*
X86335771Y42676191D02*
X86335771Y42819048D01*
X86335771Y42819048D02*
X86383390Y42914286D01*
X86383390Y42914286D02*
X86431009Y42961905D01*
X86431009Y42961905D02*
X86526247Y43009524D01*
X86526247Y43009524D02*
X86764342Y43009524D01*
X86764342Y43009524D02*
X86859580Y42961905D01*
X86859580Y42961905D02*
X86907200Y42914286D01*
X86907200Y42914286D02*
X86954819Y42819048D01*
X86954819Y42819048D02*
X86954819Y42533334D01*
X86954819Y42533334D02*
X86907200Y42438096D01*
X86907200Y42438096D02*
X86859580Y42390477D01*
X85954819Y43628572D02*
X85954819Y43723810D01*
X85954819Y43723810D02*
X86002438Y43819048D01*
X86002438Y43819048D02*
X86050057Y43866667D01*
X86050057Y43866667D02*
X86145295Y43914286D01*
X86145295Y43914286D02*
X86335771Y43961905D01*
X86335771Y43961905D02*
X86573866Y43961905D01*
X86573866Y43961905D02*
X86764342Y43914286D01*
X86764342Y43914286D02*
X86859580Y43866667D01*
X86859580Y43866667D02*
X86907200Y43819048D01*
X86907200Y43819048D02*
X86954819Y43723810D01*
X86954819Y43723810D02*
X86954819Y43628572D01*
X86954819Y43628572D02*
X86907200Y43533334D01*
X86907200Y43533334D02*
X86859580Y43485715D01*
X86859580Y43485715D02*
X86764342Y43438096D01*
X86764342Y43438096D02*
X86573866Y43390477D01*
X86573866Y43390477D02*
X86335771Y43390477D01*
X86335771Y43390477D02*
X86145295Y43438096D01*
X86145295Y43438096D02*
X86050057Y43485715D01*
X86050057Y43485715D02*
X86002438Y43533334D01*
X86002438Y43533334D02*
X85954819Y43628572D01*
X49654819Y41390477D02*
X50369104Y41390477D01*
X50369104Y41390477D02*
X50511961Y41342858D01*
X50511961Y41342858D02*
X50607200Y41247620D01*
X50607200Y41247620D02*
X50654819Y41104763D01*
X50654819Y41104763D02*
X50654819Y41009525D01*
X50654819Y42390477D02*
X50654819Y41819049D01*
X50654819Y42104763D02*
X49654819Y42104763D01*
X49654819Y42104763D02*
X49797676Y42009525D01*
X49797676Y42009525D02*
X49892914Y41914287D01*
X49892914Y41914287D02*
X49940533Y41819049D01*
X49654819Y43009525D02*
X49654819Y43104763D01*
X49654819Y43104763D02*
X49702438Y43200001D01*
X49702438Y43200001D02*
X49750057Y43247620D01*
X49750057Y43247620D02*
X49845295Y43295239D01*
X49845295Y43295239D02*
X50035771Y43342858D01*
X50035771Y43342858D02*
X50273866Y43342858D01*
X50273866Y43342858D02*
X50464342Y43295239D01*
X50464342Y43295239D02*
X50559580Y43247620D01*
X50559580Y43247620D02*
X50607200Y43200001D01*
X50607200Y43200001D02*
X50654819Y43104763D01*
X50654819Y43104763D02*
X50654819Y43009525D01*
X50654819Y43009525D02*
X50607200Y42914287D01*
X50607200Y42914287D02*
X50559580Y42866668D01*
X50559580Y42866668D02*
X50464342Y42819049D01*
X50464342Y42819049D02*
X50273866Y42771430D01*
X50273866Y42771430D02*
X50035771Y42771430D01*
X50035771Y42771430D02*
X49845295Y42819049D01*
X49845295Y42819049D02*
X49750057Y42866668D01*
X49750057Y42866668D02*
X49702438Y42914287D01*
X49702438Y42914287D02*
X49654819Y43009525D01*
X14150057Y29904762D02*
X14102438Y29809524D01*
X14102438Y29809524D02*
X14007200Y29714286D01*
X14007200Y29714286D02*
X13864342Y29571429D01*
X13864342Y29571429D02*
X13816723Y29476191D01*
X13816723Y29476191D02*
X13816723Y29380953D01*
X14054819Y29428572D02*
X14007200Y29333334D01*
X14007200Y29333334D02*
X13911961Y29238096D01*
X13911961Y29238096D02*
X13721485Y29190477D01*
X13721485Y29190477D02*
X13388152Y29190477D01*
X13388152Y29190477D02*
X13197676Y29238096D01*
X13197676Y29238096D02*
X13102438Y29333334D01*
X13102438Y29333334D02*
X13054819Y29428572D01*
X13054819Y29428572D02*
X13054819Y29619048D01*
X13054819Y29619048D02*
X13102438Y29714286D01*
X13102438Y29714286D02*
X13197676Y29809524D01*
X13197676Y29809524D02*
X13388152Y29857143D01*
X13388152Y29857143D02*
X13721485Y29857143D01*
X13721485Y29857143D02*
X13911961Y29809524D01*
X13911961Y29809524D02*
X14007200Y29714286D01*
X14007200Y29714286D02*
X14054819Y29619048D01*
X14054819Y29619048D02*
X14054819Y29428572D01*
X14054819Y30333334D02*
X14054819Y30523810D01*
X14054819Y30523810D02*
X14007200Y30619048D01*
X14007200Y30619048D02*
X13959580Y30666667D01*
X13959580Y30666667D02*
X13816723Y30761905D01*
X13816723Y30761905D02*
X13626247Y30809524D01*
X13626247Y30809524D02*
X13245295Y30809524D01*
X13245295Y30809524D02*
X13150057Y30761905D01*
X13150057Y30761905D02*
X13102438Y30714286D01*
X13102438Y30714286D02*
X13054819Y30619048D01*
X13054819Y30619048D02*
X13054819Y30428572D01*
X13054819Y30428572D02*
X13102438Y30333334D01*
X13102438Y30333334D02*
X13150057Y30285715D01*
X13150057Y30285715D02*
X13245295Y30238096D01*
X13245295Y30238096D02*
X13483390Y30238096D01*
X13483390Y30238096D02*
X13578628Y30285715D01*
X13578628Y30285715D02*
X13626247Y30333334D01*
X13626247Y30333334D02*
X13673866Y30428572D01*
X13673866Y30428572D02*
X13673866Y30619048D01*
X13673866Y30619048D02*
X13626247Y30714286D01*
X13626247Y30714286D02*
X13578628Y30761905D01*
X13578628Y30761905D02*
X13483390Y30809524D01*
X7054819Y43757143D02*
X6578628Y43423810D01*
X7054819Y43185715D02*
X6054819Y43185715D01*
X6054819Y43185715D02*
X6054819Y43566667D01*
X6054819Y43566667D02*
X6102438Y43661905D01*
X6102438Y43661905D02*
X6150057Y43709524D01*
X6150057Y43709524D02*
X6245295Y43757143D01*
X6245295Y43757143D02*
X6388152Y43757143D01*
X6388152Y43757143D02*
X6483390Y43709524D01*
X6483390Y43709524D02*
X6531009Y43661905D01*
X6531009Y43661905D02*
X6578628Y43566667D01*
X6578628Y43566667D02*
X6578628Y43185715D01*
X6150057Y44138096D02*
X6102438Y44185715D01*
X6102438Y44185715D02*
X6054819Y44280953D01*
X6054819Y44280953D02*
X6054819Y44519048D01*
X6054819Y44519048D02*
X6102438Y44614286D01*
X6102438Y44614286D02*
X6150057Y44661905D01*
X6150057Y44661905D02*
X6245295Y44709524D01*
X6245295Y44709524D02*
X6340533Y44709524D01*
X6340533Y44709524D02*
X6483390Y44661905D01*
X6483390Y44661905D02*
X7054819Y44090477D01*
X7054819Y44090477D02*
X7054819Y44709524D01*
X6388152Y45566667D02*
X7054819Y45566667D01*
X6007200Y45328572D02*
X6721485Y45090477D01*
X6721485Y45090477D02*
X6721485Y45709524D01*
X86954819Y10157143D02*
X86478628Y9823810D01*
X86954819Y9585715D02*
X85954819Y9585715D01*
X85954819Y9585715D02*
X85954819Y9966667D01*
X85954819Y9966667D02*
X86002438Y10061905D01*
X86002438Y10061905D02*
X86050057Y10109524D01*
X86050057Y10109524D02*
X86145295Y10157143D01*
X86145295Y10157143D02*
X86288152Y10157143D01*
X86288152Y10157143D02*
X86383390Y10109524D01*
X86383390Y10109524D02*
X86431009Y10061905D01*
X86431009Y10061905D02*
X86478628Y9966667D01*
X86478628Y9966667D02*
X86478628Y9585715D01*
X86954819Y11109524D02*
X86954819Y10538096D01*
X86954819Y10823810D02*
X85954819Y10823810D01*
X85954819Y10823810D02*
X86097676Y10728572D01*
X86097676Y10728572D02*
X86192914Y10633334D01*
X86192914Y10633334D02*
X86240533Y10538096D01*
X85954819Y11728572D02*
X85954819Y11823810D01*
X85954819Y11823810D02*
X86002438Y11919048D01*
X86002438Y11919048D02*
X86050057Y11966667D01*
X86050057Y11966667D02*
X86145295Y12014286D01*
X86145295Y12014286D02*
X86335771Y12061905D01*
X86335771Y12061905D02*
X86573866Y12061905D01*
X86573866Y12061905D02*
X86764342Y12014286D01*
X86764342Y12014286D02*
X86859580Y11966667D01*
X86859580Y11966667D02*
X86907200Y11919048D01*
X86907200Y11919048D02*
X86954819Y11823810D01*
X86954819Y11823810D02*
X86954819Y11728572D01*
X86954819Y11728572D02*
X86907200Y11633334D01*
X86907200Y11633334D02*
X86859580Y11585715D01*
X86859580Y11585715D02*
X86764342Y11538096D01*
X86764342Y11538096D02*
X86573866Y11490477D01*
X86573866Y11490477D02*
X86335771Y11490477D01*
X86335771Y11490477D02*
X86145295Y11538096D01*
X86145295Y11538096D02*
X86050057Y11585715D01*
X86050057Y11585715D02*
X86002438Y11633334D01*
X86002438Y11633334D02*
X85954819Y11728572D01*
X14150057Y39904762D02*
X14102438Y39809524D01*
X14102438Y39809524D02*
X14007200Y39714286D01*
X14007200Y39714286D02*
X13864342Y39571429D01*
X13864342Y39571429D02*
X13816723Y39476191D01*
X13816723Y39476191D02*
X13816723Y39380953D01*
X14054819Y39428572D02*
X14007200Y39333334D01*
X14007200Y39333334D02*
X13911961Y39238096D01*
X13911961Y39238096D02*
X13721485Y39190477D01*
X13721485Y39190477D02*
X13388152Y39190477D01*
X13388152Y39190477D02*
X13197676Y39238096D01*
X13197676Y39238096D02*
X13102438Y39333334D01*
X13102438Y39333334D02*
X13054819Y39428572D01*
X13054819Y39428572D02*
X13054819Y39619048D01*
X13054819Y39619048D02*
X13102438Y39714286D01*
X13102438Y39714286D02*
X13197676Y39809524D01*
X13197676Y39809524D02*
X13388152Y39857143D01*
X13388152Y39857143D02*
X13721485Y39857143D01*
X13721485Y39857143D02*
X13911961Y39809524D01*
X13911961Y39809524D02*
X14007200Y39714286D01*
X14007200Y39714286D02*
X14054819Y39619048D01*
X14054819Y39619048D02*
X14054819Y39428572D01*
X13483390Y40428572D02*
X13435771Y40333334D01*
X13435771Y40333334D02*
X13388152Y40285715D01*
X13388152Y40285715D02*
X13292914Y40238096D01*
X13292914Y40238096D02*
X13245295Y40238096D01*
X13245295Y40238096D02*
X13150057Y40285715D01*
X13150057Y40285715D02*
X13102438Y40333334D01*
X13102438Y40333334D02*
X13054819Y40428572D01*
X13054819Y40428572D02*
X13054819Y40619048D01*
X13054819Y40619048D02*
X13102438Y40714286D01*
X13102438Y40714286D02*
X13150057Y40761905D01*
X13150057Y40761905D02*
X13245295Y40809524D01*
X13245295Y40809524D02*
X13292914Y40809524D01*
X13292914Y40809524D02*
X13388152Y40761905D01*
X13388152Y40761905D02*
X13435771Y40714286D01*
X13435771Y40714286D02*
X13483390Y40619048D01*
X13483390Y40619048D02*
X13483390Y40428572D01*
X13483390Y40428572D02*
X13531009Y40333334D01*
X13531009Y40333334D02*
X13578628Y40285715D01*
X13578628Y40285715D02*
X13673866Y40238096D01*
X13673866Y40238096D02*
X13864342Y40238096D01*
X13864342Y40238096D02*
X13959580Y40285715D01*
X13959580Y40285715D02*
X14007200Y40333334D01*
X14007200Y40333334D02*
X14054819Y40428572D01*
X14054819Y40428572D02*
X14054819Y40619048D01*
X14054819Y40619048D02*
X14007200Y40714286D01*
X14007200Y40714286D02*
X13959580Y40761905D01*
X13959580Y40761905D02*
X13864342Y40809524D01*
X13864342Y40809524D02*
X13673866Y40809524D01*
X13673866Y40809524D02*
X13578628Y40761905D01*
X13578628Y40761905D02*
X13531009Y40714286D01*
X13531009Y40714286D02*
X13483390Y40619048D01*
X76750057Y16504762D02*
X76702438Y16409524D01*
X76702438Y16409524D02*
X76607200Y16314286D01*
X76607200Y16314286D02*
X76464342Y16171429D01*
X76464342Y16171429D02*
X76416723Y16076191D01*
X76416723Y16076191D02*
X76416723Y15980953D01*
X76654819Y16028572D02*
X76607200Y15933334D01*
X76607200Y15933334D02*
X76511961Y15838096D01*
X76511961Y15838096D02*
X76321485Y15790477D01*
X76321485Y15790477D02*
X75988152Y15790477D01*
X75988152Y15790477D02*
X75797676Y15838096D01*
X75797676Y15838096D02*
X75702438Y15933334D01*
X75702438Y15933334D02*
X75654819Y16028572D01*
X75654819Y16028572D02*
X75654819Y16219048D01*
X75654819Y16219048D02*
X75702438Y16314286D01*
X75702438Y16314286D02*
X75797676Y16409524D01*
X75797676Y16409524D02*
X75988152Y16457143D01*
X75988152Y16457143D02*
X76321485Y16457143D01*
X76321485Y16457143D02*
X76511961Y16409524D01*
X76511961Y16409524D02*
X76607200Y16314286D01*
X76607200Y16314286D02*
X76654819Y16219048D01*
X76654819Y16219048D02*
X76654819Y16028572D01*
X75654819Y17314286D02*
X75654819Y17123810D01*
X75654819Y17123810D02*
X75702438Y17028572D01*
X75702438Y17028572D02*
X75750057Y16980953D01*
X75750057Y16980953D02*
X75892914Y16885715D01*
X75892914Y16885715D02*
X76083390Y16838096D01*
X76083390Y16838096D02*
X76464342Y16838096D01*
X76464342Y16838096D02*
X76559580Y16885715D01*
X76559580Y16885715D02*
X76607200Y16933334D01*
X76607200Y16933334D02*
X76654819Y17028572D01*
X76654819Y17028572D02*
X76654819Y17219048D01*
X76654819Y17219048D02*
X76607200Y17314286D01*
X76607200Y17314286D02*
X76559580Y17361905D01*
X76559580Y17361905D02*
X76464342Y17409524D01*
X76464342Y17409524D02*
X76226247Y17409524D01*
X76226247Y17409524D02*
X76131009Y17361905D01*
X76131009Y17361905D02*
X76083390Y17314286D01*
X76083390Y17314286D02*
X76035771Y17219048D01*
X76035771Y17219048D02*
X76035771Y17028572D01*
X76035771Y17028572D02*
X76083390Y16933334D01*
X76083390Y16933334D02*
X76131009Y16885715D01*
X76131009Y16885715D02*
X76226247Y16838096D01*
X76750057Y11904762D02*
X76702438Y11809524D01*
X76702438Y11809524D02*
X76607200Y11714286D01*
X76607200Y11714286D02*
X76464342Y11571429D01*
X76464342Y11571429D02*
X76416723Y11476191D01*
X76416723Y11476191D02*
X76416723Y11380953D01*
X76654819Y11428572D02*
X76607200Y11333334D01*
X76607200Y11333334D02*
X76511961Y11238096D01*
X76511961Y11238096D02*
X76321485Y11190477D01*
X76321485Y11190477D02*
X75988152Y11190477D01*
X75988152Y11190477D02*
X75797676Y11238096D01*
X75797676Y11238096D02*
X75702438Y11333334D01*
X75702438Y11333334D02*
X75654819Y11428572D01*
X75654819Y11428572D02*
X75654819Y11619048D01*
X75654819Y11619048D02*
X75702438Y11714286D01*
X75702438Y11714286D02*
X75797676Y11809524D01*
X75797676Y11809524D02*
X75988152Y11857143D01*
X75988152Y11857143D02*
X76321485Y11857143D01*
X76321485Y11857143D02*
X76511961Y11809524D01*
X76511961Y11809524D02*
X76607200Y11714286D01*
X76607200Y11714286D02*
X76654819Y11619048D01*
X76654819Y11619048D02*
X76654819Y11428572D01*
X75654819Y12190477D02*
X75654819Y12857143D01*
X75654819Y12857143D02*
X76654819Y12428572D01*
X46654819Y41757143D02*
X46178628Y41423810D01*
X46654819Y41185715D02*
X45654819Y41185715D01*
X45654819Y41185715D02*
X45654819Y41566667D01*
X45654819Y41566667D02*
X45702438Y41661905D01*
X45702438Y41661905D02*
X45750057Y41709524D01*
X45750057Y41709524D02*
X45845295Y41757143D01*
X45845295Y41757143D02*
X45988152Y41757143D01*
X45988152Y41757143D02*
X46083390Y41709524D01*
X46083390Y41709524D02*
X46131009Y41661905D01*
X46131009Y41661905D02*
X46178628Y41566667D01*
X46178628Y41566667D02*
X46178628Y41185715D01*
X46654819Y42709524D02*
X46654819Y42138096D01*
X46654819Y42423810D02*
X45654819Y42423810D01*
X45654819Y42423810D02*
X45797676Y42328572D01*
X45797676Y42328572D02*
X45892914Y42233334D01*
X45892914Y42233334D02*
X45940533Y42138096D01*
X45654819Y43614286D02*
X45654819Y43138096D01*
X45654819Y43138096D02*
X46131009Y43090477D01*
X46131009Y43090477D02*
X46083390Y43138096D01*
X46083390Y43138096D02*
X46035771Y43233334D01*
X46035771Y43233334D02*
X46035771Y43471429D01*
X46035771Y43471429D02*
X46083390Y43566667D01*
X46083390Y43566667D02*
X46131009Y43614286D01*
X46131009Y43614286D02*
X46226247Y43661905D01*
X46226247Y43661905D02*
X46464342Y43661905D01*
X46464342Y43661905D02*
X46559580Y43614286D01*
X46559580Y43614286D02*
X46607200Y43566667D01*
X46607200Y43566667D02*
X46654819Y43471429D01*
X46654819Y43471429D02*
X46654819Y43233334D01*
X46654819Y43233334D02*
X46607200Y43138096D01*
X46607200Y43138096D02*
X46559580Y43090477D01*
X80548333Y7505181D02*
X80215000Y7981372D01*
X79976905Y7505181D02*
X79976905Y8505181D01*
X79976905Y8505181D02*
X80357857Y8505181D01*
X80357857Y8505181D02*
X80453095Y8457562D01*
X80453095Y8457562D02*
X80500714Y8409943D01*
X80500714Y8409943D02*
X80548333Y8314705D01*
X80548333Y8314705D02*
X80548333Y8171848D01*
X80548333Y8171848D02*
X80500714Y8076610D01*
X80500714Y8076610D02*
X80453095Y8028991D01*
X80453095Y8028991D02*
X80357857Y7981372D01*
X80357857Y7981372D02*
X79976905Y7981372D01*
X80881667Y8505181D02*
X81548333Y8505181D01*
X81548333Y8505181D02*
X81119762Y7505181D01*
X49854819Y20666667D02*
X50569104Y20666667D01*
X50569104Y20666667D02*
X50711961Y20619048D01*
X50711961Y20619048D02*
X50807200Y20523810D01*
X50807200Y20523810D02*
X50854819Y20380953D01*
X50854819Y20380953D02*
X50854819Y20285715D01*
X50854819Y21190477D02*
X50854819Y21380953D01*
X50854819Y21380953D02*
X50807200Y21476191D01*
X50807200Y21476191D02*
X50759580Y21523810D01*
X50759580Y21523810D02*
X50616723Y21619048D01*
X50616723Y21619048D02*
X50426247Y21666667D01*
X50426247Y21666667D02*
X50045295Y21666667D01*
X50045295Y21666667D02*
X49950057Y21619048D01*
X49950057Y21619048D02*
X49902438Y21571429D01*
X49902438Y21571429D02*
X49854819Y21476191D01*
X49854819Y21476191D02*
X49854819Y21285715D01*
X49854819Y21285715D02*
X49902438Y21190477D01*
X49902438Y21190477D02*
X49950057Y21142858D01*
X49950057Y21142858D02*
X50045295Y21095239D01*
X50045295Y21095239D02*
X50283390Y21095239D01*
X50283390Y21095239D02*
X50378628Y21142858D01*
X50378628Y21142858D02*
X50426247Y21190477D01*
X50426247Y21190477D02*
X50473866Y21285715D01*
X50473866Y21285715D02*
X50473866Y21476191D01*
X50473866Y21476191D02*
X50426247Y21571429D01*
X50426247Y21571429D02*
X50378628Y21619048D01*
X50378628Y21619048D02*
X50283390Y21666667D01*
X10157142Y36145181D02*
X9823809Y36621372D01*
X9585714Y36145181D02*
X9585714Y37145181D01*
X9585714Y37145181D02*
X9966666Y37145181D01*
X9966666Y37145181D02*
X10061904Y37097562D01*
X10061904Y37097562D02*
X10109523Y37049943D01*
X10109523Y37049943D02*
X10157142Y36954705D01*
X10157142Y36954705D02*
X10157142Y36811848D01*
X10157142Y36811848D02*
X10109523Y36716610D01*
X10109523Y36716610D02*
X10061904Y36668991D01*
X10061904Y36668991D02*
X9966666Y36621372D01*
X9966666Y36621372D02*
X9585714Y36621372D01*
X10538095Y37049943D02*
X10585714Y37097562D01*
X10585714Y37097562D02*
X10680952Y37145181D01*
X10680952Y37145181D02*
X10919047Y37145181D01*
X10919047Y37145181D02*
X11014285Y37097562D01*
X11014285Y37097562D02*
X11061904Y37049943D01*
X11061904Y37049943D02*
X11109523Y36954705D01*
X11109523Y36954705D02*
X11109523Y36859467D01*
X11109523Y36859467D02*
X11061904Y36716610D01*
X11061904Y36716610D02*
X10490476Y36145181D01*
X10490476Y36145181D02*
X11109523Y36145181D01*
X11966666Y37145181D02*
X11776190Y37145181D01*
X11776190Y37145181D02*
X11680952Y37097562D01*
X11680952Y37097562D02*
X11633333Y37049943D01*
X11633333Y37049943D02*
X11538095Y36907086D01*
X11538095Y36907086D02*
X11490476Y36716610D01*
X11490476Y36716610D02*
X11490476Y36335658D01*
X11490476Y36335658D02*
X11538095Y36240420D01*
X11538095Y36240420D02*
X11585714Y36192800D01*
X11585714Y36192800D02*
X11680952Y36145181D01*
X11680952Y36145181D02*
X11871428Y36145181D01*
X11871428Y36145181D02*
X11966666Y36192800D01*
X11966666Y36192800D02*
X12014285Y36240420D01*
X12014285Y36240420D02*
X12061904Y36335658D01*
X12061904Y36335658D02*
X12061904Y36573753D01*
X12061904Y36573753D02*
X12014285Y36668991D01*
X12014285Y36668991D02*
X11966666Y36716610D01*
X11966666Y36716610D02*
X11871428Y36764229D01*
X11871428Y36764229D02*
X11680952Y36764229D01*
X11680952Y36764229D02*
X11585714Y36716610D01*
X11585714Y36716610D02*
X11538095Y36668991D01*
X11538095Y36668991D02*
X11490476Y36573753D01*
X17166278Y40716668D02*
X17213897Y40859525D01*
X17213897Y40859525D02*
X17213897Y41097620D01*
X17213897Y41097620D02*
X17166278Y41192858D01*
X17166278Y41192858D02*
X17118658Y41240477D01*
X17118658Y41240477D02*
X17023420Y41288096D01*
X17023420Y41288096D02*
X16928182Y41288096D01*
X16928182Y41288096D02*
X16832944Y41240477D01*
X16832944Y41240477D02*
X16785325Y41192858D01*
X16785325Y41192858D02*
X16737706Y41097620D01*
X16737706Y41097620D02*
X16690087Y40907144D01*
X16690087Y40907144D02*
X16642468Y40811906D01*
X16642468Y40811906D02*
X16594849Y40764287D01*
X16594849Y40764287D02*
X16499611Y40716668D01*
X16499611Y40716668D02*
X16404373Y40716668D01*
X16404373Y40716668D02*
X16309135Y40764287D01*
X16309135Y40764287D02*
X16261516Y40811906D01*
X16261516Y40811906D02*
X16213897Y40907144D01*
X16213897Y40907144D02*
X16213897Y41145239D01*
X16213897Y41145239D02*
X16261516Y41288096D01*
X16213897Y41621430D02*
X17213897Y41859525D01*
X17213897Y41859525D02*
X16499611Y42050001D01*
X16499611Y42050001D02*
X17213897Y42240477D01*
X17213897Y42240477D02*
X16213897Y42478572D01*
X17213897Y43383334D02*
X17213897Y42811906D01*
X17213897Y43097620D02*
X16213897Y43097620D01*
X16213897Y43097620D02*
X16356754Y43002382D01*
X16356754Y43002382D02*
X16451992Y42907144D01*
X16451992Y42907144D02*
X16499611Y42811906D01*
X33757142Y10545181D02*
X33423809Y11021372D01*
X33185714Y10545181D02*
X33185714Y11545181D01*
X33185714Y11545181D02*
X33566666Y11545181D01*
X33566666Y11545181D02*
X33661904Y11497562D01*
X33661904Y11497562D02*
X33709523Y11449943D01*
X33709523Y11449943D02*
X33757142Y11354705D01*
X33757142Y11354705D02*
X33757142Y11211848D01*
X33757142Y11211848D02*
X33709523Y11116610D01*
X33709523Y11116610D02*
X33661904Y11068991D01*
X33661904Y11068991D02*
X33566666Y11021372D01*
X33566666Y11021372D02*
X33185714Y11021372D01*
X34138095Y11449943D02*
X34185714Y11497562D01*
X34185714Y11497562D02*
X34280952Y11545181D01*
X34280952Y11545181D02*
X34519047Y11545181D01*
X34519047Y11545181D02*
X34614285Y11497562D01*
X34614285Y11497562D02*
X34661904Y11449943D01*
X34661904Y11449943D02*
X34709523Y11354705D01*
X34709523Y11354705D02*
X34709523Y11259467D01*
X34709523Y11259467D02*
X34661904Y11116610D01*
X34661904Y11116610D02*
X34090476Y10545181D01*
X34090476Y10545181D02*
X34709523Y10545181D01*
X35328571Y11545181D02*
X35423809Y11545181D01*
X35423809Y11545181D02*
X35519047Y11497562D01*
X35519047Y11497562D02*
X35566666Y11449943D01*
X35566666Y11449943D02*
X35614285Y11354705D01*
X35614285Y11354705D02*
X35661904Y11164229D01*
X35661904Y11164229D02*
X35661904Y10926134D01*
X35661904Y10926134D02*
X35614285Y10735658D01*
X35614285Y10735658D02*
X35566666Y10640420D01*
X35566666Y10640420D02*
X35519047Y10592800D01*
X35519047Y10592800D02*
X35423809Y10545181D01*
X35423809Y10545181D02*
X35328571Y10545181D01*
X35328571Y10545181D02*
X35233333Y10592800D01*
X35233333Y10592800D02*
X35185714Y10640420D01*
X35185714Y10640420D02*
X35138095Y10735658D01*
X35138095Y10735658D02*
X35090476Y10926134D01*
X35090476Y10926134D02*
X35090476Y11164229D01*
X35090476Y11164229D02*
X35138095Y11354705D01*
X35138095Y11354705D02*
X35185714Y11449943D01*
X35185714Y11449943D02*
X35233333Y11497562D01*
X35233333Y11497562D02*
X35328571Y11545181D01*
X69286905Y23345181D02*
X69286905Y24345181D01*
X69286905Y24345181D02*
X69525000Y24345181D01*
X69525000Y24345181D02*
X69667857Y24297562D01*
X69667857Y24297562D02*
X69763095Y24202324D01*
X69763095Y24202324D02*
X69810714Y24107086D01*
X69810714Y24107086D02*
X69858333Y23916610D01*
X69858333Y23916610D02*
X69858333Y23773753D01*
X69858333Y23773753D02*
X69810714Y23583277D01*
X69810714Y23583277D02*
X69763095Y23488039D01*
X69763095Y23488039D02*
X69667857Y23392800D01*
X69667857Y23392800D02*
X69525000Y23345181D01*
X69525000Y23345181D02*
X69286905Y23345181D01*
X70715476Y24011848D02*
X70715476Y23345181D01*
X70477381Y24392800D02*
X70239286Y23678515D01*
X70239286Y23678515D02*
X70858333Y23678515D01*
X86954819Y32757143D02*
X86478628Y32423810D01*
X86954819Y32185715D02*
X85954819Y32185715D01*
X85954819Y32185715D02*
X85954819Y32566667D01*
X85954819Y32566667D02*
X86002438Y32661905D01*
X86002438Y32661905D02*
X86050057Y32709524D01*
X86050057Y32709524D02*
X86145295Y32757143D01*
X86145295Y32757143D02*
X86288152Y32757143D01*
X86288152Y32757143D02*
X86383390Y32709524D01*
X86383390Y32709524D02*
X86431009Y32661905D01*
X86431009Y32661905D02*
X86478628Y32566667D01*
X86478628Y32566667D02*
X86478628Y32185715D01*
X86050057Y33138096D02*
X86002438Y33185715D01*
X86002438Y33185715D02*
X85954819Y33280953D01*
X85954819Y33280953D02*
X85954819Y33519048D01*
X85954819Y33519048D02*
X86002438Y33614286D01*
X86002438Y33614286D02*
X86050057Y33661905D01*
X86050057Y33661905D02*
X86145295Y33709524D01*
X86145295Y33709524D02*
X86240533Y33709524D01*
X86240533Y33709524D02*
X86383390Y33661905D01*
X86383390Y33661905D02*
X86954819Y33090477D01*
X86954819Y33090477D02*
X86954819Y33709524D01*
X85954819Y34614286D02*
X85954819Y34138096D01*
X85954819Y34138096D02*
X86431009Y34090477D01*
X86431009Y34090477D02*
X86383390Y34138096D01*
X86383390Y34138096D02*
X86335771Y34233334D01*
X86335771Y34233334D02*
X86335771Y34471429D01*
X86335771Y34471429D02*
X86383390Y34566667D01*
X86383390Y34566667D02*
X86431009Y34614286D01*
X86431009Y34614286D02*
X86526247Y34661905D01*
X86526247Y34661905D02*
X86764342Y34661905D01*
X86764342Y34661905D02*
X86859580Y34614286D01*
X86859580Y34614286D02*
X86907200Y34566667D01*
X86907200Y34566667D02*
X86954819Y34471429D01*
X86954819Y34471429D02*
X86954819Y34233334D01*
X86954819Y34233334D02*
X86907200Y34138096D01*
X86907200Y34138096D02*
X86859580Y34090477D01*
X69386905Y13120181D02*
X69386905Y14120181D01*
X69386905Y14120181D02*
X69625000Y14120181D01*
X69625000Y14120181D02*
X69767857Y14072562D01*
X69767857Y14072562D02*
X69863095Y13977324D01*
X69863095Y13977324D02*
X69910714Y13882086D01*
X69910714Y13882086D02*
X69958333Y13691610D01*
X69958333Y13691610D02*
X69958333Y13548753D01*
X69958333Y13548753D02*
X69910714Y13358277D01*
X69910714Y13358277D02*
X69863095Y13263039D01*
X69863095Y13263039D02*
X69767857Y13167800D01*
X69767857Y13167800D02*
X69625000Y13120181D01*
X69625000Y13120181D02*
X69386905Y13120181D01*
X70815476Y14120181D02*
X70625000Y14120181D01*
X70625000Y14120181D02*
X70529762Y14072562D01*
X70529762Y14072562D02*
X70482143Y14024943D01*
X70482143Y14024943D02*
X70386905Y13882086D01*
X70386905Y13882086D02*
X70339286Y13691610D01*
X70339286Y13691610D02*
X70339286Y13310658D01*
X70339286Y13310658D02*
X70386905Y13215420D01*
X70386905Y13215420D02*
X70434524Y13167800D01*
X70434524Y13167800D02*
X70529762Y13120181D01*
X70529762Y13120181D02*
X70720238Y13120181D01*
X70720238Y13120181D02*
X70815476Y13167800D01*
X70815476Y13167800D02*
X70863095Y13215420D01*
X70863095Y13215420D02*
X70910714Y13310658D01*
X70910714Y13310658D02*
X70910714Y13548753D01*
X70910714Y13548753D02*
X70863095Y13643991D01*
X70863095Y13643991D02*
X70815476Y13691610D01*
X70815476Y13691610D02*
X70720238Y13739229D01*
X70720238Y13739229D02*
X70529762Y13739229D01*
X70529762Y13739229D02*
X70434524Y13691610D01*
X70434524Y13691610D02*
X70386905Y13643991D01*
X70386905Y13643991D02*
X70339286Y13548753D01*
X17166278Y30166668D02*
X17213897Y30309525D01*
X17213897Y30309525D02*
X17213897Y30547620D01*
X17213897Y30547620D02*
X17166278Y30642858D01*
X17166278Y30642858D02*
X17118658Y30690477D01*
X17118658Y30690477D02*
X17023420Y30738096D01*
X17023420Y30738096D02*
X16928182Y30738096D01*
X16928182Y30738096D02*
X16832944Y30690477D01*
X16832944Y30690477D02*
X16785325Y30642858D01*
X16785325Y30642858D02*
X16737706Y30547620D01*
X16737706Y30547620D02*
X16690087Y30357144D01*
X16690087Y30357144D02*
X16642468Y30261906D01*
X16642468Y30261906D02*
X16594849Y30214287D01*
X16594849Y30214287D02*
X16499611Y30166668D01*
X16499611Y30166668D02*
X16404373Y30166668D01*
X16404373Y30166668D02*
X16309135Y30214287D01*
X16309135Y30214287D02*
X16261516Y30261906D01*
X16261516Y30261906D02*
X16213897Y30357144D01*
X16213897Y30357144D02*
X16213897Y30595239D01*
X16213897Y30595239D02*
X16261516Y30738096D01*
X16213897Y31071430D02*
X17213897Y31309525D01*
X17213897Y31309525D02*
X16499611Y31500001D01*
X16499611Y31500001D02*
X17213897Y31690477D01*
X17213897Y31690477D02*
X16213897Y31928572D01*
X16309135Y32261906D02*
X16261516Y32309525D01*
X16261516Y32309525D02*
X16213897Y32404763D01*
X16213897Y32404763D02*
X16213897Y32642858D01*
X16213897Y32642858D02*
X16261516Y32738096D01*
X16261516Y32738096D02*
X16309135Y32785715D01*
X16309135Y32785715D02*
X16404373Y32833334D01*
X16404373Y32833334D02*
X16499611Y32833334D01*
X16499611Y32833334D02*
X16642468Y32785715D01*
X16642468Y32785715D02*
X17213897Y32214287D01*
X17213897Y32214287D02*
X17213897Y32833334D01*
X69261905Y33645181D02*
X69261905Y34645181D01*
X69261905Y34645181D02*
X69500000Y34645181D01*
X69500000Y34645181D02*
X69642857Y34597562D01*
X69642857Y34597562D02*
X69738095Y34502324D01*
X69738095Y34502324D02*
X69785714Y34407086D01*
X69785714Y34407086D02*
X69833333Y34216610D01*
X69833333Y34216610D02*
X69833333Y34073753D01*
X69833333Y34073753D02*
X69785714Y33883277D01*
X69785714Y33883277D02*
X69738095Y33788039D01*
X69738095Y33788039D02*
X69642857Y33692800D01*
X69642857Y33692800D02*
X69500000Y33645181D01*
X69500000Y33645181D02*
X69261905Y33645181D01*
X70214286Y34549943D02*
X70261905Y34597562D01*
X70261905Y34597562D02*
X70357143Y34645181D01*
X70357143Y34645181D02*
X70595238Y34645181D01*
X70595238Y34645181D02*
X70690476Y34597562D01*
X70690476Y34597562D02*
X70738095Y34549943D01*
X70738095Y34549943D02*
X70785714Y34454705D01*
X70785714Y34454705D02*
X70785714Y34359467D01*
X70785714Y34359467D02*
X70738095Y34216610D01*
X70738095Y34216610D02*
X70166667Y33645181D01*
X70166667Y33645181D02*
X70785714Y33645181D01*
X76750057Y39104762D02*
X76702438Y39009524D01*
X76702438Y39009524D02*
X76607200Y38914286D01*
X76607200Y38914286D02*
X76464342Y38771429D01*
X76464342Y38771429D02*
X76416723Y38676191D01*
X76416723Y38676191D02*
X76416723Y38580953D01*
X76654819Y38628572D02*
X76607200Y38533334D01*
X76607200Y38533334D02*
X76511961Y38438096D01*
X76511961Y38438096D02*
X76321485Y38390477D01*
X76321485Y38390477D02*
X75988152Y38390477D01*
X75988152Y38390477D02*
X75797676Y38438096D01*
X75797676Y38438096D02*
X75702438Y38533334D01*
X75702438Y38533334D02*
X75654819Y38628572D01*
X75654819Y38628572D02*
X75654819Y38819048D01*
X75654819Y38819048D02*
X75702438Y38914286D01*
X75702438Y38914286D02*
X75797676Y39009524D01*
X75797676Y39009524D02*
X75988152Y39057143D01*
X75988152Y39057143D02*
X76321485Y39057143D01*
X76321485Y39057143D02*
X76511961Y39009524D01*
X76511961Y39009524D02*
X76607200Y38914286D01*
X76607200Y38914286D02*
X76654819Y38819048D01*
X76654819Y38819048D02*
X76654819Y38628572D01*
X76654819Y40009524D02*
X76654819Y39438096D01*
X76654819Y39723810D02*
X75654819Y39723810D01*
X75654819Y39723810D02*
X75797676Y39628572D01*
X75797676Y39628572D02*
X75892914Y39533334D01*
X75892914Y39533334D02*
X75940533Y39438096D01*
X69261905Y18245181D02*
X69261905Y19245181D01*
X69261905Y19245181D02*
X69500000Y19245181D01*
X69500000Y19245181D02*
X69642857Y19197562D01*
X69642857Y19197562D02*
X69738095Y19102324D01*
X69738095Y19102324D02*
X69785714Y19007086D01*
X69785714Y19007086D02*
X69833333Y18816610D01*
X69833333Y18816610D02*
X69833333Y18673753D01*
X69833333Y18673753D02*
X69785714Y18483277D01*
X69785714Y18483277D02*
X69738095Y18388039D01*
X69738095Y18388039D02*
X69642857Y18292800D01*
X69642857Y18292800D02*
X69500000Y18245181D01*
X69500000Y18245181D02*
X69261905Y18245181D01*
X70738095Y19245181D02*
X70261905Y19245181D01*
X70261905Y19245181D02*
X70214286Y18768991D01*
X70214286Y18768991D02*
X70261905Y18816610D01*
X70261905Y18816610D02*
X70357143Y18864229D01*
X70357143Y18864229D02*
X70595238Y18864229D01*
X70595238Y18864229D02*
X70690476Y18816610D01*
X70690476Y18816610D02*
X70738095Y18768991D01*
X70738095Y18768991D02*
X70785714Y18673753D01*
X70785714Y18673753D02*
X70785714Y18435658D01*
X70785714Y18435658D02*
X70738095Y18340420D01*
X70738095Y18340420D02*
X70690476Y18292800D01*
X70690476Y18292800D02*
X70595238Y18245181D01*
X70595238Y18245181D02*
X70357143Y18245181D01*
X70357143Y18245181D02*
X70261905Y18292800D01*
X70261905Y18292800D02*
X70214286Y18340420D01*
X33757142Y7745181D02*
X33423809Y8221372D01*
X33185714Y7745181D02*
X33185714Y8745181D01*
X33185714Y8745181D02*
X33566666Y8745181D01*
X33566666Y8745181D02*
X33661904Y8697562D01*
X33661904Y8697562D02*
X33709523Y8649943D01*
X33709523Y8649943D02*
X33757142Y8554705D01*
X33757142Y8554705D02*
X33757142Y8411848D01*
X33757142Y8411848D02*
X33709523Y8316610D01*
X33709523Y8316610D02*
X33661904Y8268991D01*
X33661904Y8268991D02*
X33566666Y8221372D01*
X33566666Y8221372D02*
X33185714Y8221372D01*
X34709523Y7745181D02*
X34138095Y7745181D01*
X34423809Y7745181D02*
X34423809Y8745181D01*
X34423809Y8745181D02*
X34328571Y8602324D01*
X34328571Y8602324D02*
X34233333Y8507086D01*
X34233333Y8507086D02*
X34138095Y8459467D01*
X35185714Y7745181D02*
X35376190Y7745181D01*
X35376190Y7745181D02*
X35471428Y7792800D01*
X35471428Y7792800D02*
X35519047Y7840420D01*
X35519047Y7840420D02*
X35614285Y7983277D01*
X35614285Y7983277D02*
X35661904Y8173753D01*
X35661904Y8173753D02*
X35661904Y8554705D01*
X35661904Y8554705D02*
X35614285Y8649943D01*
X35614285Y8649943D02*
X35566666Y8697562D01*
X35566666Y8697562D02*
X35471428Y8745181D01*
X35471428Y8745181D02*
X35280952Y8745181D01*
X35280952Y8745181D02*
X35185714Y8697562D01*
X35185714Y8697562D02*
X35138095Y8649943D01*
X35138095Y8649943D02*
X35090476Y8554705D01*
X35090476Y8554705D02*
X35090476Y8316610D01*
X35090476Y8316610D02*
X35138095Y8221372D01*
X35138095Y8221372D02*
X35185714Y8173753D01*
X35185714Y8173753D02*
X35280952Y8126134D01*
X35280952Y8126134D02*
X35471428Y8126134D01*
X35471428Y8126134D02*
X35566666Y8173753D01*
X35566666Y8173753D02*
X35614285Y8221372D01*
X35614285Y8221372D02*
X35661904Y8316610D01*
X69878333Y36345181D02*
X69545000Y36821372D01*
X69306905Y36345181D02*
X69306905Y37345181D01*
X69306905Y37345181D02*
X69687857Y37345181D01*
X69687857Y37345181D02*
X69783095Y37297562D01*
X69783095Y37297562D02*
X69830714Y37249943D01*
X69830714Y37249943D02*
X69878333Y37154705D01*
X69878333Y37154705D02*
X69878333Y37011848D01*
X69878333Y37011848D02*
X69830714Y36916610D01*
X69830714Y36916610D02*
X69783095Y36868991D01*
X69783095Y36868991D02*
X69687857Y36821372D01*
X69687857Y36821372D02*
X69306905Y36821372D01*
X70830714Y36345181D02*
X70259286Y36345181D01*
X70545000Y36345181D02*
X70545000Y37345181D01*
X70545000Y37345181D02*
X70449762Y37202324D01*
X70449762Y37202324D02*
X70354524Y37107086D01*
X70354524Y37107086D02*
X70259286Y37059467D01*
X10157142Y46845181D02*
X9823809Y47321372D01*
X9585714Y46845181D02*
X9585714Y47845181D01*
X9585714Y47845181D02*
X9966666Y47845181D01*
X9966666Y47845181D02*
X10061904Y47797562D01*
X10061904Y47797562D02*
X10109523Y47749943D01*
X10109523Y47749943D02*
X10157142Y47654705D01*
X10157142Y47654705D02*
X10157142Y47511848D01*
X10157142Y47511848D02*
X10109523Y47416610D01*
X10109523Y47416610D02*
X10061904Y47368991D01*
X10061904Y47368991D02*
X9966666Y47321372D01*
X9966666Y47321372D02*
X9585714Y47321372D01*
X10538095Y47749943D02*
X10585714Y47797562D01*
X10585714Y47797562D02*
X10680952Y47845181D01*
X10680952Y47845181D02*
X10919047Y47845181D01*
X10919047Y47845181D02*
X11014285Y47797562D01*
X11014285Y47797562D02*
X11061904Y47749943D01*
X11061904Y47749943D02*
X11109523Y47654705D01*
X11109523Y47654705D02*
X11109523Y47559467D01*
X11109523Y47559467D02*
X11061904Y47416610D01*
X11061904Y47416610D02*
X10490476Y46845181D01*
X10490476Y46845181D02*
X11109523Y46845181D01*
X11442857Y47845181D02*
X12061904Y47845181D01*
X12061904Y47845181D02*
X11728571Y47464229D01*
X11728571Y47464229D02*
X11871428Y47464229D01*
X11871428Y47464229D02*
X11966666Y47416610D01*
X11966666Y47416610D02*
X12014285Y47368991D01*
X12014285Y47368991D02*
X12061904Y47273753D01*
X12061904Y47273753D02*
X12061904Y47035658D01*
X12061904Y47035658D02*
X12014285Y46940420D01*
X12014285Y46940420D02*
X11966666Y46892800D01*
X11966666Y46892800D02*
X11871428Y46845181D01*
X11871428Y46845181D02*
X11585714Y46845181D01*
X11585714Y46845181D02*
X11490476Y46892800D01*
X11490476Y46892800D02*
X11442857Y46940420D01*
X69978333Y41145181D02*
X69645000Y41621372D01*
X69406905Y41145181D02*
X69406905Y42145181D01*
X69406905Y42145181D02*
X69787857Y42145181D01*
X69787857Y42145181D02*
X69883095Y42097562D01*
X69883095Y42097562D02*
X69930714Y42049943D01*
X69930714Y42049943D02*
X69978333Y41954705D01*
X69978333Y41954705D02*
X69978333Y41811848D01*
X69978333Y41811848D02*
X69930714Y41716610D01*
X69930714Y41716610D02*
X69883095Y41668991D01*
X69883095Y41668991D02*
X69787857Y41621372D01*
X69787857Y41621372D02*
X69406905Y41621372D01*
X70597381Y42145181D02*
X70692619Y42145181D01*
X70692619Y42145181D02*
X70787857Y42097562D01*
X70787857Y42097562D02*
X70835476Y42049943D01*
X70835476Y42049943D02*
X70883095Y41954705D01*
X70883095Y41954705D02*
X70930714Y41764229D01*
X70930714Y41764229D02*
X70930714Y41526134D01*
X70930714Y41526134D02*
X70883095Y41335658D01*
X70883095Y41335658D02*
X70835476Y41240420D01*
X70835476Y41240420D02*
X70787857Y41192800D01*
X70787857Y41192800D02*
X70692619Y41145181D01*
X70692619Y41145181D02*
X70597381Y41145181D01*
X70597381Y41145181D02*
X70502143Y41192800D01*
X70502143Y41192800D02*
X70454524Y41240420D01*
X70454524Y41240420D02*
X70406905Y41335658D01*
X70406905Y41335658D02*
X70359286Y41526134D01*
X70359286Y41526134D02*
X70359286Y41764229D01*
X70359286Y41764229D02*
X70406905Y41954705D01*
X70406905Y41954705D02*
X70454524Y42049943D01*
X70454524Y42049943D02*
X70502143Y42097562D01*
X70502143Y42097562D02*
X70597381Y42145181D01*
X49854819Y13066667D02*
X50569104Y13066667D01*
X50569104Y13066667D02*
X50711961Y13019048D01*
X50711961Y13019048D02*
X50807200Y12923810D01*
X50807200Y12923810D02*
X50854819Y12780953D01*
X50854819Y12780953D02*
X50854819Y12685715D01*
X50283390Y13685715D02*
X50235771Y13590477D01*
X50235771Y13590477D02*
X50188152Y13542858D01*
X50188152Y13542858D02*
X50092914Y13495239D01*
X50092914Y13495239D02*
X50045295Y13495239D01*
X50045295Y13495239D02*
X49950057Y13542858D01*
X49950057Y13542858D02*
X49902438Y13590477D01*
X49902438Y13590477D02*
X49854819Y13685715D01*
X49854819Y13685715D02*
X49854819Y13876191D01*
X49854819Y13876191D02*
X49902438Y13971429D01*
X49902438Y13971429D02*
X49950057Y14019048D01*
X49950057Y14019048D02*
X50045295Y14066667D01*
X50045295Y14066667D02*
X50092914Y14066667D01*
X50092914Y14066667D02*
X50188152Y14019048D01*
X50188152Y14019048D02*
X50235771Y13971429D01*
X50235771Y13971429D02*
X50283390Y13876191D01*
X50283390Y13876191D02*
X50283390Y13685715D01*
X50283390Y13685715D02*
X50331009Y13590477D01*
X50331009Y13590477D02*
X50378628Y13542858D01*
X50378628Y13542858D02*
X50473866Y13495239D01*
X50473866Y13495239D02*
X50664342Y13495239D01*
X50664342Y13495239D02*
X50759580Y13542858D01*
X50759580Y13542858D02*
X50807200Y13590477D01*
X50807200Y13590477D02*
X50854819Y13685715D01*
X50854819Y13685715D02*
X50854819Y13876191D01*
X50854819Y13876191D02*
X50807200Y13971429D01*
X50807200Y13971429D02*
X50759580Y14019048D01*
X50759580Y14019048D02*
X50664342Y14066667D01*
X50664342Y14066667D02*
X50473866Y14066667D01*
X50473866Y14066667D02*
X50378628Y14019048D01*
X50378628Y14019048D02*
X50331009Y13971429D01*
X50331009Y13971429D02*
X50283390Y13876191D01*
X76750057Y21104762D02*
X76702438Y21009524D01*
X76702438Y21009524D02*
X76607200Y20914286D01*
X76607200Y20914286D02*
X76464342Y20771429D01*
X76464342Y20771429D02*
X76416723Y20676191D01*
X76416723Y20676191D02*
X76416723Y20580953D01*
X76654819Y20628572D02*
X76607200Y20533334D01*
X76607200Y20533334D02*
X76511961Y20438096D01*
X76511961Y20438096D02*
X76321485Y20390477D01*
X76321485Y20390477D02*
X75988152Y20390477D01*
X75988152Y20390477D02*
X75797676Y20438096D01*
X75797676Y20438096D02*
X75702438Y20533334D01*
X75702438Y20533334D02*
X75654819Y20628572D01*
X75654819Y20628572D02*
X75654819Y20819048D01*
X75654819Y20819048D02*
X75702438Y20914286D01*
X75702438Y20914286D02*
X75797676Y21009524D01*
X75797676Y21009524D02*
X75988152Y21057143D01*
X75988152Y21057143D02*
X76321485Y21057143D01*
X76321485Y21057143D02*
X76511961Y21009524D01*
X76511961Y21009524D02*
X76607200Y20914286D01*
X76607200Y20914286D02*
X76654819Y20819048D01*
X76654819Y20819048D02*
X76654819Y20628572D01*
X75654819Y21961905D02*
X75654819Y21485715D01*
X75654819Y21485715D02*
X76131009Y21438096D01*
X76131009Y21438096D02*
X76083390Y21485715D01*
X76083390Y21485715D02*
X76035771Y21580953D01*
X76035771Y21580953D02*
X76035771Y21819048D01*
X76035771Y21819048D02*
X76083390Y21914286D01*
X76083390Y21914286D02*
X76131009Y21961905D01*
X76131009Y21961905D02*
X76226247Y22009524D01*
X76226247Y22009524D02*
X76464342Y22009524D01*
X76464342Y22009524D02*
X76559580Y21961905D01*
X76559580Y21961905D02*
X76607200Y21914286D01*
X76607200Y21914286D02*
X76654819Y21819048D01*
X76654819Y21819048D02*
X76654819Y21580953D01*
X76654819Y21580953D02*
X76607200Y21485715D01*
X76607200Y21485715D02*
X76559580Y21438096D01*
X10357142Y5745181D02*
X10023809Y6221372D01*
X9785714Y5745181D02*
X9785714Y6745181D01*
X9785714Y6745181D02*
X10166666Y6745181D01*
X10166666Y6745181D02*
X10261904Y6697562D01*
X10261904Y6697562D02*
X10309523Y6649943D01*
X10309523Y6649943D02*
X10357142Y6554705D01*
X10357142Y6554705D02*
X10357142Y6411848D01*
X10357142Y6411848D02*
X10309523Y6316610D01*
X10309523Y6316610D02*
X10261904Y6268991D01*
X10261904Y6268991D02*
X10166666Y6221372D01*
X10166666Y6221372D02*
X9785714Y6221372D01*
X10690476Y6745181D02*
X11309523Y6745181D01*
X11309523Y6745181D02*
X10976190Y6364229D01*
X10976190Y6364229D02*
X11119047Y6364229D01*
X11119047Y6364229D02*
X11214285Y6316610D01*
X11214285Y6316610D02*
X11261904Y6268991D01*
X11261904Y6268991D02*
X11309523Y6173753D01*
X11309523Y6173753D02*
X11309523Y5935658D01*
X11309523Y5935658D02*
X11261904Y5840420D01*
X11261904Y5840420D02*
X11214285Y5792800D01*
X11214285Y5792800D02*
X11119047Y5745181D01*
X11119047Y5745181D02*
X10833333Y5745181D01*
X10833333Y5745181D02*
X10738095Y5792800D01*
X10738095Y5792800D02*
X10690476Y5840420D01*
X12261904Y5745181D02*
X11690476Y5745181D01*
X11976190Y5745181D02*
X11976190Y6745181D01*
X11976190Y6745181D02*
X11880952Y6602324D01*
X11880952Y6602324D02*
X11785714Y6507086D01*
X11785714Y6507086D02*
X11690476Y6459467D01*
X33833333Y23240420D02*
X33785714Y23192800D01*
X33785714Y23192800D02*
X33642857Y23145181D01*
X33642857Y23145181D02*
X33547619Y23145181D01*
X33547619Y23145181D02*
X33404762Y23192800D01*
X33404762Y23192800D02*
X33309524Y23288039D01*
X33309524Y23288039D02*
X33261905Y23383277D01*
X33261905Y23383277D02*
X33214286Y23573753D01*
X33214286Y23573753D02*
X33214286Y23716610D01*
X33214286Y23716610D02*
X33261905Y23907086D01*
X33261905Y23907086D02*
X33309524Y24002324D01*
X33309524Y24002324D02*
X33404762Y24097562D01*
X33404762Y24097562D02*
X33547619Y24145181D01*
X33547619Y24145181D02*
X33642857Y24145181D01*
X33642857Y24145181D02*
X33785714Y24097562D01*
X33785714Y24097562D02*
X33833333Y24049943D01*
X34166667Y24145181D02*
X34785714Y24145181D01*
X34785714Y24145181D02*
X34452381Y23764229D01*
X34452381Y23764229D02*
X34595238Y23764229D01*
X34595238Y23764229D02*
X34690476Y23716610D01*
X34690476Y23716610D02*
X34738095Y23668991D01*
X34738095Y23668991D02*
X34785714Y23573753D01*
X34785714Y23573753D02*
X34785714Y23335658D01*
X34785714Y23335658D02*
X34738095Y23240420D01*
X34738095Y23240420D02*
X34690476Y23192800D01*
X34690476Y23192800D02*
X34595238Y23145181D01*
X34595238Y23145181D02*
X34309524Y23145181D01*
X34309524Y23145181D02*
X34214286Y23192800D01*
X34214286Y23192800D02*
X34166667Y23240420D01*
X69261905Y28445181D02*
X69261905Y29445181D01*
X69261905Y29445181D02*
X69500000Y29445181D01*
X69500000Y29445181D02*
X69642857Y29397562D01*
X69642857Y29397562D02*
X69738095Y29302324D01*
X69738095Y29302324D02*
X69785714Y29207086D01*
X69785714Y29207086D02*
X69833333Y29016610D01*
X69833333Y29016610D02*
X69833333Y28873753D01*
X69833333Y28873753D02*
X69785714Y28683277D01*
X69785714Y28683277D02*
X69738095Y28588039D01*
X69738095Y28588039D02*
X69642857Y28492800D01*
X69642857Y28492800D02*
X69500000Y28445181D01*
X69500000Y28445181D02*
X69261905Y28445181D01*
X70166667Y29445181D02*
X70785714Y29445181D01*
X70785714Y29445181D02*
X70452381Y29064229D01*
X70452381Y29064229D02*
X70595238Y29064229D01*
X70595238Y29064229D02*
X70690476Y29016610D01*
X70690476Y29016610D02*
X70738095Y28968991D01*
X70738095Y28968991D02*
X70785714Y28873753D01*
X70785714Y28873753D02*
X70785714Y28635658D01*
X70785714Y28635658D02*
X70738095Y28540420D01*
X70738095Y28540420D02*
X70690476Y28492800D01*
X70690476Y28492800D02*
X70595238Y28445181D01*
X70595238Y28445181D02*
X70309524Y28445181D01*
X70309524Y28445181D02*
X70214286Y28492800D01*
X70214286Y28492800D02*
X70166667Y28540420D01*
X16916278Y19916668D02*
X16963897Y20059525D01*
X16963897Y20059525D02*
X16963897Y20297620D01*
X16963897Y20297620D02*
X16916278Y20392858D01*
X16916278Y20392858D02*
X16868658Y20440477D01*
X16868658Y20440477D02*
X16773420Y20488096D01*
X16773420Y20488096D02*
X16678182Y20488096D01*
X16678182Y20488096D02*
X16582944Y20440477D01*
X16582944Y20440477D02*
X16535325Y20392858D01*
X16535325Y20392858D02*
X16487706Y20297620D01*
X16487706Y20297620D02*
X16440087Y20107144D01*
X16440087Y20107144D02*
X16392468Y20011906D01*
X16392468Y20011906D02*
X16344849Y19964287D01*
X16344849Y19964287D02*
X16249611Y19916668D01*
X16249611Y19916668D02*
X16154373Y19916668D01*
X16154373Y19916668D02*
X16059135Y19964287D01*
X16059135Y19964287D02*
X16011516Y20011906D01*
X16011516Y20011906D02*
X15963897Y20107144D01*
X15963897Y20107144D02*
X15963897Y20345239D01*
X15963897Y20345239D02*
X16011516Y20488096D01*
X15963897Y20821430D02*
X16963897Y21059525D01*
X16963897Y21059525D02*
X16249611Y21250001D01*
X16249611Y21250001D02*
X16963897Y21440477D01*
X16963897Y21440477D02*
X15963897Y21678572D01*
X15963897Y21964287D02*
X15963897Y22583334D01*
X15963897Y22583334D02*
X16344849Y22250001D01*
X16344849Y22250001D02*
X16344849Y22392858D01*
X16344849Y22392858D02*
X16392468Y22488096D01*
X16392468Y22488096D02*
X16440087Y22535715D01*
X16440087Y22535715D02*
X16535325Y22583334D01*
X16535325Y22583334D02*
X16773420Y22583334D01*
X16773420Y22583334D02*
X16868658Y22535715D01*
X16868658Y22535715D02*
X16916278Y22488096D01*
X16916278Y22488096D02*
X16963897Y22392858D01*
X16963897Y22392858D02*
X16963897Y22107144D01*
X16963897Y22107144D02*
X16916278Y22011906D01*
X16916278Y22011906D02*
X16868658Y21964287D01*
X40357142Y38745181D02*
X40023809Y39221372D01*
X39785714Y38745181D02*
X39785714Y39745181D01*
X39785714Y39745181D02*
X40166666Y39745181D01*
X40166666Y39745181D02*
X40261904Y39697562D01*
X40261904Y39697562D02*
X40309523Y39649943D01*
X40309523Y39649943D02*
X40357142Y39554705D01*
X40357142Y39554705D02*
X40357142Y39411848D01*
X40357142Y39411848D02*
X40309523Y39316610D01*
X40309523Y39316610D02*
X40261904Y39268991D01*
X40261904Y39268991D02*
X40166666Y39221372D01*
X40166666Y39221372D02*
X39785714Y39221372D01*
X41309523Y38745181D02*
X40738095Y38745181D01*
X41023809Y38745181D02*
X41023809Y39745181D01*
X41023809Y39745181D02*
X40928571Y39602324D01*
X40928571Y39602324D02*
X40833333Y39507086D01*
X40833333Y39507086D02*
X40738095Y39459467D01*
X42166666Y39411848D02*
X42166666Y38745181D01*
X41928571Y39792800D02*
X41690476Y39078515D01*
X41690476Y39078515D02*
X42309523Y39078515D01*
X69878333Y20845181D02*
X69545000Y21321372D01*
X69306905Y20845181D02*
X69306905Y21845181D01*
X69306905Y21845181D02*
X69687857Y21845181D01*
X69687857Y21845181D02*
X69783095Y21797562D01*
X69783095Y21797562D02*
X69830714Y21749943D01*
X69830714Y21749943D02*
X69878333Y21654705D01*
X69878333Y21654705D02*
X69878333Y21511848D01*
X69878333Y21511848D02*
X69830714Y21416610D01*
X69830714Y21416610D02*
X69783095Y21368991D01*
X69783095Y21368991D02*
X69687857Y21321372D01*
X69687857Y21321372D02*
X69306905Y21321372D01*
X70735476Y21511848D02*
X70735476Y20845181D01*
X70497381Y21892800D02*
X70259286Y21178515D01*
X70259286Y21178515D02*
X70878333Y21178515D01*
X86954819Y28157143D02*
X86478628Y27823810D01*
X86954819Y27585715D02*
X85954819Y27585715D01*
X85954819Y27585715D02*
X85954819Y27966667D01*
X85954819Y27966667D02*
X86002438Y28061905D01*
X86002438Y28061905D02*
X86050057Y28109524D01*
X86050057Y28109524D02*
X86145295Y28157143D01*
X86145295Y28157143D02*
X86288152Y28157143D01*
X86288152Y28157143D02*
X86383390Y28109524D01*
X86383390Y28109524D02*
X86431009Y28061905D01*
X86431009Y28061905D02*
X86478628Y27966667D01*
X86478628Y27966667D02*
X86478628Y27585715D01*
X86050057Y28538096D02*
X86002438Y28585715D01*
X86002438Y28585715D02*
X85954819Y28680953D01*
X85954819Y28680953D02*
X85954819Y28919048D01*
X85954819Y28919048D02*
X86002438Y29014286D01*
X86002438Y29014286D02*
X86050057Y29061905D01*
X86050057Y29061905D02*
X86145295Y29109524D01*
X86145295Y29109524D02*
X86240533Y29109524D01*
X86240533Y29109524D02*
X86383390Y29061905D01*
X86383390Y29061905D02*
X86954819Y28490477D01*
X86954819Y28490477D02*
X86954819Y29109524D01*
X86050057Y29490477D02*
X86002438Y29538096D01*
X86002438Y29538096D02*
X85954819Y29633334D01*
X85954819Y29633334D02*
X85954819Y29871429D01*
X85954819Y29871429D02*
X86002438Y29966667D01*
X86002438Y29966667D02*
X86050057Y30014286D01*
X86050057Y30014286D02*
X86145295Y30061905D01*
X86145295Y30061905D02*
X86240533Y30061905D01*
X86240533Y30061905D02*
X86383390Y30014286D01*
X86383390Y30014286D02*
X86954819Y29442858D01*
X86954819Y29442858D02*
X86954819Y30061905D01*
X5004819Y32161906D02*
X4004819Y32161906D01*
X4004819Y32161906D02*
X4004819Y32400001D01*
X4004819Y32400001D02*
X4052438Y32542858D01*
X4052438Y32542858D02*
X4147676Y32638096D01*
X4147676Y32638096D02*
X4242914Y32685715D01*
X4242914Y32685715D02*
X4433390Y32733334D01*
X4433390Y32733334D02*
X4576247Y32733334D01*
X4576247Y32733334D02*
X4766723Y32685715D01*
X4766723Y32685715D02*
X4861961Y32638096D01*
X4861961Y32638096D02*
X4957200Y32542858D01*
X4957200Y32542858D02*
X5004819Y32400001D01*
X5004819Y32400001D02*
X5004819Y32161906D01*
X4481009Y33495239D02*
X4528628Y33638096D01*
X4528628Y33638096D02*
X4576247Y33685715D01*
X4576247Y33685715D02*
X4671485Y33733334D01*
X4671485Y33733334D02*
X4814342Y33733334D01*
X4814342Y33733334D02*
X4909580Y33685715D01*
X4909580Y33685715D02*
X4957200Y33638096D01*
X4957200Y33638096D02*
X5004819Y33542858D01*
X5004819Y33542858D02*
X5004819Y33161906D01*
X5004819Y33161906D02*
X4004819Y33161906D01*
X4004819Y33161906D02*
X4004819Y33495239D01*
X4004819Y33495239D02*
X4052438Y33590477D01*
X4052438Y33590477D02*
X4100057Y33638096D01*
X4100057Y33638096D02*
X4195295Y33685715D01*
X4195295Y33685715D02*
X4290533Y33685715D01*
X4290533Y33685715D02*
X4385771Y33638096D01*
X4385771Y33638096D02*
X4433390Y33590477D01*
X4433390Y33590477D02*
X4481009Y33495239D01*
X4481009Y33495239D02*
X4481009Y33161906D01*
X5004819Y34685715D02*
X5004819Y34114287D01*
X5004819Y34400001D02*
X4004819Y34400001D01*
X4004819Y34400001D02*
X4147676Y34304763D01*
X4147676Y34304763D02*
X4242914Y34209525D01*
X4242914Y34209525D02*
X4290533Y34114287D01*
X49854819Y28190477D02*
X50569104Y28190477D01*
X50569104Y28190477D02*
X50711961Y28142858D01*
X50711961Y28142858D02*
X50807200Y28047620D01*
X50807200Y28047620D02*
X50854819Y27904763D01*
X50854819Y27904763D02*
X50854819Y27809525D01*
X50854819Y29190477D02*
X50854819Y28619049D01*
X50854819Y28904763D02*
X49854819Y28904763D01*
X49854819Y28904763D02*
X49997676Y28809525D01*
X49997676Y28809525D02*
X50092914Y28714287D01*
X50092914Y28714287D02*
X50140533Y28619049D01*
X49950057Y29571430D02*
X49902438Y29619049D01*
X49902438Y29619049D02*
X49854819Y29714287D01*
X49854819Y29714287D02*
X49854819Y29952382D01*
X49854819Y29952382D02*
X49902438Y30047620D01*
X49902438Y30047620D02*
X49950057Y30095239D01*
X49950057Y30095239D02*
X50045295Y30142858D01*
X50045295Y30142858D02*
X50140533Y30142858D01*
X50140533Y30142858D02*
X50283390Y30095239D01*
X50283390Y30095239D02*
X50854819Y29523811D01*
X50854819Y29523811D02*
X50854819Y30142858D01*
X33833333Y13240420D02*
X33785714Y13192800D01*
X33785714Y13192800D02*
X33642857Y13145181D01*
X33642857Y13145181D02*
X33547619Y13145181D01*
X33547619Y13145181D02*
X33404762Y13192800D01*
X33404762Y13192800D02*
X33309524Y13288039D01*
X33309524Y13288039D02*
X33261905Y13383277D01*
X33261905Y13383277D02*
X33214286Y13573753D01*
X33214286Y13573753D02*
X33214286Y13716610D01*
X33214286Y13716610D02*
X33261905Y13907086D01*
X33261905Y13907086D02*
X33309524Y14002324D01*
X33309524Y14002324D02*
X33404762Y14097562D01*
X33404762Y14097562D02*
X33547619Y14145181D01*
X33547619Y14145181D02*
X33642857Y14145181D01*
X33642857Y14145181D02*
X33785714Y14097562D01*
X33785714Y14097562D02*
X33833333Y14049943D01*
X34690476Y13811848D02*
X34690476Y13145181D01*
X34452381Y14192800D02*
X34214286Y13478515D01*
X34214286Y13478515D02*
X34833333Y13478515D01*
%TO.C,C2*%
D11*
X31461252Y34735000D02*
X30938748Y34735000D01*
X31461252Y33265000D02*
X30938748Y33265000D01*
%TO.C,R12*%
X30972936Y31935000D02*
X31427064Y31935000D01*
X30972936Y30465000D02*
X31427064Y30465000D01*
%TO.C,R11*%
X31427064Y28935000D02*
X30972936Y28935000D01*
X31427064Y27465000D02*
X30972936Y27465000D01*
%TO.C,R9*%
X30972936Y40665000D02*
X31427064Y40665000D01*
X30972936Y42135000D02*
X31427064Y42135000D01*
%TO.C,R8*%
X31427064Y37865000D02*
X30972936Y37865000D01*
X31427064Y39335000D02*
X30972936Y39335000D01*
%TO.C,C1*%
X31461252Y43465000D02*
X30938748Y43465000D01*
X31461252Y44935000D02*
X30938748Y44935000D01*
%TO.C,J4*%
X92650000Y8890000D02*
X92650000Y52130000D01*
X92650000Y6290000D02*
X92650000Y7620000D01*
X93980000Y6290000D02*
X92650000Y6290000D01*
X95250000Y8890000D02*
X92650000Y8890000D01*
X95250000Y6290000D02*
X95250000Y8890000D01*
X97850000Y52130000D02*
X92650000Y52130000D01*
X97850000Y6290000D02*
X95250000Y6290000D01*
X97850000Y6290000D02*
X97850000Y52130000D01*
%TO.C,J1*%
X26610000Y3870000D02*
X27940000Y3870000D01*
X26610000Y2540000D02*
X26610000Y3870000D01*
X29210000Y3870000D02*
X47050000Y3870000D01*
X29210000Y1210000D02*
X29210000Y3870000D01*
X29210000Y1210000D02*
X47050000Y1210000D01*
X47050000Y1210000D02*
X47050000Y3870000D01*
%TO.C,J2*%
X49470000Y3870000D02*
X50800000Y3870000D01*
X49470000Y2540000D02*
X49470000Y3870000D01*
X52070000Y3870000D02*
X69910000Y3870000D01*
X52070000Y1210000D02*
X52070000Y3870000D01*
X52070000Y1210000D02*
X69910000Y1210000D01*
X69910000Y1210000D02*
X69910000Y3870000D01*
%TO.C,J3*%
X72330000Y3870000D02*
X73660000Y3870000D01*
X72330000Y2540000D02*
X72330000Y3870000D01*
X74930000Y3870000D02*
X92770000Y3870000D01*
X74930000Y1210000D02*
X74930000Y3870000D01*
X74930000Y1210000D02*
X92770000Y1210000D01*
X92770000Y1210000D02*
X92770000Y3870000D01*
%TO.C,J5*%
X17466000Y52130000D02*
X18796000Y52130000D01*
X17466000Y50800000D02*
X17466000Y52130000D01*
X20066000Y52130000D02*
X42986000Y52130000D01*
X20066000Y49470000D02*
X20066000Y52130000D01*
X20066000Y49470000D02*
X42986000Y49470000D01*
X42986000Y49470000D02*
X42986000Y52130000D01*
%TO.C,J6*%
X44390000Y52130000D02*
X45720000Y52130000D01*
X44390000Y50800000D02*
X44390000Y52130000D01*
X46990000Y52130000D02*
X64830000Y52130000D01*
X46990000Y49470000D02*
X46990000Y52130000D01*
X46990000Y49470000D02*
X64830000Y49470000D01*
X64830000Y49470000D02*
X64830000Y52130000D01*
%TO.C,J7*%
X67250000Y52130000D02*
X68580000Y52130000D01*
X67250000Y50800000D02*
X67250000Y52130000D01*
X69850000Y52130000D02*
X87690000Y52130000D01*
X69850000Y49470000D02*
X69850000Y52130000D01*
X69850000Y49470000D02*
X87690000Y49470000D01*
X87690000Y49470000D02*
X87690000Y52130000D01*
%TO.C,R3*%
X72817936Y27135000D02*
X73272064Y27135000D01*
X72817936Y25665000D02*
X73272064Y25665000D01*
%TO.C,Q2*%
X79040000Y35280000D02*
X79040000Y34350000D01*
X79040000Y35280000D02*
X80500000Y35280000D01*
X79040000Y32120000D02*
X79040000Y33050000D01*
X79840000Y32120000D02*
X79040000Y32120000D01*
X79840000Y32120000D02*
X80640000Y32120000D01*
X81380000Y31760000D02*
X80900000Y31760000D01*
X81140000Y32090000D01*
X81380000Y31760000D01*
G36*
X81380000Y31760000D02*
G01*
X80900000Y31760000D01*
X81140000Y32090000D01*
X81380000Y31760000D01*
G37*
%TO.C,R17*%
X30972936Y20265000D02*
X31427064Y20265000D01*
X30972936Y21735000D02*
X31427064Y21735000D01*
%TO.C,RV2*%
X37725000Y36475000D02*
X47475000Y36475000D01*
X37725000Y26725000D02*
X37725000Y36475000D01*
X47475000Y36475000D02*
X47475000Y26725000D01*
X47475000Y26725000D02*
X37725000Y26725000D01*
%TO.C,R28*%
X83765000Y37972936D02*
X83765000Y38427064D01*
X85235000Y37972936D02*
X85235000Y38427064D01*
%TO.C,Q3*%
X79040000Y30780000D02*
X79040000Y29850000D01*
X79040000Y30780000D02*
X80500000Y30780000D01*
X79040000Y27620000D02*
X79040000Y28550000D01*
X79840000Y27620000D02*
X79040000Y27620000D01*
X79840000Y27620000D02*
X80640000Y27620000D01*
X81380000Y27260000D02*
X80900000Y27260000D01*
X81140000Y27590000D01*
X81380000Y27260000D01*
G36*
X81380000Y27260000D02*
G01*
X80900000Y27260000D01*
X81140000Y27590000D01*
X81380000Y27260000D01*
G37*
%TO.C,R5*%
X72817936Y16935000D02*
X73272064Y16935000D01*
X72817936Y15465000D02*
X73272064Y15465000D01*
%TO.C,Q0*%
X79040000Y44280000D02*
X79040000Y43350000D01*
X79040000Y44280000D02*
X80500000Y44280000D01*
X79040000Y41120000D02*
X79040000Y42050000D01*
X79840000Y41120000D02*
X79040000Y41120000D01*
X79840000Y41120000D02*
X80640000Y41120000D01*
X81380000Y40760000D02*
X80900000Y40760000D01*
X81140000Y41090000D01*
X81380000Y40760000D01*
G36*
X81380000Y40760000D02*
G01*
X80900000Y40760000D01*
X81140000Y41090000D01*
X81380000Y40760000D01*
G37*
%TO.C,D7*%
X72000000Y7540000D02*
X74860000Y7540000D01*
X74860000Y9460000D02*
X72000000Y9460000D01*
X74860000Y7540000D02*
X74860000Y9460000D01*
%TO.C,DA1*%
X3590000Y42885000D02*
X3590000Y40025000D01*
X5510000Y42885000D02*
X3590000Y42885000D01*
X5510000Y40025000D02*
X5510000Y42885000D01*
%TO.C,R6*%
X72817936Y11835000D02*
X73272064Y11835000D01*
X72817936Y10365000D02*
X73272064Y10365000D01*
%TO.C,RV1*%
X37725000Y20475000D02*
X47475000Y20475000D01*
X37725000Y10725000D02*
X37725000Y20475000D01*
X47475000Y20475000D02*
X47475000Y10725000D01*
X47475000Y10725000D02*
X37725000Y10725000D01*
%TO.C,D1*%
X72000000Y38340000D02*
X74860000Y38340000D01*
X74860000Y40260000D02*
X72000000Y40260000D01*
X74860000Y38340000D02*
X74860000Y40260000D01*
%TO.C,BZ1*%
X1129216Y18300001D02*
G75*
G02*
X1129216Y21300000I6400000J1499999D01*
G01*
X13759216Y19800000D02*
G75*
G02*
X1299216Y19800000I-6230000J0D01*
G01*
X1299216Y19800000D02*
G75*
G02*
X13759216Y19800000I6230000J0D01*
G01*
%TO.C,D0*%
X72000000Y43365000D02*
X74860000Y43365000D01*
X74860000Y45285000D02*
X72000000Y45285000D01*
X74860000Y43365000D02*
X74860000Y45285000D01*
%TO.C,R21*%
X83765000Y24472936D02*
X83765000Y24927064D01*
X85235000Y24472936D02*
X85235000Y24927064D01*
%TO.C,R2*%
X72817936Y32335000D02*
X73272064Y32335000D01*
X72817936Y30865000D02*
X73272064Y30865000D01*
%TO.C,R27*%
X6365000Y30127064D02*
X6365000Y29672936D01*
X7835000Y30127064D02*
X7835000Y29672936D01*
%TO.C,R16*%
X31427064Y17465000D02*
X30972936Y17465000D01*
X31427064Y18935000D02*
X30972936Y18935000D01*
%TO.C,Q4*%
X79040000Y26280000D02*
X79040000Y25350000D01*
X79040000Y26280000D02*
X80500000Y26280000D01*
X79040000Y23120000D02*
X79040000Y24050000D01*
X79840000Y23120000D02*
X79040000Y23120000D01*
X79840000Y23120000D02*
X80640000Y23120000D01*
X81380000Y22760000D02*
X80900000Y22760000D01*
X81140000Y23090000D01*
X81380000Y22760000D01*
G36*
X81380000Y22760000D02*
G01*
X80900000Y22760000D01*
X81140000Y23090000D01*
X81380000Y22760000D01*
G37*
%TO.C,J11*%
X51240000Y38010000D02*
X51240000Y36760000D01*
X51540000Y36400000D02*
X52150000Y36400000D01*
X51540000Y35100000D02*
X52150000Y35100000D01*
X52150000Y37100000D02*
X52150000Y33600000D01*
X52150000Y33600000D02*
X61050000Y33600000D01*
X52490000Y38010000D02*
X51240000Y38010000D01*
X53000000Y37910000D02*
X53000000Y37710000D01*
X53300000Y37910000D02*
X53000000Y37910000D01*
X53300000Y37810000D02*
X53000000Y37810000D01*
X53300000Y37710000D02*
X53300000Y37910000D01*
X54100000Y37710000D02*
X54100000Y37100000D01*
X54100000Y37100000D02*
X52150000Y37100000D01*
X54500000Y34100000D02*
X54700000Y34100000D01*
X54500000Y33600000D02*
X54500000Y34100000D01*
X54600000Y33600000D02*
X54600000Y34100000D01*
X54700000Y34100000D02*
X54700000Y33600000D01*
X56500000Y34100000D02*
X56700000Y34100000D01*
X56500000Y33600000D02*
X56500000Y34100000D01*
X56600000Y33600000D02*
X56600000Y34100000D01*
X56700000Y34100000D02*
X56700000Y33600000D01*
X58500000Y34100000D02*
X58700000Y34100000D01*
X58500000Y33600000D02*
X58500000Y34100000D01*
X58600000Y33600000D02*
X58600000Y34100000D01*
X58700000Y34100000D02*
X58700000Y33600000D01*
X59100000Y37100000D02*
X59100000Y37710000D01*
X61050000Y37100000D02*
X59100000Y37100000D01*
X61050000Y33600000D02*
X61050000Y37100000D01*
X61660000Y36400000D02*
X61050000Y36400000D01*
X61660000Y35100000D02*
X61050000Y35100000D01*
X51540000Y37710000D02*
X61660000Y37710000D01*
X61660000Y32990000D01*
X51540000Y32990000D01*
X51540000Y37710000D01*
%TO.C,R13*%
X83765000Y15472936D02*
X83765000Y15927064D01*
X85235000Y15472936D02*
X85235000Y15927064D01*
%TO.C,Q10*%
X4720000Y9460000D02*
X5650000Y9460000D01*
X4720000Y8660000D02*
X4720000Y9460000D01*
X4720000Y8660000D02*
X4720000Y7860000D01*
X7880000Y9460000D02*
X6950000Y9460000D01*
X7880000Y9460000D02*
X7880000Y8000000D01*
X4690000Y7360000D02*
X4360000Y7120000D01*
X4360000Y7600000D01*
X4690000Y7360000D01*
G36*
X4690000Y7360000D02*
G01*
X4360000Y7120000D01*
X4360000Y7600000D01*
X4690000Y7360000D01*
G37*
%TO.C,R18*%
X83765000Y19972936D02*
X83765000Y20427064D01*
X85235000Y19972936D02*
X85235000Y20427064D01*
%TO.C,R29*%
X11227064Y8735000D02*
X10772936Y8735000D01*
X11227064Y7265000D02*
X10772936Y7265000D01*
%TO.C,SW4*%
X18759078Y11200000D02*
X18759078Y9700000D01*
X20009078Y7200000D02*
X24509078Y7200000D01*
X24509078Y13700000D02*
X20009078Y13700000D01*
X25759078Y9700000D02*
X25759078Y11200000D01*
%TO.C,R30*%
X83765000Y42472936D02*
X83765000Y42927064D01*
X85235000Y42472936D02*
X85235000Y42927064D01*
%TO.C,J10*%
X51240000Y45310000D02*
X51240000Y44060000D01*
X51540000Y43700000D02*
X52150000Y43700000D01*
X51540000Y42400000D02*
X52150000Y42400000D01*
X52150000Y44400000D02*
X52150000Y40900000D01*
X52150000Y40900000D02*
X61050000Y40900000D01*
X52490000Y45310000D02*
X51240000Y45310000D01*
X53000000Y45210000D02*
X53000000Y45010000D01*
X53300000Y45210000D02*
X53000000Y45210000D01*
X53300000Y45110000D02*
X53000000Y45110000D01*
X53300000Y45010000D02*
X53300000Y45210000D01*
X54100000Y45010000D02*
X54100000Y44400000D01*
X54100000Y44400000D02*
X52150000Y44400000D01*
X54500000Y41400000D02*
X54700000Y41400000D01*
X54500000Y40900000D02*
X54500000Y41400000D01*
X54600000Y40900000D02*
X54600000Y41400000D01*
X54700000Y41400000D02*
X54700000Y40900000D01*
X56500000Y41400000D02*
X56700000Y41400000D01*
X56500000Y40900000D02*
X56500000Y41400000D01*
X56600000Y40900000D02*
X56600000Y41400000D01*
X56700000Y41400000D02*
X56700000Y40900000D01*
X58500000Y41400000D02*
X58700000Y41400000D01*
X58500000Y40900000D02*
X58500000Y41400000D01*
X58600000Y40900000D02*
X58600000Y41400000D01*
X58700000Y41400000D02*
X58700000Y40900000D01*
X59100000Y44400000D02*
X59100000Y45010000D01*
X61050000Y44400000D02*
X59100000Y44400000D01*
X61050000Y40900000D02*
X61050000Y44400000D01*
X61660000Y43700000D02*
X61050000Y43700000D01*
X61660000Y42400000D02*
X61050000Y42400000D01*
X51540000Y45010000D02*
X61660000Y45010000D01*
X61660000Y40290000D01*
X51540000Y40290000D01*
X51540000Y45010000D01*
%TO.C,Q9*%
X9220000Y29240000D02*
X9220000Y30700000D01*
X9220000Y29240000D02*
X10150000Y29240000D01*
X12380000Y30040000D02*
X12380000Y30840000D01*
X12380000Y30040000D02*
X12380000Y29240000D01*
X12380000Y29240000D02*
X11450000Y29240000D01*
X12740000Y31100000D02*
X12410000Y31340000D01*
X12740000Y31580000D01*
X12740000Y31100000D01*
G36*
X12740000Y31100000D02*
G01*
X12410000Y31340000D01*
X12740000Y31580000D01*
X12740000Y31100000D01*
G37*
%TO.C,R24*%
X6365000Y41227064D02*
X6365000Y40772936D01*
X7835000Y41227064D02*
X7835000Y40772936D01*
%TO.C,R10*%
X83765000Y10972936D02*
X83765000Y11427064D01*
X85235000Y10972936D02*
X85235000Y11427064D01*
%TO.C,Q8*%
X9220000Y39740000D02*
X9220000Y41200000D01*
X9220000Y39740000D02*
X10150000Y39740000D01*
X12380000Y40540000D02*
X12380000Y41340000D01*
X12380000Y40540000D02*
X12380000Y39740000D01*
X12380000Y39740000D02*
X11450000Y39740000D01*
X12740000Y41600000D02*
X12410000Y41840000D01*
X12740000Y42080000D01*
X12740000Y41600000D01*
G36*
X12740000Y41600000D02*
G01*
X12410000Y41840000D01*
X12740000Y42080000D01*
X12740000Y41600000D01*
G37*
%TO.C,Q6*%
X79040000Y17280000D02*
X79040000Y16350000D01*
X79040000Y17280000D02*
X80500000Y17280000D01*
X79040000Y14120000D02*
X79040000Y15050000D01*
X79840000Y14120000D02*
X79040000Y14120000D01*
X79840000Y14120000D02*
X80640000Y14120000D01*
X81380000Y13760000D02*
X80900000Y13760000D01*
X81140000Y14090000D01*
X81380000Y13760000D01*
G36*
X81380000Y13760000D02*
G01*
X80900000Y13760000D01*
X81140000Y14090000D01*
X81380000Y13760000D01*
G37*
%TO.C,Q7*%
X79040000Y12780000D02*
X79040000Y11850000D01*
X79040000Y12780000D02*
X80500000Y12780000D01*
X79040000Y9620000D02*
X79040000Y10550000D01*
X79840000Y9620000D02*
X79040000Y9620000D01*
X79840000Y9620000D02*
X80640000Y9620000D01*
X81380000Y9260000D02*
X80900000Y9260000D01*
X81140000Y9590000D01*
X81380000Y9260000D01*
G36*
X81380000Y9260000D02*
G01*
X80900000Y9260000D01*
X81140000Y9590000D01*
X81380000Y9260000D01*
G37*
%TO.C,R15*%
X47065000Y42627064D02*
X47065000Y42172936D01*
X48535000Y42627064D02*
X48535000Y42172936D01*
%TO.C,R7*%
X77487936Y8545000D02*
X77942064Y8545000D01*
X77487936Y7075000D02*
X77942064Y7075000D01*
%TO.C,J9*%
X51240000Y23760000D02*
X51240000Y22510000D01*
X51540000Y22150000D02*
X52150000Y22150000D01*
X51540000Y20850000D02*
X52150000Y20850000D01*
X52150000Y22850000D02*
X52150000Y19350000D01*
X52150000Y19350000D02*
X65050000Y19350000D01*
X52490000Y23760000D02*
X51240000Y23760000D01*
X53000000Y23660000D02*
X53000000Y23460000D01*
X53300000Y23660000D02*
X53000000Y23660000D01*
X53300000Y23560000D02*
X53000000Y23560000D01*
X53300000Y23460000D02*
X53300000Y23660000D01*
X54100000Y23460000D02*
X54100000Y22850000D01*
X54100000Y22850000D02*
X52150000Y22850000D01*
X54500000Y19850000D02*
X54700000Y19850000D01*
X54500000Y19350000D02*
X54500000Y19850000D01*
X54600000Y19350000D02*
X54600000Y19850000D01*
X54700000Y19850000D02*
X54700000Y19350000D01*
X56500000Y19850000D02*
X56700000Y19850000D01*
X56500000Y19350000D02*
X56500000Y19850000D01*
X56600000Y19350000D02*
X56600000Y19850000D01*
X56700000Y19850000D02*
X56700000Y19350000D01*
X58500000Y19850000D02*
X58700000Y19850000D01*
X58500000Y19350000D02*
X58500000Y19850000D01*
X58600000Y19350000D02*
X58600000Y19850000D01*
X58700000Y19850000D02*
X58700000Y19350000D01*
X60500000Y19850000D02*
X60700000Y19850000D01*
X60500000Y19350000D02*
X60500000Y19850000D01*
X60600000Y19350000D02*
X60600000Y19850000D01*
X60700000Y19850000D02*
X60700000Y19350000D01*
X62500000Y19850000D02*
X62700000Y19850000D01*
X62500000Y19350000D02*
X62500000Y19850000D01*
X62600000Y19350000D02*
X62600000Y19850000D01*
X62700000Y19850000D02*
X62700000Y19350000D01*
X63100000Y22850000D02*
X63100000Y23460000D01*
X65050000Y22850000D02*
X63100000Y22850000D01*
X65050000Y19350000D02*
X65050000Y22850000D01*
X65660000Y22150000D02*
X65050000Y22150000D01*
X65660000Y20850000D02*
X65050000Y20850000D01*
X51540000Y23460000D02*
X65660000Y23460000D01*
X65660000Y18740000D01*
X51540000Y18740000D01*
X51540000Y23460000D01*
%TO.C,R26*%
X11027064Y35335000D02*
X10572936Y35335000D01*
X11027064Y33865000D02*
X10572936Y33865000D01*
%TO.C,SW1*%
X18759078Y42800000D02*
X18759078Y41300000D01*
X20009078Y38800000D02*
X24509078Y38800000D01*
X24509078Y45300000D02*
X20009078Y45300000D01*
X25759078Y41300000D02*
X25759078Y42800000D01*
%TO.C,R20*%
X30972936Y10265000D02*
X31427064Y10265000D01*
X30972936Y11735000D02*
X31427064Y11735000D01*
%TO.C,D4*%
X72000000Y22840000D02*
X74860000Y22840000D01*
X74860000Y24760000D02*
X72000000Y24760000D01*
X74860000Y22840000D02*
X74860000Y24760000D01*
%TO.C,R25*%
X83765000Y33623692D02*
X83765000Y34077820D01*
X85235000Y33623692D02*
X85235000Y34077820D01*
%TO.C,D6*%
X72000000Y12640000D02*
X74860000Y12640000D01*
X74860000Y14560000D02*
X72000000Y14560000D01*
X74860000Y12640000D02*
X74860000Y14560000D01*
%TO.C,SW2*%
X18759078Y32250000D02*
X18759078Y30750000D01*
X20009078Y28250000D02*
X24509078Y28250000D01*
X24509078Y34750000D02*
X20009078Y34750000D01*
X25759078Y30750000D02*
X25759078Y32250000D01*
%TO.C,D2*%
X72000000Y33140000D02*
X74860000Y33140000D01*
X74860000Y35060000D02*
X72000000Y35060000D01*
X74860000Y33140000D02*
X74860000Y35060000D01*
%TO.C,Q1*%
X79040000Y39780000D02*
X79040000Y38850000D01*
X79040000Y39780000D02*
X80500000Y39780000D01*
X79040000Y36620000D02*
X79040000Y37550000D01*
X79840000Y36620000D02*
X79040000Y36620000D01*
X79840000Y36620000D02*
X80640000Y36620000D01*
X81380000Y36260000D02*
X80900000Y36260000D01*
X81140000Y36590000D01*
X81380000Y36260000D01*
G36*
X81380000Y36260000D02*
G01*
X80900000Y36260000D01*
X81140000Y36590000D01*
X81380000Y36260000D01*
G37*
%TO.C,D5*%
X72000000Y17740000D02*
X74860000Y17740000D01*
X74860000Y19660000D02*
X72000000Y19660000D01*
X74860000Y17740000D02*
X74860000Y19660000D01*
%TO.C,R19*%
X31427064Y7465000D02*
X30972936Y7465000D01*
X31427064Y8935000D02*
X30972936Y8935000D01*
%TO.C,R1*%
X72817936Y37535000D02*
X73272064Y37535000D01*
X72817936Y36065000D02*
X73272064Y36065000D01*
%TO.C,R23*%
X11027064Y46035000D02*
X10572936Y46035000D01*
X11027064Y44565000D02*
X10572936Y44565000D01*
%TO.C,R0*%
X72817936Y42535000D02*
X73272064Y42535000D01*
X72817936Y41065000D02*
X73272064Y41065000D01*
%TO.C,J8*%
X51240000Y16110000D02*
X51240000Y14860000D01*
X51540000Y14500000D02*
X52150000Y14500000D01*
X51540000Y13200000D02*
X52150000Y13200000D01*
X52150000Y15200000D02*
X52150000Y11700000D01*
X52150000Y11700000D02*
X65050000Y11700000D01*
X52490000Y16110000D02*
X51240000Y16110000D01*
X53000000Y16010000D02*
X53000000Y15810000D01*
X53300000Y16010000D02*
X53000000Y16010000D01*
X53300000Y15910000D02*
X53000000Y15910000D01*
X53300000Y15810000D02*
X53300000Y16010000D01*
X54100000Y15810000D02*
X54100000Y15200000D01*
X54100000Y15200000D02*
X52150000Y15200000D01*
X54500000Y12200000D02*
X54700000Y12200000D01*
X54500000Y11700000D02*
X54500000Y12200000D01*
X54600000Y11700000D02*
X54600000Y12200000D01*
X54700000Y12200000D02*
X54700000Y11700000D01*
X56500000Y12200000D02*
X56700000Y12200000D01*
X56500000Y11700000D02*
X56500000Y12200000D01*
X56600000Y11700000D02*
X56600000Y12200000D01*
X56700000Y12200000D02*
X56700000Y11700000D01*
X58500000Y12200000D02*
X58700000Y12200000D01*
X58500000Y11700000D02*
X58500000Y12200000D01*
X58600000Y11700000D02*
X58600000Y12200000D01*
X58700000Y12200000D02*
X58700000Y11700000D01*
X60500000Y12200000D02*
X60700000Y12200000D01*
X60500000Y11700000D02*
X60500000Y12200000D01*
X60600000Y11700000D02*
X60600000Y12200000D01*
X60700000Y12200000D02*
X60700000Y11700000D01*
X62500000Y12200000D02*
X62700000Y12200000D01*
X62500000Y11700000D02*
X62500000Y12200000D01*
X62600000Y11700000D02*
X62600000Y12200000D01*
X62700000Y12200000D02*
X62700000Y11700000D01*
X63100000Y15200000D02*
X63100000Y15810000D01*
X65050000Y15200000D02*
X63100000Y15200000D01*
X65050000Y11700000D02*
X65050000Y15200000D01*
X65660000Y14500000D02*
X65050000Y14500000D01*
X65660000Y13200000D02*
X65050000Y13200000D01*
X51540000Y15810000D02*
X65660000Y15810000D01*
X65660000Y11090000D01*
X51540000Y11090000D01*
X51540000Y15810000D01*
%TO.C,Q5*%
X79040000Y21780000D02*
X79040000Y20850000D01*
X79040000Y21780000D02*
X80500000Y21780000D01*
X79040000Y18620000D02*
X79040000Y19550000D01*
X79840000Y18620000D02*
X79040000Y18620000D01*
X79840000Y18620000D02*
X80640000Y18620000D01*
X81380000Y18260000D02*
X80900000Y18260000D01*
X81140000Y18590000D01*
X81380000Y18260000D01*
G36*
X81380000Y18260000D02*
G01*
X80900000Y18260000D01*
X81140000Y18590000D01*
X81380000Y18260000D01*
G37*
%TO.C,R31*%
X11227064Y11735000D02*
X10772936Y11735000D01*
X11227064Y10265000D02*
X10772936Y10265000D01*
%TO.C,C3*%
X31461252Y23065000D02*
X30938748Y23065000D01*
X31461252Y24535000D02*
X30938748Y24535000D01*
%TO.C,D3*%
X72000000Y27940000D02*
X74860000Y27940000D01*
X74860000Y29860000D02*
X72000000Y29860000D01*
X74860000Y27940000D02*
X74860000Y29860000D01*
%TO.C,SW3*%
X18759078Y21750000D02*
X18759078Y20250000D01*
X20009078Y17750000D02*
X24509078Y17750000D01*
X24509078Y24250000D02*
X20009078Y24250000D01*
X25759078Y20250000D02*
X25759078Y21750000D01*
%TO.C,R14*%
X39450000Y44750000D02*
X42500000Y44750000D01*
X39450000Y40450000D02*
X42500000Y40450000D01*
X39450000Y40450000D02*
G75*
G02*
X39471766Y44765525I1550000J2150000D01*
G01*
X42500000Y44750000D02*
G75*
G02*
X42544513Y40481751I-1500000J-2150000D01*
G01*
%TO.C,R4*%
X72817936Y22035000D02*
X73272064Y22035000D01*
X72817936Y20565000D02*
X73272064Y20565000D01*
%TO.C,R22*%
X83765000Y28972936D02*
X83765000Y29427064D01*
X85235000Y28972936D02*
X85235000Y29427064D01*
%TO.C,DB1*%
X3590000Y31735000D02*
X3590000Y28875000D01*
X5510000Y31735000D02*
X3590000Y31735000D01*
X5510000Y28875000D02*
X5510000Y31735000D01*
%TO.C,J12*%
X51240000Y31010000D02*
X51240000Y29760000D01*
X51540000Y29400000D02*
X52150000Y29400000D01*
X51540000Y28100000D02*
X52150000Y28100000D01*
X52150000Y30100000D02*
X52150000Y26600000D01*
X52150000Y26600000D02*
X61050000Y26600000D01*
X52490000Y31010000D02*
X51240000Y31010000D01*
X53000000Y30910000D02*
X53000000Y30710000D01*
X53300000Y30910000D02*
X53000000Y30910000D01*
X53300000Y30810000D02*
X53000000Y30810000D01*
X53300000Y30710000D02*
X53300000Y30910000D01*
X54100000Y30710000D02*
X54100000Y30100000D01*
X54100000Y30100000D02*
X52150000Y30100000D01*
X54500000Y27100000D02*
X54700000Y27100000D01*
X54500000Y26600000D02*
X54500000Y27100000D01*
X54600000Y26600000D02*
X54600000Y27100000D01*
X54700000Y27100000D02*
X54700000Y26600000D01*
X56500000Y27100000D02*
X56700000Y27100000D01*
X56500000Y26600000D02*
X56500000Y27100000D01*
X56600000Y26600000D02*
X56600000Y27100000D01*
X56700000Y27100000D02*
X56700000Y26600000D01*
X58500000Y27100000D02*
X58700000Y27100000D01*
X58500000Y26600000D02*
X58500000Y27100000D01*
X58600000Y26600000D02*
X58600000Y27100000D01*
X58700000Y27100000D02*
X58700000Y26600000D01*
X59100000Y30100000D02*
X59100000Y30710000D01*
X61050000Y30100000D02*
X59100000Y30100000D01*
X61050000Y26600000D02*
X61050000Y30100000D01*
X61660000Y29400000D02*
X61050000Y29400000D01*
X61660000Y28100000D02*
X61050000Y28100000D01*
X51540000Y30710000D02*
X61660000Y30710000D01*
X61660000Y25990000D01*
X51540000Y25990000D01*
X51540000Y30710000D01*
%TO.C,C4*%
X31461252Y13065000D02*
X30938748Y13065000D01*
X31461252Y14535000D02*
X30938748Y14535000D01*
%TD*%
M02*
