%TF.GenerationSoftware,KiCad,Pcbnew,10.0.1*%
%TF.CreationDate,2026-05-19T21:18:17+07:00*%
%TF.ProjectId,ExpansionBoard-V2.0,45787061-6e73-4696-9f6e-426f6172642d,rev?*%
%TF.SameCoordinates,PX5f5e100PY5f5e100*%
%TF.FileFunction,Copper,L1,Top*%
%TF.FilePolarity,Positive*%
%FSLAX46Y46*%
G04 Gerber Fmt 4.6, Leading zero omitted, Abs format (unit mm)*
G04 Created by KiCad (PCBNEW 10.0.1) date 2026-05-19 21:18:17*
%MOMM*%
%LPD*%
G01*
G04 APERTURE LIST*
G04 Aperture macros list*
%AMRoundRect*
0 Rectangle with rounded corners*
0 $1 Rounding radius*
0 $2 $3 $4 $5 $6 $7 $8 $9 X,Y pos of 4 corners*
0 Add a 4 corners polygon primitive as box body*
4,1,4,$2,$3,$4,$5,$6,$7,$8,$9,$2,$3,0*
0 Add four circle primitives for the rounded corners*
1,1,$1+$1,$2,$3*
1,1,$1+$1,$4,$5*
1,1,$1+$1,$6,$7*
1,1,$1+$1,$8,$9*
0 Add four rect primitives between the rounded corners*
20,1,$1+$1,$2,$3,$4,$5,0*
20,1,$1+$1,$4,$5,$6,$7,0*
20,1,$1+$1,$6,$7,$8,$9,0*
20,1,$1+$1,$8,$9,$2,$3,0*%
G04 Aperture macros list end*
%TA.AperFunction,SMDPad,CuDef*%
%ADD10RoundRect,0.250000X0.337500X0.475000X-0.337500X0.475000X-0.337500X-0.475000X0.337500X-0.475000X0*%
%TD*%
%TA.AperFunction,SMDPad,CuDef*%
%ADD11RoundRect,0.250000X-0.350000X-0.450000X0.350000X-0.450000X0.350000X0.450000X-0.350000X0.450000X0*%
%TD*%
%TA.AperFunction,SMDPad,CuDef*%
%ADD12RoundRect,0.250000X0.350000X0.450000X-0.350000X0.450000X-0.350000X-0.450000X0.350000X-0.450000X0*%
%TD*%
%TA.AperFunction,ComponentPad*%
%ADD13R,1.700000X1.700000*%
%TD*%
%TA.AperFunction,ComponentPad*%
%ADD14O,1.700000X1.700000*%
%TD*%
%TA.AperFunction,SMDPad,CuDef*%
%ADD15RoundRect,0.200000X0.750000X0.200000X-0.750000X0.200000X-0.750000X-0.200000X0.750000X-0.200000X0*%
%TD*%
%TA.AperFunction,ComponentPad*%
%ADD16C,1.440000*%
%TD*%
%TA.AperFunction,SMDPad,CuDef*%
%ADD17RoundRect,0.250000X0.450000X-0.350000X0.450000X0.350000X-0.450000X0.350000X-0.450000X-0.350000X0*%
%TD*%
%TA.AperFunction,SMDPad,CuDef*%
%ADD18RoundRect,0.250000X0.325000X0.450000X-0.325000X0.450000X-0.325000X-0.450000X0.325000X-0.450000X0*%
%TD*%
%TA.AperFunction,SMDPad,CuDef*%
%ADD19RoundRect,0.250000X-0.450000X0.325000X-0.450000X-0.325000X0.450000X-0.325000X0.450000X0.325000X0*%
%TD*%
%TA.AperFunction,ComponentPad*%
%ADD20R,2.000000X2.000000*%
%TD*%
%TA.AperFunction,ComponentPad*%
%ADD21C,2.000000*%
%TD*%
%TA.AperFunction,SMDPad,CuDef*%
%ADD22RoundRect,0.250000X-0.450000X0.350000X-0.450000X-0.350000X0.450000X-0.350000X0.450000X0.350000X0*%
%TD*%
%TA.AperFunction,ComponentPad*%
%ADD23RoundRect,0.250000X-0.350000X-0.625000X0.350000X-0.625000X0.350000X0.625000X-0.350000X0.625000X0*%
%TD*%
%TA.AperFunction,ComponentPad*%
%ADD24O,1.200000X1.750000*%
%TD*%
%TA.AperFunction,SMDPad,CuDef*%
%ADD25RoundRect,0.200000X0.200000X-0.750000X0.200000X0.750000X-0.200000X0.750000X-0.200000X-0.750000X0*%
%TD*%
%TA.AperFunction,SMDPad,CuDef*%
%ADD26RoundRect,0.200000X-0.200000X0.750000X-0.200000X-0.750000X0.200000X-0.750000X0.200000X0.750000X0*%
%TD*%
%TA.AperFunction,ComponentPad*%
%ADD27C,1.500000*%
%TD*%
%TA.AperFunction,ViaPad*%
%ADD28C,0.800000*%
%TD*%
%TA.AperFunction,Conductor*%
%ADD29C,0.250000*%
%TD*%
%TA.AperFunction,Conductor*%
%ADD30C,0.600000*%
%TD*%
G04 APERTURE END LIST*
D10*
%TO.P,C2,2*%
%TO.N,GND*%
X30162500Y34000000D03*
%TO.P,C2,1*%
%TO.N,Net-(C2-Pad1)*%
X32237500Y34000000D03*
%TD*%
D11*
%TO.P,R12,2*%
%TO.N,Net-(C2-Pad1)*%
X32200000Y31200000D03*
%TO.P,R12,1*%
%TO.N,/D9*%
X30200000Y31200000D03*
%TD*%
D12*
%TO.P,R11,2*%
%TO.N,/D9*%
X30200000Y28200000D03*
%TO.P,R11,1*%
%TO.N,+5V*%
X32200000Y28200000D03*
%TD*%
D11*
%TO.P,R9,1*%
%TO.N,/D10*%
X30200000Y41400000D03*
%TO.P,R9,2*%
%TO.N,Net-(C1-Pad1)*%
X32200000Y41400000D03*
%TD*%
D12*
%TO.P,R8,1*%
%TO.N,+5V*%
X32200000Y38600000D03*
%TO.P,R8,2*%
%TO.N,/D10*%
X30200000Y38600000D03*
%TD*%
D10*
%TO.P,C1,1*%
%TO.N,Net-(C1-Pad1)*%
X32237500Y44200000D03*
%TO.P,C1,2*%
%TO.N,GND*%
X30162500Y44200000D03*
%TD*%
D13*
%TO.P,J4,1,Pin_1_1*%
%TO.N,GND*%
X93980000Y7620000D03*
D14*
%TO.P,J4,2,Pin_2_2*%
X96520000Y7620000D03*
%TO.P,J4,3,Pin_3_3*%
%TO.N,/D52*%
X93980000Y10160000D03*
%TO.P,J4,4,Pin_4_4*%
%TO.N,/D53*%
X96520000Y10160000D03*
%TO.P,J4,5,Pin_5_5*%
%TO.N,/D50*%
X93980000Y12700000D03*
%TO.P,J4,6,Pin_6_6*%
%TO.N,/D51*%
X96520000Y12700000D03*
%TO.P,J4,7,Pin_7_7*%
%TO.N,/48*%
X93980000Y15240000D03*
%TO.P,J4,8,Pin_8_8*%
%TO.N,/49*%
X96520000Y15240000D03*
%TO.P,J4,9,Pin_9_9*%
%TO.N,/\u002A46*%
X93980000Y17780000D03*
%TO.P,J4,10,Pin_10_10*%
%TO.N,/47*%
X96520000Y17780000D03*
%TO.P,J4,11,Pin_11_11*%
%TO.N,/\u002A44*%
X93980000Y20320000D03*
%TO.P,J4,12,Pin_12_12*%
%TO.N,/\u002A45*%
X96520000Y20320000D03*
%TO.P,J4,13,Pin_13_13*%
%TO.N,/42*%
X93980000Y22860000D03*
%TO.P,J4,14,Pin_14_14*%
%TO.N,/43*%
X96520000Y22860000D03*
%TO.P,J4,15,Pin_15_15*%
%TO.N,/40*%
X93980000Y25400000D03*
%TO.P,J4,16,Pin_16_16*%
%TO.N,/41*%
X96520000Y25400000D03*
%TO.P,J4,17,Pin_17_17*%
%TO.N,/38*%
X93980000Y27940000D03*
%TO.P,J4,18,Pin_18_18*%
%TO.N,/39*%
X96520000Y27940000D03*
%TO.P,J4,19,Pin_19_19*%
%TO.N,/36*%
X93980000Y30480000D03*
%TO.P,J4,20,Pin_20_20*%
%TO.N,/37*%
X96520000Y30480000D03*
%TO.P,J4,21,Pin_21_21*%
%TO.N,/34*%
X93980000Y33020000D03*
%TO.P,J4,22,Pin_22_22*%
%TO.N,/35*%
X96520000Y33020000D03*
%TO.P,J4,23,Pin_23_23*%
%TO.N,/32*%
X93980000Y35560000D03*
%TO.P,J4,24,Pin_24_24*%
%TO.N,/33*%
X96520000Y35560000D03*
%TO.P,J4,25,Pin_25_25*%
%TO.N,/30*%
X93980000Y38100000D03*
%TO.P,J4,26,Pin_26_26*%
%TO.N,/31*%
X96520000Y38100000D03*
%TO.P,J4,27,Pin_27_27*%
%TO.N,/D28*%
X93980000Y40640000D03*
%TO.P,J4,28,Pin_28_28*%
%TO.N,/D29*%
X96520000Y40640000D03*
%TO.P,J4,29,Pin_29_29*%
%TO.N,/D26*%
X93980000Y43180000D03*
%TO.P,J4,30,Pin_30_30*%
%TO.N,/D27*%
X96520000Y43180000D03*
%TO.P,J4,31,Pin_31_31*%
%TO.N,/D24*%
X93980000Y45720000D03*
%TO.P,J4,32,Pin_32_32*%
%TO.N,/D25*%
X96520000Y45720000D03*
%TO.P,J4,33,Pin_33_33*%
%TO.N,/D22*%
X93980000Y48260000D03*
%TO.P,J4,34,Pin_34_34*%
%TO.N,/D23*%
X96520000Y48260000D03*
%TO.P,J4,35,Pin_35_35*%
%TO.N,+5V*%
X93980000Y50800000D03*
%TO.P,J4,36,Pin_36_36*%
X96520000Y50800000D03*
%TD*%
D13*
%TO.P,J1,1,Pin_1_1*%
%TO.N,unconnected-(J1-Pin_1-Pad1)*%
X27940000Y2540000D03*
D14*
%TO.P,J1,2,Pin_2_2*%
%TO.N,/IOREF*%
X30480000Y2540000D03*
%TO.P,J1,3,Pin_3_3*%
%TO.N,/~{RESET}*%
X33020000Y2540000D03*
%TO.P,J1,4,Pin_4_4*%
%TO.N,+3V3*%
X35560000Y2540000D03*
%TO.P,J1,5,Pin_5_5*%
%TO.N,+5V*%
X38100000Y2540000D03*
%TO.P,J1,6,Pin_6_6*%
%TO.N,GND*%
X40640000Y2540000D03*
%TO.P,J1,7,Pin_7_7*%
X43180000Y2540000D03*
%TO.P,J1,8,Pin_8_8*%
%TO.N,VCC*%
X45720000Y2540000D03*
%TD*%
D13*
%TO.P,J2,1,Pin_1_1*%
%TO.N,/A0*%
X50800000Y2540000D03*
D14*
%TO.P,J2,2,Pin_2_2*%
%TO.N,/A1*%
X53340000Y2540000D03*
%TO.P,J2,3,Pin_3_3*%
%TO.N,/A2*%
X55880000Y2540000D03*
%TO.P,J2,4,Pin_4_4*%
%TO.N,/A3*%
X58420000Y2540000D03*
%TO.P,J2,5,Pin_5_5*%
%TO.N,/A4*%
X60960000Y2540000D03*
%TO.P,J2,6,Pin_6_6*%
%TO.N,/A5*%
X63500000Y2540000D03*
%TO.P,J2,7,Pin_7_7*%
%TO.N,/A6*%
X66040000Y2540000D03*
%TO.P,J2,8,Pin_8_8*%
%TO.N,/A7*%
X68580000Y2540000D03*
%TD*%
D13*
%TO.P,J3,1,Pin_1_1*%
%TO.N,/A8*%
X73660000Y2540000D03*
D14*
%TO.P,J3,2,Pin_2_2*%
%TO.N,/A9*%
X76200000Y2540000D03*
%TO.P,J3,3,Pin_3_3*%
%TO.N,/A10*%
X78740000Y2540000D03*
%TO.P,J3,4,Pin_4_4*%
%TO.N,/A11*%
X81280000Y2540000D03*
%TO.P,J3,5,Pin_5_5*%
%TO.N,/A12*%
X83820000Y2540000D03*
%TO.P,J3,6,Pin_6_6*%
%TO.N,/A13*%
X86360000Y2540000D03*
%TO.P,J3,7,Pin_7_7*%
%TO.N,/A14*%
X88900000Y2540000D03*
%TO.P,J3,8,Pin_8_8*%
%TO.N,/A15*%
X91440000Y2540000D03*
%TD*%
D13*
%TO.P,J5,1,Pin_1_1*%
%TO.N,/SCL{slash}21*%
X18796000Y50800000D03*
D14*
%TO.P,J5,2,Pin_2_2*%
%TO.N,/SDA{slash}20*%
X21336000Y50800000D03*
%TO.P,J5,3,Pin_3_3*%
%TO.N,/AREF*%
X23876000Y50800000D03*
%TO.P,J5,4,Pin_4_4*%
%TO.N,GND*%
X26416000Y50800000D03*
%TO.P,J5,5,Pin_5_5*%
%TO.N,/D13*%
X28956000Y50800000D03*
%TO.P,J5,6,Pin_6_6*%
%TO.N,/D12*%
X31496000Y50800000D03*
%TO.P,J5,7,Pin_7_7*%
%TO.N,/D11*%
X34036000Y50800000D03*
%TO.P,J5,8,Pin_8_8*%
%TO.N,/D10*%
X36576000Y50800000D03*
%TO.P,J5,9,Pin_9_9*%
%TO.N,/D9*%
X39116000Y50800000D03*
%TO.P,J5,10,Pin_10_10*%
%TO.N,/D8*%
X41656000Y50800000D03*
%TD*%
D13*
%TO.P,J6,1,Pin_1_1*%
%TO.N,/D7*%
X45720000Y50800000D03*
D14*
%TO.P,J6,2,Pin_2_2*%
%TO.N,/D6*%
X48260000Y50800000D03*
%TO.P,J6,3,Pin_3_3*%
%TO.N,/D5*%
X50800000Y50800000D03*
%TO.P,J6,4,Pin_4_4*%
%TO.N,/D4*%
X53340000Y50800000D03*
%TO.P,J6,5,Pin_5_5*%
%TO.N,/D3*%
X55880000Y50800000D03*
%TO.P,J6,6,Pin_6_6*%
%TO.N,/D2*%
X58420000Y50800000D03*
%TO.P,J6,7,Pin_7_7*%
%TO.N,/TX0{slash}1*%
X60960000Y50800000D03*
%TO.P,J6,8,Pin_8_8*%
%TO.N,/RX0{slash}0*%
X63500000Y50800000D03*
%TD*%
D13*
%TO.P,J7,1,Pin_1_1*%
%TO.N,/TX3{slash}14*%
X68580000Y50800000D03*
D14*
%TO.P,J7,2,Pin_2_2*%
%TO.N,/RX3{slash}15*%
X71120000Y50800000D03*
%TO.P,J7,3,Pin_3_3*%
%TO.N,/TX2{slash}16*%
X73660000Y50800000D03*
%TO.P,J7,4,Pin_4_4*%
%TO.N,/RX2{slash}17*%
X76200000Y50800000D03*
%TO.P,J7,5,Pin_5_5*%
%TO.N,/TX1{slash}18*%
X78740000Y50800000D03*
%TO.P,J7,6,Pin_6_6*%
%TO.N,/RX1{slash}19*%
X81280000Y50800000D03*
%TO.P,J7,7,Pin_7_7*%
%TO.N,/SDA{slash}20*%
X83820000Y50800000D03*
%TO.P,J7,8,Pin_8_8*%
%TO.N,/SCL{slash}21*%
X86360000Y50800000D03*
%TD*%
D11*
%TO.P,R3,1*%
%TO.N,Net-(D3-K)*%
X72045000Y26400000D03*
%TO.P,R3,2*%
%TO.N,Net-(Q3-D)*%
X74045000Y26400000D03*
%TD*%
D15*
%TO.P,Q2,1,G_1*%
%TO.N,/D24*%
X81300000Y32750000D03*
%TO.P,Q2,2,S_2*%
%TO.N,GND*%
X81300000Y34650000D03*
%TO.P,Q2,3,D_3*%
%TO.N,Net-(Q2-D)*%
X78300000Y33700000D03*
%TD*%
D11*
%TO.P,R17,1*%
%TO.N,/D8*%
X30200000Y21000000D03*
%TO.P,R17,2*%
%TO.N,Net-(C3-Pad1)*%
X32200000Y21000000D03*
%TD*%
D16*
%TO.P,RV2,1,1_1*%
%TO.N,+5V*%
X40060000Y31585000D03*
%TO.P,RV2,2,2_2*%
%TO.N,/A1*%
X42600000Y29045000D03*
%TO.P,RV2,3,3_3*%
%TO.N,GND*%
X45140000Y31585000D03*
%TD*%
D17*
%TO.P,R28,1*%
%TO.N,/D23*%
X84500000Y37200000D03*
%TO.P,R28,2*%
%TO.N,GND*%
X84500000Y39200000D03*
%TD*%
D15*
%TO.P,Q3,1,G_1*%
%TO.N,/D25*%
X81300000Y28250000D03*
%TO.P,Q3,2,S_2*%
%TO.N,GND*%
X81300000Y30150000D03*
%TO.P,Q3,3,D_3*%
%TO.N,Net-(Q3-D)*%
X78300000Y29200000D03*
%TD*%
D11*
%TO.P,R5,1*%
%TO.N,Net-(D5-K)*%
X72045000Y16200000D03*
%TO.P,R5,2*%
%TO.N,Net-(Q5-D)*%
X74045000Y16200000D03*
%TD*%
D15*
%TO.P,Q0,1,G_1*%
%TO.N,/D22*%
X81300000Y41750000D03*
%TO.P,Q0,2,S_2*%
%TO.N,GND*%
X81300000Y43650000D03*
%TO.P,Q0,3,D_3*%
%TO.N,Net-(Q0-D)*%
X78300000Y42700000D03*
%TD*%
D18*
%TO.P,D7,1,K_1*%
%TO.N,Net-(D7-K)*%
X74025000Y8500000D03*
%TO.P,D7,2,A_2*%
%TO.N,+5V*%
X71975000Y8500000D03*
%TD*%
D19*
%TO.P,DA1,1,K_1*%
%TO.N,Net-(DA1-K)*%
X4550000Y42050000D03*
%TO.P,DA1,2,A_2*%
%TO.N,+5V*%
X4550000Y40000000D03*
%TD*%
D11*
%TO.P,R6,1*%
%TO.N,Net-(D6-K)*%
X72045000Y11100000D03*
%TO.P,R6,2*%
%TO.N,Net-(Q6-D)*%
X74045000Y11100000D03*
%TD*%
D16*
%TO.P,RV1,1,1_1*%
%TO.N,+5V*%
X40060000Y15585000D03*
%TO.P,RV1,2,2_2*%
%TO.N,/A0*%
X42600000Y13045000D03*
%TO.P,RV1,3,3_3*%
%TO.N,GND*%
X45140000Y15585000D03*
%TD*%
D18*
%TO.P,D1,1,K_1*%
%TO.N,Net-(D1-K)*%
X74025000Y39300000D03*
%TO.P,D1,2,A_2*%
%TO.N,+5V*%
X71975000Y39300000D03*
%TD*%
D20*
%TO.P,BZ1,1,+_1*%
%TO.N,+5V*%
X5029216Y19800000D03*
D21*
%TO.P,BZ1,2,-_2*%
%TO.N,Net-(BZ1--)*%
X10029216Y19800000D03*
%TD*%
D18*
%TO.P,D0,1,K_1*%
%TO.N,Net-(D0-K)*%
X74025000Y44325000D03*
%TO.P,D0,2,A_2*%
%TO.N,+5V*%
X71975000Y44325000D03*
%TD*%
D17*
%TO.P,R21,1*%
%TO.N,/D26*%
X84500000Y23700000D03*
%TO.P,R21,2*%
%TO.N,GND*%
X84500000Y25700000D03*
%TD*%
D11*
%TO.P,R2,1*%
%TO.N,Net-(D2-K)*%
X72045000Y31600000D03*
%TO.P,R2,2*%
%TO.N,Net-(Q2-D)*%
X74045000Y31600000D03*
%TD*%
D22*
%TO.P,R27,1*%
%TO.N,Net-(DB1-K)*%
X7100000Y30900000D03*
%TO.P,R27,2*%
%TO.N,Net-(Q9-D)*%
X7100000Y28900000D03*
%TD*%
D12*
%TO.P,R16,1*%
%TO.N,+5V*%
X32200000Y18200000D03*
%TO.P,R16,2*%
%TO.N,/D8*%
X30200000Y18200000D03*
%TD*%
D15*
%TO.P,Q4,1,G_1*%
%TO.N,/D26*%
X81300000Y23750000D03*
%TO.P,Q4,2,S_2*%
%TO.N,GND*%
X81300000Y25650000D03*
%TO.P,Q4,3,D_3*%
%TO.N,Net-(Q4-D)*%
X78300000Y24700000D03*
%TD*%
D23*
%TO.P,J11,1,Pin_1_1*%
%TO.N,GND*%
X53600000Y35900000D03*
D24*
%TO.P,J11,2,Pin_2_2*%
%TO.N,+5V*%
X55600000Y35900000D03*
%TO.P,J11,3,Pin_3_3*%
%TO.N,/SDA{slash}20*%
X57600000Y35900000D03*
%TO.P,J11,4,Pin_4_4*%
%TO.N,/SCL{slash}21*%
X59600000Y35900000D03*
%TD*%
D17*
%TO.P,R13,1*%
%TO.N,/D28*%
X84500000Y14700000D03*
%TO.P,R13,2*%
%TO.N,GND*%
X84500000Y16700000D03*
%TD*%
D25*
%TO.P,Q10,1,G_1*%
%TO.N,/D11*%
X5350000Y7200000D03*
%TO.P,Q10,2,S_2*%
%TO.N,GND*%
X7250000Y7200000D03*
%TO.P,Q10,3,D_3*%
%TO.N,Net-(Q10-D)*%
X6300000Y10200000D03*
%TD*%
D17*
%TO.P,R18,1*%
%TO.N,/D27*%
X84500000Y19200000D03*
%TO.P,R18,2*%
%TO.N,GND*%
X84500000Y21200000D03*
%TD*%
D12*
%TO.P,R29,1*%
%TO.N,/D11*%
X12000000Y8000000D03*
%TO.P,R29,2*%
%TO.N,GND*%
X10000000Y8000000D03*
%TD*%
D21*
%TO.P,SW4,1,1_1*%
%TO.N,GND*%
X19009078Y12700000D03*
X25509078Y12700000D03*
%TO.P,SW4,2,2_2*%
%TO.N,Net-(C4-Pad1)*%
X19009078Y8200000D03*
X25509078Y8200000D03*
%TD*%
D17*
%TO.P,R30,1*%
%TO.N,/D22*%
X84500000Y41700000D03*
%TO.P,R30,2*%
%TO.N,GND*%
X84500000Y43700000D03*
%TD*%
D23*
%TO.P,J10,1,Pin_1_1*%
%TO.N,GND*%
X53600000Y43200000D03*
D24*
%TO.P,J10,2,Pin_2_2*%
%TO.N,+5V*%
X55600000Y43200000D03*
%TO.P,J10,3,Pin_3_3*%
%TO.N,/TX1{slash}18*%
X57600000Y43200000D03*
%TO.P,J10,4,Pin_4_4*%
%TO.N,/RX1{slash}19*%
X59600000Y43200000D03*
%TD*%
D26*
%TO.P,Q9,1,G_1*%
%TO.N,/D12*%
X11750000Y31500000D03*
%TO.P,Q9,2,S_2*%
%TO.N,GND*%
X9850000Y31500000D03*
%TO.P,Q9,3,D_3*%
%TO.N,Net-(Q9-D)*%
X10800000Y28500000D03*
%TD*%
D22*
%TO.P,R24,1*%
%TO.N,Net-(DA1-K)*%
X7100000Y42000000D03*
%TO.P,R24,2*%
%TO.N,Net-(Q8-D)*%
X7100000Y40000000D03*
%TD*%
D17*
%TO.P,R10,1*%
%TO.N,/D29*%
X84500000Y10200000D03*
%TO.P,R10,2*%
%TO.N,GND*%
X84500000Y12200000D03*
%TD*%
D26*
%TO.P,Q8,1,G_1*%
%TO.N,/D13*%
X11750000Y42000000D03*
%TO.P,Q8,2,S_2*%
%TO.N,GND*%
X9850000Y42000000D03*
%TO.P,Q8,3,D_3*%
%TO.N,Net-(Q8-D)*%
X10800000Y39000000D03*
%TD*%
D15*
%TO.P,Q6,1,G_1*%
%TO.N,/D28*%
X81300000Y14750000D03*
%TO.P,Q6,2,S_2*%
%TO.N,GND*%
X81300000Y16650000D03*
%TO.P,Q6,3,D_3*%
%TO.N,Net-(Q6-D)*%
X78300000Y15700000D03*
%TD*%
%TO.P,Q7,1,G_1*%
%TO.N,/D29*%
X81300000Y10250000D03*
%TO.P,Q7,2,S_2*%
%TO.N,GND*%
X81300000Y12150000D03*
%TO.P,Q7,3,D_3*%
%TO.N,Net-(Q7-D)*%
X78300000Y11200000D03*
%TD*%
D22*
%TO.P,R15,1*%
%TO.N,/A2*%
X47800000Y43400000D03*
%TO.P,R15,2*%
%TO.N,GND*%
X47800000Y41400000D03*
%TD*%
D11*
%TO.P,R7,1*%
%TO.N,Net-(D7-K)*%
X76715000Y7810000D03*
%TO.P,R7,2*%
%TO.N,Net-(Q7-D)*%
X78715000Y7810000D03*
%TD*%
D23*
%TO.P,J9,1,Pin_1_1*%
%TO.N,GND*%
X53600000Y21650000D03*
D24*
%TO.P,J9,2,Pin_2_2*%
%TO.N,+5V*%
X55600000Y21650000D03*
%TO.P,J9,3,Pin_3_3*%
%TO.N,/D50*%
X57600000Y21650000D03*
%TO.P,J9,4,Pin_4_4*%
%TO.N,/D51*%
X59600000Y21650000D03*
%TO.P,J9,5,Pin_5_5*%
%TO.N,/D52*%
X61600000Y21650000D03*
%TO.P,J9,6,Pin_6_6*%
%TO.N,/D53*%
X63600000Y21650000D03*
%TD*%
D12*
%TO.P,R26,1*%
%TO.N,/D12*%
X11800000Y34600000D03*
%TO.P,R26,2*%
%TO.N,GND*%
X9800000Y34600000D03*
%TD*%
D21*
%TO.P,SW1,1,1_1*%
%TO.N,GND*%
X19009078Y44300000D03*
X25509078Y44300000D03*
%TO.P,SW1,2,2_2*%
%TO.N,Net-(C1-Pad1)*%
X19009078Y39800000D03*
X25509078Y39800000D03*
%TD*%
D11*
%TO.P,R20,1*%
%TO.N,/D7*%
X30200000Y11000000D03*
%TO.P,R20,2*%
%TO.N,Net-(C4-Pad1)*%
X32200000Y11000000D03*
%TD*%
D18*
%TO.P,D4,1,K_1*%
%TO.N,Net-(D4-K)*%
X74025000Y23800000D03*
%TO.P,D4,2,A_2*%
%TO.N,+5V*%
X71975000Y23800000D03*
%TD*%
D17*
%TO.P,R25,1*%
%TO.N,/D24*%
X84500000Y32850756D03*
%TO.P,R25,2*%
%TO.N,GND*%
X84500000Y34850756D03*
%TD*%
D18*
%TO.P,D6,1,K_1*%
%TO.N,Net-(D6-K)*%
X74025000Y13600000D03*
%TO.P,D6,2,A_2*%
%TO.N,+5V*%
X71975000Y13600000D03*
%TD*%
D21*
%TO.P,SW2,1,1_1*%
%TO.N,GND*%
X19009078Y33750000D03*
X25509078Y33750000D03*
%TO.P,SW2,2,2_2*%
%TO.N,Net-(C2-Pad1)*%
X19009078Y29250000D03*
X25509078Y29250000D03*
%TD*%
D18*
%TO.P,D2,1,K_1*%
%TO.N,Net-(D2-K)*%
X74025000Y34100000D03*
%TO.P,D2,2,A_2*%
%TO.N,+5V*%
X71975000Y34100000D03*
%TD*%
D15*
%TO.P,Q1,1,G_1*%
%TO.N,/D23*%
X81300000Y37250000D03*
%TO.P,Q1,2,S_2*%
%TO.N,GND*%
X81300000Y39150000D03*
%TO.P,Q1,3,D_3*%
%TO.N,Net-(Q1-D)*%
X78300000Y38200000D03*
%TD*%
D18*
%TO.P,D5,1,K_1*%
%TO.N,Net-(D5-K)*%
X74025000Y18700000D03*
%TO.P,D5,2,A_2*%
%TO.N,+5V*%
X71975000Y18700000D03*
%TD*%
D12*
%TO.P,R19,1*%
%TO.N,+5V*%
X32200000Y8200000D03*
%TO.P,R19,2*%
%TO.N,/D7*%
X30200000Y8200000D03*
%TD*%
D11*
%TO.P,R1,1*%
%TO.N,Net-(D1-K)*%
X72045000Y36800000D03*
%TO.P,R1,2*%
%TO.N,Net-(Q1-D)*%
X74045000Y36800000D03*
%TD*%
D12*
%TO.P,R23,1*%
%TO.N,/D13*%
X11800000Y45300000D03*
%TO.P,R23,2*%
%TO.N,GND*%
X9800000Y45300000D03*
%TD*%
D11*
%TO.P,R0,1*%
%TO.N,Net-(D0-K)*%
X72045000Y41800000D03*
%TO.P,R0,2*%
%TO.N,Net-(Q0-D)*%
X74045000Y41800000D03*
%TD*%
D23*
%TO.P,J8,1,Pin_1_1*%
%TO.N,GND*%
X53600000Y14000000D03*
D24*
%TO.P,J8,2,Pin_2_2*%
%TO.N,+5V*%
X55600000Y14000000D03*
%TO.P,J8,3,Pin_3_3*%
%TO.N,/D50*%
X57600000Y14000000D03*
%TO.P,J8,4,Pin_4_4*%
%TO.N,/D51*%
X59600000Y14000000D03*
%TO.P,J8,5,Pin_5_5*%
%TO.N,/D52*%
X61600000Y14000000D03*
%TO.P,J8,6,Pin_6_6*%
%TO.N,/D53*%
X63600000Y14000000D03*
%TD*%
D15*
%TO.P,Q5,1,G_1*%
%TO.N,/D27*%
X81300000Y19250000D03*
%TO.P,Q5,2,S_2*%
%TO.N,GND*%
X81300000Y21150000D03*
%TO.P,Q5,3,D_3*%
%TO.N,Net-(Q5-D)*%
X78300000Y20200000D03*
%TD*%
D12*
%TO.P,R31,1*%
%TO.N,Net-(BZ1--)*%
X12000000Y11000000D03*
%TO.P,R31,2*%
%TO.N,Net-(Q10-D)*%
X10000000Y11000000D03*
%TD*%
D10*
%TO.P,C3,1*%
%TO.N,Net-(C3-Pad1)*%
X32237500Y23800000D03*
%TO.P,C3,2*%
%TO.N,GND*%
X30162500Y23800000D03*
%TD*%
D18*
%TO.P,D3,1,K_1*%
%TO.N,Net-(D3-K)*%
X74025000Y28900000D03*
%TO.P,D3,2,A_2*%
%TO.N,+5V*%
X71975000Y28900000D03*
%TD*%
D21*
%TO.P,SW3,1,1_1*%
%TO.N,GND*%
X19009078Y23250000D03*
X25509078Y23250000D03*
%TO.P,SW3,2,2_2*%
%TO.N,Net-(C3-Pad1)*%
X19009078Y18750000D03*
X25509078Y18750000D03*
%TD*%
D27*
%TO.P,R14,1*%
%TO.N,+5V*%
X39300000Y42600000D03*
%TO.P,R14,2*%
%TO.N,/A2*%
X42700000Y42600000D03*
%TD*%
D11*
%TO.P,R4,1*%
%TO.N,Net-(D4-K)*%
X72045000Y21300000D03*
%TO.P,R4,2*%
%TO.N,Net-(Q4-D)*%
X74045000Y21300000D03*
%TD*%
D17*
%TO.P,R22,1*%
%TO.N,/D25*%
X84500000Y28200000D03*
%TO.P,R22,2*%
%TO.N,GND*%
X84500000Y30200000D03*
%TD*%
D19*
%TO.P,DB1,1,K_1*%
%TO.N,Net-(DB1-K)*%
X4550000Y30900000D03*
%TO.P,DB1,2,A_2*%
%TO.N,+5V*%
X4550000Y28850000D03*
%TD*%
D23*
%TO.P,J12,1,Pin_1_1*%
%TO.N,GND*%
X53600000Y28900000D03*
D24*
%TO.P,J12,2,Pin_2_2*%
%TO.N,+5V*%
X55600000Y28900000D03*
%TO.P,J12,3,Pin_3_3*%
%TO.N,/SDA{slash}20*%
X57600000Y28900000D03*
%TO.P,J12,4,Pin_4_4*%
%TO.N,/SCL{slash}21*%
X59600000Y28900000D03*
%TD*%
D10*
%TO.P,C4,1*%
%TO.N,Net-(C4-Pad1)*%
X32237500Y13800000D03*
%TO.P,C4,2*%
%TO.N,GND*%
X30162500Y13800000D03*
%TD*%
D28*
%TO.N,GND*%
X86200000Y39600000D03*
X86600000Y30800000D03*
X8675000Y9475000D03*
X86600000Y17400000D03*
X86600000Y12800000D03*
X86600000Y45000000D03*
X7850000Y45300000D03*
X86600000Y26000000D03*
X86600000Y21800000D03*
X7825000Y34600000D03*
X86600000Y35600000D03*
%TD*%
%TO.N,/A1*%
D29*
X42600000Y23900000D02*
X42600000Y29045000D01*
X47800000Y18700000D02*
X42600000Y23900000D01*
X53340000Y2860000D02*
X47800000Y8400000D01*
X47800000Y8400000D02*
X47800000Y18700000D01*
X53340000Y2540000D02*
X53340000Y2860000D01*
%TO.N,/A0*%
X42600000Y10740000D02*
X42600000Y13045000D01*
X50800000Y2540000D02*
X42600000Y10740000D01*
%TO.N,GND*%
D30*
X45140000Y38740000D02*
X45140000Y31585000D01*
X47800000Y41400000D02*
X45140000Y38740000D01*
%TO.N,/A2*%
D29*
X43500000Y43400000D02*
X42700000Y42600000D01*
X47800000Y43400000D02*
X43500000Y43400000D01*
%TO.N,/D11*%
X14000000Y6400000D02*
X12400000Y6400000D01*
X15000000Y43400000D02*
X15000000Y7400000D01*
X15000000Y7400000D02*
X14000000Y6400000D01*
X30700000Y46200000D02*
X17800000Y46200000D01*
X17800000Y46200000D02*
X15000000Y43400000D01*
X34036000Y49536000D02*
X30700000Y46200000D01*
X34036000Y50800000D02*
X34036000Y49536000D01*
%TO.N,/D12*%
X31496000Y49496000D02*
X31496000Y50800000D01*
X13500000Y35500000D02*
X13500000Y44000000D01*
X11750000Y34000000D02*
X12000000Y34000000D01*
X12000000Y34000000D02*
X13500000Y35500000D01*
X13500000Y44000000D02*
X16900000Y47400000D01*
X11750000Y31500000D02*
X11750000Y34000000D01*
X16900000Y47400000D02*
X29400000Y47400000D01*
X29400000Y47400000D02*
X31496000Y49496000D01*
%TO.N,GND*%
D30*
X26209078Y13400000D02*
X25509078Y12700000D01*
X29762500Y13400000D02*
X26209078Y13400000D01*
X30162500Y13800000D02*
X29762500Y13400000D01*
%TO.N,Net-(C4-Pad1)*%
D29*
X32237500Y12837500D02*
X31800000Y12400000D01*
X32237500Y13800000D02*
X32237500Y12837500D01*
X32037500Y12400000D02*
X32237500Y12200000D01*
X32237500Y12200000D02*
X32237500Y11037500D01*
X32000000Y12400000D02*
X32037500Y12400000D01*
X32200000Y12600000D02*
X32000000Y12400000D01*
X32237500Y12600000D02*
X32200000Y12600000D01*
X31800000Y12400000D02*
X32000000Y12400000D01*
X32237500Y12600000D02*
X32237500Y12400000D01*
X32200000Y12000000D02*
X31800000Y12400000D01*
X32200000Y11000000D02*
X32200000Y12000000D01*
X32000000Y12400000D02*
X32237500Y12400000D01*
X25509078Y8200000D02*
X29709078Y12400000D01*
X32237500Y12400000D02*
X32237500Y12200000D01*
X29709078Y12400000D02*
X31800000Y12400000D01*
%TO.N,/D7*%
X30200000Y9200000D02*
X30600000Y9600000D01*
X30200000Y8200000D02*
X30200000Y9200000D01*
X30200000Y11000000D02*
X30200000Y10000000D01*
X30600000Y9600000D02*
X30200000Y9600000D01*
X30200000Y10000000D02*
X30600000Y9600000D01*
X35000000Y9600000D02*
X30600000Y9600000D01*
X30200000Y9600000D02*
X30200000Y8200000D01*
X30200000Y11000000D02*
X30200000Y9600000D01*
%TO.N,+5V*%
D30*
X32200000Y6200000D02*
X32200000Y8200000D01*
%TO.N,/D7*%
D29*
X37500000Y45500000D02*
X37500000Y12100000D01*
X40000000Y48000000D02*
X37500000Y45500000D01*
X44000000Y48000000D02*
X40000000Y48000000D01*
X45720000Y49720000D02*
X44000000Y48000000D01*
X45720000Y50800000D02*
X45720000Y49720000D01*
X37500000Y12100000D02*
X35000000Y9600000D01*
%TO.N,Net-(C4-Pad1)*%
X32237500Y11037500D02*
X32200000Y11000000D01*
X32237500Y13800000D02*
X32237500Y12600000D01*
%TO.N,+5V*%
D30*
X32200000Y6000000D02*
X31600000Y5400000D01*
X31600000Y5400000D02*
X32200000Y5400000D01*
X32200000Y6200000D02*
X32200000Y6000000D01*
X32800000Y5400000D02*
X37400000Y5400000D01*
X32200000Y6200000D02*
X32200000Y5400000D01*
X32200000Y6000000D02*
X32800000Y5400000D01*
X32200000Y5400000D02*
X32800000Y5400000D01*
X38100000Y4700000D02*
X37400000Y5400000D01*
X38100000Y4600000D02*
X38100000Y5400000D01*
X38100000Y4600000D02*
X38100000Y4700000D01*
X38100000Y6100000D02*
X37400000Y5400000D01*
X37400000Y5400000D02*
X38100000Y5400000D01*
X17400000Y5400000D02*
X31600000Y5400000D01*
X38100000Y5400000D02*
X38100000Y6100000D01*
%TO.N,GND*%
X29962500Y23600000D02*
X30162500Y23800000D01*
X25859078Y23600000D02*
X29962500Y23600000D01*
X25509078Y23250000D02*
X25859078Y23600000D01*
%TO.N,Net-(C3-Pad1)*%
D29*
X32200000Y22000000D02*
X31800000Y22400000D01*
X32200000Y21000000D02*
X32200000Y22000000D01*
X32237500Y22837500D02*
X31800000Y22400000D01*
X32237500Y23800000D02*
X32237500Y22837500D01*
X31800000Y22400000D02*
X32200000Y22400000D01*
X29159078Y22400000D02*
X31800000Y22400000D01*
X25509078Y18750000D02*
X29159078Y22400000D01*
X32200000Y22400000D02*
X32200000Y23762500D01*
%TO.N,/D8*%
X30200000Y19200000D02*
X30600000Y19600000D01*
X30200000Y18200000D02*
X30200000Y19200000D01*
X30200000Y20000000D02*
X30600000Y19600000D01*
X30200000Y21000000D02*
X30200000Y20000000D01*
X30600000Y19600000D02*
X30200000Y19600000D01*
%TO.N,Net-(C3-Pad1)*%
X32200000Y23762500D02*
X32237500Y23800000D01*
X32200000Y21000000D02*
X32200000Y22400000D01*
%TO.N,/D8*%
X35200000Y19600000D02*
X30600000Y19600000D01*
X36400000Y46150000D02*
X36400000Y20800000D01*
X39250000Y49000000D02*
X36400000Y46150000D01*
X41000000Y49000000D02*
X39250000Y49000000D01*
X41656000Y49656000D02*
X41000000Y49000000D01*
X41656000Y50800000D02*
X41656000Y49656000D01*
X36400000Y20800000D02*
X35200000Y19600000D01*
X30200000Y19600000D02*
X30200000Y18400000D01*
X30200000Y21000000D02*
X30200000Y19600000D01*
%TO.N,+5V*%
D30*
X31612001Y16012001D02*
X32200000Y16600000D01*
X32200000Y16600000D02*
X32200000Y18400000D01*
X17800000Y16012001D02*
X31612001Y16012001D01*
%TO.N,Net-(C2-Pad1)*%
D29*
X32200000Y32200000D02*
X31800000Y32600000D01*
X32200000Y31200000D02*
X32200000Y32200000D01*
X32237500Y33037500D02*
X31800000Y32600000D01*
X32237500Y34000000D02*
X32237500Y33037500D01*
X31800000Y32600000D02*
X32000000Y32600000D01*
X32037500Y32600000D02*
X32237500Y32400000D01*
X32000000Y32600000D02*
X32037500Y32600000D01*
X32237500Y32400000D02*
X32237500Y31237500D01*
X32200000Y32800000D02*
X32000000Y32600000D01*
X32237500Y32800000D02*
X32200000Y32800000D01*
X32000000Y32600000D02*
X32200000Y32600000D01*
X32237500Y32800000D02*
X32237500Y32400000D01*
X32237500Y34000000D02*
X32237500Y32800000D01*
X28859078Y32600000D02*
X31800000Y32600000D01*
X32237500Y31237500D02*
X32200000Y31200000D01*
X25509078Y29250000D02*
X28859078Y32600000D01*
%TO.N,/D9*%
X30200000Y29200000D02*
X30200000Y29600000D01*
X30600000Y29600000D02*
X30200000Y29200000D01*
X30200000Y30000000D02*
X30200000Y31200000D01*
X30600000Y29600000D02*
X30200000Y30000000D01*
X30600000Y29600000D02*
X30200000Y29600000D01*
X34800000Y29600000D02*
X30600000Y29600000D01*
X35400000Y30200000D02*
X34800000Y29600000D01*
X30200000Y28200000D02*
X30200000Y29200000D01*
X30200000Y29600000D02*
X30200000Y30000000D01*
X39116000Y50616000D02*
X35400000Y46900000D01*
X35400000Y46900000D02*
X35400000Y30200000D01*
X39116000Y50800000D02*
X39116000Y50616000D01*
%TO.N,GND*%
D30*
X29912500Y33750000D02*
X30162500Y34000000D01*
X25509078Y33750000D02*
X29912500Y33750000D01*
%TO.N,+5V*%
X17000000Y26000000D02*
X16400000Y25400000D01*
X17200000Y26000000D02*
X17000000Y26000000D01*
X17000000Y26000000D02*
X16400000Y26600000D01*
X17200000Y26000000D02*
X16400000Y26000000D01*
X31600000Y26000000D02*
X17200000Y26000000D01*
X16400000Y26000000D02*
X16400000Y26600000D01*
X32200000Y26600000D02*
X31600000Y26000000D01*
X32200000Y28200000D02*
X32200000Y26600000D01*
%TO.N,GND*%
X25609078Y44200000D02*
X25509078Y44300000D01*
X30162500Y44200000D02*
X25609078Y44200000D01*
%TO.N,/D10*%
D29*
X30800000Y40000000D02*
X30200000Y39400000D01*
X30200000Y39400000D02*
X30200000Y38600000D01*
X30800000Y40000000D02*
X30200000Y40600000D01*
X30200000Y41400000D02*
X30200000Y40600000D01*
X30800000Y40000000D02*
X30600000Y40000000D01*
X30600000Y40000000D02*
X30200000Y39600000D01*
X30200000Y40000000D02*
X30200000Y39600000D01*
X30200000Y40400000D02*
X30600000Y40000000D01*
X30600000Y40000000D02*
X30200000Y40000000D01*
X30200000Y40400000D02*
X30200000Y40000000D01*
X33200000Y40000000D02*
X30800000Y40000000D01*
X30200000Y39600000D02*
X30200000Y39400000D01*
X34000000Y40800000D02*
X33200000Y40000000D01*
X34000000Y47500000D02*
X34000000Y40800000D01*
X36576000Y50076000D02*
X34000000Y47500000D01*
X36576000Y50800000D02*
X36576000Y50076000D01*
%TO.N,Net-(C1-Pad1)*%
X32200000Y42400000D02*
X31800000Y42800000D01*
X32200000Y41400000D02*
X32200000Y42400000D01*
X32237500Y43237500D02*
X31800000Y42800000D01*
X31800000Y42800000D02*
X32200000Y42800000D01*
X32237500Y44200000D02*
X32237500Y43237500D01*
X32200000Y42800000D02*
X32200000Y44162500D01*
X32200000Y44162500D02*
X32237500Y44200000D01*
%TO.N,/D10*%
X30200000Y40600000D02*
X30200000Y40400000D01*
%TO.N,+5V*%
D30*
X32200000Y36600000D02*
X32200000Y38600000D01*
X31600000Y36000000D02*
X32200000Y36600000D01*
X16800000Y36000000D02*
X31600000Y36000000D01*
%TO.N,GND*%
X9850000Y45250000D02*
X9800000Y45300000D01*
X84500000Y30200000D02*
X86000000Y30200000D01*
X81300000Y25650000D02*
X84450000Y25650000D01*
X8675000Y8625000D02*
X8675000Y9475000D01*
X85300000Y43700000D02*
X86600000Y45000000D01*
X43180000Y2540000D02*
X40640000Y2540000D01*
X84500000Y25700000D02*
X86300000Y25700000D01*
X84299244Y34650000D02*
X84500000Y34850756D01*
X81300000Y34650000D02*
X84299244Y34650000D01*
X9800000Y34600000D02*
X7825000Y34600000D01*
X84450000Y21150000D02*
X84500000Y21200000D01*
X84500000Y39200000D02*
X81350000Y39200000D01*
X84450000Y16650000D02*
X84500000Y16700000D01*
X84500000Y12200000D02*
X86000000Y12200000D01*
X86000000Y30200000D02*
X86600000Y30800000D01*
X84450000Y12150000D02*
X84500000Y12200000D01*
X84500000Y34850756D02*
X85850756Y34850756D01*
X7250000Y7200000D02*
X8675000Y8625000D01*
X85850756Y34850756D02*
X86600000Y35600000D01*
X9850000Y34550000D02*
X9800000Y34600000D01*
X84500000Y43700000D02*
X85300000Y43700000D01*
X9300000Y8000000D02*
X8675000Y8625000D01*
X85800000Y39200000D02*
X86200000Y39600000D01*
X81350000Y39200000D02*
X81300000Y39150000D01*
X86000000Y12200000D02*
X86600000Y12800000D01*
X81300000Y43650000D02*
X84450000Y43650000D01*
X9850000Y31500000D02*
X9850000Y34550000D01*
X81300000Y30150000D02*
X84450000Y30150000D01*
X86000000Y21200000D02*
X86600000Y21800000D01*
X84450000Y30150000D02*
X84500000Y30200000D01*
X10000000Y8000000D02*
X8050000Y8000000D01*
X9800000Y45300000D02*
X7850000Y45300000D01*
X84500000Y16700000D02*
X85900000Y16700000D01*
X81300000Y12150000D02*
X84450000Y12150000D01*
X84500000Y39200000D02*
X85800000Y39200000D01*
D29*
X96520000Y7620000D02*
X93980000Y7620000D01*
D30*
X10000000Y8000000D02*
X9300000Y8000000D01*
X81300000Y16650000D02*
X84450000Y16650000D01*
X85900000Y16700000D02*
X86600000Y17400000D01*
X84450000Y25650000D02*
X84500000Y25700000D01*
X9850000Y42000000D02*
X9850000Y45250000D01*
X86300000Y25700000D02*
X86600000Y26000000D01*
X81300000Y21150000D02*
X84450000Y21150000D01*
X84500000Y21200000D02*
X86000000Y21200000D01*
X8050000Y8000000D02*
X7250000Y7200000D01*
X84450000Y43650000D02*
X84500000Y43700000D01*
%TO.N,/D52*%
D29*
X66800000Y11400000D02*
X66800000Y23400000D01*
X65800000Y10400000D02*
X66800000Y11400000D01*
X62200000Y24200000D02*
X61600000Y23600000D01*
X93980000Y10160000D02*
X91560000Y10160000D01*
X63400000Y6200000D02*
X63400000Y9000000D01*
X64800000Y10400000D02*
X65800000Y10400000D01*
X61600000Y21650000D02*
X61600000Y14000000D01*
X61600000Y23600000D02*
X61600000Y21650000D01*
X64600000Y5000000D02*
X63400000Y6200000D01*
X63400000Y9000000D02*
X64800000Y10400000D01*
X66800000Y23400000D02*
X66000000Y24200000D01*
X66000000Y24200000D02*
X62200000Y24200000D01*
X86400000Y5000000D02*
X64600000Y5000000D01*
X91560000Y10160000D02*
X86400000Y5000000D01*
%TO.N,/D53*%
X87800000Y4400000D02*
X63400000Y4400000D01*
X92320000Y8920000D02*
X87800000Y4400000D01*
X63400000Y4400000D02*
X62200000Y5600000D01*
X62200000Y5600000D02*
X62200000Y9800000D01*
X63600000Y11200000D02*
X63600000Y14000000D01*
X63600000Y21650000D02*
X63600000Y14000000D01*
X95280000Y8920000D02*
X92320000Y8920000D01*
X62200000Y9800000D02*
X63600000Y11200000D01*
X96520000Y10160000D02*
X95280000Y8920000D01*
%TO.N,/D50*%
X90500000Y12700000D02*
X84000000Y6200000D01*
X69200000Y7400000D02*
X69200000Y9000000D01*
X67400000Y25800000D02*
X58200000Y25800000D01*
X93680000Y13000000D02*
X93980000Y12700000D01*
X68400000Y9800000D02*
X68400000Y24800000D01*
X57600000Y25200000D02*
X57600000Y21650000D01*
X93980000Y12700000D02*
X90500000Y12700000D01*
X84000000Y6200000D02*
X70400000Y6200000D01*
X68400000Y24800000D02*
X67400000Y25800000D01*
X57600000Y21650000D02*
X57600000Y14000000D01*
X69200000Y9000000D02*
X68400000Y9800000D01*
X58200000Y25800000D02*
X57600000Y25200000D01*
X70400000Y6200000D02*
X69200000Y7400000D01*
%TO.N,/D51*%
X96520000Y12700000D02*
X95250000Y11430000D01*
X67600000Y24200000D02*
X66800000Y25000000D01*
X70000000Y5600000D02*
X68600000Y7000000D01*
X66800000Y25000000D02*
X60200000Y25000000D01*
X91030000Y11430000D02*
X85200000Y5600000D01*
X95250000Y11430000D02*
X91030000Y11430000D01*
X59600000Y24400000D02*
X59600000Y21650000D01*
X85200000Y5600000D02*
X70000000Y5600000D01*
X59600000Y21650000D02*
X59600000Y14000000D01*
X68600000Y7000000D02*
X68600000Y8600000D01*
X67600000Y9600000D02*
X67600000Y24200000D01*
X60200000Y25000000D02*
X59600000Y24400000D01*
X68600000Y8600000D02*
X67600000Y9600000D01*
%TO.N,/D28*%
X84450000Y14750000D02*
X84500000Y14700000D01*
X91200000Y20000000D02*
X91200000Y39400000D01*
X91200000Y39400000D02*
X92440000Y40640000D01*
X92440000Y40640000D02*
X93980000Y40640000D01*
X85900000Y14700000D02*
X91200000Y20000000D01*
X81300000Y14750000D02*
X84450000Y14750000D01*
X85000000Y14700000D02*
X85900000Y14700000D01*
%TO.N,/D29*%
X86000000Y10200000D02*
X92000000Y16200000D01*
X81300000Y10250000D02*
X84450000Y10250000D01*
X92000000Y38600000D02*
X92770000Y39370000D01*
X95250000Y39370000D02*
X96520000Y40640000D01*
X92000000Y16200000D02*
X92000000Y38600000D01*
X84450000Y10250000D02*
X84500000Y10200000D01*
X92770000Y39370000D02*
X95250000Y39370000D01*
X85100000Y10200000D02*
X86000000Y10200000D01*
%TO.N,/D26*%
X85076000Y23700000D02*
X86100000Y23700000D01*
X86100000Y23700000D02*
X89600000Y27200000D01*
X92580000Y43180000D02*
X93980000Y43180000D01*
X89600000Y27200000D02*
X89600000Y40200000D01*
X84450000Y23750000D02*
X84500000Y23700000D01*
X89600000Y40200000D02*
X92580000Y43180000D01*
X81300000Y23750000D02*
X84450000Y23750000D01*
%TO.N,/D27*%
X84450000Y19250000D02*
X84500000Y19200000D01*
X86000000Y19200000D02*
X90400000Y23600000D01*
X90400000Y23600000D02*
X90400000Y39800000D01*
X92510000Y41910000D02*
X95250000Y41910000D01*
X81300000Y19250000D02*
X84450000Y19250000D01*
X95250000Y41910000D02*
X96520000Y43180000D01*
X85000000Y19200000D02*
X86000000Y19200000D01*
X90400000Y39800000D02*
X92510000Y41910000D01*
%TO.N,/D24*%
X88000000Y34800000D02*
X86050756Y32850756D01*
X93980000Y45720000D02*
X92320000Y45720000D01*
X92320000Y45720000D02*
X88000000Y41400000D01*
X84399244Y32750000D02*
X84500000Y32850756D01*
X81300000Y32750000D02*
X84399244Y32750000D01*
X88000000Y41400000D02*
X88000000Y34800000D01*
X86050756Y32850756D02*
X84900000Y32850756D01*
%TO.N,/D25*%
X92450000Y44450000D02*
X95250000Y44450000D01*
X84976000Y28200000D02*
X86000000Y28200000D01*
X86000000Y28200000D02*
X88800000Y31000000D01*
X88800000Y40800000D02*
X92450000Y44450000D01*
X81300000Y28250000D02*
X84450000Y28250000D01*
X84450000Y28250000D02*
X84500000Y28200000D01*
X95250000Y44450000D02*
X96520000Y45720000D01*
X88800000Y31000000D02*
X88800000Y40800000D01*
%TO.N,/D22*%
X84450000Y41750000D02*
X84500000Y41700000D01*
X92660000Y48260000D02*
X93980000Y48260000D01*
X86100000Y41700000D02*
X92660000Y48260000D01*
X85100000Y41700000D02*
X86100000Y41700000D01*
X81300000Y41750000D02*
X84450000Y41750000D01*
%TO.N,/D23*%
X87200000Y38400000D02*
X87200000Y41800000D01*
X81300000Y37250000D02*
X84450000Y37250000D01*
X86000000Y37200000D02*
X87200000Y38400000D01*
X85000000Y37200000D02*
X86000000Y37200000D01*
X92390000Y46990000D02*
X95250000Y46990000D01*
X84450000Y37250000D02*
X84500000Y37200000D01*
X95250000Y46990000D02*
X96520000Y48260000D01*
X87200000Y41800000D02*
X92390000Y46990000D01*
%TO.N,+5V*%
D30*
X68200000Y26800000D02*
X68800000Y26800000D01*
X16400000Y25400000D02*
X16400000Y26000000D01*
X38800000Y42100000D02*
X39300000Y42600000D01*
X40060000Y31585000D02*
X38800000Y32845000D01*
X70200000Y23800000D02*
X69500000Y23800000D01*
X17187999Y16012001D02*
X16400000Y16800000D01*
X71975000Y23800000D02*
X70200000Y23800000D01*
X96520000Y50800000D02*
X93980000Y50800000D01*
X38800000Y32845000D02*
X38800000Y32000000D01*
X16400000Y15000000D02*
X16400000Y15200000D01*
X70200000Y18700000D02*
X70000000Y18700000D01*
X70400000Y28900000D02*
X69600000Y28900000D01*
X10200000Y5400000D02*
X8800000Y4000000D01*
X38800000Y10875000D02*
X38800000Y14400000D01*
X39300000Y42600000D02*
X43700000Y47000000D01*
X70075000Y44225000D02*
X69500000Y44800000D01*
X70000000Y39300000D02*
X69500000Y39800000D01*
X70200000Y13600000D02*
X70100000Y13600000D01*
X4550000Y28450000D02*
X5029216Y27970784D01*
X84400000Y46200000D02*
X85600000Y47400000D01*
X70200000Y13600000D02*
X69500000Y13600000D01*
X15400000Y5400000D02*
X10200000Y5400000D01*
X2800000Y40000000D02*
X2200000Y39400000D01*
X69500000Y45100000D02*
X70600000Y46200000D01*
X17400000Y5400000D02*
X16200000Y5400000D01*
X38985000Y31585000D02*
X38800000Y31400000D01*
X3400000Y13279215D02*
X5029216Y14908431D01*
X38800000Y32845000D02*
X38800000Y42100000D01*
X17212001Y16012001D02*
X16412001Y16012001D01*
X69500000Y34200000D02*
X69500000Y34600000D01*
X16200000Y5400000D02*
X15400000Y5400000D01*
X53800000Y47000000D02*
X55600000Y45200000D01*
X69500000Y43600000D02*
X69500000Y44400000D01*
X68800000Y26800000D02*
X68900000Y26800000D01*
X69500000Y38800000D02*
X69500000Y39200000D01*
X70000000Y18700000D02*
X69500000Y19200000D01*
X38000000Y2640000D02*
X38200000Y2640000D01*
X40060000Y31585000D02*
X39645000Y32000000D01*
X69500000Y19200000D02*
X69500000Y19800000D01*
X69500000Y14200000D02*
X69500000Y13600000D01*
X3400000Y5400000D02*
X3400000Y13279215D01*
X68900000Y26800000D02*
X69500000Y26200000D01*
X70200000Y44225000D02*
X69675000Y44225000D01*
X40060000Y15585000D02*
X39385000Y15585000D01*
X69500000Y44400000D02*
X69500000Y44800000D01*
X70400000Y39300000D02*
X69600000Y39300000D01*
X70400000Y44225000D02*
X70125000Y44225000D01*
X69500000Y24600000D02*
X69500000Y24800000D01*
X70000000Y28900000D02*
X69500000Y29400000D01*
X69500000Y33600000D02*
X69500000Y29400000D01*
X69500000Y33600000D02*
X69500000Y34200000D01*
X38100000Y7800000D02*
X38100000Y10175000D01*
X16400000Y7200000D02*
X16400000Y6400000D01*
X5029216Y27970784D02*
X5029216Y19800000D01*
X16600000Y6200000D02*
X16600000Y5800000D01*
X16400000Y15200000D02*
X17212001Y16012001D01*
X85600000Y47400000D02*
X90490000Y47400000D01*
X2200000Y30000000D02*
X3350000Y28850000D01*
X70100000Y13600000D02*
X69500000Y14200000D01*
X55600000Y21650000D02*
X55600000Y14000000D01*
X16400000Y16000000D02*
X16400000Y16800000D01*
X70000000Y34100000D02*
X69500000Y33600000D01*
X70100000Y13600000D02*
X69500000Y13000000D01*
X70000000Y34100000D02*
X69500000Y34600000D01*
X55600000Y35900000D02*
X55600000Y43200000D01*
X38100000Y6100000D02*
X38100000Y7000000D01*
X55600000Y28900000D02*
X55600000Y27600000D01*
X55600000Y45200000D02*
X55600000Y43200000D01*
X40060000Y15585000D02*
X38985000Y15585000D01*
X39385000Y15585000D02*
X38800000Y15000000D01*
X55600000Y26800000D02*
X55600000Y26000000D01*
X38800000Y31000000D02*
X38800000Y30325000D01*
X38800000Y30325000D02*
X38800000Y25200000D01*
X40060000Y31585000D02*
X38985000Y31585000D01*
X4550000Y28850000D02*
X4550000Y28450000D01*
X69500000Y18200000D02*
X69500000Y19200000D01*
X70200000Y23800000D02*
X70100000Y23800000D01*
X69650000Y18700000D02*
X69500000Y18550000D01*
X55600000Y25400000D02*
X55600000Y24800000D01*
X17400000Y5400000D02*
X16400000Y6400000D01*
X93890000Y50800000D02*
X93980000Y50800000D01*
X4550000Y40000000D02*
X2800000Y40000000D01*
X55600000Y26000000D02*
X55600000Y25400000D01*
X16412001Y16012001D02*
X16400000Y16000000D01*
X71975000Y18700000D02*
X70200000Y18700000D01*
X38100000Y2540000D02*
X38000000Y2640000D01*
X2200000Y39400000D02*
X2200000Y30000000D01*
X56400000Y26800000D02*
X68200000Y26800000D01*
X40060000Y15585000D02*
X39645000Y16000000D01*
X71975000Y8500000D02*
X71600000Y8500000D01*
X69600000Y34100000D02*
X69500000Y34200000D01*
X69500000Y38800000D02*
X69500000Y34600000D01*
X16400000Y15000000D02*
X16400000Y16000000D01*
X38800000Y14400000D02*
X38800000Y15000000D01*
X56400000Y26800000D02*
X55600000Y26000000D01*
X69500000Y26200000D02*
X69500000Y26600000D01*
X69500000Y22600000D02*
X69500000Y23200000D01*
X90490000Y47400000D02*
X93890000Y50800000D01*
X69500000Y23200000D02*
X69500000Y23800000D01*
X68800000Y26800000D02*
X69300000Y26800000D01*
X3350000Y28850000D02*
X4550000Y28850000D01*
X40060000Y15585000D02*
X38800000Y16845000D01*
X5029216Y14908431D02*
X5029216Y19800000D01*
X69500000Y28400000D02*
X69500000Y28800000D01*
X38800000Y15400000D02*
X38800000Y16000000D01*
X70400000Y28900000D02*
X70000000Y28900000D01*
X70400000Y44225000D02*
X70200000Y44225000D01*
X16400000Y7200000D02*
X16400000Y15000000D01*
X16400000Y26600000D02*
X16400000Y35600000D01*
X16400000Y6400000D02*
X16600000Y6200000D01*
X71975000Y39300000D02*
X70400000Y39300000D01*
X39985000Y15585000D02*
X38800000Y14400000D01*
X16400000Y6400000D02*
X15400000Y5400000D01*
X70200000Y18700000D02*
X69650000Y18700000D01*
X69500000Y17800000D02*
X69500000Y14200000D01*
X38100000Y10175000D02*
X38800000Y10875000D01*
X38800000Y16845000D02*
X38800000Y25200000D01*
X55600000Y27600000D02*
X56400000Y26800000D01*
X55600000Y14000000D02*
X55600000Y13100000D01*
X69300000Y26800000D02*
X69500000Y26600000D01*
X38800000Y16000000D02*
X38800000Y16845000D01*
X69675000Y44225000D02*
X69500000Y44400000D01*
X69500000Y26200000D02*
X69500000Y25900000D01*
X55600000Y24800000D02*
X55600000Y21650000D01*
X70200000Y44225000D02*
X70075000Y44225000D01*
X69500000Y24400000D02*
X69500000Y24600000D01*
X55600000Y28900000D02*
X55600000Y35900000D01*
X71975000Y28900000D02*
X70400000Y28900000D01*
X16600000Y5800000D02*
X16200000Y5400000D01*
X69500000Y44800000D02*
X69500000Y45100000D01*
X70125000Y44225000D02*
X69500000Y43600000D01*
X40060000Y31585000D02*
X39385000Y31585000D01*
X71975000Y13600000D02*
X70200000Y13600000D01*
X69500000Y25400000D02*
X69500000Y26200000D01*
X38100000Y7000000D02*
X38100000Y7800000D01*
X40060000Y31585000D02*
X38800000Y30325000D01*
X39645000Y16000000D02*
X38800000Y16000000D01*
X40060000Y15585000D02*
X39985000Y15585000D01*
X70100000Y23800000D02*
X69500000Y24400000D01*
X68900000Y26800000D02*
X69500000Y27400000D01*
X70000000Y18700000D02*
X69500000Y18200000D01*
X55600000Y26800000D02*
X56400000Y26800000D01*
X69500000Y27200000D02*
X69500000Y27400000D01*
X38800000Y31400000D02*
X38800000Y31000000D01*
X69500000Y24800000D02*
X69500000Y24900000D01*
X8800000Y4000000D02*
X4800000Y4000000D01*
X69500000Y19800000D02*
X69500000Y22600000D01*
X16400000Y16800000D02*
X16400000Y25400000D01*
X70100000Y23800000D02*
X69500000Y23200000D01*
X69500000Y17800000D02*
X69500000Y18550000D01*
X38100000Y2540000D02*
X38100000Y4600000D01*
X68200000Y26800000D02*
X68900000Y26800000D01*
X69500000Y28800000D02*
X69500000Y29400000D01*
X17800000Y16012001D02*
X17187999Y16012001D01*
X69500000Y24800000D02*
X69500000Y25400000D01*
X38985000Y15585000D02*
X38800000Y15400000D01*
X70400000Y39300000D02*
X70000000Y39300000D01*
X17212001Y16012001D02*
X17800000Y16012001D01*
X70000000Y28900000D02*
X69500000Y28400000D01*
X69500000Y23800000D02*
X69500000Y24400000D01*
X70600000Y46200000D02*
X84400000Y46200000D01*
X38800000Y15000000D02*
X38800000Y15400000D01*
X69500000Y13600000D02*
X69500000Y13000000D01*
X71600000Y8500000D02*
X69500000Y10600000D01*
X69500000Y26600000D02*
X69500000Y27200000D01*
X69500000Y13000000D02*
X69500000Y10600000D01*
X69600000Y39300000D02*
X69500000Y39200000D01*
X70400000Y34100000D02*
X70000000Y34100000D01*
X16400000Y35600000D02*
X16800000Y36000000D01*
X71975000Y44225000D02*
X70400000Y44225000D01*
X69600000Y28900000D02*
X69500000Y28800000D01*
X71975000Y34100000D02*
X70400000Y34100000D01*
X55600000Y27600000D02*
X55600000Y26800000D01*
X69500000Y39800000D02*
X69500000Y43600000D01*
X69500000Y28400000D02*
X69500000Y27400000D01*
X70400000Y34100000D02*
X69600000Y34100000D01*
X38200000Y2640000D02*
X38500000Y2940000D01*
X43700000Y47000000D02*
X53800000Y47000000D01*
X39385000Y31585000D02*
X38800000Y31000000D01*
X70000000Y39300000D02*
X69500000Y38800000D01*
X39645000Y32000000D02*
X38800000Y32000000D01*
X69500000Y39200000D02*
X69500000Y39800000D01*
X38800000Y32000000D02*
X38800000Y31400000D01*
X69500000Y17800000D02*
X69500000Y18200000D01*
X4800000Y4000000D02*
X3400000Y5400000D01*
%TO.N,/SCL{slash}21*%
D29*
X64000000Y39200000D02*
X60700000Y35900000D01*
X86360000Y52240000D02*
X86360000Y50800000D01*
X60700000Y35900000D02*
X59600000Y35900000D01*
X86360000Y50800000D02*
X86360000Y50360000D01*
X85750000Y52850000D02*
X86360000Y52240000D01*
X59600000Y35900000D02*
X59600000Y28900000D01*
X83000000Y47000000D02*
X66400000Y47000000D01*
X86360000Y50360000D02*
X83000000Y47000000D01*
X20846000Y52850000D02*
X85750000Y52850000D01*
X64000000Y44600000D02*
X64000000Y39200000D01*
X18796000Y50800000D02*
X20846000Y52850000D01*
X66400000Y47000000D02*
X64000000Y44600000D01*
%TO.N,/SDA{slash}20*%
X83820000Y49420000D02*
X83820000Y50800000D01*
X83820000Y51380000D02*
X83820000Y50800000D01*
X22936000Y52400000D02*
X82800000Y52400000D01*
X57600000Y35900000D02*
X57600000Y28900000D01*
X61600000Y39400000D02*
X62400000Y40200000D01*
X59200000Y39400000D02*
X61600000Y39400000D01*
X64400000Y47600000D02*
X82000000Y47600000D01*
X62400000Y40200000D02*
X62400000Y45600000D01*
X57600000Y37800000D02*
X59200000Y39400000D01*
X62400000Y45600000D02*
X64400000Y47600000D01*
X57600000Y35900000D02*
X57600000Y37800000D01*
X82800000Y52400000D02*
X83820000Y51380000D01*
X82000000Y47600000D02*
X83820000Y49420000D01*
X21336000Y50800000D02*
X22936000Y52400000D01*
%TO.N,/D13*%
X28000000Y48500000D02*
X28956000Y49456000D01*
X11750000Y45250000D02*
X11800000Y45300000D01*
X12750000Y45300000D02*
X11800000Y45300000D01*
X16200000Y48500000D02*
X15950000Y48500000D01*
X16200000Y48500000D02*
X28000000Y48500000D01*
X16000000Y48500000D02*
X16200000Y48500000D01*
X11750000Y42000000D02*
X11750000Y45250000D01*
X15950000Y48500000D02*
X12750000Y45300000D01*
X28956000Y49456000D02*
X28956000Y50800000D01*
%TO.N,/D11*%
X9400000Y6400000D02*
X8600000Y5600000D01*
X12000000Y8000000D02*
X12000000Y6800000D01*
X12000000Y6800000D02*
X11600000Y6400000D01*
X12000000Y8000000D02*
X12000000Y6600000D01*
X8600000Y5600000D02*
X5800000Y5600000D01*
X11600000Y6400000D02*
X9400000Y6400000D01*
X12400000Y6400000D02*
X12200000Y6400000D01*
X5350000Y6050000D02*
X5350000Y7200000D01*
X5800000Y5600000D02*
X5350000Y6050000D01*
X12000000Y6800000D02*
X12400000Y6400000D01*
X12000000Y6600000D02*
X12200000Y6400000D01*
X12200000Y6400000D02*
X11600000Y6400000D01*
%TO.N,/TX1{slash}18*%
X77100000Y48800000D02*
X78740000Y50440000D01*
X78740000Y50740000D02*
X78740000Y50800000D01*
X57600000Y43200000D02*
X57600000Y47200000D01*
X78740000Y50440000D02*
X78740000Y50800000D01*
X59200000Y48800000D02*
X77100000Y48800000D01*
X57600000Y47200000D02*
X59200000Y48800000D01*
%TO.N,/RX1{slash}19*%
X80000000Y48200000D02*
X81280000Y49480000D01*
X61200000Y48200000D02*
X80000000Y48200000D01*
X59600000Y43200000D02*
X59600000Y46600000D01*
X81280000Y49480000D02*
X81280000Y50800000D01*
X59600000Y46600000D02*
X61200000Y48200000D01*
%TO.N,Net-(C2-Pad1)*%
X25509078Y29250000D02*
X19009078Y29250000D01*
%TO.N,Net-(D3-K)*%
X74025000Y28900000D02*
X74025000Y28625000D01*
X74025000Y28625000D02*
X72045000Y26645000D01*
X72045000Y26645000D02*
X72045000Y26400000D01*
%TO.N,Net-(Q3-D)*%
X75500000Y26400000D02*
X78300000Y29200000D01*
X74045000Y26400000D02*
X75500000Y26400000D01*
%TO.N,Net-(Q2-D)*%
X77500000Y33700000D02*
X78300000Y33700000D01*
X75400000Y31600000D02*
X77500000Y33700000D01*
X74045000Y31600000D02*
X75400000Y31600000D01*
%TO.N,Net-(C3-Pad1)*%
X25509078Y18750000D02*
X19009078Y18750000D01*
%TO.N,Net-(D5-K)*%
X72045000Y16482500D02*
X74025000Y18462500D01*
X72045000Y16200000D02*
X72045000Y16482500D01*
X74025000Y18462500D02*
X74025000Y18700000D01*
%TO.N,Net-(Q5-D)*%
X74045000Y16200000D02*
X75400000Y16200000D01*
X78300000Y19100000D02*
X78300000Y20200000D01*
X75400000Y16200000D02*
X78300000Y19100000D01*
%TO.N,Net-(Q0-D)*%
X76400000Y42700000D02*
X78300000Y42700000D01*
X75500000Y41800000D02*
X76400000Y42700000D01*
X74045000Y41800000D02*
X75500000Y41800000D01*
%TO.N,Net-(D7-K)*%
X74025000Y8500000D02*
X74325000Y8200000D01*
X74325000Y8200000D02*
X76325000Y8200000D01*
X76325000Y8200000D02*
X76715000Y7810000D01*
%TO.N,Net-(C1-Pad1)*%
X25509078Y39800000D02*
X19009078Y39800000D01*
%TO.N,Net-(DA1-K)*%
X4300000Y42050000D02*
X7200000Y42050000D01*
X7200000Y42050000D02*
X7250000Y42000000D01*
%TO.N,Net-(D6-K)*%
X74025000Y13600000D02*
X74025000Y13425000D01*
X72045000Y11445000D02*
X72045000Y11100000D01*
X74025000Y13425000D02*
X72045000Y11445000D01*
%TO.N,Net-(Q6-D)*%
X75300000Y11100000D02*
X76800000Y12600000D01*
X76800000Y14200000D02*
X78300000Y15700000D01*
X74045000Y11100000D02*
X75300000Y11100000D01*
X76800000Y12600000D02*
X76800000Y14200000D01*
%TO.N,Net-(D1-K)*%
X72045000Y37245000D02*
X72045000Y36800000D01*
X74025000Y39300000D02*
X74025000Y39225000D01*
X74025000Y39225000D02*
X72045000Y37245000D01*
%TO.N,Net-(BZ1--)*%
X12000000Y17829216D02*
X10029216Y19800000D01*
X12000000Y11000000D02*
X12000000Y17829216D01*
%TO.N,Net-(D0-K)*%
X74025000Y44025000D02*
X72045000Y42045000D01*
X72045000Y42045000D02*
X72045000Y41800000D01*
X74025000Y44325000D02*
X74025000Y44025000D01*
%TO.N,Net-(D2-K)*%
X74025000Y34100000D02*
X74025000Y33825000D01*
X74025000Y33825000D02*
X72045000Y31845000D01*
X72045000Y31845000D02*
X72045000Y31600000D01*
%TO.N,Net-(DB1-K)*%
X4550000Y30900000D02*
X7100000Y30900000D01*
%TO.N,Net-(Q9-D)*%
X10800000Y28500000D02*
X10400000Y28900000D01*
X10400000Y28900000D02*
X7100000Y28900000D01*
%TO.N,Net-(Q4-D)*%
X75500000Y21300000D02*
X78300000Y24100000D01*
X78300000Y24100000D02*
X78300000Y24700000D01*
X74045000Y21300000D02*
X75500000Y21300000D01*
%TO.N,Net-(Q10-D)*%
X7100000Y11000000D02*
X6300000Y10200000D01*
X10000000Y11000000D02*
X7100000Y11000000D01*
%TO.N,Net-(C4-Pad1)*%
X25509078Y8200000D02*
X19009078Y8200000D01*
%TO.N,Net-(Q8-D)*%
X7250000Y40000000D02*
X9800000Y40000000D01*
X9800000Y40000000D02*
X10800000Y39000000D01*
%TO.N,Net-(Q7-D)*%
X78400000Y9800000D02*
X78400000Y11100000D01*
X78715000Y7810000D02*
X78715000Y9485000D01*
X78715000Y9485000D02*
X78400000Y9800000D01*
X78400000Y11100000D02*
X78300000Y11200000D01*
%TO.N,Net-(D4-K)*%
X74025000Y23800000D02*
X74025000Y23625000D01*
X74025000Y23625000D02*
X72045000Y21645000D01*
X72045000Y21645000D02*
X72045000Y21300000D01*
%TO.N,Net-(Q1-D)*%
X74045000Y36800000D02*
X75600000Y36800000D01*
X77000000Y38200000D02*
X78300000Y38200000D01*
X75600000Y36800000D02*
X77000000Y38200000D01*
%TO.N,Net-(C1-Pad1)*%
X32200000Y41400000D02*
X32200000Y42800000D01*
X25509078Y39800000D02*
X28509078Y42800000D01*
X28509078Y42800000D02*
X31800000Y42800000D01*
%TO.N,Net-(C2-Pad1)*%
X32200000Y33962500D02*
X32237500Y34000000D01*
%TO.N,/A2*%
X49800000Y42400000D02*
X48800000Y43400000D01*
X48800000Y43400000D02*
X47800000Y43400000D01*
X49800000Y9000000D02*
X49800000Y42400000D01*
X55880000Y2920000D02*
X49800000Y9000000D01*
X55880000Y2540000D02*
X55880000Y2920000D01*
%TD*%
%TA.AperFunction,Conductor*%
%TO.N,/A1*%
G36*
X42605568Y29046452D02*
G01*
X43225306Y28710835D01*
X43230949Y28703882D01*
X43230344Y28695615D01*
X42728146Y27615235D01*
X42721551Y27609177D01*
X42717536Y27608467D01*
X42482464Y27608467D01*
X42474191Y27611894D01*
X42471854Y27615235D01*
X42469220Y27620901D01*
X41969654Y28695617D01*
X41969275Y28704562D01*
X41974691Y28710834D01*
X42594429Y29046451D01*
X42603335Y29047377D01*
X42605568Y29046452D01*
G37*
%TD.AperFunction*%
%TD*%
%TA.AperFunction,Conductor*%
%TO.N,/A1*%
G36*
X52452506Y3707048D02*
G01*
X53925099Y3147103D01*
X53931613Y3140961D01*
X53931876Y3132010D01*
X53929645Y3128351D01*
X53527743Y2680785D01*
X53519666Y2676919D01*
X53517708Y2676978D01*
X52537039Y2789175D01*
X52529209Y2793520D01*
X52526728Y2799628D01*
X52436709Y3694943D01*
X52439291Y3703515D01*
X52447180Y3707752D01*
X52452506Y3707048D01*
G37*
%TD.AperFunction*%
%TD*%
%TA.AperFunction,Conductor*%
%TO.N,/A0*%
G36*
X42605568Y13046452D02*
G01*
X43225306Y12710835D01*
X43230949Y12703882D01*
X43230344Y12695615D01*
X42728146Y11615235D01*
X42721551Y11609177D01*
X42717536Y11608467D01*
X42482464Y11608467D01*
X42474191Y11611894D01*
X42471854Y11615235D01*
X42469220Y11620901D01*
X41969654Y12695617D01*
X41969275Y12704562D01*
X41974691Y12710834D01*
X42594429Y13046451D01*
X42603335Y13047377D01*
X42605568Y13046452D01*
G37*
%TD.AperFunction*%
%TD*%
%TA.AperFunction,Conductor*%
%TO.N,/A0*%
G36*
X49444517Y4076547D02*
G01*
X51141124Y3394406D01*
X51147521Y3388141D01*
X51147614Y3379186D01*
X51147573Y3379084D01*
X50802562Y2543785D01*
X50796236Y2537447D01*
X50796215Y2537438D01*
X49960916Y2192427D01*
X49951961Y2192436D01*
X49945635Y2198774D01*
X49945594Y2198876D01*
X49809471Y2537438D01*
X49263454Y3895482D01*
X49263547Y3904435D01*
X49266033Y3908115D01*
X49431883Y4073965D01*
X49440155Y4077391D01*
X49444517Y4076547D01*
G37*
%TD.AperFunction*%
%TD*%
%TA.AperFunction,Conductor*%
%TO.N,GND*%
G36*
X45439708Y33018106D02*
G01*
X45442588Y33013367D01*
X45825439Y31805231D01*
X45824672Y31796310D01*
X45817820Y31790544D01*
X45817749Y31790521D01*
X45143463Y31581606D01*
X45136537Y31581606D01*
X44462250Y31790521D01*
X44455362Y31796243D01*
X44454537Y31805158D01*
X44837412Y33013368D01*
X44843178Y33020219D01*
X44848565Y33021533D01*
X45431435Y33021533D01*
X45439708Y33018106D01*
G37*
%TD.AperFunction*%
%TD*%
%TA.AperFunction,Conductor*%
%TO.N,GND*%
G36*
X47794662Y41401983D02*
G01*
X47802049Y41396922D01*
X47803062Y41394997D01*
X48044648Y40809403D01*
X48044635Y40800448D01*
X48039756Y40794851D01*
X47028837Y40201353D01*
X47019967Y40200120D01*
X47014640Y40203170D01*
X46602949Y40614861D01*
X46599522Y40623134D01*
X46600938Y40628714D01*
X47095839Y41540861D01*
X47102796Y41546496D01*
X47108537Y41546727D01*
X47794662Y41401983D01*
G37*
%TD.AperFunction*%
%TD*%
%TA.AperFunction,Conductor*%
%TO.N,/A2*%
G36*
X47260807Y43974085D02*
G01*
X47577623Y43637392D01*
X47793455Y43408018D01*
X47796629Y43399644D01*
X47793455Y43391982D01*
X47260809Y42825917D01*
X47252644Y42822240D01*
X47246236Y42823922D01*
X46505648Y43271586D01*
X46500340Y43278799D01*
X46500000Y43281599D01*
X46500000Y43518402D01*
X46503427Y43526675D01*
X46505642Y43528411D01*
X47246238Y43976080D01*
X47255088Y43977426D01*
X47260807Y43974085D01*
G37*
%TD.AperFunction*%
%TD*%
%TA.AperFunction,Conductor*%
%TO.N,/D11*%
G36*
X34043463Y50798911D02*
G01*
X34684562Y50267805D01*
X34688747Y50259889D01*
X34686529Y50251872D01*
X34161000Y49536001D01*
X34160997Y49535995D01*
X34125278Y49449763D01*
X34122742Y49445967D01*
X33827257Y49150481D01*
X33818984Y49147054D01*
X33810711Y49150481D01*
X33651409Y49309783D01*
X33647982Y49318056D01*
X33651409Y49326329D01*
X33652319Y49327148D01*
X33911000Y49536000D01*
X33910999Y49536001D01*
X33911000Y49536001D01*
X33385470Y50251872D01*
X33383336Y50260569D01*
X33387435Y50267803D01*
X34028536Y50798911D01*
X34037093Y50801549D01*
X34043463Y50798911D01*
G37*
%TD.AperFunction*%
%TD*%
%TA.AperFunction,Conductor*%
%TO.N,/D12*%
G36*
X31503464Y50798910D02*
G01*
X32144775Y50267629D01*
X32148960Y50259712D01*
X32146915Y50251937D01*
X31621004Y49496008D01*
X31620998Y49495997D01*
X31585278Y49409762D01*
X31582742Y49405967D01*
X31315541Y49138766D01*
X31307268Y49135339D01*
X31298995Y49138766D01*
X31139822Y49297939D01*
X31136395Y49306212D01*
X31139822Y49314485D01*
X31140856Y49315402D01*
X31371000Y49496000D01*
X31180171Y49770292D01*
X30845084Y50251937D01*
X30843172Y50260685D01*
X30847222Y50267627D01*
X31488536Y50798911D01*
X31497093Y50801549D01*
X31503464Y50798910D01*
G37*
%TD.AperFunction*%
%TD*%
%TA.AperFunction,Conductor*%
%TO.N,/D12*%
G36*
X12360680Y35186234D02*
G01*
X12735140Y34913188D01*
X12736520Y34912007D01*
X12905392Y34743135D01*
X12908819Y34734862D01*
X12906397Y34727734D01*
X12330312Y33977825D01*
X12322555Y33973352D01*
X12320974Y33973253D01*
X11990744Y33974949D01*
X11982488Y33978418D01*
X11979104Y33986709D01*
X11979612Y33990056D01*
X12342597Y35180195D01*
X12348287Y35187107D01*
X12357200Y35187971D01*
X12360680Y35186234D01*
G37*
%TD.AperFunction*%
%TD*%
%TA.AperFunction,Conductor*%
%TO.N,/D12*%
G36*
X11757915Y34592357D02*
G01*
X11758379Y34591880D01*
X12320543Y33980008D01*
X12323617Y33971597D01*
X12321642Y33965572D01*
X11878476Y33305180D01*
X11871021Y33300220D01*
X11868761Y33300000D01*
X11631990Y33300000D01*
X11623717Y33303427D01*
X11621687Y33306155D01*
X11259028Y33980008D01*
X11223091Y34046782D01*
X11222189Y34055690D01*
X11225002Y34060478D01*
X11741371Y34592117D01*
X11749593Y34595663D01*
X11757915Y34592357D01*
G37*
%TD.AperFunction*%
%TD*%
%TA.AperFunction,Conductor*%
%TO.N,/D12*%
G36*
X11876018Y32846573D02*
G01*
X11878225Y32843501D01*
X12132276Y32331574D01*
X12132884Y32322640D01*
X12132405Y32321440D01*
X11760609Y31521817D01*
X11754014Y31515760D01*
X11745067Y31516141D01*
X11739391Y31521817D01*
X11367594Y32321440D01*
X11367213Y32330387D01*
X11367718Y32331564D01*
X11621775Y32843501D01*
X11628522Y32849388D01*
X11632255Y32850000D01*
X11867745Y32850000D01*
X11876018Y32846573D01*
G37*
%TD.AperFunction*%
%TD*%
%TA.AperFunction,Conductor*%
%TO.N,GND*%
G36*
X27213032Y13696564D02*
G01*
X27216481Y13688300D01*
X27216481Y13104503D01*
X27213463Y13096660D01*
X26291314Y12075822D01*
X26283226Y12071980D01*
X26274789Y12074983D01*
X26273493Y12076360D01*
X25220804Y13393341D01*
X25218315Y13401943D01*
X25220189Y13407107D01*
X25407602Y13689965D01*
X25415027Y13694968D01*
X25417319Y13695202D01*
X27204750Y13699969D01*
X27213032Y13696564D01*
G37*
%TD.AperFunction*%
%TD*%
%TA.AperFunction,Conductor*%
%TO.N,GND*%
G36*
X29580909Y13981601D02*
G01*
X29862989Y13700000D01*
X30155042Y13408444D01*
X30158476Y13400174D01*
X30155056Y13391898D01*
X30154879Y13391724D01*
X29828542Y13078402D01*
X29820201Y13075144D01*
X29820090Y13075147D01*
X28998851Y13099662D01*
X28990684Y13103334D01*
X28987500Y13111357D01*
X28987500Y13692700D01*
X28990927Y13700973D01*
X28994055Y13703209D01*
X29567500Y13983831D01*
X29576438Y13984389D01*
X29580909Y13981601D01*
G37*
%TD.AperFunction*%
%TD*%
%TA.AperFunction,Conductor*%
%TO.N,Net-(C4-Pad1)*%
G36*
X32244741Y13791285D02*
G01*
X32246686Y13789340D01*
X32744582Y13157356D01*
X32747010Y13148736D01*
X32742691Y13140971D01*
X32362500Y12837501D01*
X32362497Y12837497D01*
X32326778Y12751263D01*
X32324242Y12747467D01*
X32086674Y12509898D01*
X32078401Y12506471D01*
X32070128Y12509898D01*
X31911136Y12668890D01*
X31907709Y12677163D01*
X31911136Y12685436D01*
X31912351Y12686494D01*
X32112500Y12837500D01*
X32112499Y12837501D01*
X32112500Y12837501D01*
X31732308Y13140971D01*
X31727980Y13148810D01*
X31730416Y13157354D01*
X32228311Y13789337D01*
X32236121Y13793713D01*
X32244741Y13791285D01*
G37*
%TD.AperFunction*%
%TD*%
%TA.AperFunction,Conductor*%
%TO.N,Net-(C4-Pad1)*%
G36*
X32263450Y12350826D02*
G01*
X32324242Y12290034D01*
X32326778Y12286238D01*
X32362496Y12200008D01*
X32362498Y12200004D01*
X32362500Y12200000D01*
X32629769Y11782093D01*
X32775916Y11553573D01*
X32777486Y11544757D01*
X32774356Y11539020D01*
X32246225Y11007777D01*
X32237962Y11004326D01*
X32229679Y11007729D01*
X32229226Y11008205D01*
X31752103Y11539020D01*
X31679716Y11619553D01*
X31676736Y11627995D01*
X31679130Y11634486D01*
X32090036Y12170688D01*
X32086674Y12174050D01*
X32083247Y12182323D01*
X32086674Y12190596D01*
X32246904Y12350826D01*
X32255177Y12354253D01*
X32263450Y12350826D01*
G37*
%TD.AperFunction*%
%TD*%
%TA.AperFunction,Conductor*%
%TO.N,Net-(C4-Pad1)*%
G36*
X32084529Y12292247D02*
G01*
X32286742Y12090034D01*
X32289278Y12086238D01*
X32324998Y12000002D01*
X32324998Y12000001D01*
X32718626Y11634349D01*
X32722355Y11626208D01*
X32719626Y11618256D01*
X32208963Y11009682D01*
X32201020Y11005548D01*
X32192479Y11008240D01*
X32191037Y11009682D01*
X31680373Y11618256D01*
X31677681Y11626797D01*
X31681371Y11634347D01*
X32075000Y12000000D01*
X32074999Y12000001D01*
X32074999Y12000002D01*
X31910838Y12115736D01*
X31906051Y12123303D01*
X31908018Y12132040D01*
X31909301Y12133565D01*
X32067984Y12292248D01*
X32076256Y12295674D01*
X32084529Y12292247D01*
G37*
%TD.AperFunction*%
%TD*%
%TA.AperFunction,Conductor*%
%TO.N,Net-(C4-Pad1)*%
G36*
X26833558Y9696274D02*
G01*
X26836626Y9694069D01*
X27003146Y9527549D01*
X27006573Y9519276D01*
X27005963Y9515547D01*
X26469618Y7920424D01*
X26463733Y7913675D01*
X26455189Y7912940D01*
X25511033Y8194082D01*
X25504082Y8199727D01*
X25503159Y8201956D01*
X25222017Y9146112D01*
X25222940Y9155019D01*
X25229499Y9160541D01*
X26824624Y9696886D01*
X26833558Y9696274D01*
G37*
%TD.AperFunction*%
%TD*%
%TA.AperFunction,Conductor*%
%TO.N,/D7*%
G36*
X30332016Y9492247D02*
G01*
X30490692Y9333571D01*
X30494119Y9325298D01*
X30490692Y9317025D01*
X30489161Y9315736D01*
X30325000Y9200002D01*
X30325000Y9200000D01*
X30718626Y8834349D01*
X30722355Y8826208D01*
X30719626Y8818256D01*
X30208963Y8209682D01*
X30201020Y8205548D01*
X30192479Y8208240D01*
X30191037Y8209682D01*
X29680373Y8818256D01*
X29677681Y8826797D01*
X29681371Y8834347D01*
X30075000Y9200000D01*
X30075000Y9200001D01*
X30075001Y9200001D01*
X30075001Y9200002D01*
X30110721Y9286238D01*
X30113255Y9290032D01*
X30315470Y9492248D01*
X30323743Y9495674D01*
X30332016Y9492247D01*
G37*
%TD.AperFunction*%
%TD*%
%TA.AperFunction,Conductor*%
%TO.N,/D7*%
G36*
X30207521Y10991761D02*
G01*
X30208963Y10990319D01*
X30719626Y10381745D01*
X30722318Y10373204D01*
X30718626Y10365652D01*
X30325000Y10000001D01*
X30325000Y9999999D01*
X30489161Y9884265D01*
X30493948Y9876698D01*
X30491981Y9867961D01*
X30490692Y9866430D01*
X30332016Y9707754D01*
X30323743Y9704327D01*
X30315470Y9707754D01*
X30113257Y9909967D01*
X30110721Y9913763D01*
X30075001Y9999999D01*
X30075001Y10000000D01*
X29681373Y10365652D01*
X29677644Y10373793D01*
X29680372Y10381744D01*
X30191037Y10990320D01*
X30198980Y10994453D01*
X30207521Y10991761D01*
G37*
%TD.AperFunction*%
%TD*%
%TA.AperFunction,Conductor*%
%TO.N,/D7*%
G36*
X30326674Y9496573D02*
G01*
X30328414Y9494352D01*
X30776078Y8753764D01*
X30777425Y8744912D01*
X30774083Y8739191D01*
X30208018Y8206545D01*
X30199644Y8203371D01*
X30191982Y8206545D01*
X29962608Y8422377D01*
X29625915Y8739192D01*
X29622239Y8747356D01*
X29623920Y8753762D01*
X30071586Y9494352D01*
X30078799Y9499660D01*
X30081599Y9500000D01*
X30318401Y9500000D01*
X30326674Y9496573D01*
G37*
%TD.AperFunction*%
%TD*%
%TA.AperFunction,Conductor*%
%TO.N,/D7*%
G36*
X30208016Y10993457D02*
G01*
X30774083Y10460809D01*
X30777760Y10452645D01*
X30776078Y10446237D01*
X30328414Y9705648D01*
X30321201Y9700340D01*
X30318401Y9700000D01*
X30081599Y9700000D01*
X30073326Y9703427D01*
X30071586Y9705648D01*
X29623921Y10446237D01*
X29622574Y10455089D01*
X29625914Y10460807D01*
X30191983Y10993457D01*
X30200356Y10996630D01*
X30208016Y10993457D01*
G37*
%TD.AperFunction*%
%TD*%
%TA.AperFunction,Conductor*%
%TO.N,+5V*%
G36*
X32208016Y8193457D02*
G01*
X32442190Y7973109D01*
X32775311Y7659653D01*
X32778988Y7651488D01*
X32778257Y7647048D01*
X32502837Y6907616D01*
X32496738Y6901059D01*
X32491873Y6900000D01*
X31908127Y6900000D01*
X31899854Y6903427D01*
X31897163Y6907616D01*
X31621742Y7647048D01*
X31622065Y7655997D01*
X31624688Y7659653D01*
X32191983Y8193457D01*
X32200356Y8196630D01*
X32208016Y8193457D01*
G37*
%TD.AperFunction*%
%TD*%
%TA.AperFunction,Conductor*%
%TO.N,/D7*%
G36*
X45728266Y50792724D02*
G01*
X46556410Y49963606D01*
X46559832Y49955331D01*
X46556400Y49947060D01*
X46551670Y49944186D01*
X45845000Y49720001D01*
X45844999Y49720000D01*
X45809278Y49633763D01*
X45806742Y49629967D01*
X45378255Y49201480D01*
X45369982Y49198053D01*
X45361709Y49201480D01*
X45202068Y49361121D01*
X45198641Y49369394D01*
X45202068Y49377667D01*
X45202643Y49378205D01*
X45595000Y49720000D01*
X45594999Y49720001D01*
X44888329Y49944186D01*
X44881479Y49949954D01*
X44880715Y49958876D01*
X44883587Y49963604D01*
X45711723Y50792714D01*
X45719993Y50796145D01*
X45728266Y50792724D01*
G37*
%TD.AperFunction*%
%TD*%
%TA.AperFunction,Conductor*%
%TO.N,Net-(C4-Pad1)*%
G36*
X32244741Y13791285D02*
G01*
X32246686Y13789340D01*
X32601605Y13338838D01*
X32746358Y13155101D01*
X32748786Y13146481D01*
X32746708Y13141086D01*
X32362500Y12600000D01*
X32362500Y12499200D01*
X32359073Y12490927D01*
X32350800Y12487500D01*
X32124200Y12487500D01*
X32115927Y12490927D01*
X32112500Y12499200D01*
X32112500Y12600000D01*
X31728291Y13141086D01*
X31726296Y13149816D01*
X31728640Y13155099D01*
X32228311Y13789337D01*
X32236121Y13793713D01*
X32244741Y13791285D01*
G37*
%TD.AperFunction*%
%TD*%
%TA.AperFunction,Conductor*%
%TO.N,GND*%
G36*
X25524109Y24242610D02*
G01*
X27016202Y23508998D01*
X27022114Y23502273D01*
X27021539Y23493337D01*
X27019190Y23490105D01*
X26469645Y22956437D01*
X26461323Y22953132D01*
X26455218Y22954957D01*
X25613196Y23490105D01*
X25446404Y23596110D01*
X25441261Y23603438D01*
X25441046Y23607211D01*
X25507314Y24233342D01*
X25511593Y24241207D01*
X25520180Y24243744D01*
X25524109Y24242610D01*
G37*
%TD.AperFunction*%
%TD*%
%TA.AperFunction,Conductor*%
%TO.N,GND*%
G36*
X29580909Y24181601D02*
G01*
X30155821Y23607666D01*
X30159255Y23599396D01*
X30156434Y23591767D01*
X29734172Y23099675D01*
X29726184Y23095628D01*
X29722163Y23096020D01*
X28996070Y23297621D01*
X28989015Y23303137D01*
X28987500Y23308895D01*
X28987500Y23892700D01*
X28990927Y23900973D01*
X28994055Y23903209D01*
X29567500Y24183831D01*
X29576438Y24184389D01*
X29580909Y24181601D01*
G37*
%TD.AperFunction*%
%TD*%
%TA.AperFunction,Conductor*%
%TO.N,Net-(C3-Pad1)*%
G36*
X32084529Y22292247D02*
G01*
X32286742Y22090034D01*
X32289278Y22086238D01*
X32324998Y22000002D01*
X32324998Y22000001D01*
X32718626Y21634349D01*
X32722355Y21626208D01*
X32719626Y21618256D01*
X32208963Y21009682D01*
X32201020Y21005548D01*
X32192479Y21008240D01*
X32191037Y21009682D01*
X31680373Y21618256D01*
X31677681Y21626797D01*
X31681371Y21634347D01*
X32075000Y22000000D01*
X32074999Y22000001D01*
X32074999Y22000002D01*
X31910838Y22115736D01*
X31906051Y22123303D01*
X31908018Y22132040D01*
X31909301Y22133565D01*
X32067984Y22292248D01*
X32076256Y22295674D01*
X32084529Y22292247D01*
G37*
%TD.AperFunction*%
%TD*%
%TA.AperFunction,Conductor*%
%TO.N,Net-(C3-Pad1)*%
G36*
X32244741Y23791285D02*
G01*
X32246686Y23789340D01*
X32744582Y23157356D01*
X32747010Y23148736D01*
X32742691Y23140971D01*
X32362500Y22837501D01*
X32362497Y22837497D01*
X32326778Y22751263D01*
X32324242Y22747467D01*
X32086674Y22509898D01*
X32078401Y22506471D01*
X32070128Y22509898D01*
X31911136Y22668890D01*
X31907709Y22677163D01*
X31911136Y22685436D01*
X31912351Y22686494D01*
X32112500Y22837500D01*
X32112499Y22837501D01*
X32112500Y22837501D01*
X31732308Y23140971D01*
X31727980Y23148810D01*
X31730416Y23157354D01*
X32228311Y23789337D01*
X32236121Y23793713D01*
X32244741Y23791285D01*
G37*
%TD.AperFunction*%
%TD*%
%TA.AperFunction,Conductor*%
%TO.N,Net-(C3-Pad1)*%
G36*
X26833558Y20246274D02*
G01*
X26836626Y20244069D01*
X27003146Y20077549D01*
X27006573Y20069276D01*
X27005963Y20065547D01*
X26469618Y18470424D01*
X26463733Y18463675D01*
X26455189Y18462940D01*
X25511033Y18744082D01*
X25504082Y18749727D01*
X25503159Y18751956D01*
X25222017Y19696112D01*
X25222940Y19705019D01*
X25229499Y19710541D01*
X26824624Y20246886D01*
X26833558Y20246274D01*
G37*
%TD.AperFunction*%
%TD*%
%TA.AperFunction,Conductor*%
%TO.N,Net-(C3-Pad1)*%
G36*
X32208190Y23792627D02*
G01*
X32208583Y23792244D01*
X32780943Y23208376D01*
X32784287Y23200070D01*
X32782409Y23193826D01*
X32328458Y22492840D01*
X32321084Y22487759D01*
X32318637Y22487500D01*
X32081935Y22487500D01*
X32073662Y22490927D01*
X32071671Y22493583D01*
X31673079Y23221931D01*
X31672114Y23230834D01*
X31674768Y23235508D01*
X32191656Y23792017D01*
X32199796Y23795746D01*
X32208190Y23792627D01*
G37*
%TD.AperFunction*%
%TD*%
%TA.AperFunction,Conductor*%
%TO.N,/D8*%
G36*
X30332016Y19492247D02*
G01*
X30490692Y19333571D01*
X30494119Y19325298D01*
X30490692Y19317025D01*
X30489161Y19315736D01*
X30325000Y19200002D01*
X30325000Y19200000D01*
X30718626Y18834349D01*
X30722355Y18826208D01*
X30719626Y18818256D01*
X30208963Y18209682D01*
X30201020Y18205548D01*
X30192479Y18208240D01*
X30191037Y18209682D01*
X29680373Y18818256D01*
X29677681Y18826797D01*
X29681371Y18834347D01*
X30075000Y19200000D01*
X30075000Y19200001D01*
X30075001Y19200001D01*
X30075001Y19200002D01*
X30110721Y19286238D01*
X30113255Y19290032D01*
X30315470Y19492248D01*
X30323743Y19495674D01*
X30332016Y19492247D01*
G37*
%TD.AperFunction*%
%TD*%
%TA.AperFunction,Conductor*%
%TO.N,/D8*%
G36*
X30207521Y20991761D02*
G01*
X30208963Y20990319D01*
X30719626Y20381745D01*
X30722318Y20373204D01*
X30718626Y20365652D01*
X30325000Y20000001D01*
X30325000Y19999999D01*
X30489161Y19884265D01*
X30493948Y19876698D01*
X30491981Y19867961D01*
X30490692Y19866430D01*
X30332016Y19707754D01*
X30323743Y19704327D01*
X30315470Y19707754D01*
X30113257Y19909967D01*
X30110721Y19913763D01*
X30075001Y19999999D01*
X30075001Y20000000D01*
X29681373Y20365652D01*
X29677644Y20373793D01*
X29680372Y20381744D01*
X30191037Y20990320D01*
X30198980Y20994453D01*
X30207521Y20991761D01*
G37*
%TD.AperFunction*%
%TD*%
%TA.AperFunction,Conductor*%
%TO.N,Net-(C3-Pad1)*%
G36*
X32326674Y22296573D02*
G01*
X32328414Y22294352D01*
X32776078Y21553764D01*
X32777425Y21544912D01*
X32774083Y21539191D01*
X32208018Y21006545D01*
X32199644Y21003371D01*
X32191982Y21006545D01*
X31962608Y21222377D01*
X31625915Y21539192D01*
X31622239Y21547356D01*
X31623920Y21553762D01*
X32071586Y22294352D01*
X32078799Y22299660D01*
X32081599Y22300000D01*
X32318401Y22300000D01*
X32326674Y22296573D01*
G37*
%TD.AperFunction*%
%TD*%
%TA.AperFunction,Conductor*%
%TO.N,/D8*%
G36*
X41663464Y50798910D02*
G01*
X42303777Y50268455D01*
X42307962Y50260538D01*
X42305323Y50251981D01*
X42305097Y50251717D01*
X41781001Y49656003D01*
X41781000Y49656000D01*
X41745278Y49569762D01*
X41742742Y49565967D01*
X41362404Y49185629D01*
X41354131Y49182202D01*
X41345858Y49185629D01*
X41186307Y49345180D01*
X41182880Y49353453D01*
X41186307Y49361726D01*
X41186973Y49362342D01*
X41531000Y49656000D01*
X41530999Y49656001D01*
X41531000Y49656001D01*
X41006902Y50251717D01*
X41004010Y50260192D01*
X41007958Y50268229D01*
X41008222Y50268455D01*
X41648536Y50798910D01*
X41657093Y50801549D01*
X41663464Y50798910D01*
G37*
%TD.AperFunction*%
%TD*%
%TA.AperFunction,Conductor*%
%TO.N,/D8*%
G36*
X30326674Y19496573D02*
G01*
X30328414Y19494352D01*
X30776078Y18753764D01*
X30777425Y18744912D01*
X30774083Y18739191D01*
X30208018Y18206545D01*
X30199644Y18203371D01*
X30191982Y18206545D01*
X29962608Y18422377D01*
X29625915Y18739192D01*
X29622239Y18747356D01*
X29623920Y18753762D01*
X30071586Y19494352D01*
X30078799Y19499660D01*
X30081599Y19500000D01*
X30318401Y19500000D01*
X30326674Y19496573D01*
G37*
%TD.AperFunction*%
%TD*%
%TA.AperFunction,Conductor*%
%TO.N,/D8*%
G36*
X30208016Y20993457D02*
G01*
X30774083Y20460809D01*
X30777760Y20452645D01*
X30776078Y20446237D01*
X30328414Y19705648D01*
X30321201Y19700340D01*
X30318401Y19700000D01*
X30081599Y19700000D01*
X30073326Y19703427D01*
X30071586Y19705648D01*
X29623921Y20446237D01*
X29622574Y20455089D01*
X29625914Y20460807D01*
X30191983Y20993457D01*
X30200356Y20996630D01*
X30208016Y20993457D01*
G37*
%TD.AperFunction*%
%TD*%
%TA.AperFunction,Conductor*%
%TO.N,+5V*%
G36*
X32208016Y18193457D02*
G01*
X32442190Y17973109D01*
X32775311Y17659653D01*
X32778988Y17651488D01*
X32778257Y17647048D01*
X32502837Y16907616D01*
X32496738Y16901059D01*
X32491873Y16900000D01*
X31908127Y16900000D01*
X31899854Y16903427D01*
X31897163Y16907616D01*
X31621742Y17647048D01*
X31622065Y17655997D01*
X31624688Y17659653D01*
X32191983Y18193457D01*
X32200356Y18196630D01*
X32208016Y18193457D01*
G37*
%TD.AperFunction*%
%TD*%
%TA.AperFunction,Conductor*%
%TO.N,Net-(C2-Pad1)*%
G36*
X32084529Y32492247D02*
G01*
X32286742Y32290034D01*
X32289278Y32286238D01*
X32324998Y32200002D01*
X32324998Y32200001D01*
X32718626Y31834349D01*
X32722355Y31826208D01*
X32719626Y31818256D01*
X32208963Y31209682D01*
X32201020Y31205548D01*
X32192479Y31208240D01*
X32191037Y31209682D01*
X31680373Y31818256D01*
X31677681Y31826797D01*
X31681371Y31834347D01*
X32075000Y32200000D01*
X32074999Y32200001D01*
X32074999Y32200002D01*
X31910838Y32315736D01*
X31906051Y32323303D01*
X31908018Y32332040D01*
X31909301Y32333565D01*
X32067984Y32492248D01*
X32076256Y32495674D01*
X32084529Y32492247D01*
G37*
%TD.AperFunction*%
%TD*%
%TA.AperFunction,Conductor*%
%TO.N,Net-(C2-Pad1)*%
G36*
X32244741Y33991285D02*
G01*
X32246686Y33989340D01*
X32744582Y33357356D01*
X32747010Y33348736D01*
X32742691Y33340971D01*
X32362500Y33037501D01*
X32362497Y33037497D01*
X32326778Y32951263D01*
X32324242Y32947467D01*
X32086674Y32709898D01*
X32078401Y32706471D01*
X32070128Y32709898D01*
X31911136Y32868890D01*
X31907709Y32877163D01*
X31911136Y32885436D01*
X31912351Y32886494D01*
X32112500Y33037500D01*
X32112499Y33037501D01*
X32112500Y33037501D01*
X31732308Y33340971D01*
X31727980Y33348810D01*
X31730416Y33357354D01*
X32228311Y33989337D01*
X32236121Y33993713D01*
X32244741Y33991285D01*
G37*
%TD.AperFunction*%
%TD*%
%TA.AperFunction,Conductor*%
%TO.N,Net-(C2-Pad1)*%
G36*
X32359073Y32496573D02*
G01*
X32362500Y32488300D01*
X32362500Y32400000D01*
X32687153Y31892365D01*
X32775916Y31753573D01*
X32777486Y31744757D01*
X32774356Y31739020D01*
X32246225Y31207777D01*
X32237962Y31204326D01*
X32229679Y31207729D01*
X32229226Y31208205D01*
X31752103Y31739020D01*
X31679716Y31819553D01*
X31676736Y31827995D01*
X31679130Y31834486D01*
X32112500Y32400000D01*
X32112500Y32488300D01*
X32115927Y32496573D01*
X32124200Y32500000D01*
X32350800Y32500000D01*
X32359073Y32496573D01*
G37*
%TD.AperFunction*%
%TD*%
%TA.AperFunction,Conductor*%
%TO.N,Net-(C2-Pad1)*%
G36*
X32244741Y33991285D02*
G01*
X32246686Y33989340D01*
X32601605Y33538838D01*
X32746358Y33355101D01*
X32748786Y33346481D01*
X32746708Y33341086D01*
X32362500Y32800000D01*
X32362500Y32699200D01*
X32359073Y32690927D01*
X32350800Y32687500D01*
X32124200Y32687500D01*
X32115927Y32690927D01*
X32112500Y32699200D01*
X32112500Y32800000D01*
X31728291Y33341086D01*
X31726296Y33349816D01*
X31728640Y33355099D01*
X32228311Y33989337D01*
X32236121Y33993713D01*
X32244741Y33991285D01*
G37*
%TD.AperFunction*%
%TD*%
%TA.AperFunction,Conductor*%
%TO.N,Net-(C2-Pad1)*%
G36*
X26833558Y30746274D02*
G01*
X26836626Y30744069D01*
X27003146Y30577549D01*
X27006573Y30569276D01*
X27005963Y30565547D01*
X26469618Y28970424D01*
X26463733Y28963675D01*
X26455189Y28962940D01*
X25511033Y29244082D01*
X25504082Y29249727D01*
X25503159Y29251956D01*
X25222017Y30196112D01*
X25222940Y30205019D01*
X25229499Y30210541D01*
X26824624Y30746886D01*
X26833558Y30746274D01*
G37*
%TD.AperFunction*%
%TD*%
%TA.AperFunction,Conductor*%
%TO.N,/D9*%
G36*
X30207521Y31191761D02*
G01*
X30208963Y31190319D01*
X30721003Y30580104D01*
X30723695Y30571563D01*
X30721621Y30565868D01*
X30346335Y30030443D01*
X30346335Y30030441D01*
X30350826Y30025950D01*
X30354253Y30017677D01*
X30350826Y30009404D01*
X30190596Y29849174D01*
X30182323Y29845747D01*
X30174050Y29849174D01*
X30113257Y29909967D01*
X30110721Y29913763D01*
X30075002Y29999995D01*
X30075000Y30000000D01*
X29678377Y30565869D01*
X29676436Y30574609D01*
X29678994Y30580102D01*
X30191037Y31190320D01*
X30198980Y31194453D01*
X30207521Y31191761D01*
G37*
%TD.AperFunction*%
%TD*%
%TA.AperFunction,Conductor*%
%TO.N,/D9*%
G36*
X30332016Y29492247D02*
G01*
X30490692Y29333571D01*
X30494119Y29325298D01*
X30490692Y29317025D01*
X30489161Y29315736D01*
X30325000Y29200002D01*
X30325000Y29200000D01*
X30718626Y28834349D01*
X30722355Y28826208D01*
X30719626Y28818256D01*
X30208963Y28209682D01*
X30201020Y28205548D01*
X30192479Y28208240D01*
X30191037Y28209682D01*
X29680373Y28818256D01*
X29677681Y28826797D01*
X29681371Y28834347D01*
X30075000Y29200000D01*
X30075000Y29200001D01*
X30075001Y29200001D01*
X30075001Y29200002D01*
X30110721Y29286238D01*
X30113255Y29290032D01*
X30315470Y29492248D01*
X30323743Y29495674D01*
X30332016Y29492247D01*
G37*
%TD.AperFunction*%
%TD*%
%TA.AperFunction,Conductor*%
%TO.N,/D9*%
G36*
X39211509Y50718647D02*
G01*
X39215655Y50717573D01*
X39219335Y50715852D01*
X39222816Y50713360D01*
X39628899Y50290699D01*
X39702589Y50214000D01*
X39705048Y50210156D01*
X39705697Y50208497D01*
X39705527Y50199599D01*
X39705526Y50199558D01*
X39705369Y50199198D01*
X39700664Y50193842D01*
X39700544Y50193770D01*
X39699000Y50193062D01*
X39698920Y50192984D01*
X39698834Y50192986D01*
X39698215Y50192701D01*
X38152836Y49678872D01*
X38148304Y49678304D01*
X38146539Y49678432D01*
X38146539Y49678431D01*
X38146538Y49678432D01*
X38146527Y49678432D01*
X38138529Y49682436D01*
X38138261Y49682745D01*
X38135459Y49689245D01*
X38135447Y49689364D01*
X38135464Y49691134D01*
X38135429Y49691240D01*
X38135466Y49691315D01*
X38135471Y49691906D01*
X38264547Y50770870D01*
X38265962Y50775205D01*
X38266918Y50776908D01*
X38273675Y50782358D01*
X38275167Y50782818D01*
X38279416Y50783308D01*
X39211509Y50718647D01*
G37*
%TD.AperFunction*%
%TD*%
%TA.AperFunction,Conductor*%
%TO.N,GND*%
G36*
X25811035Y34702443D02*
G01*
X27496771Y34052887D01*
X27503258Y34046715D01*
X27504263Y34041970D01*
X27504263Y33458031D01*
X27500836Y33449758D01*
X27496770Y33447113D01*
X25811045Y32797562D01*
X25802093Y32797785D01*
X25795920Y32804273D01*
X25795667Y32805004D01*
X25504332Y33746546D01*
X25504332Y33753455D01*
X25795662Y34694981D01*
X25801380Y34701870D01*
X25810296Y34702698D01*
X25811035Y34702443D01*
G37*
%TD.AperFunction*%
%TD*%
%TA.AperFunction,Conductor*%
%TO.N,GND*%
G36*
X29580909Y34331601D02*
G01*
X30155413Y33758073D01*
X30158847Y33749803D01*
X30155620Y33741725D01*
X29733826Y33298754D01*
X29725639Y33295126D01*
X29722946Y33295372D01*
X28996793Y33448047D01*
X28989402Y33453103D01*
X28987500Y33459497D01*
X28987500Y34042700D01*
X28990927Y34050973D01*
X28994055Y34053209D01*
X29567500Y34333831D01*
X29576438Y34334389D01*
X29580909Y34331601D01*
G37*
%TD.AperFunction*%
%TD*%
%TA.AperFunction,Conductor*%
%TO.N,+5V*%
G36*
X32208016Y28193457D02*
G01*
X32442190Y27973109D01*
X32775311Y27659653D01*
X32778988Y27651488D01*
X32778257Y27647048D01*
X32502837Y26907616D01*
X32496738Y26901059D01*
X32491873Y26900000D01*
X31908127Y26900000D01*
X31899854Y26903427D01*
X31897163Y26907616D01*
X31621742Y27647048D01*
X31622065Y27655997D01*
X31624688Y27659653D01*
X32191983Y28193457D01*
X32200356Y28196630D01*
X32208016Y28193457D01*
G37*
%TD.AperFunction*%
%TD*%
%TA.AperFunction,Conductor*%
%TO.N,GND*%
G36*
X25990818Y45177291D02*
G01*
X27496949Y44503098D01*
X27503100Y44496590D01*
X27503869Y44492419D01*
X27503869Y43908486D01*
X27500442Y43900213D01*
X27495803Y43897365D01*
X25810294Y43346632D01*
X25801366Y43347319D01*
X25795603Y43353927D01*
X25504454Y44195418D01*
X25504986Y44204355D01*
X25975518Y45171732D01*
X25982217Y45177670D01*
X25990818Y45177291D01*
G37*
%TD.AperFunction*%
%TD*%
%TA.AperFunction,Conductor*%
%TO.N,GND*%
G36*
X29611068Y44781403D02*
G01*
X30155842Y44208059D01*
X30159056Y44199701D01*
X30155842Y44191941D01*
X29611068Y43618598D01*
X29602885Y43614961D01*
X29597649Y43616049D01*
X28994263Y43896853D01*
X28988209Y43903451D01*
X28987500Y43907461D01*
X28987500Y44492540D01*
X28990927Y44500813D01*
X28994260Y44503147D01*
X29597651Y44783953D01*
X29606596Y44784335D01*
X29611068Y44781403D01*
G37*
%TD.AperFunction*%
%TD*%
%TA.AperFunction,Conductor*%
%TO.N,/D10*%
G36*
X30473438Y39833668D02*
G01*
X30632898Y39674208D01*
X30636325Y39665935D01*
X30632898Y39657662D01*
X30632133Y39656961D01*
X30325001Y39400001D01*
X30325000Y39400000D01*
X30631930Y39286071D01*
X30638494Y39279979D01*
X30638828Y39271031D01*
X30637653Y39268702D01*
X30209794Y38613987D01*
X30202400Y38608936D01*
X30193600Y38610593D01*
X30190206Y38613987D01*
X29762346Y39268702D01*
X29760689Y39277502D01*
X29765740Y39284896D01*
X29768062Y39286068D01*
X30075000Y39400000D01*
X30110722Y39486240D01*
X30113254Y39490031D01*
X30456892Y39833668D01*
X30465165Y39837095D01*
X30473438Y39833668D01*
G37*
%TD.AperFunction*%
%TD*%
%TA.AperFunction,Conductor*%
%TO.N,/D10*%
G36*
X30206400Y41389408D02*
G01*
X30209792Y41386016D01*
X30551506Y40863123D01*
X30637653Y40731299D01*
X30639310Y40722499D01*
X30634259Y40715105D01*
X30631931Y40713930D01*
X30325000Y40600001D01*
X30325000Y40600000D01*
X30428076Y40513763D01*
X30632133Y40343040D01*
X30636279Y40335103D01*
X30633599Y40326558D01*
X30632898Y40325793D01*
X30473438Y40166332D01*
X30465165Y40162905D01*
X30456892Y40166332D01*
X30113257Y40509967D01*
X30110721Y40513763D01*
X30075000Y40600000D01*
X30074997Y40600001D01*
X29768067Y40713931D01*
X29761505Y40720022D01*
X29761171Y40728971D01*
X29762343Y40731294D01*
X30190207Y41386015D01*
X30197600Y41391065D01*
X30206400Y41389408D01*
G37*
%TD.AperFunction*%
%TD*%
%TA.AperFunction,Conductor*%
%TO.N,/D10*%
G36*
X37065684Y50550888D02*
G01*
X37066365Y50549201D01*
X37174112Y50208226D01*
X37173337Y50199305D01*
X37168469Y50194381D01*
X36449532Y49810303D01*
X36030083Y49586220D01*
X36021173Y49585345D01*
X36014252Y49591027D01*
X36013097Y49598825D01*
X36013840Y49602562D01*
X36109509Y50083083D01*
X36114484Y50090525D01*
X36115761Y50091266D01*
X37049999Y50556152D01*
X37058930Y50556768D01*
X37065684Y50550888D01*
G37*
%TD.AperFunction*%
%TD*%
%TA.AperFunction,Conductor*%
%TO.N,Net-(C1-Pad1)*%
G36*
X32084529Y42692247D02*
G01*
X32286742Y42490034D01*
X32289278Y42486238D01*
X32324998Y42400002D01*
X32324998Y42400001D01*
X32718626Y42034349D01*
X32722355Y42026208D01*
X32719626Y42018256D01*
X32208963Y41409682D01*
X32201020Y41405548D01*
X32192479Y41408240D01*
X32191037Y41409682D01*
X31680373Y42018256D01*
X31677681Y42026797D01*
X31681371Y42034347D01*
X32075000Y42400000D01*
X32074999Y42400001D01*
X32074999Y42400002D01*
X31910838Y42515736D01*
X31906051Y42523303D01*
X31908018Y42532040D01*
X31909301Y42533565D01*
X32067984Y42692248D01*
X32076256Y42695674D01*
X32084529Y42692247D01*
G37*
%TD.AperFunction*%
%TD*%
%TA.AperFunction,Conductor*%
%TO.N,Net-(C1-Pad1)*%
G36*
X32244741Y44191285D02*
G01*
X32246686Y44189340D01*
X32744582Y43557356D01*
X32747010Y43548736D01*
X32742691Y43540971D01*
X32362500Y43237501D01*
X32362497Y43237497D01*
X32326778Y43151263D01*
X32324242Y43147467D01*
X32086674Y42909898D01*
X32078401Y42906471D01*
X32070128Y42909898D01*
X31911136Y43068890D01*
X31907709Y43077163D01*
X31911136Y43085436D01*
X31912351Y43086494D01*
X32112500Y43237500D01*
X32112499Y43237501D01*
X32112500Y43237501D01*
X31732308Y43540971D01*
X31727980Y43548810D01*
X31730416Y43557354D01*
X32228311Y44189337D01*
X32236121Y44193713D01*
X32244741Y44191285D01*
G37*
%TD.AperFunction*%
%TD*%
%TA.AperFunction,Conductor*%
%TO.N,Net-(C1-Pad1)*%
G36*
X32208190Y44192627D02*
G01*
X32208583Y44192244D01*
X32780943Y43608376D01*
X32784287Y43600070D01*
X32782409Y43593826D01*
X32328458Y42892840D01*
X32321084Y42887759D01*
X32318637Y42887500D01*
X32081935Y42887500D01*
X32073662Y42890927D01*
X32071671Y42893583D01*
X31673079Y43621931D01*
X31672114Y43630834D01*
X31674768Y43635508D01*
X32191656Y44192017D01*
X32199796Y44195746D01*
X32208190Y44192627D01*
G37*
%TD.AperFunction*%
%TD*%
%TA.AperFunction,Conductor*%
%TO.N,+5V*%
G36*
X32208016Y38593457D02*
G01*
X32442190Y38373109D01*
X32775311Y38059653D01*
X32778988Y38051488D01*
X32778257Y38047048D01*
X32502837Y37307616D01*
X32496738Y37301059D01*
X32491873Y37300000D01*
X31908127Y37300000D01*
X31899854Y37303427D01*
X31897163Y37307616D01*
X31621742Y38047048D01*
X31622065Y38055997D01*
X31624688Y38059653D01*
X32191983Y38593457D01*
X32200356Y38596630D01*
X32208016Y38593457D01*
G37*
%TD.AperFunction*%
%TD*%
%TA.AperFunction,Conductor*%
%TO.N,GND*%
G36*
X82640224Y25951630D02*
G01*
X82647821Y25946889D01*
X82650000Y25940089D01*
X82650000Y25359912D01*
X82646573Y25351639D01*
X82640223Y25348371D01*
X82053917Y25250653D01*
X82046495Y25251867D01*
X81318387Y25639674D01*
X81312697Y25646587D01*
X81313561Y25655500D01*
X81318386Y25660326D01*
X82046497Y26048135D01*
X82053914Y26049348D01*
X82640224Y25951630D01*
G37*
%TD.AperFunction*%
%TD*%
%TA.AperFunction,Conductor*%
%TO.N,GND*%
G36*
X40898203Y3349339D02*
G01*
X42328114Y2842761D01*
X42334768Y2836769D01*
X42335907Y2831733D01*
X42335907Y2248268D01*
X42332480Y2239995D01*
X42328114Y2237240D01*
X40898223Y1730669D01*
X40889280Y1731136D01*
X40883288Y1737790D01*
X40883139Y1738237D01*
X40725229Y2248268D01*
X40635978Y2536541D01*
X40635978Y2543460D01*
X40728644Y2842761D01*
X40883140Y3341766D01*
X40888860Y3348654D01*
X40897776Y3349481D01*
X40898203Y3349339D01*
G37*
%TD.AperFunction*%
%TD*%
%TA.AperFunction,Conductor*%
%TO.N,GND*%
G36*
X42930719Y3348865D02*
G01*
X42936711Y3342211D01*
X42936860Y3341764D01*
X43184021Y2543460D01*
X43184021Y2536540D01*
X42936860Y1738237D01*
X42931139Y1731347D01*
X42922223Y1730520D01*
X42921776Y1730669D01*
X41491886Y2237240D01*
X41485232Y2243232D01*
X41484093Y2248268D01*
X41484093Y2831733D01*
X41487520Y2840006D01*
X41491886Y2842761D01*
X42921777Y3349332D01*
X42930719Y3348865D01*
G37*
%TD.AperFunction*%
%TD*%
%TA.AperFunction,Conductor*%
%TO.N,GND*%
G36*
X82640224Y34951630D02*
G01*
X82647821Y34946889D01*
X82650000Y34940089D01*
X82650000Y34359912D01*
X82646573Y34351639D01*
X82640223Y34348371D01*
X82053917Y34250653D01*
X82046495Y34251867D01*
X81318387Y34639674D01*
X81312697Y34646587D01*
X81313561Y34655500D01*
X81318386Y34660326D01*
X82046497Y35048135D01*
X82053914Y35049348D01*
X82640224Y34951630D01*
G37*
%TD.AperFunction*%
%TD*%
%TA.AperFunction,Conductor*%
%TO.N,GND*%
G36*
X9261081Y35193678D02*
G01*
X9495965Y34935406D01*
X9793840Y34607872D01*
X9796871Y34599446D01*
X9793840Y34592128D01*
X9261083Y34006325D01*
X9252981Y34002510D01*
X9247557Y34003559D01*
X8606830Y34296874D01*
X8600734Y34303433D01*
X8600000Y34307512D01*
X8600000Y34892489D01*
X8603427Y34900762D01*
X8606828Y34903127D01*
X9247558Y35196443D01*
X9256506Y35196770D01*
X9261081Y35193678D01*
G37*
%TD.AperFunction*%
%TD*%
%TA.AperFunction,Conductor*%
%TO.N,GND*%
G36*
X82639272Y39500894D02*
G01*
X82647232Y39496792D01*
X82650000Y39489234D01*
X82650000Y38909479D01*
X82646573Y38901206D01*
X82640728Y38898034D01*
X82182348Y38800799D01*
X82175077Y38801594D01*
X81322133Y39189480D01*
X81316020Y39196024D01*
X81316326Y39204973D01*
X81322034Y39210735D01*
X82047183Y39548688D01*
X82053096Y39549742D01*
X82639272Y39500894D01*
G37*
%TD.AperFunction*%
%TD*%
%TA.AperFunction,Conductor*%
%TO.N,GND*%
G36*
X7715999Y8095067D02*
G01*
X7724042Y8091642D01*
X8137670Y7678014D01*
X8141097Y7669741D01*
X8138632Y7662558D01*
X7655462Y7041338D01*
X7647678Y7036911D01*
X7641773Y7037702D01*
X7259730Y7194996D01*
X7253384Y7201315D01*
X7253212Y7209876D01*
X7579130Y8089909D01*
X7585216Y8096475D01*
X7590327Y8097542D01*
X7715999Y8095067D01*
G37*
%TD.AperFunction*%
%TD*%
%TA.AperFunction,Conductor*%
%TO.N,GND*%
G36*
X85449820Y44256565D02*
G01*
X85452596Y44254510D01*
X85857412Y43849694D01*
X85860839Y43841421D01*
X85857412Y43833148D01*
X85513777Y43489514D01*
X85509981Y43486978D01*
X85300000Y43400001D01*
X85134212Y43182958D01*
X85126467Y43178463D01*
X85117812Y43180762D01*
X85117393Y43181097D01*
X85115175Y43182958D01*
X84509680Y43691038D01*
X84505547Y43698980D01*
X84508239Y43707521D01*
X84509681Y43708963D01*
X85117395Y44218905D01*
X85125934Y44221596D01*
X85133877Y44217462D01*
X85134212Y44217043D01*
X85299999Y44000001D01*
X85300000Y44000000D01*
X85433995Y44251735D01*
X85440907Y44257427D01*
X85449820Y44256565D01*
G37*
%TD.AperFunction*%
%TD*%
%TA.AperFunction,Conductor*%
%TO.N,GND*%
G36*
X82640224Y43951630D02*
G01*
X82647821Y43946889D01*
X82650000Y43940089D01*
X82650000Y43359912D01*
X82646573Y43351639D01*
X82640223Y43348371D01*
X82053917Y43250653D01*
X82046495Y43251867D01*
X81318387Y43639674D01*
X81312697Y43646587D01*
X81313561Y43655500D01*
X81318386Y43660326D01*
X82046497Y44048135D01*
X82053914Y44049348D01*
X82640224Y43951630D01*
G37*
%TD.AperFunction*%
%TD*%
%TA.AperFunction,Conductor*%
%TO.N,GND*%
G36*
X83914316Y44243587D02*
G01*
X83914430Y44243473D01*
X84491065Y43660051D01*
X84493577Y43656245D01*
X84494250Y43654595D01*
X84494249Y43654593D01*
X84494253Y43654589D01*
X84494225Y43650064D01*
X84494202Y43645640D01*
X84494199Y43645634D01*
X84493528Y43644041D01*
X84490898Y43640190D01*
X83960958Y43125471D01*
X83957127Y43122991D01*
X83954097Y43121787D01*
X83946351Y43121473D01*
X83210501Y43346786D01*
X83206482Y43348947D01*
X83204343Y43350711D01*
X83200429Y43356930D01*
X83200342Y43357282D01*
X83200190Y43358525D01*
X83200141Y43358618D01*
X83200168Y43358708D01*
X83200000Y43360089D01*
X83200000Y43939924D01*
X83200890Y43944400D01*
X83202060Y43947225D01*
X83208303Y43953520D01*
X83898531Y44245998D01*
X83902996Y44246924D01*
X83906017Y44246948D01*
X83914316Y44243587D01*
G37*
%TD.AperFunction*%
%TD*%
%TA.AperFunction,Conductor*%
%TO.N,GND*%
G36*
X9854360Y34594204D02*
G01*
X9855840Y34593580D01*
X9855959Y34593530D01*
X9859810Y34590900D01*
X10374529Y34060960D01*
X10377009Y34057129D01*
X10378213Y34054099D01*
X10378527Y34046353D01*
X10153215Y33310502D01*
X10151054Y33306483D01*
X10149290Y33304344D01*
X10143102Y33300438D01*
X10142746Y33300349D01*
X10139912Y33300000D01*
X9560077Y33300000D01*
X9555597Y33300892D01*
X9552774Y33302062D01*
X9546481Y33308305D01*
X9254004Y33998529D01*
X9253077Y34003001D01*
X9253053Y34006019D01*
X9256414Y34014319D01*
X9256528Y34014433D01*
X9296661Y34054099D01*
X9839950Y34591069D01*
X9843757Y34593580D01*
X9845408Y34594253D01*
X9854360Y34594204D01*
G37*
%TD.AperFunction*%
%TD*%
%TA.AperFunction,Conductor*%
%TO.N,GND*%
G36*
X10148362Y32846573D02*
G01*
X10151630Y32840223D01*
X10249347Y32253918D01*
X10248133Y32246495D01*
X9860327Y31518389D01*
X9853413Y31512698D01*
X9844500Y31513562D01*
X9839673Y31518389D01*
X9826096Y31543879D01*
X9451865Y32246498D01*
X9450652Y32253915D01*
X9548370Y32840225D01*
X9553111Y32847821D01*
X9559911Y32850000D01*
X10140089Y32850000D01*
X10148362Y32846573D01*
G37*
%TD.AperFunction*%
%TD*%
%TA.AperFunction,Conductor*%
%TO.N,GND*%
G36*
X82640224Y30451630D02*
G01*
X82647821Y30446889D01*
X82650000Y30440089D01*
X82650000Y29859912D01*
X82646573Y29851639D01*
X82640223Y29848371D01*
X82053917Y29750653D01*
X82046495Y29751867D01*
X81318387Y30139674D01*
X81312697Y30146587D01*
X81313561Y30155500D01*
X81318386Y30160326D01*
X82046497Y30548135D01*
X82053914Y30549348D01*
X82640224Y30451630D01*
G37*
%TD.AperFunction*%
%TD*%
%TA.AperFunction,Conductor*%
%TO.N,GND*%
G36*
X9461081Y8593678D02*
G01*
X9695965Y8335406D01*
X9993840Y8007872D01*
X9996871Y7999446D01*
X9993840Y7992128D01*
X9461083Y7406325D01*
X9452981Y7402510D01*
X9447557Y7403559D01*
X8806830Y7696874D01*
X8800734Y7703433D01*
X8800000Y7707512D01*
X8800000Y8292489D01*
X8803427Y8300762D01*
X8806828Y8303127D01*
X9447558Y8596443D01*
X9456506Y8596770D01*
X9461081Y8593678D01*
G37*
%TD.AperFunction*%
%TD*%
%TA.AperFunction,Conductor*%
%TO.N,GND*%
G36*
X9261081Y45893678D02*
G01*
X9495965Y45635406D01*
X9793840Y45307872D01*
X9796871Y45299446D01*
X9793840Y45292128D01*
X9261083Y44706325D01*
X9252981Y44702510D01*
X9247557Y44703559D01*
X8606830Y44996874D01*
X8600734Y45003433D01*
X8600000Y45007512D01*
X8600000Y45592489D01*
X8603427Y45600762D01*
X8606828Y45603127D01*
X9247558Y45896443D01*
X9256506Y45896770D01*
X9261081Y45893678D01*
G37*
%TD.AperFunction*%
%TD*%
%TA.AperFunction,Conductor*%
%TO.N,GND*%
G36*
X82640224Y12451630D02*
G01*
X82647821Y12446889D01*
X82650000Y12440089D01*
X82650000Y11859912D01*
X82646573Y11851639D01*
X82640223Y11848371D01*
X82053917Y11750653D01*
X82046495Y11751867D01*
X81318387Y12139674D01*
X81312697Y12146587D01*
X81313561Y12155500D01*
X81318386Y12160326D01*
X82046497Y12548135D01*
X82053914Y12549348D01*
X82640224Y12451630D01*
G37*
%TD.AperFunction*%
%TD*%
%TA.AperFunction,Conductor*%
%TO.N,GND*%
G36*
X96121763Y8362254D02*
G01*
X96122962Y8361233D01*
X96125666Y8357895D01*
X96520969Y7627617D01*
X96522318Y7623253D01*
X96522674Y7619819D01*
X96521325Y7613043D01*
X96125734Y6882232D01*
X96122820Y6878719D01*
X96121315Y6877497D01*
X96113005Y6874917D01*
X96111434Y6875043D01*
X96107287Y6876167D01*
X96098952Y6880186D01*
X95941298Y6956217D01*
X95331416Y7250339D01*
X94832807Y7490799D01*
X94829161Y7493547D01*
X94827065Y7495895D01*
X94824093Y7503686D01*
X94824093Y7735326D01*
X94824983Y7739802D01*
X94826188Y7742712D01*
X94831914Y7748773D01*
X96107164Y8363776D01*
X96111577Y8364917D01*
X96113515Y8365027D01*
X96121763Y8362254D01*
G37*
%TD.AperFunction*%
%TD*%
%TA.AperFunction,Conductor*%
%TO.N,GND*%
G36*
X94836260Y8463714D02*
G01*
X94839802Y8461640D01*
X95674124Y7750012D01*
X95676950Y7746431D01*
X95678721Y7742961D01*
X95680000Y7737644D01*
X95680000Y7502727D01*
X95679109Y7498249D01*
X95677618Y7494650D01*
X95674402Y7490226D01*
X94839988Y6778520D01*
X94835999Y6776291D01*
X94834047Y6775659D01*
X94825542Y6776166D01*
X94824248Y6776763D01*
X94820881Y6779109D01*
X94107024Y7492126D01*
X93988933Y7610079D01*
X93986395Y7613871D01*
X93985711Y7615518D01*
X93985705Y7624468D01*
X93986386Y7626115D01*
X93988925Y7629915D01*
X94820714Y8460727D01*
X94824503Y8463256D01*
X94826406Y8464043D01*
X94834922Y8464207D01*
X94836260Y8463714D01*
G37*
%TD.AperFunction*%
%TD*%
%TA.AperFunction,Conductor*%
%TO.N,GND*%
G36*
X9163949Y8554510D02*
G01*
X9166004Y8551735D01*
X9225172Y8440578D01*
X9300000Y8300000D01*
X9412097Y8531363D01*
X9418788Y8537314D01*
X9427727Y8536790D01*
X9430626Y8534798D01*
X9828377Y8161856D01*
X9991897Y8008535D01*
X9995588Y8000376D01*
X9992429Y7991997D01*
X9991897Y7991465D01*
X9430629Y7465205D01*
X9422250Y7462046D01*
X9414091Y7465737D01*
X9412097Y7468638D01*
X9300000Y7700000D01*
X9299999Y7700001D01*
X9299999Y7700002D01*
X9090018Y7786978D01*
X9086222Y7789514D01*
X8742588Y8133148D01*
X8739161Y8141421D01*
X8742588Y8149694D01*
X8892895Y8300001D01*
X9147404Y8554511D01*
X9155676Y8557937D01*
X9163949Y8554510D01*
G37*
%TD.AperFunction*%
%TD*%
%TA.AperFunction,Conductor*%
%TO.N,GND*%
G36*
X82640224Y16951630D02*
G01*
X82647821Y16946889D01*
X82650000Y16940089D01*
X82650000Y16359912D01*
X82646573Y16351639D01*
X82640223Y16348371D01*
X82053917Y16250653D01*
X82046495Y16251867D01*
X81318387Y16639674D01*
X81312697Y16646587D01*
X81313561Y16655500D01*
X81318386Y16660326D01*
X82046497Y17048135D01*
X82053914Y17049348D01*
X82640224Y16951630D01*
G37*
%TD.AperFunction*%
%TD*%
%TA.AperFunction,Conductor*%
%TO.N,GND*%
G36*
X9854360Y45294204D02*
G01*
X9855840Y45293580D01*
X9855959Y45293530D01*
X9859810Y45290900D01*
X10374529Y44760960D01*
X10377009Y44757129D01*
X10378213Y44754099D01*
X10378527Y44746353D01*
X10153215Y44010502D01*
X10151054Y44006483D01*
X10149290Y44004344D01*
X10143102Y44000438D01*
X10142746Y44000349D01*
X10139912Y44000000D01*
X9560077Y44000000D01*
X9555597Y44000892D01*
X9552774Y44002062D01*
X9546481Y44008305D01*
X9254004Y44698529D01*
X9253077Y44703001D01*
X9253053Y44706019D01*
X9256414Y44714319D01*
X9256528Y44714433D01*
X9296661Y44754099D01*
X9839950Y45291069D01*
X9843757Y45293580D01*
X9845408Y45294253D01*
X9854360Y45294204D01*
G37*
%TD.AperFunction*%
%TD*%
%TA.AperFunction,Conductor*%
%TO.N,GND*%
G36*
X10148362Y43346573D02*
G01*
X10151630Y43340223D01*
X10249347Y42753918D01*
X10248133Y42746495D01*
X9860327Y42018389D01*
X9853413Y42012698D01*
X9844500Y42013562D01*
X9839673Y42018389D01*
X9826096Y42043879D01*
X9451865Y42746498D01*
X9450652Y42753915D01*
X9548370Y43340225D01*
X9553111Y43347821D01*
X9559911Y43350000D01*
X10140089Y43350000D01*
X10148362Y43346573D01*
G37*
%TD.AperFunction*%
%TD*%
%TA.AperFunction,Conductor*%
%TO.N,GND*%
G36*
X82640224Y21451630D02*
G01*
X82647821Y21446889D01*
X82650000Y21440089D01*
X82650000Y20859912D01*
X82646573Y20851639D01*
X82640223Y20848371D01*
X82053917Y20750653D01*
X82046495Y20751867D01*
X81318387Y21139674D01*
X81312697Y21146587D01*
X81313561Y21155500D01*
X81318386Y21160326D01*
X82046497Y21548135D01*
X82053914Y21549348D01*
X82640224Y21451630D01*
G37*
%TD.AperFunction*%
%TD*%
%TA.AperFunction,Conductor*%
%TO.N,GND*%
G36*
X7715999Y8095067D02*
G01*
X7724042Y8091642D01*
X8137670Y7678014D01*
X8141097Y7669741D01*
X8138632Y7662558D01*
X7655462Y7041338D01*
X7647678Y7036911D01*
X7641773Y7037702D01*
X7259730Y7194996D01*
X7253384Y7201315D01*
X7253212Y7209876D01*
X7579130Y8089909D01*
X7585216Y8096475D01*
X7590327Y8097542D01*
X7715999Y8095067D01*
G37*
%TD.AperFunction*%
%TD*%
%TA.AperFunction,Conductor*%
%TO.N,/D52*%
G36*
X93584627Y10899815D02*
G01*
X93982077Y10165570D01*
X93983002Y10156663D01*
X93982077Y10154430D01*
X93584627Y9420186D01*
X93577675Y9414542D01*
X93569256Y9415217D01*
X93558952Y9420186D01*
X93401298Y9496217D01*
X92290711Y10031809D01*
X92284747Y10038490D01*
X92284093Y10042348D01*
X92284093Y10277653D01*
X92287520Y10285926D01*
X92290709Y10288191D01*
X93569258Y10904785D01*
X93578196Y10905291D01*
X93584627Y10899815D01*
G37*
%TD.AperFunction*%
%TD*%
%TA.AperFunction,Conductor*%
%TO.N,/D52*%
G36*
X61719547Y15468978D02*
G01*
X61722401Y15467795D01*
X61728614Y15461741D01*
X62149951Y14514449D01*
X62150957Y14509994D01*
X62151030Y14507147D01*
X62148994Y14500245D01*
X62148858Y14500046D01*
X62147856Y14498894D01*
X62147816Y14498789D01*
X62147733Y14498753D01*
X62147083Y14498004D01*
X61609603Y14007761D01*
X61605695Y14005402D01*
X61603728Y14004691D01*
X61595273Y14004885D01*
X61594008Y14005409D01*
X61590601Y14007574D01*
X61053625Y14497356D01*
X61050918Y14501031D01*
X61049709Y14503608D01*
X61048808Y14510766D01*
X61048854Y14511008D01*
X61049656Y14513568D01*
X61050048Y14514449D01*
X61470966Y15460799D01*
X61473600Y15464526D01*
X61475841Y15466653D01*
X61483895Y15469867D01*
X61715072Y15469867D01*
X61719547Y15468978D01*
G37*
%TD.AperFunction*%
%TD*%
%TA.AperFunction,Conductor*%
%TO.N,/D52*%
G36*
X61604725Y21645118D02*
G01*
X61605992Y21644592D01*
X61609398Y21642428D01*
X62146373Y21152646D01*
X62149080Y21148971D01*
X62150289Y21146394D01*
X62151190Y21139234D01*
X62151145Y21138998D01*
X62150695Y21137564D01*
X62150701Y21137449D01*
X62150638Y21137381D01*
X62150342Y21136434D01*
X61729035Y20189206D01*
X61726403Y20185479D01*
X61724163Y20183351D01*
X61716105Y20180133D01*
X61484928Y20180133D01*
X61480450Y20181024D01*
X61477597Y20182206D01*
X61471385Y20188260D01*
X61050046Y21135556D01*
X61049042Y21140004D01*
X61048968Y21142857D01*
X61050982Y21149723D01*
X61051117Y21149922D01*
X61052907Y21151991D01*
X61590396Y21642242D01*
X61594297Y21644598D01*
X61596271Y21645311D01*
X61604725Y21645118D01*
G37*
%TD.AperFunction*%
%TD*%
%TA.AperFunction,Conductor*%
%TO.N,/D52*%
G36*
X61719547Y23118978D02*
G01*
X61722401Y23117795D01*
X61728614Y23111741D01*
X62149951Y22164449D01*
X62150957Y22159994D01*
X62151030Y22157147D01*
X62148994Y22150245D01*
X62148858Y22150046D01*
X62147856Y22148894D01*
X62147816Y22148789D01*
X62147733Y22148753D01*
X62147083Y22148004D01*
X61609603Y21657761D01*
X61605695Y21655402D01*
X61603728Y21654691D01*
X61595273Y21654885D01*
X61594008Y21655409D01*
X61590601Y21657574D01*
X61053625Y22147356D01*
X61050918Y22151031D01*
X61049709Y22153608D01*
X61048808Y22160766D01*
X61048854Y22161008D01*
X61049656Y22163568D01*
X61050048Y22164449D01*
X61470966Y23110799D01*
X61473600Y23114526D01*
X61475841Y23116653D01*
X61483895Y23119867D01*
X61715072Y23119867D01*
X61719547Y23118978D01*
G37*
%TD.AperFunction*%
%TD*%
%TA.AperFunction,Conductor*%
%TO.N,/D53*%
G36*
X63607885Y13993808D02*
G01*
X64148092Y13501078D01*
X64151895Y13492971D01*
X64150897Y13487679D01*
X63728089Y12537078D01*
X63721596Y12530912D01*
X63717399Y12530133D01*
X63482601Y12530133D01*
X63474328Y12533560D01*
X63471911Y12537078D01*
X63049102Y13487679D01*
X63048871Y13496631D01*
X63051905Y13501076D01*
X63592115Y13993809D01*
X63600537Y13996852D01*
X63607885Y13993808D01*
G37*
%TD.AperFunction*%
%TD*%
%TA.AperFunction,Conductor*%
%TO.N,/D53*%
G36*
X63725672Y15466440D02*
G01*
X63728089Y15462922D01*
X64150897Y14512322D01*
X64151128Y14503370D01*
X64148092Y14498923D01*
X63607885Y14006193D01*
X63599463Y14003149D01*
X63592115Y14006193D01*
X63051907Y14498923D01*
X63048104Y14507030D01*
X63049102Y14512322D01*
X63471911Y15462922D01*
X63478404Y15469088D01*
X63482601Y15469867D01*
X63717399Y15469867D01*
X63725672Y15466440D01*
G37*
%TD.AperFunction*%
%TD*%
%TA.AperFunction,Conductor*%
%TO.N,/D53*%
G36*
X63607885Y21643808D02*
G01*
X64148092Y21151078D01*
X64151895Y21142971D01*
X64150897Y21137679D01*
X63728089Y20187078D01*
X63721596Y20180912D01*
X63717399Y20180133D01*
X63482601Y20180133D01*
X63474328Y20183560D01*
X63471911Y20187078D01*
X63049102Y21137679D01*
X63048871Y21146631D01*
X63051905Y21151076D01*
X63592115Y21643809D01*
X63600537Y21646852D01*
X63607885Y21643808D01*
G37*
%TD.AperFunction*%
%TD*%
%TA.AperFunction,Conductor*%
%TO.N,/D53*%
G36*
X96517530Y10165408D02*
G01*
X96524482Y10159764D01*
X96525407Y10157531D01*
X96763557Y9357303D01*
X96762632Y9348396D01*
X96756201Y9342920D01*
X95416136Y8874847D01*
X95407196Y8875354D01*
X95404005Y8877620D01*
X95237619Y9044006D01*
X95234192Y9052279D01*
X95234845Y9056134D01*
X95702919Y10396203D01*
X95708883Y10402883D01*
X95717300Y10403558D01*
X96517530Y10165408D01*
G37*
%TD.AperFunction*%
%TD*%
%TA.AperFunction,Conductor*%
%TO.N,/D50*%
G36*
X57719547Y23118978D02*
G01*
X57722401Y23117795D01*
X57728614Y23111741D01*
X58149951Y22164449D01*
X58150957Y22159994D01*
X58151030Y22157147D01*
X58148994Y22150245D01*
X58148858Y22150046D01*
X58147856Y22148894D01*
X58147816Y22148789D01*
X58147733Y22148753D01*
X58147083Y22148004D01*
X57609603Y21657761D01*
X57605695Y21655402D01*
X57603728Y21654691D01*
X57595273Y21654885D01*
X57594008Y21655409D01*
X57590601Y21657574D01*
X57053625Y22147356D01*
X57050918Y22151031D01*
X57049709Y22153608D01*
X57048808Y22160766D01*
X57048854Y22161008D01*
X57049656Y22163568D01*
X57050048Y22164449D01*
X57470966Y23110799D01*
X57473600Y23114526D01*
X57475841Y23116653D01*
X57483895Y23119867D01*
X57715072Y23119867D01*
X57719547Y23118978D01*
G37*
%TD.AperFunction*%
%TD*%
%TA.AperFunction,Conductor*%
%TO.N,/D50*%
G36*
X93584627Y13439815D02*
G01*
X93982077Y12705570D01*
X93983002Y12696663D01*
X93982077Y12694430D01*
X93584627Y11960186D01*
X93577675Y11954542D01*
X93569256Y11955217D01*
X93558952Y11960186D01*
X93401298Y12036217D01*
X92290711Y12571809D01*
X92284747Y12578490D01*
X92284093Y12582348D01*
X92284093Y12817653D01*
X92287520Y12825926D01*
X92290709Y12828191D01*
X93569258Y13444785D01*
X93578196Y13445291D01*
X93584627Y13439815D01*
G37*
%TD.AperFunction*%
%TD*%
%TA.AperFunction,Conductor*%
%TO.N,/D50*%
G36*
X57604725Y21645118D02*
G01*
X57605992Y21644592D01*
X57609398Y21642428D01*
X58146373Y21152646D01*
X58149080Y21148971D01*
X58150289Y21146394D01*
X58151190Y21139234D01*
X58151145Y21138998D01*
X58150695Y21137564D01*
X58150701Y21137449D01*
X58150638Y21137381D01*
X58150342Y21136434D01*
X57729035Y20189206D01*
X57726403Y20185479D01*
X57724163Y20183351D01*
X57716105Y20180133D01*
X57484928Y20180133D01*
X57480450Y20181024D01*
X57477597Y20182206D01*
X57471385Y20188260D01*
X57050046Y21135556D01*
X57049042Y21140004D01*
X57048968Y21142857D01*
X57050982Y21149723D01*
X57051117Y21149922D01*
X57052907Y21151991D01*
X57590396Y21642242D01*
X57594297Y21644598D01*
X57596271Y21645311D01*
X57604725Y21645118D01*
G37*
%TD.AperFunction*%
%TD*%
%TA.AperFunction,Conductor*%
%TO.N,/D50*%
G36*
X57719547Y15468978D02*
G01*
X57722401Y15467795D01*
X57728614Y15461741D01*
X58149951Y14514449D01*
X58150957Y14509994D01*
X58151030Y14507147D01*
X58148994Y14500245D01*
X58148858Y14500046D01*
X58147856Y14498894D01*
X58147816Y14498789D01*
X58147733Y14498753D01*
X58147083Y14498004D01*
X57609603Y14007761D01*
X57605695Y14005402D01*
X57603728Y14004691D01*
X57595273Y14004885D01*
X57594008Y14005409D01*
X57590601Y14007574D01*
X57053625Y14497356D01*
X57050918Y14501031D01*
X57049709Y14503608D01*
X57048808Y14510766D01*
X57048854Y14511008D01*
X57049656Y14513568D01*
X57050048Y14514449D01*
X57470966Y15460799D01*
X57473600Y15464526D01*
X57475841Y15466653D01*
X57483895Y15469867D01*
X57715072Y15469867D01*
X57719547Y15468978D01*
G37*
%TD.AperFunction*%
%TD*%
%TA.AperFunction,Conductor*%
%TO.N,/D51*%
G36*
X96517530Y12705408D02*
G01*
X96524482Y12699764D01*
X96525407Y12697531D01*
X96763557Y11897303D01*
X96762632Y11888396D01*
X96756201Y11882920D01*
X95416136Y11414847D01*
X95407196Y11415354D01*
X95404005Y11417620D01*
X95237619Y11584006D01*
X95234192Y11592279D01*
X95234845Y11596134D01*
X95702919Y12936203D01*
X95708883Y12942883D01*
X95717300Y12943558D01*
X96517530Y12705408D01*
G37*
%TD.AperFunction*%
%TD*%
%TA.AperFunction,Conductor*%
%TO.N,/D51*%
G36*
X59725672Y23116440D02*
G01*
X59728089Y23112922D01*
X60150897Y22162322D01*
X60151128Y22153370D01*
X60148092Y22148923D01*
X59607885Y21656193D01*
X59599463Y21653149D01*
X59592115Y21656193D01*
X59051907Y22148923D01*
X59048104Y22157030D01*
X59049102Y22162322D01*
X59471911Y23112922D01*
X59478404Y23119088D01*
X59482601Y23119867D01*
X59717399Y23119867D01*
X59725672Y23116440D01*
G37*
%TD.AperFunction*%
%TD*%
%TA.AperFunction,Conductor*%
%TO.N,/D51*%
G36*
X59725672Y15466440D02*
G01*
X59728089Y15462922D01*
X60150897Y14512322D01*
X60151128Y14503370D01*
X60148092Y14498923D01*
X59607885Y14006193D01*
X59599463Y14003149D01*
X59592115Y14006193D01*
X59051907Y14498923D01*
X59048104Y14507030D01*
X59049102Y14512322D01*
X59471911Y15462922D01*
X59478404Y15469088D01*
X59482601Y15469867D01*
X59717399Y15469867D01*
X59725672Y15466440D01*
G37*
%TD.AperFunction*%
%TD*%
%TA.AperFunction,Conductor*%
%TO.N,/D51*%
G36*
X59607885Y21643808D02*
G01*
X60148092Y21151078D01*
X60151895Y21142971D01*
X60150897Y21137679D01*
X59728089Y20187078D01*
X59721596Y20180912D01*
X59717399Y20180133D01*
X59482601Y20180133D01*
X59474328Y20183560D01*
X59471911Y20187078D01*
X59049102Y21137679D01*
X59048871Y21146631D01*
X59051905Y21151076D01*
X59592115Y21643809D01*
X59600537Y21646852D01*
X59607885Y21643808D01*
G37*
%TD.AperFunction*%
%TD*%
%TA.AperFunction,Conductor*%
%TO.N,/D28*%
G36*
X93584882Y41379344D02*
G01*
X93584912Y41379289D01*
X93982077Y40645570D01*
X93983002Y40636663D01*
X93982077Y40634430D01*
X93584912Y39900712D01*
X93577960Y39895068D01*
X93569053Y39895993D01*
X93568998Y39896023D01*
X92440000Y40515000D01*
X92439999Y40515000D01*
X92423737Y40460211D01*
X92418098Y40453255D01*
X92409192Y40452324D01*
X92404248Y40455267D01*
X92249642Y40609873D01*
X92246215Y40618146D01*
X92249642Y40626419D01*
X92268793Y40645570D01*
X92349968Y40726745D01*
X92353760Y40729278D01*
X92406524Y40751134D01*
X92439991Y40764996D01*
X92439993Y40764998D01*
X92440000Y40765000D01*
X93568998Y41383979D01*
X93577900Y41384951D01*
X93584882Y41379344D01*
G37*
%TD.AperFunction*%
%TD*%
%TA.AperFunction,Conductor*%
%TO.N,/D28*%
G36*
X82131570Y15132279D02*
G01*
X82643502Y14878225D01*
X82649388Y14871479D01*
X82650000Y14867746D01*
X82650000Y14632255D01*
X82646573Y14623982D01*
X82643501Y14621775D01*
X82131573Y14367724D01*
X82122639Y14367116D01*
X82121439Y14367595D01*
X81552234Y14632255D01*
X81321815Y14739392D01*
X81315759Y14745986D01*
X81316140Y14754933D01*
X81321815Y14760609D01*
X82121439Y15132407D01*
X82130386Y15132787D01*
X82131570Y15132279D01*
G37*
%TD.AperFunction*%
%TD*%
%TA.AperFunction,Conductor*%
%TO.N,/D29*%
G36*
X82131570Y10632279D02*
G01*
X82643502Y10378225D01*
X82649388Y10371479D01*
X82650000Y10367746D01*
X82650000Y10132255D01*
X82646573Y10123982D01*
X82643501Y10121775D01*
X82131573Y9867724D01*
X82122639Y9867116D01*
X82121439Y9867595D01*
X81552234Y10132255D01*
X81321815Y10239392D01*
X81315759Y10245986D01*
X81316140Y10254933D01*
X81321815Y10260609D01*
X82121439Y10632407D01*
X82130386Y10632787D01*
X82131570Y10632279D01*
G37*
%TD.AperFunction*%
%TD*%
%TA.AperFunction,Conductor*%
%TO.N,/D29*%
G36*
X96517530Y40645408D02*
G01*
X96524482Y40639764D01*
X96525407Y40637531D01*
X96763557Y39837303D01*
X96762632Y39828396D01*
X96756201Y39822920D01*
X95416136Y39354847D01*
X95407196Y39355354D01*
X95404005Y39357620D01*
X95237619Y39524006D01*
X95234192Y39532279D01*
X95234845Y39536134D01*
X95702919Y40876203D01*
X95708883Y40882883D01*
X95717300Y40883558D01*
X96517530Y40645408D01*
G37*
%TD.AperFunction*%
%TD*%
%TA.AperFunction,Conductor*%
%TO.N,/D26*%
G36*
X93584873Y43919312D02*
G01*
X93585241Y43918681D01*
X93982077Y43185570D01*
X93983002Y43176663D01*
X93982077Y43174430D01*
X93585241Y42441320D01*
X93578289Y42435676D01*
X93569382Y42436601D01*
X93568751Y42436969D01*
X92580001Y43055001D01*
X92580000Y43055000D01*
X92467148Y42893798D01*
X92459596Y42888986D01*
X92450853Y42890923D01*
X92449290Y42892235D01*
X92290647Y43050878D01*
X92287220Y43059151D01*
X92290647Y43067424D01*
X92489968Y43266745D01*
X92493760Y43269278D01*
X92580000Y43305000D01*
X93568752Y43923033D01*
X93577582Y43924511D01*
X93584873Y43919312D01*
G37*
%TD.AperFunction*%
%TD*%
%TA.AperFunction,Conductor*%
%TO.N,/D26*%
G36*
X82131570Y24132279D02*
G01*
X82643502Y23878225D01*
X82649388Y23871479D01*
X82650000Y23867746D01*
X82650000Y23632255D01*
X82646573Y23623982D01*
X82643501Y23621775D01*
X82131573Y23367724D01*
X82122639Y23367116D01*
X82121439Y23367595D01*
X81552234Y23632255D01*
X81321815Y23739392D01*
X81315759Y23745986D01*
X81316140Y23754933D01*
X81321815Y23760609D01*
X82121439Y24132407D01*
X82130386Y24132787D01*
X82131570Y24132279D01*
G37*
%TD.AperFunction*%
%TD*%
%TA.AperFunction,Conductor*%
%TO.N,/D27*%
G36*
X82131570Y19632279D02*
G01*
X82643502Y19378225D01*
X82649388Y19371479D01*
X82650000Y19367746D01*
X82650000Y19132255D01*
X82646573Y19123982D01*
X82643501Y19121775D01*
X82131573Y18867724D01*
X82122639Y18867116D01*
X82121439Y18867595D01*
X81552234Y19132255D01*
X81321815Y19239392D01*
X81315759Y19245986D01*
X81316140Y19254933D01*
X81321815Y19260609D01*
X82121439Y19632407D01*
X82130386Y19632787D01*
X82131570Y19632279D01*
G37*
%TD.AperFunction*%
%TD*%
%TA.AperFunction,Conductor*%
%TO.N,/D27*%
G36*
X96517530Y43185408D02*
G01*
X96524482Y43179764D01*
X96525407Y43177531D01*
X96763557Y42377303D01*
X96762632Y42368396D01*
X96756201Y42362920D01*
X95416136Y41894847D01*
X95407196Y41895354D01*
X95404005Y41897620D01*
X95237619Y42064006D01*
X95234192Y42072279D01*
X95234845Y42076134D01*
X95702919Y43416203D01*
X95708883Y43422883D01*
X95717300Y43423558D01*
X96517530Y43185408D01*
G37*
%TD.AperFunction*%
%TD*%
%TA.AperFunction,Conductor*%
%TO.N,/D24*%
G36*
X93584686Y46459706D02*
G01*
X93982077Y45725570D01*
X93983002Y45716663D01*
X93982077Y45714430D01*
X93584686Y44980295D01*
X93577734Y44974651D01*
X93569198Y44975384D01*
X92343061Y45583562D01*
X92337172Y45590308D01*
X92337779Y45599242D01*
X92343782Y45604852D01*
X92372481Y45616739D01*
X92214495Y45774725D01*
X92211068Y45782998D01*
X92214495Y45791271D01*
X92229969Y45806746D01*
X92233760Y45809278D01*
X92266926Y45823016D01*
X92319992Y45844996D01*
X92319995Y45844997D01*
X92708833Y46037866D01*
X93569200Y46464618D01*
X93578132Y46465224D01*
X93584686Y46459706D01*
G37*
%TD.AperFunction*%
%TD*%
%TA.AperFunction,Conductor*%
%TO.N,/D24*%
G36*
X82131570Y33132279D02*
G01*
X82643502Y32878225D01*
X82649388Y32871479D01*
X82650000Y32867746D01*
X82650000Y32632255D01*
X82646573Y32623982D01*
X82643501Y32621775D01*
X82131573Y32367724D01*
X82122639Y32367116D01*
X82121439Y32367595D01*
X81552234Y32632255D01*
X81321815Y32739392D01*
X81315759Y32745986D01*
X81316140Y32754933D01*
X81321815Y32760609D01*
X82121439Y33132407D01*
X82130386Y33132787D01*
X82131570Y33132279D01*
G37*
%TD.AperFunction*%
%TD*%
%TA.AperFunction,Conductor*%
%TO.N,/D25*%
G36*
X82131570Y28632279D02*
G01*
X82643502Y28378225D01*
X82649388Y28371479D01*
X82650000Y28367746D01*
X82650000Y28132255D01*
X82646573Y28123982D01*
X82643501Y28121775D01*
X82131573Y27867724D01*
X82122639Y27867116D01*
X82121439Y27867595D01*
X81552234Y28132255D01*
X81321815Y28239392D01*
X81315759Y28245986D01*
X81316140Y28254933D01*
X81321815Y28260609D01*
X82121439Y28632407D01*
X82130386Y28632787D01*
X82131570Y28632279D01*
G37*
%TD.AperFunction*%
%TD*%
%TA.AperFunction,Conductor*%
%TO.N,/D25*%
G36*
X96517530Y45725408D02*
G01*
X96524482Y45719764D01*
X96525407Y45717531D01*
X96763557Y44917303D01*
X96762632Y44908396D01*
X96756201Y44902920D01*
X95416136Y44434847D01*
X95407196Y44435354D01*
X95404005Y44437620D01*
X95237619Y44604006D01*
X95234192Y44612279D01*
X95234845Y44616134D01*
X95702919Y45956203D01*
X95708883Y45962883D01*
X95717300Y45963558D01*
X96517530Y45725408D01*
G37*
%TD.AperFunction*%
%TD*%
%TA.AperFunction,Conductor*%
%TO.N,/D22*%
G36*
X93447561Y48908856D02*
G01*
X93978909Y48267464D01*
X93981548Y48258907D01*
X93978909Y48252536D01*
X93447561Y47611145D01*
X93439644Y47606960D01*
X93431962Y47608941D01*
X92982544Y47915200D01*
X92660000Y48135000D01*
X92659999Y48135000D01*
X92490713Y47916311D01*
X92482939Y47911867D01*
X92474299Y47914221D01*
X92473188Y47915200D01*
X92314079Y48074309D01*
X92310652Y48082582D01*
X92314079Y48090855D01*
X92358224Y48135000D01*
X92569969Y48346746D01*
X92573760Y48349278D01*
X92660000Y48385000D01*
X93431963Y48911061D01*
X93440729Y48912888D01*
X93447561Y48908856D01*
G37*
%TD.AperFunction*%
%TD*%
%TA.AperFunction,Conductor*%
%TO.N,/D22*%
G36*
X85051625Y42276641D02*
G01*
X85052139Y42276505D01*
X85055208Y42275205D01*
X85792360Y41829619D01*
X85795732Y41826540D01*
X85797724Y41823833D01*
X85800000Y41816899D01*
X85800000Y41583927D01*
X85799110Y41579450D01*
X85797824Y41576345D01*
X85793066Y41570809D01*
X85055754Y41125126D01*
X85051459Y41123572D01*
X85048997Y41123198D01*
X85041336Y41124664D01*
X85040650Y41125065D01*
X85038033Y41127148D01*
X84508137Y41690290D01*
X84505718Y41694160D01*
X84505014Y41696017D01*
X84505147Y41704647D01*
X84505726Y41706043D01*
X84508010Y41709577D01*
X85037599Y42272394D01*
X85041309Y42275040D01*
X85043583Y42276064D01*
X85051368Y42276708D01*
X85051625Y42276641D01*
G37*
%TD.AperFunction*%
%TD*%
%TA.AperFunction,Conductor*%
%TO.N,/D22*%
G36*
X82131570Y42132279D02*
G01*
X82643502Y41878225D01*
X82649388Y41871479D01*
X82650000Y41867746D01*
X82650000Y41632255D01*
X82646573Y41623982D01*
X82643501Y41621775D01*
X82131573Y41367724D01*
X82122639Y41367116D01*
X82121439Y41367595D01*
X81552234Y41632255D01*
X81321815Y41739392D01*
X81315759Y41745986D01*
X81316140Y41754933D01*
X81321815Y41760609D01*
X82121439Y42132407D01*
X82130386Y42132787D01*
X82131570Y42132279D01*
G37*
%TD.AperFunction*%
%TD*%
%TA.AperFunction,Conductor*%
%TO.N,/D22*%
G36*
X83960477Y42274998D02*
G01*
X84492115Y41758630D01*
X84495662Y41750407D01*
X84492356Y41742085D01*
X84491879Y41741621D01*
X83880007Y41179457D01*
X83871596Y41176383D01*
X83865571Y41178358D01*
X83205180Y41621524D01*
X83200220Y41628979D01*
X83200000Y41631239D01*
X83200000Y41868010D01*
X83203427Y41876283D01*
X83206152Y41878312D01*
X83946781Y42276909D01*
X83955689Y42277811D01*
X83960477Y42274998D01*
G37*
%TD.AperFunction*%
%TD*%
%TA.AperFunction,Conductor*%
%TO.N,/D23*%
G36*
X82131570Y37632279D02*
G01*
X82643502Y37378225D01*
X82649388Y37371479D01*
X82650000Y37367746D01*
X82650000Y37132255D01*
X82646573Y37123982D01*
X82643501Y37121775D01*
X82131573Y36867724D01*
X82122639Y36867116D01*
X82121439Y36867595D01*
X81552234Y37132255D01*
X81321815Y37239392D01*
X81315759Y37245986D01*
X81316140Y37254933D01*
X81321815Y37260609D01*
X82121439Y37632407D01*
X82130386Y37632787D01*
X82131570Y37632279D01*
G37*
%TD.AperFunction*%
%TD*%
%TA.AperFunction,Conductor*%
%TO.N,/D23*%
G36*
X96517530Y48265408D02*
G01*
X96524482Y48259764D01*
X96525407Y48257531D01*
X96763557Y47457303D01*
X96762632Y47448396D01*
X96756201Y47442920D01*
X95416136Y46974847D01*
X95407196Y46975354D01*
X95404005Y46977620D01*
X95237619Y47144006D01*
X95234192Y47152279D01*
X95234845Y47156134D01*
X95702919Y48496203D01*
X95708883Y48502883D01*
X95717300Y48503558D01*
X96517530Y48265408D01*
G37*
%TD.AperFunction*%
%TD*%
%TA.AperFunction,Conductor*%
%TO.N,+5V*%
G36*
X39263949Y32808972D02*
G01*
X40388952Y32225406D01*
X40394718Y32218554D01*
X40393951Y32209633D01*
X40393916Y32209566D01*
X40064847Y31585050D01*
X40059950Y31580153D01*
X39435434Y31251084D01*
X39426517Y31250259D01*
X39419629Y31255981D01*
X39419594Y31256048D01*
X39250597Y31581842D01*
X38836028Y32381049D01*
X38835262Y32389968D01*
X38838140Y32394705D01*
X39250294Y32806859D01*
X39258566Y32810285D01*
X39263949Y32808972D01*
G37*
%TD.AperFunction*%
%TD*%
%TA.AperFunction,Conductor*%
%TO.N,+5V*%
G36*
X71444331Y24368896D02*
G01*
X71648246Y24150704D01*
X71968533Y23807989D01*
X71971678Y23799604D01*
X71968533Y23792011D01*
X71444333Y23231106D01*
X71436181Y23227402D01*
X71431000Y23228418D01*
X70831915Y23496902D01*
X70825767Y23503413D01*
X70825000Y23507579D01*
X70825000Y24092422D01*
X70828427Y24100695D01*
X70831915Y24103099D01*
X71431002Y24371584D01*
X71439951Y24371839D01*
X71444331Y24368896D01*
G37*
%TD.AperFunction*%
%TD*%
%TA.AperFunction,Conductor*%
%TO.N,+5V*%
G36*
X96270719Y51608865D02*
G01*
X96276711Y51602211D01*
X96276860Y51601764D01*
X96524021Y50803460D01*
X96524021Y50796540D01*
X96276860Y49998237D01*
X96271139Y49991347D01*
X96262223Y49990520D01*
X96261776Y49990669D01*
X94831886Y50497240D01*
X94825232Y50503232D01*
X94824093Y50508268D01*
X94824093Y51091733D01*
X94827520Y51100006D01*
X94831886Y51102761D01*
X96261777Y51609332D01*
X96270719Y51608865D01*
G37*
%TD.AperFunction*%
%TD*%
%TA.AperFunction,Conductor*%
%TO.N,+5V*%
G36*
X94238203Y51609339D02*
G01*
X95668114Y51102761D01*
X95674768Y51096769D01*
X95675907Y51091733D01*
X95675907Y50508268D01*
X95672480Y50499995D01*
X95668114Y50497240D01*
X94238223Y49990669D01*
X94229280Y49991136D01*
X94223288Y49997790D01*
X94223139Y49998237D01*
X94065229Y50508268D01*
X93975978Y50796541D01*
X93975978Y50803460D01*
X94068644Y51102761D01*
X94223140Y51601766D01*
X94228860Y51608654D01*
X94237776Y51609481D01*
X94238203Y51609339D01*
G37*
%TD.AperFunction*%
%TD*%
%TA.AperFunction,Conductor*%
%TO.N,+5V*%
G36*
X4324450Y28681157D02*
G01*
X5239994Y28526689D01*
X5247581Y28521933D01*
X5249743Y28514856D01*
X5241347Y28182915D01*
X5328325Y27972936D01*
X5329216Y27968459D01*
X5329216Y27837710D01*
X5325789Y27829437D01*
X5317516Y27826010D01*
X4789182Y27826010D01*
X4802495Y27793870D01*
X4802495Y27784916D01*
X4796163Y27778584D01*
X4787209Y27778584D01*
X4785250Y27779622D01*
X4015091Y28286941D01*
X4010067Y28294354D01*
X4011756Y28303148D01*
X4012409Y28304041D01*
X4313407Y28676969D01*
X4321267Y28681253D01*
X4324450Y28681157D01*
G37*
%TD.AperFunction*%
%TD*%
%TA.AperFunction,Conductor*%
%TO.N,+5V*%
G36*
X5331397Y21796573D02*
G01*
X5332709Y21795010D01*
X6023589Y20808038D01*
X6025526Y20799295D01*
X6022281Y20793059D01*
X5037493Y19807286D01*
X5029222Y19803855D01*
X5020947Y19807278D01*
X5020939Y19807286D01*
X4036150Y20793059D01*
X4032727Y20801334D01*
X4034841Y20808037D01*
X4725723Y21795010D01*
X4733275Y21799822D01*
X4735308Y21800000D01*
X5323124Y21800000D01*
X5331397Y21796573D01*
G37*
%TD.AperFunction*%
%TD*%
%TA.AperFunction,Conductor*%
%TO.N,+5V*%
G36*
X55607199Y21646713D02*
G01*
X56170461Y21311221D01*
X56185292Y21302388D01*
X56188679Y21299335D01*
X56190303Y21297157D01*
X56192624Y21290113D01*
X56192622Y21289653D01*
X56192478Y21288571D01*
X56192502Y21288479D01*
X56192456Y21288404D01*
X56192234Y21286717D01*
X55902895Y20191096D01*
X55900891Y20186994D01*
X55899290Y20184892D01*
X55893048Y20180690D01*
X55892503Y20180542D01*
X55889437Y20180133D01*
X55311338Y20180133D01*
X55306860Y20181024D01*
X55304417Y20182036D01*
X55298748Y20187021D01*
X55298466Y20187511D01*
X55297303Y20190346D01*
X55007978Y21285910D01*
X55007695Y21290460D01*
X55008060Y21293155D01*
X55011339Y21299815D01*
X55011669Y21300148D01*
X55012514Y21300809D01*
X55012562Y21300890D01*
X55012648Y21300913D01*
X55013983Y21301957D01*
X55592020Y21646248D01*
X55596314Y21647771D01*
X55599535Y21648239D01*
X55607199Y21646713D01*
G37*
%TD.AperFunction*%
%TD*%
%TA.AperFunction,Conductor*%
%TO.N,+5V*%
G36*
X55893137Y15468977D02*
G01*
X55894052Y15468598D01*
X55895579Y15467966D01*
X55901252Y15462979D01*
X55901532Y15462491D01*
X55902696Y15459655D01*
X56192020Y14364093D01*
X56192303Y14359540D01*
X56191940Y14356853D01*
X56188656Y14350184D01*
X56188334Y14349859D01*
X56186010Y14348042D01*
X55607986Y14003757D01*
X55603681Y14002231D01*
X55600467Y14001764D01*
X55592798Y14003290D01*
X55014707Y14347614D01*
X55011319Y14350667D01*
X55009693Y14352847D01*
X55007373Y14359888D01*
X55007375Y14360354D01*
X55007761Y14363275D01*
X55297105Y15458907D01*
X55299107Y15463005D01*
X55300712Y15465112D01*
X55306971Y15469316D01*
X55307516Y15469463D01*
X55308389Y15469579D01*
X55308450Y15469614D01*
X55308518Y15469596D01*
X55310563Y15469867D01*
X55888662Y15469867D01*
X55893137Y15468977D01*
G37*
%TD.AperFunction*%
%TD*%
%TA.AperFunction,Conductor*%
%TO.N,+5V*%
G36*
X55607199Y43196713D02*
G01*
X56170461Y42861221D01*
X56185292Y42852388D01*
X56188679Y42849335D01*
X56190303Y42847157D01*
X56192624Y42840113D01*
X56192622Y42839653D01*
X56192478Y42838571D01*
X56192502Y42838479D01*
X56192456Y42838404D01*
X56192234Y42836717D01*
X55902895Y41741096D01*
X55900891Y41736994D01*
X55899290Y41734892D01*
X55893048Y41730690D01*
X55892503Y41730542D01*
X55889437Y41730133D01*
X55311338Y41730133D01*
X55306860Y41731024D01*
X55304417Y41732036D01*
X55298748Y41737021D01*
X55298466Y41737511D01*
X55297303Y41740346D01*
X55007978Y42835910D01*
X55007695Y42840460D01*
X55008060Y42843155D01*
X55011339Y42849815D01*
X55011669Y42850148D01*
X55012514Y42850809D01*
X55012562Y42850890D01*
X55012648Y42850913D01*
X55013983Y42851957D01*
X55592020Y43196248D01*
X55596314Y43197771D01*
X55599535Y43198239D01*
X55607199Y43196713D01*
G37*
%TD.AperFunction*%
%TD*%
%TA.AperFunction,Conductor*%
%TO.N,+5V*%
G36*
X55893137Y37368977D02*
G01*
X55894052Y37368598D01*
X55895579Y37367966D01*
X55901252Y37362979D01*
X55901532Y37362491D01*
X55902696Y37359655D01*
X56192020Y36264093D01*
X56192303Y36259540D01*
X56191940Y36256853D01*
X56188656Y36250184D01*
X56188334Y36249859D01*
X56186010Y36248042D01*
X55607986Y35903757D01*
X55603681Y35902231D01*
X55600467Y35901764D01*
X55592798Y35903290D01*
X55014707Y36247614D01*
X55011319Y36250667D01*
X55009693Y36252847D01*
X55007373Y36259888D01*
X55007375Y36260354D01*
X55007761Y36263275D01*
X55297105Y37358907D01*
X55299107Y37363005D01*
X55300712Y37365112D01*
X55306971Y37369316D01*
X55307516Y37369463D01*
X55308389Y37369579D01*
X55308450Y37369614D01*
X55308518Y37369596D01*
X55310563Y37369867D01*
X55888662Y37369867D01*
X55893137Y37368977D01*
G37*
%TD.AperFunction*%
%TD*%
%TA.AperFunction,Conductor*%
%TO.N,+5V*%
G36*
X55607885Y28893808D02*
G01*
X56148782Y28400448D01*
X56152585Y28392341D01*
X56152041Y28388241D01*
X55929105Y27691028D01*
X55928620Y27691183D01*
X55928320Y27689265D01*
X55928521Y27689200D01*
X55928108Y27687912D01*
X55928105Y27687886D01*
X55928096Y27687872D01*
X55909728Y27630427D01*
X55903944Y27623590D01*
X55895021Y27622846D01*
X55888184Y27628630D01*
X55887775Y27629513D01*
X55887396Y27630427D01*
X55882493Y27642265D01*
X55882492Y27642265D01*
X55516255Y27276027D01*
X55507982Y27272600D01*
X55499710Y27276027D01*
X55389512Y27386224D01*
X55386977Y27390019D01*
X55300187Y27599548D01*
X55299852Y27600462D01*
X55286485Y27642265D01*
X55047958Y28388241D01*
X55048702Y28397164D01*
X55051217Y28400448D01*
X55592115Y28893808D01*
X55600537Y28896852D01*
X55607885Y28893808D01*
G37*
%TD.AperFunction*%
%TD*%
%TA.AperFunction,Conductor*%
%TO.N,+5V*%
G36*
X55893137Y44668977D02*
G01*
X55894052Y44668598D01*
X55895579Y44667966D01*
X55901252Y44662979D01*
X55901532Y44662491D01*
X55902696Y44659655D01*
X56192020Y43564093D01*
X56192303Y43559540D01*
X56191940Y43556853D01*
X56188656Y43550184D01*
X56188334Y43549859D01*
X56186010Y43548042D01*
X55607986Y43203757D01*
X55603681Y43202231D01*
X55600467Y43201764D01*
X55592798Y43203290D01*
X55014707Y43547614D01*
X55011319Y43550667D01*
X55009693Y43552847D01*
X55007373Y43559888D01*
X55007375Y43560354D01*
X55007761Y43563275D01*
X55297105Y44658907D01*
X55299107Y44663005D01*
X55300712Y44665112D01*
X55306971Y44669316D01*
X55307516Y44669463D01*
X55308389Y44669579D01*
X55308450Y44669614D01*
X55308518Y44669596D01*
X55310563Y44669867D01*
X55888662Y44669867D01*
X55893137Y44668977D01*
G37*
%TD.AperFunction*%
%TD*%
%TA.AperFunction,Conductor*%
%TO.N,+5V*%
G36*
X39725793Y16210382D02*
G01*
X40061449Y15590572D01*
X40062376Y15581665D01*
X40061449Y15579428D01*
X39725793Y14959619D01*
X39718840Y14953976D01*
X39710656Y14954543D01*
X38985000Y15285001D01*
X38985000Y15285000D01*
X39000130Y15230834D01*
X38999055Y15221944D01*
X38992009Y15216417D01*
X38983119Y15217492D01*
X38980588Y15219413D01*
X38596141Y15603860D01*
X38592714Y15612133D01*
X38596139Y15620403D01*
X38771225Y15795490D01*
X38775016Y15798022D01*
X38985000Y15885000D01*
X39710657Y16215459D01*
X39719605Y16215768D01*
X39725793Y16210382D01*
G37*
%TD.AperFunction*%
%TD*%
%TA.AperFunction,Conductor*%
%TO.N,+5V*%
G36*
X39609842Y16139236D02*
G01*
X39696172Y16108759D01*
X39847253Y16055423D01*
X39853913Y16049437D01*
X39854750Y16047056D01*
X40127353Y14882220D01*
X40125902Y14873384D01*
X40118627Y14868162D01*
X40116460Y14867865D01*
X39051619Y14822439D01*
X39043207Y14825510D01*
X39042847Y14825855D01*
X38630879Y15237823D01*
X38627452Y15246096D01*
X38630879Y15254369D01*
X38631232Y15254707D01*
X39598062Y16136847D01*
X39606482Y16139891D01*
X39609842Y16139236D01*
G37*
%TD.AperFunction*%
%TD*%
%TA.AperFunction,Conductor*%
%TO.N,+5V*%
G36*
X39725793Y32210382D02*
G01*
X40061449Y31590572D01*
X40062376Y31581665D01*
X40061449Y31579428D01*
X39725793Y30959619D01*
X39718840Y30953976D01*
X39710656Y30954543D01*
X38985000Y31285001D01*
X38985000Y31285000D01*
X39000130Y31230834D01*
X38999055Y31221944D01*
X38992009Y31216417D01*
X38983119Y31217492D01*
X38980588Y31219413D01*
X38596141Y31603860D01*
X38592714Y31612133D01*
X38596139Y31620403D01*
X38771225Y31795490D01*
X38775016Y31798022D01*
X38985000Y31885000D01*
X39710657Y32215459D01*
X39719605Y32215768D01*
X39725793Y32210382D01*
G37*
%TD.AperFunction*%
%TD*%
%TA.AperFunction,Conductor*%
%TO.N,+5V*%
G36*
X4002766Y40553210D02*
G01*
X4010462Y40549732D01*
X4262061Y40293854D01*
X4541302Y40009863D01*
X4543804Y40006050D01*
X4544494Y40004343D01*
X4544458Y39995476D01*
X4543805Y39993900D01*
X4541339Y39990176D01*
X4011168Y39450988D01*
X4007396Y39448421D01*
X4004517Y39447199D01*
X3996071Y39446929D01*
X3285021Y39696484D01*
X3281091Y39698808D01*
X3278929Y39700744D01*
X3275323Y39706874D01*
X3275289Y39707024D01*
X3275099Y39708717D01*
X3275052Y39708816D01*
X3275079Y39708896D01*
X3275000Y39709610D01*
X3275000Y40289380D01*
X3275889Y40293854D01*
X3277001Y40296540D01*
X3281571Y40301959D01*
X3281711Y40302047D01*
X3284055Y40303180D01*
X3995126Y40552741D01*
X3999639Y40553382D01*
X4002766Y40553210D01*
G37*
%TD.AperFunction*%
%TD*%
%TA.AperFunction,Conductor*%
%TO.N,+5V*%
G36*
X71444331Y19268896D02*
G01*
X71648246Y19050704D01*
X71968533Y18707989D01*
X71971678Y18699604D01*
X71968533Y18692011D01*
X71444333Y18131106D01*
X71436181Y18127402D01*
X71431000Y18128418D01*
X70831915Y18396902D01*
X70825767Y18403413D01*
X70825000Y18407579D01*
X70825000Y18992422D01*
X70828427Y19000695D01*
X70831915Y19003099D01*
X71431002Y19271584D01*
X71439951Y19271839D01*
X71444331Y19268896D01*
G37*
%TD.AperFunction*%
%TD*%
%TA.AperFunction,Conductor*%
%TO.N,+5V*%
G36*
X93238356Y51195779D02*
G01*
X93242623Y51194594D01*
X93933745Y50851015D01*
X93936624Y50848993D01*
X93939078Y50846646D01*
X93941226Y50843860D01*
X94373297Y50063710D01*
X94374687Y50059362D01*
X94374888Y50057593D01*
X94372419Y50048988D01*
X94371614Y50047976D01*
X94367084Y50044513D01*
X92957370Y49437739D01*
X92952907Y49436787D01*
X92949891Y49436745D01*
X92941571Y49440056D01*
X92941455Y49440171D01*
X92531421Y49850205D01*
X92528885Y49854000D01*
X92527820Y49856571D01*
X92527272Y49863861D01*
X92527356Y49864203D01*
X92528356Y49866829D01*
X93045064Y50848601D01*
X93223960Y51188517D01*
X93226826Y51192055D01*
X93228265Y51193251D01*
X93236678Y51195914D01*
X93238356Y51195779D01*
G37*
%TD.AperFunction*%
%TD*%
%TA.AperFunction,Conductor*%
%TO.N,+5V*%
G36*
X4002526Y29403051D02*
G01*
X4010634Y29399557D01*
X4267825Y29137991D01*
X4541302Y28859863D01*
X4543804Y28856050D01*
X4544494Y28854343D01*
X4544458Y28845476D01*
X4543805Y28843900D01*
X4541339Y28840176D01*
X4011373Y28301197D01*
X4007601Y28298630D01*
X4004783Y28297434D01*
X3995950Y28297309D01*
X3645155Y28434538D01*
X3350192Y28549926D01*
X3350099Y28549963D01*
X3349907Y28550040D01*
X3349906Y28550041D01*
X3349888Y28550048D01*
X3349891Y28550056D01*
X3349873Y28550073D01*
X3349785Y28550090D01*
X3141084Y28636537D01*
X3139063Y28637617D01*
X3137181Y28638874D01*
X3135406Y28640330D01*
X3094752Y28680984D01*
X3092215Y28684782D01*
X3091534Y28686427D01*
X3091532Y28695374D01*
X3092214Y28697022D01*
X3094748Y28700816D01*
X3243934Y28850000D01*
X3487132Y29093199D01*
X3487131Y29093200D01*
X3487129Y29093201D01*
X3378994Y29137991D01*
X3375198Y29140527D01*
X3374308Y29141417D01*
X3370881Y29149690D01*
X3374303Y29157958D01*
X3375115Y29158771D01*
X3379126Y29161396D01*
X3994975Y29402311D01*
X3999459Y29403112D01*
X4002526Y29403051D01*
G37*
%TD.AperFunction*%
%TD*%
%TA.AperFunction,Conductor*%
%TO.N,+5V*%
G36*
X39263949Y16808972D02*
G01*
X40388952Y16225406D01*
X40394718Y16218554D01*
X40393951Y16209633D01*
X40393916Y16209566D01*
X40064847Y15585050D01*
X40059950Y15580153D01*
X39435434Y15251084D01*
X39426517Y15250259D01*
X39419629Y15255981D01*
X39419594Y15256048D01*
X39250597Y15581842D01*
X38836028Y16381049D01*
X38835262Y16389968D01*
X38838140Y16394705D01*
X39250294Y16806859D01*
X39258566Y16810285D01*
X39263949Y16808972D01*
G37*
%TD.AperFunction*%
%TD*%
%TA.AperFunction,Conductor*%
%TO.N,+5V*%
G36*
X5037485Y19792723D02*
G01*
X5037493Y19792715D01*
X6022281Y18806942D01*
X6025704Y18798667D01*
X6023589Y18791963D01*
X5332709Y17804990D01*
X5325157Y17800178D01*
X5323124Y17800000D01*
X4735308Y17800000D01*
X4727035Y17803427D01*
X4725723Y17804990D01*
X4034842Y18791963D01*
X4032905Y18800706D01*
X4036148Y18806940D01*
X5020939Y19792716D01*
X5029210Y19796146D01*
X5037485Y19792723D01*
G37*
%TD.AperFunction*%
%TD*%
%TA.AperFunction,Conductor*%
%TO.N,+5V*%
G36*
X71443040Y39869764D02*
G01*
X71443202Y39869655D01*
X71445238Y39867926D01*
X71648246Y39650704D01*
X71966944Y39309690D01*
X71969351Y39305809D01*
X71970058Y39303923D01*
X71969910Y39295335D01*
X71969344Y39293970D01*
X71967084Y39290462D01*
X71445921Y38732807D01*
X71442215Y38730145D01*
X71439595Y38728954D01*
X71432494Y38728125D01*
X71432306Y38728162D01*
X71429780Y38728965D01*
X70834039Y38995950D01*
X70830316Y38998596D01*
X70828192Y39000846D01*
X70825000Y39008877D01*
X70825000Y39590095D01*
X70825890Y39594570D01*
X70826173Y39595255D01*
X70827074Y39597430D01*
X70827078Y39597433D01*
X70833096Y39603629D01*
X71428882Y39870634D01*
X71433325Y39871651D01*
X71436205Y39871733D01*
X71443040Y39869764D01*
G37*
%TD.AperFunction*%
%TD*%
%TA.AperFunction,Conductor*%
%TO.N,+5V*%
G36*
X39434914Y15919483D02*
G01*
X39687306Y15793948D01*
X40022395Y15627281D01*
X40027422Y15622469D01*
X40393358Y14960949D01*
X40394364Y14952051D01*
X40388783Y14945048D01*
X40388101Y14944699D01*
X39226289Y14398087D01*
X39217344Y14397666D01*
X39213035Y14400401D01*
X38800899Y14812537D01*
X38797472Y14820810D01*
X38799007Y14826604D01*
X39419541Y15914805D01*
X39426615Y15920292D01*
X39434914Y15919483D01*
G37*
%TD.AperFunction*%
%TD*%
%TA.AperFunction,Conductor*%
%TO.N,+5V*%
G36*
X55606974Y13990765D02*
G01*
X55609395Y13988344D01*
X56071064Y13366409D01*
X56073243Y13357723D01*
X56071355Y13352872D01*
X55903481Y13105137D01*
X55896003Y13100210D01*
X55893795Y13100000D01*
X55306205Y13100000D01*
X55297932Y13103427D01*
X55296519Y13105137D01*
X55128644Y13352872D01*
X55126840Y13361643D01*
X55128933Y13366405D01*
X55590605Y13988345D01*
X55598288Y13992944D01*
X55606974Y13990765D01*
G37*
%TD.AperFunction*%
%TD*%
%TA.AperFunction,Conductor*%
%TO.N,+5V*%
G36*
X55893137Y23118977D02*
G01*
X55894052Y23118598D01*
X55895579Y23117966D01*
X55901252Y23112979D01*
X55901532Y23112491D01*
X55902696Y23109655D01*
X56192020Y22014093D01*
X56192303Y22009540D01*
X56191940Y22006853D01*
X56188656Y22000184D01*
X56188334Y21999859D01*
X56186010Y21998042D01*
X55607986Y21653757D01*
X55603681Y21652231D01*
X55600467Y21651764D01*
X55592798Y21653290D01*
X55014707Y21997614D01*
X55011319Y22000667D01*
X55009693Y22002847D01*
X55007373Y22009888D01*
X55007375Y22010354D01*
X55007761Y22013275D01*
X55297105Y23108907D01*
X55299107Y23113005D01*
X55300712Y23115112D01*
X55306971Y23119316D01*
X55307516Y23119463D01*
X55308389Y23119579D01*
X55308450Y23119614D01*
X55308518Y23119596D01*
X55310563Y23119867D01*
X55888662Y23119867D01*
X55893137Y23118977D01*
G37*
%TD.AperFunction*%
%TD*%
%TA.AperFunction,Conductor*%
%TO.N,+5V*%
G36*
X55607199Y35896713D02*
G01*
X56170461Y35561221D01*
X56185292Y35552388D01*
X56188679Y35549335D01*
X56190303Y35547157D01*
X56192624Y35540113D01*
X56192622Y35539653D01*
X56192478Y35538571D01*
X56192502Y35538479D01*
X56192456Y35538404D01*
X56192234Y35536717D01*
X55902895Y34441096D01*
X55900891Y34436994D01*
X55899290Y34434892D01*
X55893048Y34430690D01*
X55892503Y34430542D01*
X55889437Y34430133D01*
X55311338Y34430133D01*
X55306860Y34431024D01*
X55304417Y34432036D01*
X55298748Y34437021D01*
X55298466Y34437511D01*
X55297303Y34440346D01*
X55007978Y35535910D01*
X55007695Y35540460D01*
X55008060Y35543155D01*
X55011339Y35549815D01*
X55011669Y35550148D01*
X55012514Y35550809D01*
X55012562Y35550890D01*
X55012648Y35550913D01*
X55013983Y35551957D01*
X55592020Y35896248D01*
X55596314Y35897771D01*
X55599535Y35898239D01*
X55607199Y35896713D01*
G37*
%TD.AperFunction*%
%TD*%
%TA.AperFunction,Conductor*%
%TO.N,+5V*%
G36*
X55893137Y30368977D02*
G01*
X55894052Y30368598D01*
X55895579Y30367966D01*
X55901252Y30362979D01*
X55901532Y30362491D01*
X55902696Y30359655D01*
X56192020Y29264093D01*
X56192303Y29259540D01*
X56191940Y29256853D01*
X56188656Y29250184D01*
X56188334Y29249859D01*
X56186010Y29248042D01*
X55607986Y28903757D01*
X55603681Y28902231D01*
X55600467Y28901764D01*
X55592798Y28903290D01*
X55014707Y29247614D01*
X55011319Y29250667D01*
X55009693Y29252847D01*
X55007373Y29259888D01*
X55007375Y29260354D01*
X55007761Y29263275D01*
X55297105Y30358907D01*
X55299107Y30363005D01*
X55300712Y30365112D01*
X55306971Y30369316D01*
X55307516Y30369463D01*
X55308389Y30369579D01*
X55308450Y30369614D01*
X55308518Y30369596D01*
X55310563Y30369867D01*
X55888662Y30369867D01*
X55893137Y30368977D01*
G37*
%TD.AperFunction*%
%TD*%
%TA.AperFunction,Conductor*%
%TO.N,+5V*%
G36*
X71444331Y29468896D02*
G01*
X71648246Y29250704D01*
X71968533Y28907989D01*
X71971678Y28899604D01*
X71968533Y28892011D01*
X71444333Y28331106D01*
X71436181Y28327402D01*
X71431000Y28328418D01*
X70831915Y28596902D01*
X70825767Y28603413D01*
X70825000Y28607579D01*
X70825000Y29192422D01*
X70828427Y29200695D01*
X70831915Y29203099D01*
X71431002Y29471584D01*
X71439951Y29471839D01*
X71444331Y29468896D01*
G37*
%TD.AperFunction*%
%TD*%
%TA.AperFunction,Conductor*%
%TO.N,+5V*%
G36*
X71444331Y14168896D02*
G01*
X71648246Y13950704D01*
X71968533Y13607989D01*
X71971678Y13599604D01*
X71968533Y13592011D01*
X71444333Y13031106D01*
X71436181Y13027402D01*
X71431000Y13028418D01*
X70831915Y13296902D01*
X70825767Y13303413D01*
X70825000Y13307579D01*
X70825000Y13892422D01*
X70828427Y13900695D01*
X70831915Y13903099D01*
X71431002Y14171584D01*
X71439951Y14171839D01*
X71444331Y14168896D01*
G37*
%TD.AperFunction*%
%TD*%
%TA.AperFunction,Conductor*%
%TO.N,+5V*%
G36*
X39435367Y31918952D02*
G01*
X39435434Y31918917D01*
X40059950Y31589848D01*
X40064847Y31584951D01*
X40393916Y30960435D01*
X40394741Y30951518D01*
X40389019Y30944630D01*
X40388952Y30944595D01*
X39263953Y30361030D01*
X39255032Y30360263D01*
X39250293Y30363143D01*
X38838142Y30775294D01*
X38834715Y30783567D01*
X38836027Y30788949D01*
X39419595Y31913955D01*
X39426446Y31919719D01*
X39435367Y31918952D01*
G37*
%TD.AperFunction*%
%TD*%
%TA.AperFunction,Conductor*%
%TO.N,+5V*%
G36*
X40064777Y16294316D02*
G01*
X40064909Y16294032D01*
X40191370Y16011519D01*
X40191622Y16002568D01*
X40185471Y15996060D01*
X40184650Y15995729D01*
X39355819Y15697650D01*
X39346875Y15698075D01*
X39343192Y15700802D01*
X39189494Y15870348D01*
X39186477Y15878777D01*
X39190305Y15886872D01*
X39193099Y15888751D01*
X39213918Y15898748D01*
X40049168Y16299800D01*
X40058107Y16300291D01*
X40064777Y16294316D01*
G37*
%TD.AperFunction*%
%TD*%
%TA.AperFunction,Conductor*%
%TO.N,+5V*%
G36*
X38400006Y4232480D02*
G01*
X38402761Y4228114D01*
X38909331Y2798224D01*
X38908864Y2789281D01*
X38902210Y2783289D01*
X38901763Y2783140D01*
X38103460Y2535979D01*
X38096540Y2535979D01*
X37298236Y2783140D01*
X37291346Y2788861D01*
X37290519Y2797777D01*
X37290655Y2798188D01*
X37797239Y4228115D01*
X37803231Y4234768D01*
X37808267Y4235907D01*
X38391733Y4235907D01*
X38400006Y4232480D01*
G37*
%TD.AperFunction*%
%TD*%
%TA.AperFunction,Conductor*%
%TO.N,+5V*%
G36*
X71211876Y9317238D02*
G01*
X71705057Y9201898D01*
X71712333Y9196677D01*
X71714031Y9191712D01*
X71806719Y8298247D01*
X71804164Y8289665D01*
X71803354Y8288767D01*
X71449022Y7934436D01*
X71440749Y7931009D01*
X71432476Y7934436D01*
X71431065Y7936143D01*
X71185540Y8298247D01*
X70786706Y8886454D01*
X70784901Y8895223D01*
X70788116Y8901289D01*
X71200945Y9314118D01*
X71209217Y9317544D01*
X71211876Y9317238D01*
G37*
%TD.AperFunction*%
%TD*%
%TA.AperFunction,Conductor*%
%TO.N,+5V*%
G36*
X71410805Y44794128D02*
G01*
X71674924Y44528171D01*
X71968880Y44232170D01*
X71972278Y44223885D01*
X71969943Y44216913D01*
X71550685Y43657066D01*
X71542983Y43652498D01*
X71537147Y43653148D01*
X71526883Y43657066D01*
X71291546Y43746903D01*
X70832527Y43922127D01*
X70826020Y43928279D01*
X70825000Y43933058D01*
X70825000Y44517599D01*
X70828427Y44525872D01*
X70831685Y44528171D01*
X71397494Y44796455D01*
X71406436Y44796902D01*
X71410805Y44794128D01*
G37*
%TD.AperFunction*%
%TD*%
%TA.AperFunction,Conductor*%
%TO.N,+5V*%
G36*
X71444331Y34668896D02*
G01*
X71648246Y34450704D01*
X71968533Y34107989D01*
X71971678Y34099604D01*
X71968533Y34092011D01*
X71444333Y33531106D01*
X71436181Y33527402D01*
X71431000Y33528418D01*
X70831915Y33796902D01*
X70825767Y33803413D01*
X70825000Y33807579D01*
X70825000Y34392422D01*
X70828427Y34400695D01*
X70831915Y34403099D01*
X71431002Y34671584D01*
X71439951Y34671839D01*
X71444331Y34668896D01*
G37*
%TD.AperFunction*%
%TD*%
%TA.AperFunction,Conductor*%
%TO.N,+5V*%
G36*
X39609842Y32139236D02*
G01*
X39696172Y32108759D01*
X39847253Y32055423D01*
X39853913Y32049437D01*
X39854750Y32047056D01*
X40127353Y30882220D01*
X40125902Y30873384D01*
X40118627Y30868162D01*
X40116460Y30867865D01*
X39051619Y30822439D01*
X39043207Y30825510D01*
X39042847Y30825855D01*
X38630879Y31237823D01*
X38627452Y31246096D01*
X38630879Y31254369D01*
X38631232Y31254707D01*
X39598062Y32136847D01*
X39606482Y32139891D01*
X39609842Y32139236D01*
G37*
%TD.AperFunction*%
%TD*%
%TA.AperFunction,Conductor*%
%TO.N,+5V*%
G36*
X40064777Y32294316D02*
G01*
X40064909Y32294032D01*
X40191370Y32011519D01*
X40191622Y32002568D01*
X40185471Y31996060D01*
X40184650Y31995729D01*
X39355819Y31697650D01*
X39346875Y31698075D01*
X39343192Y31700802D01*
X39189494Y31870348D01*
X39186477Y31878777D01*
X39190305Y31886872D01*
X39193099Y31888751D01*
X39213918Y31898748D01*
X40049168Y32299800D01*
X40058107Y32300291D01*
X40064777Y32294316D01*
G37*
%TD.AperFunction*%
%TD*%
%TA.AperFunction,Conductor*%
%TO.N,/SCL{slash}21*%
G36*
X86275708Y52501068D02*
G01*
X86446742Y52330034D01*
X86449278Y52326238D01*
X86484994Y52240012D01*
X86485005Y52239991D01*
X87103328Y51211178D01*
X87104653Y51202322D01*
X87099327Y51195123D01*
X87098870Y51194862D01*
X86365570Y50797923D01*
X86356663Y50796998D01*
X86354430Y50797923D01*
X85621129Y51194862D01*
X85615485Y51201814D01*
X85616410Y51210721D01*
X85616649Y51211140D01*
X86235000Y52240000D01*
X86102891Y52324721D01*
X86097778Y52332071D01*
X86099359Y52340885D01*
X86100930Y52342837D01*
X86259162Y52501068D01*
X86267435Y52504495D01*
X86275708Y52501068D01*
G37*
%TD.AperFunction*%
%TD*%
%TA.AperFunction,Conductor*%
%TO.N,/SCL{slash}21*%
G36*
X60108195Y36492931D02*
G01*
X60671085Y36047862D01*
X60674050Y36050827D01*
X60682321Y36054254D01*
X60690594Y36050828D01*
X60850826Y35890596D01*
X60854253Y35882323D01*
X60850826Y35874050D01*
X60790033Y35813258D01*
X60786237Y35810722D01*
X60700003Y35775003D01*
X60700001Y35775002D01*
X60108196Y35307071D01*
X60099581Y35304628D01*
X60091953Y35308757D01*
X59950378Y35478560D01*
X59605245Y35892509D01*
X59602580Y35901056D01*
X59605245Y35907491D01*
X60091954Y36491245D01*
X60099883Y36495404D01*
X60108195Y36492931D01*
G37*
%TD.AperFunction*%
%TD*%
%TA.AperFunction,Conductor*%
%TO.N,/SCL{slash}21*%
G36*
X59607885Y35893808D02*
G01*
X60148092Y35401078D01*
X60151895Y35392971D01*
X60150897Y35387679D01*
X59728089Y34437078D01*
X59721596Y34430912D01*
X59717399Y34430133D01*
X59482601Y34430133D01*
X59474328Y34433560D01*
X59471911Y34437078D01*
X59049102Y35387679D01*
X59048871Y35396631D01*
X59051905Y35401076D01*
X59592115Y35893809D01*
X59600537Y35896852D01*
X59607885Y35893808D01*
G37*
%TD.AperFunction*%
%TD*%
%TA.AperFunction,Conductor*%
%TO.N,/SCL{slash}21*%
G36*
X59725672Y30366440D02*
G01*
X59728089Y30362922D01*
X60150897Y29412322D01*
X60151128Y29403370D01*
X60148092Y29398923D01*
X59607885Y28906193D01*
X59599463Y28903149D01*
X59592115Y28906193D01*
X59051907Y29398923D01*
X59048104Y29407030D01*
X59049102Y29412322D01*
X59471911Y30362922D01*
X59478404Y30369088D01*
X59482601Y30369867D01*
X59717399Y30369867D01*
X59725672Y30366440D01*
G37*
%TD.AperFunction*%
%TD*%
%TA.AperFunction,Conductor*%
%TO.N,/SCL{slash}21*%
G36*
X86626990Y50622295D02*
G01*
X86630091Y50619542D01*
X86951564Y50211002D01*
X86953987Y50202381D01*
X86949604Y50194572D01*
X86946926Y50192991D01*
X85556618Y49605072D01*
X85547663Y49605006D01*
X85541285Y49611291D01*
X85540424Y49617052D01*
X85619041Y50373760D01*
X85623304Y50381634D01*
X85627922Y50383920D01*
X86618143Y50623678D01*
X86626990Y50622295D01*
G37*
%TD.AperFunction*%
%TD*%
%TA.AperFunction,Conductor*%
%TO.N,/SCL{slash}21*%
G36*
X20156864Y52336491D02*
G01*
X20165016Y52333065D01*
X20328317Y52169764D01*
X20330852Y52165971D01*
X20332024Y52163143D01*
X20332070Y52154300D01*
X19651272Y50461035D01*
X19648778Y50457216D01*
X19647533Y50455944D01*
X19639297Y50452429D01*
X19639294Y50452429D01*
X19637567Y50452411D01*
X19632979Y50453296D01*
X19619469Y50458876D01*
X18801932Y50796552D01*
X18798134Y50799085D01*
X18795102Y50802111D01*
X18792553Y50805925D01*
X18449314Y51636936D01*
X18448428Y51641416D01*
X18448430Y51643196D01*
X18451863Y51651462D01*
X18453085Y51652682D01*
X18456980Y51655253D01*
X20149323Y52335679D01*
X20153804Y52336522D01*
X20156864Y52336491D01*
G37*
%TD.AperFunction*%
%TD*%
%TA.AperFunction,Conductor*%
%TO.N,/SDA{slash}20*%
G36*
X83826958Y50801327D02*
G01*
X84556534Y50406404D01*
X84560046Y50403490D01*
X84561171Y50402104D01*
X84562737Y50396837D01*
X84563722Y50393526D01*
X84563722Y50393522D01*
X84563576Y50392120D01*
X84561803Y50387040D01*
X83945003Y49420008D01*
X83944998Y49420000D01*
X83944997Y49419999D01*
X83909720Y49334831D01*
X83908639Y49332807D01*
X83907380Y49330923D01*
X83905925Y49329151D01*
X83694926Y49118152D01*
X83691134Y49115617D01*
X83689489Y49114935D01*
X83680534Y49114933D01*
X83678882Y49115617D01*
X83675089Y49118152D01*
X83519587Y49273654D01*
X83517053Y49277444D01*
X83516369Y49279094D01*
X83516367Y49288043D01*
X83516783Y49289048D01*
X83520734Y49294046D01*
X83695000Y49420000D01*
X83078375Y50386757D01*
X83076720Y50391008D01*
X83076409Y50392765D01*
X83078342Y50401505D01*
X83079155Y50402666D01*
X83083166Y50406243D01*
X83812385Y50800973D01*
X83816742Y50802319D01*
X83820183Y50802676D01*
X83826958Y50801327D01*
G37*
%TD.AperFunction*%
%TD*%
%TA.AperFunction,Conductor*%
%TO.N,/SDA{slash}20*%
G36*
X57604725Y35895118D02*
G01*
X57605992Y35894592D01*
X57609398Y35892428D01*
X58146373Y35402646D01*
X58149080Y35398971D01*
X58150289Y35396394D01*
X58151190Y35389234D01*
X58151145Y35388998D01*
X58150695Y35387564D01*
X58150701Y35387449D01*
X58150638Y35387381D01*
X58150342Y35386434D01*
X57729035Y34439206D01*
X57726403Y34435479D01*
X57724163Y34433351D01*
X57716105Y34430133D01*
X57484928Y34430133D01*
X57480450Y34431024D01*
X57477597Y34432206D01*
X57471385Y34438260D01*
X57050046Y35385556D01*
X57049042Y35390004D01*
X57048968Y35392857D01*
X57050982Y35399723D01*
X57051117Y35399922D01*
X57052907Y35401991D01*
X57590396Y35892242D01*
X57594297Y35894598D01*
X57596271Y35895311D01*
X57604725Y35895118D01*
G37*
%TD.AperFunction*%
%TD*%
%TA.AperFunction,Conductor*%
%TO.N,/SDA{slash}20*%
G36*
X57719547Y30368978D02*
G01*
X57722401Y30367795D01*
X57728614Y30361741D01*
X58149951Y29414449D01*
X58150957Y29409994D01*
X58151030Y29407147D01*
X58148994Y29400245D01*
X58148858Y29400046D01*
X58147856Y29398894D01*
X58147816Y29398789D01*
X58147733Y29398753D01*
X58147083Y29398004D01*
X57609603Y28907761D01*
X57605695Y28905402D01*
X57603728Y28904691D01*
X57595273Y28904885D01*
X57594008Y28905409D01*
X57590601Y28907574D01*
X57053625Y29397356D01*
X57050918Y29401031D01*
X57049709Y29403608D01*
X57048808Y29410766D01*
X57048854Y29411008D01*
X57049656Y29413568D01*
X57050048Y29414449D01*
X57470966Y30360799D01*
X57473600Y30364526D01*
X57475841Y30366653D01*
X57483895Y30369867D01*
X57715072Y30369867D01*
X57719547Y30368978D01*
G37*
%TD.AperFunction*%
%TD*%
%TA.AperFunction,Conductor*%
%TO.N,/SDA{slash}20*%
G36*
X57725672Y37366440D02*
G01*
X57728089Y37362922D01*
X58150897Y36412322D01*
X58151128Y36403370D01*
X58148092Y36398923D01*
X57607885Y35906193D01*
X57599463Y35903149D01*
X57592115Y35906193D01*
X57051907Y36398923D01*
X57048104Y36407030D01*
X57049102Y36412322D01*
X57471911Y37362922D01*
X57478404Y37369088D01*
X57482601Y37369867D01*
X57717399Y37369867D01*
X57725672Y37366440D01*
G37*
%TD.AperFunction*%
%TD*%
%TA.AperFunction,Conductor*%
%TO.N,/SDA{slash}20*%
G36*
X83129477Y52016510D02*
G01*
X83154968Y52004363D01*
X84409359Y51406608D01*
X84415352Y51399957D01*
X84414887Y51391014D01*
X84414328Y51389978D01*
X84191144Y51022122D01*
X84183923Y51016826D01*
X84177078Y51017219D01*
X83204865Y51377197D01*
X83198297Y51383283D01*
X83197336Y51386584D01*
X83195359Y51401041D01*
X83112852Y52004366D01*
X83115126Y52013024D01*
X83122859Y52017540D01*
X83129477Y52016510D01*
G37*
%TD.AperFunction*%
%TD*%
%TA.AperFunction,Conductor*%
%TO.N,/SDA{slash}20*%
G36*
X22448803Y52084647D02*
G01*
X22451994Y52082381D01*
X22618380Y51915995D01*
X22621807Y51907722D01*
X22621153Y51903864D01*
X22153080Y50563799D01*
X22147116Y50557118D01*
X22138697Y50556443D01*
X21338469Y50794593D01*
X21331517Y50800237D01*
X21330592Y50802470D01*
X21092442Y51602700D01*
X21093367Y51611605D01*
X21099797Y51617081D01*
X22439864Y52085154D01*
X22448803Y52084647D01*
G37*
%TD.AperFunction*%
%TD*%
%TA.AperFunction,Conductor*%
%TO.N,/D13*%
G36*
X12352261Y45890959D02*
G01*
X12353289Y45889898D01*
X12749999Y45425001D01*
X12750000Y45425000D01*
X12830575Y45552777D01*
X12837887Y45557946D01*
X12846713Y45556432D01*
X12848745Y45554808D01*
X13006891Y45396662D01*
X13010318Y45388389D01*
X13006891Y45380116D01*
X12840033Y45213258D01*
X12836237Y45210722D01*
X12750001Y45175002D01*
X12353289Y44710103D01*
X12345312Y44706034D01*
X12336794Y44708798D01*
X12335733Y44709826D01*
X11806159Y45292128D01*
X11803128Y45300554D01*
X11806159Y45307872D01*
X11912682Y45425001D01*
X12335734Y45890176D01*
X12343835Y45893990D01*
X12352261Y45890959D01*
G37*
%TD.AperFunction*%
%TD*%
%TA.AperFunction,Conductor*%
%TO.N,/D13*%
G36*
X11757915Y45292357D02*
G01*
X11758379Y45291880D01*
X12320543Y44680008D01*
X12323617Y44671597D01*
X12321642Y44665572D01*
X11878476Y44005180D01*
X11871021Y44000220D01*
X11868761Y44000000D01*
X11631990Y44000000D01*
X11623717Y44003427D01*
X11621687Y44006155D01*
X11259028Y44680008D01*
X11223091Y44746782D01*
X11222189Y44755690D01*
X11225002Y44760478D01*
X11741371Y45292117D01*
X11749593Y45295663D01*
X11757915Y45292357D01*
G37*
%TD.AperFunction*%
%TD*%
%TA.AperFunction,Conductor*%
%TO.N,/D13*%
G36*
X11876018Y43346573D02*
G01*
X11878225Y43343501D01*
X12132276Y42831574D01*
X12132884Y42822640D01*
X12132405Y42821440D01*
X11760609Y42021817D01*
X11754014Y42015760D01*
X11745067Y42016141D01*
X11739391Y42021817D01*
X11367594Y42821440D01*
X11367213Y42830387D01*
X11367718Y42831564D01*
X11621775Y43343501D01*
X11628522Y43349388D01*
X11632255Y43350000D01*
X11867745Y43350000D01*
X11876018Y43346573D01*
G37*
%TD.AperFunction*%
%TD*%
%TA.AperFunction,Conductor*%
%TO.N,/D13*%
G36*
X28961569Y50802079D02*
G01*
X29694387Y50405401D01*
X29700031Y50398449D01*
X29699106Y50389542D01*
X29698572Y50388652D01*
X29081003Y49456007D01*
X29080998Y49455998D01*
X29045278Y49369762D01*
X29042742Y49365967D01*
X28803825Y49127050D01*
X28795552Y49123623D01*
X28787279Y49127050D01*
X28628278Y49286051D01*
X28624851Y49294324D01*
X28628278Y49302597D01*
X28629495Y49303657D01*
X28831000Y49456000D01*
X28213426Y50388652D01*
X28211716Y50397441D01*
X28216722Y50404866D01*
X28217612Y50405400D01*
X28950430Y50802078D01*
X28959337Y50803003D01*
X28961569Y50802079D01*
G37*
%TD.AperFunction*%
%TD*%
%TA.AperFunction,Conductor*%
%TO.N,/D11*%
G36*
X12007521Y7991761D02*
G01*
X12008963Y7990319D01*
X12521003Y7380104D01*
X12523695Y7371563D01*
X12521621Y7365868D01*
X12125001Y6800002D01*
X12124999Y6799998D01*
X12089278Y6713762D01*
X12086742Y6709967D01*
X12025950Y6649174D01*
X12017677Y6645747D01*
X12009404Y6649174D01*
X11849174Y6809404D01*
X11845747Y6817677D01*
X11849174Y6825950D01*
X11853664Y6830440D01*
X11853664Y6830442D01*
X11478378Y7365868D01*
X11476436Y7374609D01*
X11478994Y7380102D01*
X11991037Y7990320D01*
X11998980Y7994453D01*
X12007521Y7991761D01*
G37*
%TD.AperFunction*%
%TD*%
%TA.AperFunction,Conductor*%
%TO.N,/D11*%
G36*
X12008016Y7993457D02*
G01*
X12574083Y7460809D01*
X12577760Y7452645D01*
X12576078Y7446237D01*
X12128414Y6705648D01*
X12121201Y6700340D01*
X12118401Y6700000D01*
X11881599Y6700000D01*
X11873326Y6703427D01*
X11871586Y6705648D01*
X11423921Y7446237D01*
X11422574Y7455089D01*
X11425914Y7460807D01*
X11991983Y7993457D01*
X12000356Y7996630D01*
X12008016Y7993457D01*
G37*
%TD.AperFunction*%
%TD*%
%TA.AperFunction,Conductor*%
%TO.N,/D11*%
G36*
X5360683Y7173026D02*
G01*
X5360928Y7172436D01*
X5688965Y6314998D01*
X5688720Y6306046D01*
X5687009Y6303308D01*
X5474999Y6050001D01*
X5475000Y6050001D01*
X5475000Y6050000D01*
X5565397Y6004259D01*
X5571232Y5997467D01*
X5570555Y5988538D01*
X5568388Y5985547D01*
X5411306Y5828464D01*
X5403033Y5825037D01*
X5394760Y5828464D01*
X5263257Y5959967D01*
X5260721Y5963763D01*
X5225002Y6049995D01*
X5225000Y6050000D01*
X5012989Y6303310D01*
X5010308Y6311851D01*
X5011032Y6314993D01*
X5339072Y7172437D01*
X5345229Y7178938D01*
X5354181Y7179183D01*
X5360683Y7173026D01*
G37*
%TD.AperFunction*%
%TD*%
%TA.AperFunction,Conductor*%
%TO.N,/TX1{slash}18*%
G36*
X78951188Y50645774D02*
G01*
X78953128Y50643999D01*
X79227767Y50328915D01*
X79330155Y50211448D01*
X79333008Y50202959D01*
X79329023Y50194940D01*
X79325631Y50192877D01*
X77878148Y49621499D01*
X77869194Y49621649D01*
X77862969Y49628086D01*
X77862211Y49633550D01*
X77947466Y50481478D01*
X77951703Y50489365D01*
X77957275Y50491862D01*
X78942482Y50647865D01*
X78951188Y50645774D01*
G37*
%TD.AperFunction*%
%TD*%
%TA.AperFunction,Conductor*%
%TO.N,/TX1{slash}18*%
G36*
X57725672Y44666440D02*
G01*
X57728089Y44662922D01*
X58150897Y43712322D01*
X58151128Y43703370D01*
X58148092Y43698923D01*
X57607885Y43206193D01*
X57599463Y43203149D01*
X57592115Y43206193D01*
X57051907Y43698923D01*
X57048104Y43707030D01*
X57049102Y43712322D01*
X57471911Y44662922D01*
X57478404Y44669088D01*
X57482601Y44669867D01*
X57717399Y44669867D01*
X57725672Y44666440D01*
G37*
%TD.AperFunction*%
%TD*%
%TA.AperFunction,Conductor*%
%TO.N,/RX1{slash}19*%
G36*
X59719547Y44668978D02*
G01*
X59722401Y44667795D01*
X59728614Y44661741D01*
X60149951Y43714449D01*
X60150957Y43709994D01*
X60151030Y43707147D01*
X60148994Y43700245D01*
X60148858Y43700046D01*
X60147856Y43698894D01*
X60147816Y43698789D01*
X60147733Y43698753D01*
X60147083Y43698004D01*
X59609603Y43207761D01*
X59605695Y43205402D01*
X59603728Y43204691D01*
X59595273Y43204885D01*
X59594008Y43205409D01*
X59590601Y43207574D01*
X59053625Y43697356D01*
X59050918Y43701031D01*
X59049709Y43703608D01*
X59048808Y43710766D01*
X59048854Y43711008D01*
X59049656Y43713568D01*
X59050048Y43714449D01*
X59470966Y44660799D01*
X59473600Y44664526D01*
X59475841Y44666653D01*
X59483895Y44669867D01*
X59715072Y44669867D01*
X59719547Y44668978D01*
G37*
%TD.AperFunction*%
%TD*%
%TA.AperFunction,Conductor*%
%TO.N,/RX1{slash}19*%
G36*
X81287464Y50798910D02*
G01*
X81928855Y50267562D01*
X81933040Y50259645D01*
X81931059Y50251963D01*
X81405000Y49480002D01*
X81369278Y49393762D01*
X81366742Y49389967D01*
X81110855Y49134079D01*
X81102582Y49130652D01*
X81094309Y49134079D01*
X80935199Y49293189D01*
X80931772Y49301462D01*
X80935199Y49309735D01*
X80936301Y49310707D01*
X81155000Y49480000D01*
X80628940Y50251963D01*
X80627112Y50260730D01*
X80631144Y50267562D01*
X81272536Y50798910D01*
X81281093Y50801549D01*
X81287464Y50798910D01*
G37*
%TD.AperFunction*%
%TD*%
%TA.AperFunction,Conductor*%
%TO.N,Net-(C2-Pad1)*%
G36*
X19490593Y30126895D02*
G01*
X20997769Y29378226D01*
X21003653Y29371478D01*
X21004263Y29367749D01*
X21004263Y29132252D01*
X21000836Y29123979D01*
X20997768Y29121774D01*
X19490593Y28373106D01*
X19481659Y28372494D01*
X19475098Y28378016D01*
X19006274Y29244434D01*
X19005352Y29253339D01*
X19006272Y29255562D01*
X19475099Y30121986D01*
X19482049Y30127630D01*
X19490593Y30126895D01*
G37*
%TD.AperFunction*%
%TD*%
%TA.AperFunction,Conductor*%
%TO.N,Net-(C2-Pad1)*%
G36*
X25043057Y30121985D02*
G01*
X25511880Y29255568D01*
X25512803Y29246661D01*
X25511880Y29244432D01*
X25043057Y28378016D01*
X25036106Y28372371D01*
X25027562Y28373106D01*
X23520388Y29121774D01*
X23514503Y29128523D01*
X23513893Y29132252D01*
X23513893Y29367749D01*
X23517320Y29376022D01*
X23520384Y29378225D01*
X25027563Y30126896D01*
X25036496Y30127507D01*
X25043057Y30121985D01*
G37*
%TD.AperFunction*%
%TD*%
%TA.AperFunction,Conductor*%
%TO.N,Net-(D3-K)*%
G36*
X74154727Y28764396D02*
G01*
X74159032Y28762894D01*
X74162042Y28761122D01*
X74166631Y28756147D01*
X74422526Y28228736D01*
X74423680Y28224318D01*
X74423785Y28222537D01*
X74420851Y28214077D01*
X74419815Y28212911D01*
X74415755Y28209961D01*
X73307839Y27725747D01*
X73303383Y27724770D01*
X73300439Y27724713D01*
X73300376Y27724712D01*
X73292038Y27727975D01*
X73291874Y27728136D01*
X73128411Y27891599D01*
X73125875Y27895394D01*
X73124663Y27898319D01*
X73124397Y27906564D01*
X73446133Y28851816D01*
X73448418Y28855764D01*
X73450017Y28857582D01*
X73456938Y28861406D01*
X73457843Y28861552D01*
X73461315Y28861587D01*
X74154727Y28764396D01*
G37*
%TD.AperFunction*%
%TD*%
%TA.AperFunction,Conductor*%
%TO.N,Net-(D3-K)*%
G36*
X72824061Y27589624D02*
G01*
X72990069Y27423616D01*
X72993496Y27415343D01*
X72992864Y27411550D01*
X72648234Y26405911D01*
X72642310Y26399196D01*
X72635168Y26398176D01*
X71927642Y26520780D01*
X71920076Y26525569D01*
X71919159Y26527109D01*
X71646145Y27078126D01*
X71645544Y27087059D01*
X71651436Y27093803D01*
X71651970Y27094051D01*
X72811169Y27592102D01*
X72820123Y27592218D01*
X72824061Y27589624D01*
G37*
%TD.AperFunction*%
%TD*%
%TA.AperFunction,Conductor*%
%TO.N,Net-(Q3-D)*%
G36*
X78299070Y29196447D02*
G01*
X78305004Y29190270D01*
X78461506Y28810150D01*
X78461487Y28801196D01*
X78455821Y28795183D01*
X77713048Y28432434D01*
X77704111Y28431882D01*
X77699641Y28434674D01*
X77530173Y28604142D01*
X77527906Y28607336D01*
X77437379Y28795183D01*
X77407877Y28856400D01*
X77407373Y28865338D01*
X77413339Y28872017D01*
X77414337Y28872442D01*
X78290124Y29196788D01*
X78299070Y29196447D01*
G37*
%TD.AperFunction*%
%TD*%
%TA.AperFunction,Conductor*%
%TO.N,Net-(Q3-D)*%
G36*
X74598145Y26993857D02*
G01*
X75240166Y26528504D01*
X75244854Y26520874D01*
X75245000Y26519031D01*
X75245000Y26280970D01*
X75241573Y26272697D01*
X75240166Y26271497D01*
X74598146Y25806145D01*
X74589437Y25804064D01*
X74582624Y25807746D01*
X74159775Y26272697D01*
X74051158Y26392129D01*
X74048128Y26400554D01*
X74051159Y26407872D01*
X74582626Y26992257D01*
X74590726Y26996070D01*
X74598145Y26993857D01*
G37*
%TD.AperFunction*%
%TD*%
%TA.AperFunction,Conductor*%
%TO.N,Net-(Q2-D)*%
G36*
X77888674Y34093336D02*
G01*
X77893867Y34086041D01*
X77893694Y34080138D01*
X77667595Y33306529D01*
X77661985Y33299549D01*
X77659070Y33298428D01*
X77161903Y33180280D01*
X77153062Y33181701D01*
X77150925Y33183390D01*
X76985337Y33348978D01*
X76981910Y33357251D01*
X76983674Y33363430D01*
X77362653Y33972407D01*
X77369934Y33977619D01*
X77369966Y33977627D01*
X77879844Y34094823D01*
X77888674Y34093336D01*
G37*
%TD.AperFunction*%
%TD*%
%TA.AperFunction,Conductor*%
%TO.N,Net-(Q2-D)*%
G36*
X74598145Y32193857D02*
G01*
X75240166Y31728504D01*
X75244854Y31720874D01*
X75245000Y31719031D01*
X75245000Y31480970D01*
X75241573Y31472697D01*
X75240166Y31471497D01*
X74598146Y31006145D01*
X74589437Y31004064D01*
X74582624Y31007746D01*
X74159775Y31472697D01*
X74051158Y31592129D01*
X74048128Y31600554D01*
X74051159Y31607872D01*
X74582626Y32192257D01*
X74590726Y32196070D01*
X74598145Y32193857D01*
G37*
%TD.AperFunction*%
%TD*%
%TA.AperFunction,Conductor*%
%TO.N,Net-(C3-Pad1)*%
G36*
X19490593Y19626895D02*
G01*
X20997769Y18878226D01*
X21003653Y18871478D01*
X21004263Y18867749D01*
X21004263Y18632252D01*
X21000836Y18623979D01*
X20997768Y18621774D01*
X19490593Y17873106D01*
X19481659Y17872494D01*
X19475098Y17878016D01*
X19006274Y18744434D01*
X19005352Y18753339D01*
X19006272Y18755562D01*
X19475099Y19621986D01*
X19482049Y19627630D01*
X19490593Y19626895D01*
G37*
%TD.AperFunction*%
%TD*%
%TA.AperFunction,Conductor*%
%TO.N,Net-(C3-Pad1)*%
G36*
X25043057Y19621985D02*
G01*
X25511880Y18755568D01*
X25512803Y18746661D01*
X25511880Y18744432D01*
X25043057Y17878016D01*
X25036106Y17872371D01*
X25027562Y17873106D01*
X23520388Y18621774D01*
X23514503Y18628523D01*
X23513893Y18632252D01*
X23513893Y18867749D01*
X23517320Y18876022D01*
X23520384Y18878225D01*
X25027563Y19626896D01*
X25036496Y19627507D01*
X25043057Y19621985D01*
G37*
%TD.AperFunction*%
%TD*%
%TA.AperFunction,Conductor*%
%TO.N,Net-(D5-K)*%
G36*
X73461449Y18698717D02*
G01*
X74135791Y18583439D01*
X74140050Y18581808D01*
X74142933Y18579992D01*
X74147511Y18574557D01*
X74376746Y18019216D01*
X74377631Y18014733D01*
X74377628Y18012912D01*
X74374238Y18004695D01*
X74373021Y18003467D01*
X74369301Y18000941D01*
X73281876Y17537203D01*
X73277406Y17536266D01*
X73274384Y17536235D01*
X73266076Y17539576D01*
X73102571Y17703081D01*
X73100036Y17706874D01*
X73098834Y17709774D01*
X73098628Y17718188D01*
X73445910Y18689241D01*
X73448257Y18693154D01*
X73449848Y18694909D01*
X73456925Y18698642D01*
X73457898Y18698775D01*
X73461449Y18698717D01*
G37*
%TD.AperFunction*%
%TD*%
%TA.AperFunction,Conductor*%
%TO.N,Net-(D5-K)*%
G36*
X72792825Y17395804D02*
G01*
X72958898Y17229731D01*
X72962325Y17221458D01*
X72961762Y17217872D01*
X72648025Y16243371D01*
X72642228Y16236547D01*
X72635225Y16235376D01*
X72627072Y16236547D01*
X72510836Y16253243D01*
X71908753Y16339723D01*
X71901051Y16344291D01*
X71900221Y16345564D01*
X71605657Y16869709D01*
X71604593Y16878599D01*
X71610126Y16885640D01*
X71611143Y16886147D01*
X72779859Y17398248D01*
X72788809Y17398429D01*
X72792825Y17395804D01*
G37*
%TD.AperFunction*%
%TD*%
%TA.AperFunction,Conductor*%
%TO.N,Net-(Q5-D)*%
G36*
X74598145Y16793857D02*
G01*
X75240166Y16328504D01*
X75244854Y16320874D01*
X75245000Y16319031D01*
X75245000Y16080970D01*
X75241573Y16072697D01*
X75240166Y16071497D01*
X74598146Y15606145D01*
X74589437Y15604064D01*
X74582624Y15607746D01*
X74159775Y16072697D01*
X74051158Y16192129D01*
X74048128Y16200554D01*
X74051159Y16207872D01*
X74582626Y16792257D01*
X74590726Y16796070D01*
X74598145Y16793857D01*
G37*
%TD.AperFunction*%
%TD*%
%TA.AperFunction,Conductor*%
%TO.N,Net-(Q5-D)*%
G36*
X78308261Y20192718D02*
G01*
X78621251Y19878946D01*
X78693135Y19806882D01*
X78696552Y19798604D01*
X78694493Y19791991D01*
X78428487Y19405072D01*
X78420976Y19400196D01*
X78418846Y19400000D01*
X78181154Y19400000D01*
X78172881Y19403427D01*
X78171513Y19405072D01*
X77905506Y19791991D01*
X77903643Y19800749D01*
X77906863Y19806881D01*
X78291718Y20192698D01*
X78299985Y20196134D01*
X78308261Y20192718D01*
G37*
%TD.AperFunction*%
%TD*%
%TA.AperFunction,Conductor*%
%TO.N,Net-(Q0-D)*%
G36*
X77478560Y43082406D02*
G01*
X78278183Y42710609D01*
X78284240Y42704014D01*
X78283859Y42695067D01*
X78278183Y42689391D01*
X77478560Y42317595D01*
X77469613Y42317214D01*
X77468426Y42317724D01*
X76956499Y42571775D01*
X76950612Y42578522D01*
X76950000Y42582255D01*
X76950000Y42817746D01*
X76953427Y42826019D01*
X76956495Y42828224D01*
X77468427Y43082278D01*
X77477360Y43082885D01*
X77478560Y43082406D01*
G37*
%TD.AperFunction*%
%TD*%
%TA.AperFunction,Conductor*%
%TO.N,Net-(Q0-D)*%
G36*
X74598145Y42393857D02*
G01*
X75240166Y41928504D01*
X75244854Y41920874D01*
X75245000Y41919031D01*
X75245000Y41680970D01*
X75241573Y41672697D01*
X75240166Y41671497D01*
X74598146Y41206145D01*
X74589437Y41204064D01*
X74582624Y41207746D01*
X74159775Y41672697D01*
X74051158Y41792129D01*
X74048128Y41800554D01*
X74051159Y41807872D01*
X74582626Y42392257D01*
X74590726Y42396070D01*
X74598145Y42393857D01*
G37*
%TD.AperFunction*%
%TD*%
%TA.AperFunction,Conductor*%
%TO.N,Net-(D7-K)*%
G36*
X74608150Y8768622D02*
G01*
X75170511Y8328513D01*
X75174914Y8320716D01*
X75175000Y8319300D01*
X75175000Y8083294D01*
X75171573Y8075021D01*
X75167175Y8072254D01*
X74452231Y7821333D01*
X74443289Y7821827D01*
X74440512Y7823691D01*
X74033140Y8191742D01*
X74029299Y8199831D01*
X74032302Y8208268D01*
X74032695Y8208681D01*
X74592674Y8767688D01*
X74600950Y8771107D01*
X74608150Y8768622D01*
G37*
%TD.AperFunction*%
%TD*%
%TA.AperFunction,Conductor*%
%TO.N,Net-(D7-K)*%
G36*
X76273353Y8488349D02*
G01*
X76703901Y8207882D01*
X76708963Y8200495D01*
X76707318Y8191693D01*
X76705781Y8189799D01*
X76122366Y7607355D01*
X76114090Y7603935D01*
X76106838Y7606462D01*
X75519438Y8071487D01*
X75515078Y8079309D01*
X75515000Y8080660D01*
X75515000Y8315595D01*
X75518427Y8323868D01*
X75524183Y8327021D01*
X76264541Y8489917D01*
X76273353Y8488349D01*
G37*
%TD.AperFunction*%
%TD*%
%TA.AperFunction,Conductor*%
%TO.N,Net-(C1-Pad1)*%
G36*
X19490593Y40676895D02*
G01*
X20997769Y39928226D01*
X21003653Y39921478D01*
X21004263Y39917749D01*
X21004263Y39682252D01*
X21000836Y39673979D01*
X20997768Y39671774D01*
X19490593Y38923106D01*
X19481659Y38922494D01*
X19475098Y38928016D01*
X19006274Y39794434D01*
X19005352Y39803339D01*
X19006272Y39805562D01*
X19475099Y40671986D01*
X19482049Y40677630D01*
X19490593Y40676895D01*
G37*
%TD.AperFunction*%
%TD*%
%TA.AperFunction,Conductor*%
%TO.N,Net-(C1-Pad1)*%
G36*
X25043057Y40671985D02*
G01*
X25511880Y39805568D01*
X25512803Y39796661D01*
X25511880Y39794432D01*
X25043057Y38928016D01*
X25036106Y38922371D01*
X25027562Y38923106D01*
X23520388Y39671774D01*
X23514503Y39678523D01*
X23513893Y39682252D01*
X23513893Y39917749D01*
X23517320Y39926022D01*
X23520384Y39928225D01*
X25027563Y40676896D01*
X25036496Y40677507D01*
X25043057Y40671985D01*
G37*
%TD.AperFunction*%
%TD*%
%TA.AperFunction,Conductor*%
%TO.N,Net-(DA1-K)*%
G36*
X5103548Y42601316D02*
G01*
X5819252Y42178397D01*
X5824631Y42171238D01*
X5825000Y42168324D01*
X5825000Y41931677D01*
X5821573Y41923404D01*
X5819252Y41921604D01*
X5103549Y41498686D01*
X5094683Y41497428D01*
X5089254Y41500556D01*
X4675248Y41921604D01*
X4557064Y42041799D01*
X4553708Y42050099D01*
X4557064Y42058202D01*
X5089255Y42599446D01*
X5097498Y42602942D01*
X5103548Y42601316D01*
G37*
%TD.AperFunction*%
%TD*%
%TA.AperFunction,Conductor*%
%TO.N,Net-(D6-K)*%
G36*
X73461744Y13660518D02*
G01*
X74104455Y13515187D01*
X74108624Y13513331D01*
X74111356Y13511401D01*
X74115729Y13505472D01*
X74309081Y12912546D01*
X74309622Y12908015D01*
X74309465Y12905990D01*
X74305729Y12898290D01*
X74304659Y12897304D01*
X74301166Y12895082D01*
X73244356Y12462057D01*
X73239874Y12461183D01*
X73236825Y12461195D01*
X73228598Y12464622D01*
X73228566Y12464654D01*
X73065225Y12627995D01*
X73062689Y12631790D01*
X73061505Y12634648D01*
X73061381Y12643289D01*
X73391447Y13509507D01*
X73445558Y13651519D01*
X73447983Y13655382D01*
X73449536Y13657027D01*
X73456872Y13660634D01*
X73458008Y13660747D01*
X73461744Y13660518D01*
G37*
%TD.AperFunction*%
%TD*%
%TA.AperFunction,Conductor*%
%TO.N,Net-(D6-K)*%
G36*
X72740843Y12306024D02*
G01*
X72906961Y12139906D01*
X72910388Y12131633D01*
X72909942Y12128434D01*
X72647670Y11205865D01*
X72642112Y11198844D01*
X72635282Y11197419D01*
X71878022Y11271187D01*
X71870120Y11275400D01*
X71868840Y11277312D01*
X71803910Y11398652D01*
X71605154Y11770083D01*
X71604273Y11778992D01*
X71609951Y11785917D01*
X71610500Y11786192D01*
X72727617Y12308351D01*
X72736562Y12308749D01*
X72740843Y12306024D01*
G37*
%TD.AperFunction*%
%TD*%
%TA.AperFunction,Conductor*%
%TO.N,Net-(Q6-D)*%
G36*
X78299070Y15696447D02*
G01*
X78305004Y15690270D01*
X78461506Y15310150D01*
X78461487Y15301196D01*
X78455821Y15295183D01*
X77713048Y14932434D01*
X77704111Y14931882D01*
X77699641Y14934674D01*
X77530173Y15104142D01*
X77527906Y15107336D01*
X77437379Y15295183D01*
X77407877Y15356400D01*
X77407373Y15365338D01*
X77413339Y15372017D01*
X77414337Y15372442D01*
X78290124Y15696788D01*
X78299070Y15696447D01*
G37*
%TD.AperFunction*%
%TD*%
%TA.AperFunction,Conductor*%
%TO.N,Net-(Q6-D)*%
G36*
X74598145Y11693857D02*
G01*
X75240166Y11228504D01*
X75244854Y11220874D01*
X75245000Y11219031D01*
X75245000Y10980970D01*
X75241573Y10972697D01*
X75240166Y10971497D01*
X74598146Y10506145D01*
X74589437Y10504064D01*
X74582624Y10507746D01*
X74159775Y10972697D01*
X74051158Y11092129D01*
X74048128Y11100554D01*
X74051159Y11107872D01*
X74582626Y11692257D01*
X74590726Y11696070D01*
X74598145Y11693857D01*
G37*
%TD.AperFunction*%
%TD*%
%TA.AperFunction,Conductor*%
%TO.N,Net-(D1-K)*%
G36*
X72641902Y38006625D02*
G01*
X72808225Y37840302D01*
X72811652Y37832029D01*
X72811425Y37829737D01*
X72646938Y37006179D01*
X72641958Y36998738D01*
X72635105Y36996777D01*
X71828873Y37021576D01*
X71820709Y37025255D01*
X71818704Y37028169D01*
X71604315Y37470679D01*
X71603791Y37479618D01*
X71609502Y37486189D01*
X72628291Y38008763D01*
X72637214Y38009489D01*
X72641902Y38006625D01*
G37*
%TD.AperFunction*%
%TD*%
%TA.AperFunction,Conductor*%
%TO.N,Net-(D1-K)*%
G36*
X73462326Y39459154D02*
G01*
X74054676Y39265990D01*
X74058656Y39263754D01*
X74061197Y39261579D01*
X74065001Y39255271D01*
X74210420Y38612171D01*
X74210539Y38607609D01*
X74210156Y38605381D01*
X74206038Y38598311D01*
X74205160Y38597592D01*
X74201913Y38595711D01*
X73194252Y38211750D01*
X73189753Y38210988D01*
X73186662Y38211076D01*
X73178722Y38214498D01*
X73015371Y38377849D01*
X73012835Y38381645D01*
X73011669Y38384460D01*
X73011652Y38393373D01*
X73094560Y38595711D01*
X73444997Y39450965D01*
X73447510Y39454762D01*
X73448949Y39456212D01*
X73456774Y39459660D01*
X73458230Y39459719D01*
X73462326Y39459154D01*
G37*
%TD.AperFunction*%
%TD*%
%TA.AperFunction,Conductor*%
%TO.N,Net-(BZ1--)*%
G36*
X10984234Y20086138D02*
G01*
X10989756Y20079577D01*
X11526101Y18484454D01*
X11525489Y18475520D01*
X11523284Y18472452D01*
X11356764Y18305932D01*
X11348491Y18302505D01*
X11344762Y18303115D01*
X9749639Y18839460D01*
X9742890Y18845345D01*
X9742155Y18853888D01*
X10023297Y19798046D01*
X10028942Y19804996D01*
X10031167Y19805918D01*
X10975328Y20087061D01*
X10984234Y20086138D01*
G37*
%TD.AperFunction*%
%TD*%
%TA.AperFunction,Conductor*%
%TO.N,Net-(BZ1--)*%
G36*
X12126674Y12296573D02*
G01*
X12128414Y12294352D01*
X12576078Y11553764D01*
X12577425Y11544912D01*
X12574083Y11539191D01*
X12008018Y11006545D01*
X11999644Y11003371D01*
X11991982Y11006545D01*
X11762608Y11222377D01*
X11425915Y11539192D01*
X11422239Y11547356D01*
X11423920Y11553762D01*
X11871586Y12294352D01*
X11878799Y12299660D01*
X11881599Y12300000D01*
X12118401Y12300000D01*
X12126674Y12296573D01*
G37*
%TD.AperFunction*%
%TD*%
%TA.AperFunction,Conductor*%
%TO.N,Net-(D0-K)*%
G36*
X72824061Y42989624D02*
G01*
X72990069Y42823616D01*
X72993496Y42815343D01*
X72992864Y42811550D01*
X72648234Y41805911D01*
X72642310Y41799196D01*
X72635168Y41798176D01*
X71927642Y41920780D01*
X71920076Y41925569D01*
X71919159Y41927109D01*
X71646145Y42478126D01*
X71645544Y42487059D01*
X71651436Y42493803D01*
X71651970Y42494051D01*
X72811169Y42992102D01*
X72820123Y42992218D01*
X72824061Y42989624D01*
G37*
%TD.AperFunction*%
%TD*%
%TA.AperFunction,Conductor*%
%TO.N,Net-(D0-K)*%
G36*
X74169503Y44176455D02*
G01*
X74177307Y44172063D01*
X74178535Y44170136D01*
X74440097Y43655008D01*
X74440787Y43646080D01*
X74434962Y43639279D01*
X74434424Y43639023D01*
X73326591Y43145740D01*
X73317639Y43145505D01*
X73313559Y43148155D01*
X73147542Y43314172D01*
X73144115Y43322445D01*
X73144689Y43326062D01*
X73447021Y44254033D01*
X73452842Y44260836D01*
X73459543Y44262023D01*
X74169503Y44176455D01*
G37*
%TD.AperFunction*%
%TD*%
%TA.AperFunction,Conductor*%
%TO.N,Net-(D2-K)*%
G36*
X74157028Y33964073D02*
G01*
X74164745Y33959531D01*
X74165930Y33957593D01*
X74423543Y33426640D01*
X74424072Y33417701D01*
X74418124Y33411007D01*
X74417703Y33410812D01*
X73305707Y32924814D01*
X73296753Y32924641D01*
X73292748Y32927262D01*
X73126766Y33093244D01*
X73123339Y33101517D01*
X73123962Y33105285D01*
X73446882Y34054014D01*
X73452792Y34060741D01*
X73459582Y34061830D01*
X74157028Y33964073D01*
G37*
%TD.AperFunction*%
%TD*%
%TA.AperFunction,Conductor*%
%TO.N,Net-(D2-K)*%
G36*
X72824061Y32789624D02*
G01*
X72990069Y32623616D01*
X72993496Y32615343D01*
X72992864Y32611550D01*
X72648234Y31605911D01*
X72642310Y31599196D01*
X72635168Y31598176D01*
X71927642Y31720780D01*
X71920076Y31725569D01*
X71919159Y31727109D01*
X71646145Y32278126D01*
X71645544Y32287059D01*
X71651436Y32293803D01*
X71651970Y32294051D01*
X72811169Y32792102D01*
X72820123Y32792218D01*
X72824061Y32789624D01*
G37*
%TD.AperFunction*%
%TD*%
%TA.AperFunction,Conductor*%
%TO.N,Net-(DB1-K)*%
G36*
X5103548Y31451316D02*
G01*
X5819252Y31028397D01*
X5824631Y31021238D01*
X5825000Y31018324D01*
X5825000Y30781677D01*
X5821573Y30773404D01*
X5819252Y30771604D01*
X5103549Y30348686D01*
X5094683Y30347428D01*
X5089254Y30350556D01*
X4675248Y30771604D01*
X4557064Y30891799D01*
X4553708Y30900099D01*
X4557064Y30908202D01*
X5089255Y31449446D01*
X5097498Y31452942D01*
X5103548Y31451316D01*
G37*
%TD.AperFunction*%
%TD*%
%TA.AperFunction,Conductor*%
%TO.N,Net-(Q9-D)*%
G36*
X10416748Y29293042D02*
G01*
X10792902Y28908283D01*
X10796235Y28899972D01*
X10792799Y28891821D01*
X10406881Y28506865D01*
X10398603Y28503448D01*
X10391990Y28505507D01*
X10005072Y28771513D01*
X10000196Y28779024D01*
X10000000Y28781154D01*
X10000000Y29018761D01*
X10003427Y29027034D01*
X10005176Y29028473D01*
X10401865Y29294580D01*
X10410644Y29296342D01*
X10416748Y29293042D01*
G37*
%TD.AperFunction*%
%TD*%
%TA.AperFunction,Conductor*%
%TO.N,Net-(Q4-D)*%
G36*
X78308261Y24692718D02*
G01*
X78690342Y24309682D01*
X78693759Y24301405D01*
X78690322Y24293137D01*
X78688941Y24291958D01*
X78425000Y24100000D01*
X78424997Y24099997D01*
X78389278Y24013763D01*
X78386742Y24009967D01*
X78255240Y23878464D01*
X78246967Y23875037D01*
X78238694Y23878464D01*
X78081611Y24035547D01*
X78078184Y24043820D01*
X78081611Y24052093D01*
X78084597Y24054257D01*
X78175000Y24100000D01*
X77911058Y24291958D01*
X77906383Y24299595D01*
X77908478Y24308302D01*
X77909645Y24309671D01*
X78291718Y24692698D01*
X78299985Y24696134D01*
X78308261Y24692718D01*
G37*
%TD.AperFunction*%
%TD*%
%TA.AperFunction,Conductor*%
%TO.N,Net-(Q4-D)*%
G36*
X74598145Y21893857D02*
G01*
X75240166Y21428504D01*
X75244854Y21420874D01*
X75245000Y21419031D01*
X75245000Y21180970D01*
X75241573Y21172697D01*
X75240166Y21171497D01*
X74598146Y20706145D01*
X74589437Y20704064D01*
X74582624Y20707746D01*
X74159775Y21172697D01*
X74051158Y21292129D01*
X74048128Y21300554D01*
X74051159Y21307872D01*
X74582626Y21892257D01*
X74590726Y21896070D01*
X74598145Y21893857D01*
G37*
%TD.AperFunction*%
%TD*%
%TA.AperFunction,Conductor*%
%TO.N,Net-(Q10-D)*%
G36*
X6643592Y11092127D02*
G01*
X6892665Y10972093D01*
X6895858Y10969827D01*
X7065326Y10800359D01*
X7068753Y10792086D01*
X7067566Y10786952D01*
X6704817Y10044179D01*
X6698107Y10038248D01*
X6689850Y10038494D01*
X6309730Y10194996D01*
X6303384Y10201315D01*
X6303212Y10209876D01*
X6627552Y11085647D01*
X6633638Y11092213D01*
X6642586Y11092554D01*
X6643592Y11092127D01*
G37*
%TD.AperFunction*%
%TD*%
%TA.AperFunction,Conductor*%
%TO.N,Net-(Q10-D)*%
G36*
X9462375Y11592255D02*
G01*
X9993840Y11007872D01*
X9996871Y10999446D01*
X9993840Y10992128D01*
X9462375Y10407746D01*
X9454273Y10403931D01*
X9446853Y10406145D01*
X8804834Y10871497D01*
X8800146Y10879127D01*
X8800000Y10880970D01*
X8800000Y11119031D01*
X8803427Y11127304D01*
X8804834Y11128504D01*
X9446855Y11593857D01*
X9455562Y11595937D01*
X9462375Y11592255D01*
G37*
%TD.AperFunction*%
%TD*%
%TA.AperFunction,Conductor*%
%TO.N,Net-(C4-Pad1)*%
G36*
X19490593Y9076895D02*
G01*
X20997769Y8328226D01*
X21003653Y8321478D01*
X21004263Y8317749D01*
X21004263Y8082252D01*
X21000836Y8073979D01*
X20997768Y8071774D01*
X19490593Y7323106D01*
X19481659Y7322494D01*
X19475098Y7328016D01*
X19006274Y8194434D01*
X19005352Y8203339D01*
X19006272Y8205562D01*
X19475099Y9071986D01*
X19482049Y9077630D01*
X19490593Y9076895D01*
G37*
%TD.AperFunction*%
%TD*%
%TA.AperFunction,Conductor*%
%TO.N,Net-(C4-Pad1)*%
G36*
X25043057Y9071985D02*
G01*
X25511880Y8205568D01*
X25512803Y8196661D01*
X25511880Y8194432D01*
X25043057Y7328016D01*
X25036106Y7322371D01*
X25027562Y7323106D01*
X23520388Y8071774D01*
X23514503Y8078523D01*
X23513893Y8082252D01*
X23513893Y8317749D01*
X23517320Y8326022D01*
X23520384Y8328225D01*
X25027563Y9076896D01*
X25036496Y9077507D01*
X25043057Y9071985D01*
G37*
%TD.AperFunction*%
%TD*%
%TA.AperFunction,Conductor*%
%TO.N,Net-(Q8-D)*%
G36*
X10472015Y39886662D02*
G01*
X10472447Y39885646D01*
X10796787Y39009878D01*
X10796446Y39000930D01*
X10790269Y38994996D01*
X10410149Y38838493D01*
X10401195Y38838512D01*
X10395183Y38844177D01*
X10032433Y39586952D01*
X10031881Y39595889D01*
X10034671Y39600357D01*
X10204144Y39769830D01*
X10207331Y39772092D01*
X10456398Y39892124D01*
X10465336Y39892628D01*
X10472015Y39886662D01*
G37*
%TD.AperFunction*%
%TD*%
%TA.AperFunction,Conductor*%
%TO.N,Net-(Q7-D)*%
G36*
X78408261Y11192718D02*
G01*
X78721251Y10878946D01*
X78793135Y10806882D01*
X78796552Y10798604D01*
X78794493Y10791991D01*
X78528487Y10405072D01*
X78520976Y10400196D01*
X78518846Y10400000D01*
X78281154Y10400000D01*
X78272881Y10403427D01*
X78271513Y10405072D01*
X78005506Y10791991D01*
X78003643Y10800749D01*
X78006863Y10806881D01*
X78391718Y11192698D01*
X78399985Y11196134D01*
X78408261Y11192718D01*
G37*
%TD.AperFunction*%
%TD*%
%TA.AperFunction,Conductor*%
%TO.N,Net-(Q7-D)*%
G36*
X78841674Y9106573D02*
G01*
X78843414Y9104352D01*
X79291078Y8363764D01*
X79292425Y8354912D01*
X79289083Y8349191D01*
X78723018Y7816545D01*
X78714644Y7813371D01*
X78706982Y7816545D01*
X78477608Y8032377D01*
X78140915Y8349192D01*
X78137239Y8357356D01*
X78138920Y8363762D01*
X78586586Y9104352D01*
X78593799Y9109660D01*
X78596599Y9110000D01*
X78833401Y9110000D01*
X78841674Y9106573D01*
G37*
%TD.AperFunction*%
%TD*%
%TA.AperFunction,Conductor*%
%TO.N,Net-(D4-K)*%
G36*
X74106724Y23714673D02*
G01*
X74114037Y23709507D01*
X74115267Y23706889D01*
X74309803Y23110333D01*
X74309109Y23101405D01*
X74303115Y23095880D01*
X73242202Y22661174D01*
X73233247Y22661208D01*
X73229493Y22663727D01*
X73063580Y22829640D01*
X73060153Y22837913D01*
X73060920Y22842079D01*
X73391447Y23709507D01*
X73446386Y23853690D01*
X73452534Y23860200D01*
X73459897Y23860935D01*
X74106724Y23714673D01*
G37*
%TD.AperFunction*%
%TD*%
%TA.AperFunction,Conductor*%
%TO.N,Net-(D4-K)*%
G36*
X72740843Y22506024D02*
G01*
X72906961Y22339906D01*
X72910388Y22331633D01*
X72909942Y22328434D01*
X72647670Y21405865D01*
X72642112Y21398844D01*
X72635282Y21397419D01*
X71878022Y21471187D01*
X71870120Y21475400D01*
X71868840Y21477312D01*
X71803910Y21598652D01*
X71605154Y21970083D01*
X71604273Y21978992D01*
X71609951Y21985917D01*
X71610500Y21986192D01*
X72727617Y22508351D01*
X72736562Y22508749D01*
X72740843Y22506024D01*
G37*
%TD.AperFunction*%
%TD*%
%TA.AperFunction,Conductor*%
%TO.N,Net-(Q1-D)*%
G36*
X74598145Y37393857D02*
G01*
X75240166Y36928504D01*
X75244854Y36920874D01*
X75245000Y36919031D01*
X75245000Y36680970D01*
X75241573Y36672697D01*
X75240166Y36671497D01*
X74598146Y36206145D01*
X74589437Y36204064D01*
X74582624Y36207746D01*
X74159775Y36672697D01*
X74051158Y36792129D01*
X74048128Y36800554D01*
X74051159Y36807872D01*
X74582626Y37392257D01*
X74590726Y37396070D01*
X74598145Y37393857D01*
G37*
%TD.AperFunction*%
%TD*%
%TA.AperFunction,Conductor*%
%TO.N,Net-(Q1-D)*%
G36*
X77478827Y38582282D02*
G01*
X78032154Y38325004D01*
X78278183Y38210609D01*
X78284240Y38204014D01*
X78283859Y38195067D01*
X78278183Y38189391D01*
X77478832Y37817721D01*
X77469885Y37817340D01*
X77468271Y37818073D01*
X77243524Y37941385D01*
X77021381Y38063269D01*
X77015777Y38070251D01*
X77016753Y38079153D01*
X77022531Y38084334D01*
X77038388Y38090902D01*
X76884530Y38244760D01*
X76881103Y38253033D01*
X76884530Y38261306D01*
X76909969Y38286746D01*
X76913760Y38289278D01*
X77000000Y38325000D01*
X77468272Y38581929D01*
X77477173Y38582904D01*
X77478827Y38582282D01*
G37*
%TD.AperFunction*%
%TD*%
%TA.AperFunction,Conductor*%
%TO.N,Net-(C1-Pad1)*%
G36*
X32326674Y42696573D02*
G01*
X32328414Y42694352D01*
X32776078Y41953764D01*
X32777425Y41944912D01*
X32774083Y41939191D01*
X32208018Y41406545D01*
X32199644Y41403371D01*
X32191982Y41406545D01*
X31962608Y41622377D01*
X31625915Y41939192D01*
X31622239Y41947356D01*
X31623920Y41953762D01*
X32071586Y42694352D01*
X32078799Y42699660D01*
X32081599Y42700000D01*
X32318401Y42700000D01*
X32326674Y42696573D01*
G37*
%TD.AperFunction*%
%TD*%
%TA.AperFunction,Conductor*%
%TO.N,Net-(C1-Pad1)*%
G36*
X26833558Y41296274D02*
G01*
X26836626Y41294069D01*
X27003146Y41127549D01*
X27006573Y41119276D01*
X27005963Y41115547D01*
X26469618Y39520424D01*
X26463733Y39513675D01*
X26455189Y39512940D01*
X25511033Y39794082D01*
X25504082Y39799727D01*
X25503159Y39801956D01*
X25222017Y40746112D01*
X25222940Y40755019D01*
X25229499Y40760541D01*
X26824624Y41296886D01*
X26833558Y41296274D01*
G37*
%TD.AperFunction*%
%TD*%
%TA.AperFunction,Conductor*%
%TO.N,/A2*%
G36*
X48434348Y43918627D02*
G01*
X48800000Y43524999D01*
X48886237Y43489279D01*
X48890033Y43486743D01*
X49092246Y43284530D01*
X49095673Y43276257D01*
X49092246Y43267984D01*
X48933570Y43109308D01*
X48925297Y43105881D01*
X48917024Y43109308D01*
X48915735Y43110839D01*
X48800001Y43275000D01*
X48799999Y43275000D01*
X48434348Y42881374D01*
X48426207Y42877645D01*
X48418255Y42880374D01*
X48143602Y43110839D01*
X47809680Y43391038D01*
X47805547Y43398980D01*
X47808239Y43407521D01*
X47809681Y43408963D01*
X47902374Y43486743D01*
X48418256Y43919628D01*
X48426796Y43922319D01*
X48434348Y43918627D01*
G37*
%TD.AperFunction*%
%TD*%
%TA.AperFunction,Conductor*%
%TO.N,/A2*%
G36*
X55032459Y3722782D02*
G01*
X56465951Y3147101D01*
X56472351Y3140838D01*
X56472448Y3131884D01*
X56470500Y3128660D01*
X56107382Y2702105D01*
X56099410Y2698027D01*
X56096396Y2698175D01*
X55108723Y2876313D01*
X55101190Y2881154D01*
X55099159Y2886656D01*
X55073631Y3141041D01*
X55016457Y3710759D01*
X55019041Y3719331D01*
X55026931Y3723567D01*
X55032459Y3722782D01*
G37*
%TD.AperFunction*%
%TD*%
%TA.AperFunction,Conductor*%
%TO.N,GND*%
G36*
X83952422Y39778064D02*
G01*
X83960518Y39774392D01*
X84481135Y39221111D01*
X84491861Y39209712D01*
X84494281Y39205840D01*
X84494985Y39203982D01*
X84494853Y39195357D01*
X84494275Y39193962D01*
X84491987Y39190423D01*
X83961245Y38626383D01*
X83957528Y38623733D01*
X83954748Y38622481D01*
X83945860Y38622185D01*
X83945065Y38622481D01*
X83755183Y38693208D01*
X83209797Y38896352D01*
X83205911Y38898750D01*
X83203741Y38900769D01*
X83200274Y38906868D01*
X83200263Y38906919D01*
X83200059Y38908825D01*
X83200019Y38908914D01*
X83200043Y38908980D01*
X83200000Y38909386D01*
X83200000Y39489546D01*
X83200889Y39494020D01*
X83202025Y39496762D01*
X83206591Y39502180D01*
X83206639Y39502211D01*
X83208791Y39503276D01*
X83944871Y39777448D01*
X83949368Y39778175D01*
X83952422Y39778064D01*
G37*
%TD.AperFunction*%
%TD*%
%TA.AperFunction,Conductor*%
%TO.N,GND*%
G36*
X85790203Y39503650D02*
G01*
X85794088Y39501252D01*
X85796258Y39499233D01*
X85799677Y39493347D01*
X85799689Y39493296D01*
X85800000Y39490616D01*
X85800000Y38910456D01*
X85799109Y38905978D01*
X85797975Y38903241D01*
X85793514Y38897891D01*
X85793466Y38897860D01*
X85791202Y38896724D01*
X85055131Y38622555D01*
X85050625Y38621827D01*
X85047578Y38621937D01*
X85039479Y38625611D01*
X84726891Y38957810D01*
X84508137Y39190290D01*
X84505718Y39194160D01*
X84505014Y39196017D01*
X84505147Y39204647D01*
X84505726Y39206043D01*
X84508010Y39209577D01*
X85038754Y39773621D01*
X85042466Y39776268D01*
X85045253Y39777523D01*
X85054137Y39777817D01*
X85790203Y39503650D01*
G37*
%TD.AperFunction*%
%TD*%
%TA.AperFunction,Conductor*%
%TO.N,/D23*%
G36*
X83960477Y37774998D02*
G01*
X84492115Y37258630D01*
X84495662Y37250407D01*
X84492356Y37242085D01*
X84491879Y37241621D01*
X83880007Y36679457D01*
X83871596Y36676383D01*
X83865571Y36678358D01*
X83205180Y37121524D01*
X83200220Y37128979D01*
X83200000Y37131239D01*
X83200000Y37368010D01*
X83203427Y37376283D01*
X83206152Y37378312D01*
X83946781Y37776909D01*
X83955689Y37777811D01*
X83960477Y37774998D01*
G37*
%TD.AperFunction*%
%TD*%
%TA.AperFunction,Conductor*%
%TO.N,/D23*%
G36*
X85053761Y37776080D02*
G01*
X85794353Y37328414D01*
X85799660Y37321202D01*
X85800000Y37318402D01*
X85800000Y37081599D01*
X85796573Y37073326D01*
X85794352Y37071586D01*
X85053763Y36623922D01*
X85044911Y36622575D01*
X85039191Y36625917D01*
X84506543Y37191984D01*
X84503370Y37200356D01*
X84506543Y37208017D01*
X85039192Y37774086D01*
X85047355Y37777761D01*
X85053761Y37776080D01*
G37*
%TD.AperFunction*%
%TD*%
%TA.AperFunction,Conductor*%
%TO.N,GND*%
G36*
X83816615Y35244079D02*
G01*
X84489165Y34660273D01*
X84491960Y34656668D01*
X84492757Y34655071D01*
X84493387Y34646141D01*
X84493016Y34645030D01*
X84489673Y34639975D01*
X84055658Y34255766D01*
X84051714Y34253465D01*
X84047929Y34252161D01*
X84042761Y34251602D01*
X83212654Y34348524D01*
X83208313Y34349927D01*
X83206414Y34350986D01*
X83201061Y34357362D01*
X83200649Y34358547D01*
X83200000Y34362389D01*
X83200000Y34940391D01*
X83200890Y34944867D01*
X83202101Y34947791D01*
X83207744Y34953811D01*
X83800735Y35245545D01*
X83805144Y35246722D01*
X83808191Y35246919D01*
X83816615Y35244079D01*
G37*
%TD.AperFunction*%
%TD*%
%TA.AperFunction,Conductor*%
%TO.N,GND*%
G36*
X85790203Y35154406D02*
G01*
X85794088Y35152008D01*
X85796258Y35149989D01*
X85799677Y35144103D01*
X85799689Y35144052D01*
X85800000Y35141372D01*
X85800000Y34561212D01*
X85799109Y34556734D01*
X85797975Y34553997D01*
X85793514Y34548647D01*
X85793466Y34548616D01*
X85791202Y34547480D01*
X85055131Y34273311D01*
X85050625Y34272583D01*
X85047578Y34272693D01*
X85039479Y34276367D01*
X84726891Y34608566D01*
X84508137Y34841046D01*
X84505718Y34844916D01*
X84505014Y34846773D01*
X84505147Y34855403D01*
X84505726Y34856799D01*
X84508010Y34860333D01*
X85038754Y35424377D01*
X85042466Y35427024D01*
X85045253Y35428279D01*
X85054137Y35428573D01*
X85790203Y35154406D01*
G37*
%TD.AperFunction*%
%TD*%
%TA.AperFunction,Conductor*%
%TO.N,/D24*%
G36*
X83861872Y33343457D02*
G01*
X84491506Y32758815D01*
X84495237Y32750674D01*
X84492119Y32742280D01*
X84491267Y32741451D01*
X83960093Y32274851D01*
X83951615Y32271965D01*
X83947386Y32273056D01*
X83206715Y32621838D01*
X83200691Y32628463D01*
X83200000Y32632423D01*
X83200000Y32869033D01*
X83203427Y32877306D01*
X83204826Y32878502D01*
X83847043Y33344355D01*
X83855750Y33346438D01*
X83861872Y33343457D01*
G37*
%TD.AperFunction*%
%TD*%
%TA.AperFunction,Conductor*%
%TO.N,/D24*%
G36*
X85053761Y33426836D02*
G01*
X85794353Y32979170D01*
X85799660Y32971958D01*
X85800000Y32969158D01*
X85800000Y32732355D01*
X85796573Y32724082D01*
X85794352Y32722342D01*
X85053763Y32274678D01*
X85044911Y32273331D01*
X85039191Y32276673D01*
X84506543Y32842740D01*
X84503370Y32851112D01*
X84506543Y32858773D01*
X85039192Y33424842D01*
X85047355Y33428517D01*
X85053761Y33426836D01*
G37*
%TD.AperFunction*%
%TD*%
%TA.AperFunction,Conductor*%
%TO.N,GND*%
G36*
X85790203Y30503650D02*
G01*
X85794088Y30501252D01*
X85796258Y30499233D01*
X85799677Y30493347D01*
X85799689Y30493296D01*
X85800000Y30490616D01*
X85800000Y29910456D01*
X85799109Y29905978D01*
X85797975Y29903241D01*
X85793514Y29897891D01*
X85793466Y29897860D01*
X85791202Y29896724D01*
X85055131Y29622555D01*
X85050625Y29621827D01*
X85047578Y29621937D01*
X85039479Y29625611D01*
X84726891Y29957810D01*
X84508137Y30190290D01*
X84505718Y30194160D01*
X84505014Y30196017D01*
X84505147Y30204647D01*
X84505726Y30206043D01*
X84508010Y30209577D01*
X85038754Y30773621D01*
X85042466Y30776268D01*
X85045253Y30777523D01*
X85054137Y30777817D01*
X85790203Y30503650D01*
G37*
%TD.AperFunction*%
%TD*%
%TA.AperFunction,Conductor*%
%TO.N,GND*%
G36*
X83914316Y30743587D02*
G01*
X83914430Y30743473D01*
X84491065Y30160051D01*
X84493577Y30156245D01*
X84494250Y30154595D01*
X84494249Y30154593D01*
X84494253Y30154589D01*
X84494225Y30150064D01*
X84494202Y30145640D01*
X84494199Y30145634D01*
X84493528Y30144041D01*
X84490898Y30140190D01*
X83960958Y29625471D01*
X83957127Y29622991D01*
X83954097Y29621787D01*
X83946351Y29621473D01*
X83210501Y29846786D01*
X83206482Y29848947D01*
X83204343Y29850711D01*
X83200429Y29856930D01*
X83200342Y29857282D01*
X83200190Y29858525D01*
X83200141Y29858618D01*
X83200168Y29858708D01*
X83200000Y29860089D01*
X83200000Y30439924D01*
X83200890Y30444400D01*
X83202060Y30447225D01*
X83208303Y30453520D01*
X83898531Y30745998D01*
X83902996Y30746924D01*
X83906017Y30746948D01*
X83914316Y30743587D01*
G37*
%TD.AperFunction*%
%TD*%
%TA.AperFunction,Conductor*%
%TO.N,/D25*%
G36*
X85053761Y28776080D02*
G01*
X85794353Y28328414D01*
X85799660Y28321202D01*
X85800000Y28318402D01*
X85800000Y28081599D01*
X85796573Y28073326D01*
X85794352Y28071586D01*
X85053763Y27623922D01*
X85044911Y27622575D01*
X85039191Y27625917D01*
X84506543Y28191984D01*
X84503370Y28200356D01*
X84506543Y28208017D01*
X85039192Y28774086D01*
X85047355Y28777761D01*
X85053761Y28776080D01*
G37*
%TD.AperFunction*%
%TD*%
%TA.AperFunction,Conductor*%
%TO.N,/D25*%
G36*
X83960477Y28774998D02*
G01*
X84492115Y28258630D01*
X84495662Y28250407D01*
X84492356Y28242085D01*
X84491879Y28241621D01*
X83880007Y27679457D01*
X83871596Y27676383D01*
X83865571Y27678358D01*
X83205180Y28121524D01*
X83200220Y28128979D01*
X83200000Y28131239D01*
X83200000Y28368010D01*
X83203427Y28376283D01*
X83206152Y28378312D01*
X83946781Y28776909D01*
X83955689Y28777811D01*
X83960477Y28774998D01*
G37*
%TD.AperFunction*%
%TD*%
%TA.AperFunction,Conductor*%
%TO.N,GND*%
G36*
X83914316Y26243587D02*
G01*
X83914430Y26243473D01*
X84491065Y25660051D01*
X84493577Y25656245D01*
X84494250Y25654595D01*
X84494249Y25654593D01*
X84494253Y25654589D01*
X84494225Y25650064D01*
X84494202Y25645640D01*
X84494199Y25645634D01*
X84493528Y25644041D01*
X84490898Y25640190D01*
X83960958Y25125471D01*
X83957127Y25122991D01*
X83954097Y25121787D01*
X83946351Y25121473D01*
X83210501Y25346786D01*
X83206482Y25348947D01*
X83204343Y25350711D01*
X83200429Y25356930D01*
X83200342Y25357282D01*
X83200190Y25358525D01*
X83200141Y25358618D01*
X83200168Y25358708D01*
X83200000Y25360089D01*
X83200000Y25939924D01*
X83200890Y25944400D01*
X83202060Y25947225D01*
X83208303Y25953520D01*
X83898531Y26245998D01*
X83902996Y26246924D01*
X83906017Y26246948D01*
X83914316Y26243587D01*
G37*
%TD.AperFunction*%
%TD*%
%TA.AperFunction,Conductor*%
%TO.N,GND*%
G36*
X85790203Y26003650D02*
G01*
X85794088Y26001252D01*
X85796258Y25999233D01*
X85799677Y25993347D01*
X85799689Y25993296D01*
X85800000Y25990616D01*
X85800000Y25410456D01*
X85799109Y25405978D01*
X85797975Y25403241D01*
X85793514Y25397891D01*
X85793466Y25397860D01*
X85791202Y25396724D01*
X85055131Y25122555D01*
X85050625Y25121827D01*
X85047578Y25121937D01*
X85039479Y25125611D01*
X84726891Y25457810D01*
X84508137Y25690290D01*
X84505718Y25694160D01*
X84505014Y25696017D01*
X84505147Y25704647D01*
X84505726Y25706043D01*
X84508010Y25709577D01*
X85038754Y26273621D01*
X85042466Y26276268D01*
X85045253Y26277523D01*
X85054137Y26277817D01*
X85790203Y26003650D01*
G37*
%TD.AperFunction*%
%TD*%
%TA.AperFunction,Conductor*%
%TO.N,/D26*%
G36*
X85053761Y24276080D02*
G01*
X85794353Y23828414D01*
X85799660Y23821202D01*
X85800000Y23818402D01*
X85800000Y23581599D01*
X85796573Y23573326D01*
X85794352Y23571586D01*
X85053763Y23123922D01*
X85044911Y23122575D01*
X85039191Y23125917D01*
X84506543Y23691984D01*
X84503370Y23700356D01*
X84506543Y23708017D01*
X85039192Y24274086D01*
X85047355Y24277761D01*
X85053761Y24276080D01*
G37*
%TD.AperFunction*%
%TD*%
%TA.AperFunction,Conductor*%
%TO.N,/D26*%
G36*
X83960477Y24274998D02*
G01*
X84492115Y23758630D01*
X84495662Y23750407D01*
X84492356Y23742085D01*
X84491879Y23741621D01*
X83880007Y23179457D01*
X83871596Y23176383D01*
X83865571Y23178358D01*
X83205180Y23621524D01*
X83200220Y23628979D01*
X83200000Y23631239D01*
X83200000Y23868010D01*
X83203427Y23876283D01*
X83206152Y23878312D01*
X83946781Y24276909D01*
X83955689Y24277811D01*
X83960477Y24274998D01*
G37*
%TD.AperFunction*%
%TD*%
%TA.AperFunction,Conductor*%
%TO.N,GND*%
G36*
X83914316Y21743587D02*
G01*
X83914430Y21743473D01*
X84491065Y21160051D01*
X84493577Y21156245D01*
X84494250Y21154595D01*
X84494249Y21154593D01*
X84494253Y21154589D01*
X84494225Y21150064D01*
X84494202Y21145640D01*
X84494199Y21145634D01*
X84493528Y21144041D01*
X84490898Y21140190D01*
X83960958Y20625471D01*
X83957127Y20622991D01*
X83954097Y20621787D01*
X83946351Y20621473D01*
X83210501Y20846786D01*
X83206482Y20848947D01*
X83204343Y20850711D01*
X83200429Y20856930D01*
X83200342Y20857282D01*
X83200190Y20858525D01*
X83200141Y20858618D01*
X83200168Y20858708D01*
X83200000Y20860089D01*
X83200000Y21439924D01*
X83200890Y21444400D01*
X83202060Y21447225D01*
X83208303Y21453520D01*
X83898531Y21745998D01*
X83902996Y21746924D01*
X83906017Y21746948D01*
X83914316Y21743587D01*
G37*
%TD.AperFunction*%
%TD*%
%TA.AperFunction,Conductor*%
%TO.N,GND*%
G36*
X85790203Y21503650D02*
G01*
X85794088Y21501252D01*
X85796258Y21499233D01*
X85799677Y21493347D01*
X85799689Y21493296D01*
X85800000Y21490616D01*
X85800000Y20910456D01*
X85799109Y20905978D01*
X85797975Y20903241D01*
X85793514Y20897891D01*
X85793466Y20897860D01*
X85791202Y20896724D01*
X85055131Y20622555D01*
X85050625Y20621827D01*
X85047578Y20621937D01*
X85039479Y20625611D01*
X84726891Y20957810D01*
X84508137Y21190290D01*
X84505718Y21194160D01*
X84505014Y21196017D01*
X84505147Y21204647D01*
X84505726Y21206043D01*
X84508010Y21209577D01*
X85038754Y21773621D01*
X85042466Y21776268D01*
X85045253Y21777523D01*
X85054137Y21777817D01*
X85790203Y21503650D01*
G37*
%TD.AperFunction*%
%TD*%
%TA.AperFunction,Conductor*%
%TO.N,/D27*%
G36*
X83960477Y19774998D02*
G01*
X84492115Y19258630D01*
X84495662Y19250407D01*
X84492356Y19242085D01*
X84491879Y19241621D01*
X83880007Y18679457D01*
X83871596Y18676383D01*
X83865571Y18678358D01*
X83205180Y19121524D01*
X83200220Y19128979D01*
X83200000Y19131239D01*
X83200000Y19368010D01*
X83203427Y19376283D01*
X83206152Y19378312D01*
X83946781Y19776909D01*
X83955689Y19777811D01*
X83960477Y19774998D01*
G37*
%TD.AperFunction*%
%TD*%
%TA.AperFunction,Conductor*%
%TO.N,/D27*%
G36*
X85053761Y19776080D02*
G01*
X85794353Y19328414D01*
X85799660Y19321202D01*
X85800000Y19318402D01*
X85800000Y19081599D01*
X85796573Y19073326D01*
X85794352Y19071586D01*
X85053763Y18623922D01*
X85044911Y18622575D01*
X85039191Y18625917D01*
X84506543Y19191984D01*
X84503370Y19200356D01*
X84506543Y19208017D01*
X85039192Y19774086D01*
X85047355Y19777761D01*
X85053761Y19776080D01*
G37*
%TD.AperFunction*%
%TD*%
%TA.AperFunction,Conductor*%
%TO.N,GND*%
G36*
X85790203Y17003650D02*
G01*
X85794088Y17001252D01*
X85796258Y16999233D01*
X85799677Y16993347D01*
X85799689Y16993296D01*
X85800000Y16990616D01*
X85800000Y16410456D01*
X85799109Y16405978D01*
X85797975Y16403241D01*
X85793514Y16397891D01*
X85793466Y16397860D01*
X85791202Y16396724D01*
X85055131Y16122555D01*
X85050625Y16121827D01*
X85047578Y16121937D01*
X85039479Y16125611D01*
X84726891Y16457810D01*
X84508137Y16690290D01*
X84505718Y16694160D01*
X84505014Y16696017D01*
X84505147Y16704647D01*
X84505726Y16706043D01*
X84508010Y16709577D01*
X85038754Y17273621D01*
X85042466Y17276268D01*
X85045253Y17277523D01*
X85054137Y17277817D01*
X85790203Y17003650D01*
G37*
%TD.AperFunction*%
%TD*%
%TA.AperFunction,Conductor*%
%TO.N,GND*%
G36*
X83914316Y17243587D02*
G01*
X83914430Y17243473D01*
X84491065Y16660051D01*
X84493577Y16656245D01*
X84494250Y16654595D01*
X84494249Y16654593D01*
X84494253Y16654589D01*
X84494225Y16650064D01*
X84494202Y16645640D01*
X84494199Y16645634D01*
X84493528Y16644041D01*
X84490898Y16640190D01*
X83960958Y16125471D01*
X83957127Y16122991D01*
X83954097Y16121787D01*
X83946351Y16121473D01*
X83210501Y16346786D01*
X83206482Y16348947D01*
X83204343Y16350711D01*
X83200429Y16356930D01*
X83200342Y16357282D01*
X83200190Y16358525D01*
X83200141Y16358618D01*
X83200168Y16358708D01*
X83200000Y16360089D01*
X83200000Y16939924D01*
X83200890Y16944400D01*
X83202060Y16947225D01*
X83208303Y16953520D01*
X83898531Y17245998D01*
X83902996Y17246924D01*
X83906017Y17246948D01*
X83914316Y17243587D01*
G37*
%TD.AperFunction*%
%TD*%
%TA.AperFunction,Conductor*%
%TO.N,/D28*%
G36*
X83958982Y15275876D02*
G01*
X83959258Y15275714D01*
X83961487Y15274017D01*
X84490446Y14760251D01*
X84493038Y14756491D01*
X84493743Y14754856D01*
X84493872Y14745902D01*
X84493871Y14745901D01*
X84493326Y14744530D01*
X84490370Y14740236D01*
X83881719Y14181031D01*
X83877819Y14178658D01*
X83875403Y14177775D01*
X83867740Y14177647D01*
X83867103Y14177856D01*
X83864230Y14179258D01*
X83207111Y14620228D01*
X83203889Y14623464D01*
X83202832Y14625052D01*
X83201957Y14626369D01*
X83200000Y14632847D01*
X83200000Y14865683D01*
X83200889Y14870157D01*
X83202131Y14873156D01*
X83207393Y14878980D01*
X83944735Y15275808D01*
X83949094Y15277144D01*
X83951881Y15277426D01*
X83958982Y15275876D01*
G37*
%TD.AperFunction*%
%TD*%
%TA.AperFunction,Conductor*%
%TO.N,/D28*%
G36*
X85053761Y15276080D02*
G01*
X85794353Y14828414D01*
X85799660Y14821202D01*
X85800000Y14818402D01*
X85800000Y14581599D01*
X85796573Y14573326D01*
X85794352Y14571586D01*
X85053763Y14123922D01*
X85044911Y14122575D01*
X85039191Y14125917D01*
X84506543Y14691984D01*
X84503370Y14700356D01*
X84506543Y14708017D01*
X85039192Y15274086D01*
X85047355Y15277761D01*
X85053761Y15276080D01*
G37*
%TD.AperFunction*%
%TD*%
%TA.AperFunction,Conductor*%
%TO.N,GND*%
G36*
X85790203Y12503650D02*
G01*
X85794088Y12501252D01*
X85796258Y12499233D01*
X85799677Y12493347D01*
X85799689Y12493296D01*
X85800000Y12490616D01*
X85800000Y11910456D01*
X85799109Y11905978D01*
X85797975Y11903241D01*
X85793514Y11897891D01*
X85793466Y11897860D01*
X85791202Y11896724D01*
X85055131Y11622555D01*
X85050625Y11621827D01*
X85047578Y11621937D01*
X85039479Y11625611D01*
X84726891Y11957810D01*
X84508137Y12190290D01*
X84505718Y12194160D01*
X84505014Y12196017D01*
X84505147Y12204647D01*
X84505726Y12206043D01*
X84508010Y12209577D01*
X85038754Y12773621D01*
X85042466Y12776268D01*
X85045253Y12777523D01*
X85054137Y12777817D01*
X85790203Y12503650D01*
G37*
%TD.AperFunction*%
%TD*%
%TA.AperFunction,Conductor*%
%TO.N,GND*%
G36*
X83914316Y12743587D02*
G01*
X83914430Y12743473D01*
X84491065Y12160051D01*
X84493577Y12156245D01*
X84494250Y12154595D01*
X84494249Y12154593D01*
X84494253Y12154589D01*
X84494225Y12150064D01*
X84494202Y12145640D01*
X84494199Y12145634D01*
X84493528Y12144041D01*
X84490898Y12140190D01*
X83960958Y11625471D01*
X83957127Y11622991D01*
X83954097Y11621787D01*
X83946351Y11621473D01*
X83210501Y11846786D01*
X83206482Y11848947D01*
X83204343Y11850711D01*
X83200429Y11856930D01*
X83200342Y11857282D01*
X83200190Y11858525D01*
X83200141Y11858618D01*
X83200168Y11858708D01*
X83200000Y11860089D01*
X83200000Y12439924D01*
X83200890Y12444400D01*
X83202060Y12447225D01*
X83208303Y12453520D01*
X83898531Y12745998D01*
X83902996Y12746924D01*
X83906017Y12746948D01*
X83914316Y12743587D01*
G37*
%TD.AperFunction*%
%TD*%
%TA.AperFunction,Conductor*%
%TO.N,/D29*%
G36*
X83960477Y10774998D02*
G01*
X84492115Y10258630D01*
X84495662Y10250407D01*
X84492356Y10242085D01*
X84491879Y10241621D01*
X83880007Y9679457D01*
X83871596Y9676383D01*
X83865571Y9678358D01*
X83205180Y10121524D01*
X83200220Y10128979D01*
X83200000Y10131239D01*
X83200000Y10368010D01*
X83203427Y10376283D01*
X83206152Y10378312D01*
X83946781Y10776909D01*
X83955689Y10777811D01*
X83960477Y10774998D01*
G37*
%TD.AperFunction*%
%TD*%
%TA.AperFunction,Conductor*%
%TO.N,/D29*%
G36*
X85053761Y10776080D02*
G01*
X85794353Y10328414D01*
X85799660Y10321202D01*
X85800000Y10318402D01*
X85800000Y10081599D01*
X85796573Y10073326D01*
X85794352Y10071586D01*
X85053763Y9623922D01*
X85044911Y9622575D01*
X85039191Y9625917D01*
X84506543Y10191984D01*
X84503370Y10200356D01*
X84506543Y10208017D01*
X85039192Y10774086D01*
X85047355Y10777761D01*
X85053761Y10776080D01*
G37*
%TD.AperFunction*%
%TD*%
%TA.AperFunction,Conductor*%
%TO.N,/A2*%
G36*
X43861592Y43521573D02*
G01*
X43865019Y43513300D01*
X43865019Y43288351D01*
X43861592Y43280078D01*
X43853319Y43276651D01*
X43851784Y43276752D01*
X43588388Y43311613D01*
X43448300Y42537057D01*
X43443456Y42529526D01*
X43435695Y42527490D01*
X42706392Y42595836D01*
X42698475Y42600020D01*
X42695835Y42606393D01*
X42627489Y43335696D01*
X42630129Y43344253D01*
X42637054Y43348301D01*
X43411612Y43488388D01*
X43497849Y43524110D01*
X43502326Y43525000D01*
X43853319Y43525000D01*
X43861592Y43521573D01*
G37*
%TD.AperFunction*%
%TD*%
%TA.AperFunction,Conductor*%
%TO.N,+5V*%
G36*
X40151975Y43864239D02*
G01*
X40564238Y43451976D01*
X40567665Y43443703D01*
X40566398Y43438408D01*
X39966818Y42257047D01*
X39960018Y42251220D01*
X39951090Y42251909D01*
X39950930Y42251991D01*
X39299946Y42595051D01*
X39295050Y42599947D01*
X39272582Y42642582D01*
X38951989Y43250933D01*
X38951165Y43259848D01*
X38956885Y43266737D01*
X40138409Y43866400D01*
X40147335Y43867088D01*
X40151975Y43864239D01*
G37*
%TD.AperFunction*%
%TD*%
%TA.AperFunction,Conductor*%
%TO.N,+5V*%
G36*
X38805524Y42792013D02*
G01*
X39867628Y42131746D01*
X39872845Y42124468D01*
X39871387Y42115633D01*
X39869977Y42113798D01*
X39103466Y41298135D01*
X39095303Y41294453D01*
X39094940Y41294447D01*
X38512163Y41294447D01*
X38503890Y41297874D01*
X38500463Y41306147D01*
X38500472Y41306601D01*
X38553341Y42666569D01*
X38557085Y42674700D01*
X38559834Y42676594D01*
X38794166Y42792561D01*
X38803098Y42793158D01*
X38805524Y42792013D01*
G37*
%TD.AperFunction*%
%TD*%
%TA.AperFunction,Conductor*%
%TO.N,Net-(DB1-K)*%
G36*
X6560807Y31474085D02*
G01*
X6877623Y31137392D01*
X7093455Y30908018D01*
X7096629Y30899644D01*
X7093455Y30891982D01*
X6560809Y30325917D01*
X6552644Y30322240D01*
X6546236Y30323922D01*
X5805648Y30771586D01*
X5800340Y30778799D01*
X5800000Y30781599D01*
X5800000Y31018402D01*
X5803427Y31026675D01*
X5805642Y31028411D01*
X6546238Y31476080D01*
X6555088Y31477426D01*
X6560807Y31474085D01*
G37*
%TD.AperFunction*%
%TD*%
%TA.AperFunction,Conductor*%
%TO.N,Net-(Q9-D)*%
G36*
X7653761Y29476080D02*
G01*
X8394353Y29028414D01*
X8399660Y29021202D01*
X8400000Y29018402D01*
X8400000Y28781599D01*
X8396573Y28773326D01*
X8394352Y28771586D01*
X7653763Y28323922D01*
X7644911Y28322575D01*
X7639191Y28325917D01*
X7106543Y28891984D01*
X7103370Y28900356D01*
X7106543Y28908017D01*
X7639192Y29474086D01*
X7647355Y29477761D01*
X7653761Y29476080D01*
G37*
%TD.AperFunction*%
%TD*%
%TA.AperFunction,Conductor*%
%TO.N,Net-(DA1-K)*%
G36*
X6560477Y42574998D02*
G01*
X7092115Y42058630D01*
X7095662Y42050407D01*
X7092356Y42042085D01*
X7091879Y42041621D01*
X6480007Y41479457D01*
X6471596Y41476383D01*
X6465571Y41478358D01*
X5805180Y41921524D01*
X5800220Y41928979D01*
X5800000Y41931239D01*
X5800000Y42168010D01*
X5803427Y42176283D01*
X5806152Y42178312D01*
X6546781Y42576909D01*
X6555689Y42577811D01*
X6560477Y42574998D01*
G37*
%TD.AperFunction*%
%TD*%
%TA.AperFunction,Conductor*%
%TO.N,Net-(Q8-D)*%
G36*
X7653761Y40576080D02*
G01*
X8394353Y40128414D01*
X8399660Y40121202D01*
X8400000Y40118402D01*
X8400000Y39881599D01*
X8396573Y39873326D01*
X8394352Y39871586D01*
X7653763Y39423922D01*
X7644911Y39422575D01*
X7639191Y39425917D01*
X7106543Y39991984D01*
X7103370Y40000356D01*
X7106543Y40008017D01*
X7639192Y40574086D01*
X7647355Y40577761D01*
X7653761Y40576080D01*
G37*
%TD.AperFunction*%
%TD*%
M02*
