%TF.GenerationSoftware,KiCad,Pcbnew,10.0.1*%
%TF.CreationDate,2026-05-19T21:18:18+07:00*%
%TF.ProjectId,ExpansionBoard-V2.0,45787061-6e73-4696-9f6e-426f6172642d,rev?*%
%TF.SameCoordinates,PX5f5e100PY5f5e100*%
%TF.FileFunction,Paste,Top*%
%TF.FilePolarity,Positive*%
%FSLAX46Y46*%
G04 Gerber Fmt 4.6, Leading zero omitted, Abs format (unit mm)*
G04 Created by KiCad (PCBNEW 10.0.1) date 2026-05-19 21:18:18*
%MOMM*%
%LPD*%
G01*
G04 APERTURE LIST*
G04 Aperture macros list*
%AMRoundRect*
0 Rectangle with rounded corners*
0 $1 Rounding radius*
0 $2 $3 $4 $5 $6 $7 $8 $9 X,Y pos of 4 corners*
0 Add a 4 corners polygon primitive as box body*
4,1,4,$2,$3,$4,$5,$6,$7,$8,$9,$2,$3,0*
0 Add four circle primitives for the rounded corners*
1,1,$1+$1,$2,$3*
1,1,$1+$1,$4,$5*
1,1,$1+$1,$6,$7*
1,1,$1+$1,$8,$9*
0 Add four rect primitives between the rounded corners*
20,1,$1+$1,$2,$3,$4,$5,0*
20,1,$1+$1,$4,$5,$6,$7,0*
20,1,$1+$1,$6,$7,$8,$9,0*
20,1,$1+$1,$8,$9,$2,$3,0*%
G04 Aperture macros list end*
%ADD10RoundRect,0.250000X0.337500X0.475000X-0.337500X0.475000X-0.337500X-0.475000X0.337500X-0.475000X0*%
%ADD11RoundRect,0.250000X-0.350000X-0.450000X0.350000X-0.450000X0.350000X0.450000X-0.350000X0.450000X0*%
%ADD12RoundRect,0.250000X0.350000X0.450000X-0.350000X0.450000X-0.350000X-0.450000X0.350000X-0.450000X0*%
%ADD13RoundRect,0.200000X0.750000X0.200000X-0.750000X0.200000X-0.750000X-0.200000X0.750000X-0.200000X0*%
%ADD14RoundRect,0.250000X0.450000X-0.350000X0.450000X0.350000X-0.450000X0.350000X-0.450000X-0.350000X0*%
%ADD15RoundRect,0.250000X0.325000X0.450000X-0.325000X0.450000X-0.325000X-0.450000X0.325000X-0.450000X0*%
%ADD16RoundRect,0.250000X-0.450000X0.325000X-0.450000X-0.325000X0.450000X-0.325000X0.450000X0.325000X0*%
%ADD17RoundRect,0.250000X-0.450000X0.350000X-0.450000X-0.350000X0.450000X-0.350000X0.450000X0.350000X0*%
%ADD18RoundRect,0.200000X0.200000X-0.750000X0.200000X0.750000X-0.200000X0.750000X-0.200000X-0.750000X0*%
%ADD19RoundRect,0.200000X-0.200000X0.750000X-0.200000X-0.750000X0.200000X-0.750000X0.200000X0.750000X0*%
G04 APERTURE END LIST*
D10*
%TO.C,C2*%
X30162500Y34000000D03*
X32237500Y34000000D03*
%TD*%
D11*
%TO.C,R12*%
X32200000Y31200000D03*
X30200000Y31200000D03*
%TD*%
D12*
%TO.C,R11*%
X30200000Y28200000D03*
X32200000Y28200000D03*
%TD*%
D11*
%TO.C,R9*%
X30200000Y41400000D03*
X32200000Y41400000D03*
%TD*%
D12*
%TO.C,R8*%
X32200000Y38600000D03*
X30200000Y38600000D03*
%TD*%
D10*
%TO.C,C1*%
X32237500Y44200000D03*
X30162500Y44200000D03*
%TD*%
D11*
%TO.C,R3*%
X72045000Y26400000D03*
X74045000Y26400000D03*
%TD*%
D13*
%TO.C,Q2*%
X81300000Y32750000D03*
X81300000Y34650000D03*
X78300000Y33700000D03*
%TD*%
D11*
%TO.C,R17*%
X30200000Y21000000D03*
X32200000Y21000000D03*
%TD*%
D14*
%TO.C,R28*%
X84500000Y37200000D03*
X84500000Y39200000D03*
%TD*%
D13*
%TO.C,Q3*%
X81300000Y28250000D03*
X81300000Y30150000D03*
X78300000Y29200000D03*
%TD*%
D11*
%TO.C,R5*%
X72045000Y16200000D03*
X74045000Y16200000D03*
%TD*%
D13*
%TO.C,Q0*%
X81300000Y41750000D03*
X81300000Y43650000D03*
X78300000Y42700000D03*
%TD*%
D15*
%TO.C,D7*%
X74025000Y8500000D03*
X71975000Y8500000D03*
%TD*%
D16*
%TO.C,DA1*%
X4550000Y42050000D03*
X4550000Y40000000D03*
%TD*%
D11*
%TO.C,R6*%
X72045000Y11100000D03*
X74045000Y11100000D03*
%TD*%
D15*
%TO.C,D1*%
X74025000Y39300000D03*
X71975000Y39300000D03*
%TD*%
%TO.C,D0*%
X74025000Y44325000D03*
X71975000Y44325000D03*
%TD*%
D14*
%TO.C,R21*%
X84500000Y23700000D03*
X84500000Y25700000D03*
%TD*%
D11*
%TO.C,R2*%
X72045000Y31600000D03*
X74045000Y31600000D03*
%TD*%
D17*
%TO.C,R27*%
X7100000Y30900000D03*
X7100000Y28900000D03*
%TD*%
D12*
%TO.C,R16*%
X32200000Y18200000D03*
X30200000Y18200000D03*
%TD*%
D13*
%TO.C,Q4*%
X81300000Y23750000D03*
X81300000Y25650000D03*
X78300000Y24700000D03*
%TD*%
D14*
%TO.C,R13*%
X84500000Y14700000D03*
X84500000Y16700000D03*
%TD*%
D18*
%TO.C,Q10*%
X5350000Y7200000D03*
X7250000Y7200000D03*
X6300000Y10200000D03*
%TD*%
D14*
%TO.C,R18*%
X84500000Y19200000D03*
X84500000Y21200000D03*
%TD*%
D12*
%TO.C,R29*%
X12000000Y8000000D03*
X10000000Y8000000D03*
%TD*%
D14*
%TO.C,R30*%
X84500000Y41700000D03*
X84500000Y43700000D03*
%TD*%
D19*
%TO.C,Q9*%
X11750000Y31500000D03*
X9850000Y31500000D03*
X10800000Y28500000D03*
%TD*%
D17*
%TO.C,R24*%
X7100000Y42000000D03*
X7100000Y40000000D03*
%TD*%
D14*
%TO.C,R10*%
X84500000Y10200000D03*
X84500000Y12200000D03*
%TD*%
D19*
%TO.C,Q8*%
X11750000Y42000000D03*
X9850000Y42000000D03*
X10800000Y39000000D03*
%TD*%
D13*
%TO.C,Q6*%
X81300000Y14750000D03*
X81300000Y16650000D03*
X78300000Y15700000D03*
%TD*%
%TO.C,Q7*%
X81300000Y10250000D03*
X81300000Y12150000D03*
X78300000Y11200000D03*
%TD*%
D17*
%TO.C,R15*%
X47800000Y43400000D03*
X47800000Y41400000D03*
%TD*%
D11*
%TO.C,R7*%
X76715000Y7810000D03*
X78715000Y7810000D03*
%TD*%
D12*
%TO.C,R26*%
X11800000Y34600000D03*
X9800000Y34600000D03*
%TD*%
D11*
%TO.C,R20*%
X30200000Y11000000D03*
X32200000Y11000000D03*
%TD*%
D15*
%TO.C,D4*%
X74025000Y23800000D03*
X71975000Y23800000D03*
%TD*%
D14*
%TO.C,R25*%
X84500000Y32850756D03*
X84500000Y34850756D03*
%TD*%
D15*
%TO.C,D6*%
X74025000Y13600000D03*
X71975000Y13600000D03*
%TD*%
%TO.C,D2*%
X74025000Y34100000D03*
X71975000Y34100000D03*
%TD*%
D13*
%TO.C,Q1*%
X81300000Y37250000D03*
X81300000Y39150000D03*
X78300000Y38200000D03*
%TD*%
D15*
%TO.C,D5*%
X74025000Y18700000D03*
X71975000Y18700000D03*
%TD*%
D12*
%TO.C,R19*%
X32200000Y8200000D03*
X30200000Y8200000D03*
%TD*%
D11*
%TO.C,R1*%
X72045000Y36800000D03*
X74045000Y36800000D03*
%TD*%
D12*
%TO.C,R23*%
X11800000Y45300000D03*
X9800000Y45300000D03*
%TD*%
D11*
%TO.C,R0*%
X72045000Y41800000D03*
X74045000Y41800000D03*
%TD*%
D13*
%TO.C,Q5*%
X81300000Y19250000D03*
X81300000Y21150000D03*
X78300000Y20200000D03*
%TD*%
D12*
%TO.C,R31*%
X12000000Y11000000D03*
X10000000Y11000000D03*
%TD*%
D10*
%TO.C,C3*%
X32237500Y23800000D03*
X30162500Y23800000D03*
%TD*%
D15*
%TO.C,D3*%
X74025000Y28900000D03*
X71975000Y28900000D03*
%TD*%
D11*
%TO.C,R4*%
X72045000Y21300000D03*
X74045000Y21300000D03*
%TD*%
D14*
%TO.C,R22*%
X84500000Y28200000D03*
X84500000Y30200000D03*
%TD*%
D16*
%TO.C,DB1*%
X4550000Y30900000D03*
X4550000Y28850000D03*
%TD*%
D10*
%TO.C,C4*%
X32237500Y13800000D03*
X30162500Y13800000D03*
%TD*%
M02*
