M48
; DRILL file KiCad 10.0.1 date 2026-05-19T21:18:31
; FORMAT={-:-/ absolute / metric / decimal}
; #@! TF.CreationDate,2026-05-19T21:18:31+07:00
; #@! TF.GenerationSoftware,Kicad,Pcbnew,10.0.1
; #@! TF.FileFunction,Plated,1,2,PTH
FMAT,2
METRIC
; #@! TA.AperFunction,Plated,PTH,ViaDrill
T1C0.400
; #@! TA.AperFunction,Plated,PTH,ComponentDrill
T2C0.750
; #@! TA.AperFunction,Plated,PTH,ComponentDrill
T3C0.800
; #@! TA.AperFunction,Plated,PTH,ComponentDrill
T4C1.000
; #@! TA.AperFunction,Plated,PTH,ComponentDrill
T5C1.100
%
G90
G05
T1
X7.825Y34.6
X7.85Y45.3
X8.675Y9.475
X86.2Y39.6
X86.6Y45.0
X86.6Y35.6
X86.6Y30.8
X86.6Y26.0
X86.6Y21.8
X86.6Y17.4
X86.6Y12.8
T2
X53.6Y43.2
X53.6Y35.9
X53.6Y28.9
X53.6Y21.65
X53.6Y14.0
X55.6Y43.2
X55.6Y35.9
X55.6Y28.9
X55.6Y21.65
X55.6Y14.0
X57.6Y43.2
X57.6Y35.9
X57.6Y28.9
X57.6Y21.65
X57.6Y14.0
X59.6Y43.2
X59.6Y35.9
X59.6Y28.9
X59.6Y21.65
X59.6Y14.0
X61.6Y21.65
X61.6Y14.0
X63.6Y21.65
X63.6Y14.0
T3
X39.3Y42.6
X40.06Y31.585
X40.06Y15.585
X42.6Y29.045
X42.6Y13.045
X42.7Y42.6
X45.14Y31.585
X45.14Y15.585
T4
X5.029Y19.8
X10.029Y19.8
X18.796Y50.8
X21.336Y50.8
X23.876Y50.8
X26.416Y50.8
X27.94Y2.54
X28.956Y50.8
X30.48Y2.54
X31.496Y50.8
X33.02Y2.54
X34.036Y50.8
X35.56Y2.54
X36.576Y50.8
X38.1Y2.54
X39.116Y50.8
X40.64Y2.54
X41.656Y50.8
X43.18Y2.54
X45.72Y50.8
X45.72Y2.54
X48.26Y50.8
X50.8Y50.8
X50.8Y2.54
X53.34Y50.8
X53.34Y2.54
X55.88Y50.8
X55.88Y2.54
X58.42Y50.8
X58.42Y2.54
X60.96Y50.8
X60.96Y2.54
X63.5Y50.8
X63.5Y2.54
X66.04Y2.54
X68.58Y50.8
X68.58Y2.54
X71.12Y50.8
X73.66Y50.8
X73.66Y2.54
X76.2Y50.8
X76.2Y2.54
X78.74Y50.8
X78.74Y2.54
X81.28Y50.8
X81.28Y2.54
X83.82Y50.8
X83.82Y2.54
X86.36Y50.8
X86.36Y2.54
X88.9Y2.54
X91.44Y2.54
X93.98Y50.8
X93.98Y48.26
X93.98Y45.72
X93.98Y43.18
X93.98Y40.64
X93.98Y38.1
X93.98Y35.56
X93.98Y33.02
X93.98Y30.48
X93.98Y27.94
X93.98Y25.4
X93.98Y22.86
X93.98Y20.32
X93.98Y17.78
X93.98Y15.24
X93.98Y12.7
X93.98Y10.16
X93.98Y7.62
X96.52Y50.8
X96.52Y48.26
X96.52Y45.72
X96.52Y43.18
X96.52Y40.64
X96.52Y38.1
X96.52Y35.56
X96.52Y33.02
X96.52Y30.48
X96.52Y27.94
X96.52Y25.4
X96.52Y22.86
X96.52Y20.32
X96.52Y17.78
X96.52Y15.24
X96.52Y12.7
X96.52Y10.16
X96.52Y7.62
T5
X19.009Y44.3
X19.009Y39.8
X19.009Y33.75
X19.009Y29.25
X19.009Y23.25
X19.009Y18.75
X19.009Y12.7
X19.009Y8.2
X25.509Y44.3
X25.509Y39.8
X25.509Y33.75
X25.509Y29.25
X25.509Y23.25
X25.509Y18.75
X25.509Y12.7
X25.509Y8.2
M30
