%TF.GenerationSoftware,KiCad,Pcbnew,10.0.1*%
%TF.CreationDate,2026-05-19T21:18:18+07:00*%
%TF.ProjectId,ExpansionBoard-V2.0,45787061-6e73-4696-9f6e-426f6172642d,rev?*%
%TF.SameCoordinates,PX5f5e100PY5f5e100*%
%TF.FileFunction,Legend,Bot*%
%TF.FilePolarity,Positive*%
%FSLAX46Y46*%
G04 Gerber Fmt 4.6, Leading zero omitted, Abs format (unit mm)*
G04 Created by KiCad (PCBNEW 10.0.1) date 2026-05-19 21:18:18*
%MOMM*%
%LPD*%
G01*
G04 APERTURE LIST*
%ADD10C,0.000000*%
G04 APERTURE END LIST*
D10*
%TO.C,G\u002A\u002A\u002A*%
G36*
X78005047Y37927404D02*
G01*
X78592259Y37837489D01*
X78909366Y37759877D01*
X79458423Y37573633D01*
X79846025Y37355235D01*
X80075873Y37102250D01*
X80151667Y36812246D01*
X80139846Y36700626D01*
X79994649Y36426074D01*
X79685766Y36183823D01*
X79215295Y35975227D01*
X78585333Y35801639D01*
X78356857Y35757768D01*
X77758625Y35696537D01*
X77164047Y35704352D01*
X76596582Y35774529D01*
X76079689Y35900383D01*
X75636825Y36075231D01*
X75291450Y36292389D01*
X75067022Y36545173D01*
X74987000Y36826899D01*
X75002088Y36948497D01*
X75146819Y37214240D01*
X75425732Y37449069D01*
X75815172Y37646352D01*
X76291481Y37799459D01*
X76831001Y37901757D01*
X77410076Y37946616D01*
X78005047Y37927404D01*
G37*
G36*
X87697368Y32939635D02*
G01*
X88240918Y32829443D01*
X88808199Y32621235D01*
X89370730Y32319360D01*
X89637576Y32133716D01*
X90097063Y31754955D01*
X90568954Y31306948D01*
X91006444Y30835147D01*
X91362728Y30385000D01*
X91509502Y30168749D01*
X91874926Y29527240D01*
X92134296Y28900176D01*
X92287277Y28304078D01*
X92333532Y27755464D01*
X92272725Y27270855D01*
X92104519Y26866769D01*
X91828578Y26559727D01*
X91444566Y26366248D01*
X91046651Y26295210D01*
X90477929Y26328466D01*
X89881592Y26493843D01*
X89274505Y26775738D01*
X88673528Y27158550D01*
X88095525Y27626678D01*
X87557359Y28164520D01*
X87075892Y28756475D01*
X86667987Y29386941D01*
X86350507Y30040317D01*
X86140313Y30701002D01*
X86054269Y31353394D01*
X86061535Y31727673D01*
X86142380Y32142990D01*
X86319035Y32468422D01*
X86606362Y32741332D01*
X86795388Y32848583D01*
X87206030Y32947464D01*
X87697368Y32939635D01*
G37*
G36*
X78448264Y24054618D02*
G01*
X79198289Y23821866D01*
X79871227Y23461105D01*
X80453118Y22984848D01*
X80930001Y22405608D01*
X81287916Y21735899D01*
X81512902Y20988234D01*
X81591000Y20175128D01*
X81583759Y19876612D01*
X81481030Y19103599D01*
X81248078Y18418910D01*
X80873819Y17796109D01*
X80347166Y17208760D01*
X80220235Y17090730D01*
X79740654Y16710418D01*
X79251222Y16441750D01*
X78691110Y16249489D01*
X78574004Y16221631D01*
X78101750Y16154802D01*
X77563836Y16129650D01*
X77036423Y16147606D01*
X76595667Y16210103D01*
X75948601Y16425783D01*
X75287788Y16801091D01*
X74708408Y17297408D01*
X74227629Y17893048D01*
X73862620Y18566325D01*
X73630548Y19295553D01*
X73548583Y20059045D01*
X73587854Y20647866D01*
X73769095Y21423163D01*
X74084646Y22132908D01*
X74520154Y22760973D01*
X75061264Y23291226D01*
X75693623Y23707537D01*
X76402876Y23993776D01*
X77174668Y24133813D01*
X77635112Y24146845D01*
X78448264Y24054618D01*
G37*
G36*
X67425659Y32882656D02*
G01*
X67775520Y32879250D01*
X68005584Y32861688D01*
X68160143Y32818314D01*
X68283494Y32737470D01*
X68419931Y32607500D01*
X68485226Y32537105D01*
X68655770Y32304461D01*
X68752010Y32098441D01*
X68781830Y32016215D01*
X68915349Y31801263D01*
X69102532Y31587698D01*
X69297379Y31424006D01*
X69453891Y31358667D01*
X69500716Y31351211D01*
X69568333Y31274000D01*
X69569399Y31266602D01*
X69658700Y31211792D01*
X69847733Y31189334D01*
X69857714Y31189286D01*
X70072899Y31165968D01*
X70207567Y31112876D01*
X70333597Y31056306D01*
X70603745Y31001663D01*
X70975896Y30958006D01*
X71414553Y30927115D01*
X71884221Y30910766D01*
X72349404Y30910739D01*
X72774607Y30928811D01*
X73124333Y30966761D01*
X73488862Y31035438D01*
X73954219Y31152989D01*
X74348431Y31286859D01*
X74639094Y31425578D01*
X74793799Y31557674D01*
X74845316Y31615727D01*
X75013436Y31756042D01*
X75241000Y31917406D01*
X75395679Y32017239D01*
X75651724Y32167158D01*
X75923105Y32298704D01*
X76282151Y32448792D01*
X76438017Y32484790D01*
X76742910Y32516208D01*
X77137087Y32535338D01*
X77577518Y32542202D01*
X78021173Y32536822D01*
X78425023Y32519220D01*
X78746036Y32489417D01*
X78941183Y32447435D01*
X78974699Y32433749D01*
X79339347Y32279948D01*
X79603080Y32154078D01*
X79819890Y32028047D01*
X80043770Y31873762D01*
X80149658Y31788702D01*
X80395517Y31535203D01*
X80572700Y31278508D01*
X80584100Y31255649D01*
X80721191Y30808589D01*
X80730999Y30333425D01*
X80623319Y29873333D01*
X80407944Y29471493D01*
X80094668Y29171082D01*
X80075465Y29158517D01*
X79614353Y28874833D01*
X79274474Y28705508D01*
X79053422Y28649334D01*
X78958934Y28636172D01*
X78839334Y28564667D01*
X78757006Y28535587D01*
X78536880Y28510151D01*
X78217281Y28492536D01*
X77835107Y28482850D01*
X77427255Y28481200D01*
X77030622Y28487696D01*
X76682107Y28502445D01*
X76418607Y28525557D01*
X76277018Y28557139D01*
X76196565Y28597881D01*
X75978462Y28705705D01*
X75674977Y28854228D01*
X75325667Y29024037D01*
X75092110Y29137825D01*
X74741522Y29310842D01*
X74451197Y29456713D01*
X74267333Y29552375D01*
X74006051Y29691530D01*
X73806216Y29783495D01*
X73658019Y29824985D01*
X73511479Y29834667D01*
X73367974Y29853931D01*
X73251333Y29919334D01*
X73221339Y29936459D01*
X73050134Y29965894D01*
X72760238Y29986920D01*
X72385737Y29999658D01*
X71960716Y30004229D01*
X71519261Y30000753D01*
X71095458Y29989351D01*
X70723392Y29970143D01*
X70437150Y29943250D01*
X70270817Y29908792D01*
X70071573Y29829866D01*
X69864667Y29750184D01*
X69760481Y29709424D01*
X69414314Y29555495D01*
X69046076Y29370123D01*
X68691069Y29173486D01*
X68384593Y28985761D01*
X68161951Y28827127D01*
X68058445Y28717762D01*
X68046105Y28698035D01*
X67931445Y28649143D01*
X67855145Y28608050D01*
X67678855Y28468794D01*
X67436072Y28254318D01*
X67155333Y27988896D01*
X66815657Y27672866D01*
X66433234Y27346550D01*
X66063493Y27057710D01*
X65733630Y26826476D01*
X65470837Y26672974D01*
X65302309Y26617334D01*
X65245498Y26609780D01*
X65123333Y26532667D01*
X65046626Y26479960D01*
X64869333Y26448000D01*
X64732336Y26429472D01*
X64615333Y26363334D01*
X64570625Y26330710D01*
X64386803Y26291534D01*
X64118314Y26280559D01*
X63818728Y26296202D01*
X63541614Y26336879D01*
X63340544Y26401008D01*
X63196609Y26485996D01*
X62859810Y26806763D01*
X62650362Y27226340D01*
X62569024Y27734335D01*
X62616553Y28320354D01*
X62793706Y28974002D01*
X63101241Y29684885D01*
X63192436Y29858763D01*
X63358955Y30154281D01*
X63500247Y30380863D01*
X63529867Y30422053D01*
X63702006Y30630429D01*
X63943610Y30894283D01*
X64228308Y31187953D01*
X64529728Y31485776D01*
X64821496Y31762088D01*
X65077240Y31991227D01*
X65270588Y32147530D01*
X65375166Y32205334D01*
X65435422Y32213627D01*
X65504333Y32276689D01*
X65534630Y32318244D01*
X65680529Y32419711D01*
X65906500Y32539955D01*
X66052022Y32609711D01*
X66295723Y32727896D01*
X66455685Y32807266D01*
X66501504Y32822545D01*
X66707372Y32853337D01*
X67014204Y32874682D01*
X67374318Y32882667D01*
X67425659Y32882656D01*
G37*
G36*
X81961313Y35651878D02*
G01*
X82670810Y35547178D01*
X83375611Y35370315D01*
X84048277Y35132893D01*
X84661375Y34846516D01*
X85187466Y34522790D01*
X85599116Y34173319D01*
X85868887Y33809707D01*
X85902624Y33734930D01*
X85979527Y33410785D01*
X85981726Y33068965D01*
X85906169Y32792711D01*
X85897749Y32777999D01*
X85712142Y32596328D01*
X85400162Y32422367D01*
X85001122Y32274223D01*
X84554333Y32170006D01*
X84483509Y32158094D01*
X84213250Y32104351D01*
X84056547Y32041710D01*
X83968184Y31943237D01*
X83902946Y31782000D01*
X83883159Y31720213D01*
X83802709Y31171564D01*
X83867693Y30577053D01*
X84072585Y29963027D01*
X84411858Y29355833D01*
X84485987Y29254233D01*
X84708782Y29017158D01*
X85015654Y28778384D01*
X85443333Y28507713D01*
X85837329Y28256907D01*
X86490292Y27750470D01*
X87032909Y27206708D01*
X87463710Y26639248D01*
X87781230Y26061719D01*
X87984000Y25487747D01*
X88070554Y24930962D01*
X88039423Y24404990D01*
X87889140Y23923460D01*
X87618239Y23499999D01*
X87225251Y23148236D01*
X86708709Y22881798D01*
X86067146Y22714312D01*
X85569665Y22669197D01*
X84763850Y22726939D01*
X83925938Y22935570D01*
X83074990Y23291413D01*
X82731754Y23480525D01*
X82332351Y23731877D01*
X81951819Y23998998D01*
X81634101Y24250890D01*
X81423141Y24456558D01*
X81213464Y24632727D01*
X80858587Y24827748D01*
X80402269Y25017460D01*
X79879014Y25189225D01*
X79323325Y25330407D01*
X78769707Y25428368D01*
X78029728Y25500391D01*
X77011431Y25495896D01*
X76080991Y25355214D01*
X75226822Y25075274D01*
X74437338Y24653008D01*
X73700955Y24085345D01*
X73191562Y23658054D01*
X72383222Y23103828D01*
X71583367Y22706353D01*
X70801331Y22470825D01*
X70527750Y22429584D01*
X70030936Y22397162D01*
X69506121Y22402422D01*
X69017984Y22443896D01*
X68631201Y22520114D01*
X68385097Y22609738D01*
X68068360Y22797251D01*
X67736506Y23091614D01*
X67568986Y23265775D01*
X67386626Y23497396D01*
X67275658Y23729402D01*
X67198614Y24026945D01*
X67145502Y24612487D01*
X67245436Y25276464D01*
X67514156Y25948605D01*
X67951811Y26629424D01*
X68039452Y26741473D01*
X68710090Y27445613D01*
X69488190Y28032009D01*
X70350357Y28487938D01*
X71273192Y28800678D01*
X72233298Y28957507D01*
X72804468Y28961938D01*
X73463383Y28846841D01*
X74027068Y28598661D01*
X74488485Y28220748D01*
X74840592Y27716453D01*
X74986670Y27466298D01*
X75191507Y27232620D01*
X75458556Y27059951D01*
X75677674Y26955614D01*
X76296566Y26745543D01*
X76968885Y26644533D01*
X77738667Y26644560D01*
X77764332Y26646081D01*
X78373834Y26709967D01*
X78933678Y26819290D01*
X79419930Y26965363D01*
X79808657Y27139499D01*
X80075929Y27333012D01*
X80197811Y27537212D01*
X80339932Y27970029D01*
X80635914Y28438478D01*
X81037682Y28803254D01*
X81225685Y28919320D01*
X81496833Y29058808D01*
X81703348Y29133237D01*
X81774797Y29152181D01*
X81912743Y29235869D01*
X82041507Y29405811D01*
X82193099Y29698984D01*
X82340466Y30062528D01*
X82424665Y30483774D01*
X82397475Y30918186D01*
X82261229Y31424916D01*
X82180310Y31652365D01*
X82000789Y32049295D01*
X81788931Y32341135D01*
X81508455Y32571167D01*
X81123081Y32782672D01*
X81079265Y32803914D01*
X80781843Y32955477D01*
X80540955Y33090119D01*
X80405228Y33180864D01*
X80357720Y33211997D01*
X80160080Y33301808D01*
X79864870Y33411854D01*
X79516228Y33525047D01*
X79234234Y33606187D01*
X78903727Y33682548D01*
X78575283Y33728527D01*
X78191839Y33751450D01*
X77696333Y33758641D01*
X76982400Y33738581D01*
X76296116Y33658060D01*
X75711783Y33510600D01*
X75198667Y33290443D01*
X74835871Y33101057D01*
X74170925Y32775429D01*
X73595275Y32531416D01*
X73075424Y32358801D01*
X72577871Y32247366D01*
X72069118Y32186896D01*
X71515667Y32167173D01*
X71134304Y32172006D01*
X70603147Y32214258D01*
X70189478Y32306126D01*
X69863299Y32455462D01*
X69594614Y32670120D01*
X69400405Y32919661D01*
X69307924Y33230930D01*
X69370567Y33564342D01*
X69590479Y33929421D01*
X69969805Y34335692D01*
X69998936Y34362611D01*
X70599765Y34808863D01*
X71322674Y35173496D01*
X72137620Y35446325D01*
X73014558Y35617168D01*
X73923446Y35675840D01*
X74251190Y35673255D01*
X74598718Y35658578D01*
X74857664Y35624661D01*
X75075083Y35564494D01*
X75298033Y35471065D01*
X75472988Y35378631D01*
X75720607Y35209335D01*
X75876468Y35052836D01*
X75982262Y34928007D01*
X76206162Y34787228D01*
X76530611Y34693111D01*
X76977653Y34640053D01*
X77569333Y34622450D01*
X78053651Y34626328D01*
X78489650Y34648960D01*
X78820175Y34698985D01*
X79079360Y34784696D01*
X79301339Y34914383D01*
X79520245Y35096339D01*
X79597134Y35164456D01*
X79947055Y35405113D01*
X80349177Y35563302D01*
X80840066Y35649972D01*
X81456290Y35676074D01*
X81961313Y35651878D01*
G37*
G36*
X85884335Y11728676D02*
G01*
X85892602Y11017500D01*
X85918537Y8583334D01*
X85528920Y8583334D01*
X85375427Y8588798D01*
X85127536Y8647261D01*
X84931485Y8791152D01*
X84832518Y8905263D01*
X84763064Y9053246D01*
X84731271Y9265940D01*
X84723667Y9595485D01*
X84723667Y10192000D01*
X83214749Y10192000D01*
X83195846Y10192003D01*
X82589886Y10196279D01*
X82125383Y10209967D01*
X81775367Y10234973D01*
X81512867Y10273203D01*
X81310912Y10326563D01*
X81222496Y10360102D01*
X80856657Y10579804D01*
X80580245Y10879451D01*
X80433211Y11218448D01*
X80409107Y11313840D01*
X80344008Y11412794D01*
X80273411Y11349632D01*
X80207735Y11128507D01*
X80114683Y10893538D01*
X79899276Y10628356D01*
X79621961Y10435711D01*
X79334776Y10361334D01*
X79306642Y10360918D01*
X79125196Y10333600D01*
X79051000Y10276667D01*
X78993526Y10253470D01*
X78788917Y10230542D01*
X78458762Y10212824D01*
X78026807Y10200472D01*
X77516801Y10193641D01*
X76952491Y10192487D01*
X76357624Y10197165D01*
X75755950Y10207830D01*
X75171215Y10224638D01*
X74627167Y10247743D01*
X73547667Y10302799D01*
X73547667Y11743566D01*
X73547168Y11885334D01*
X74817667Y11885334D01*
X74817667Y11208000D01*
X74818951Y10922546D01*
X74829961Y10699276D01*
X74861497Y10582572D01*
X74924356Y10537885D01*
X75029333Y10530667D01*
X75168470Y10548450D01*
X75241000Y10602379D01*
X75241039Y10603936D01*
X75294038Y10714712D01*
X75417353Y10877546D01*
X75454495Y10918981D01*
X75522821Y10978258D01*
X75615078Y11022188D01*
X75755490Y11053963D01*
X75968286Y11076774D01*
X76277691Y11093812D01*
X76707934Y11108268D01*
X77283240Y11123334D01*
X77349480Y11125012D01*
X77930016Y11142117D01*
X78364120Y11160898D01*
X78672626Y11183351D01*
X78876371Y11211467D01*
X78996192Y11247241D01*
X79052924Y11292667D01*
X79078082Y11378216D01*
X79106799Y11610975D01*
X79126648Y11940879D01*
X79134012Y12308667D01*
X81591000Y12308667D01*
X81593675Y11938005D01*
X81606771Y11676885D01*
X81637350Y11514361D01*
X81692465Y11414109D01*
X81779172Y11339801D01*
X81810620Y11320229D01*
X81933061Y11274069D01*
X82122110Y11241925D01*
X82403427Y11221639D01*
X82802672Y11211050D01*
X83345506Y11208000D01*
X84723667Y11208000D01*
X84723667Y12139334D01*
X84723504Y12397382D01*
X84713310Y12778391D01*
X84670921Y13049326D01*
X84573483Y13228943D01*
X84398142Y13335997D01*
X84122045Y13389243D01*
X83722340Y13407437D01*
X83176172Y13409334D01*
X82829356Y13409054D01*
X82365288Y13400685D01*
X82034586Y13368846D01*
X81814662Y13297853D01*
X81682929Y13172022D01*
X81616799Y12975670D01*
X81593685Y12693113D01*
X81591125Y12326536D01*
X81591000Y12308667D01*
X79134012Y12308667D01*
X79134370Y12326536D01*
X79133938Y12664249D01*
X79119005Y13007599D01*
X79067410Y13252056D01*
X78957041Y13414413D01*
X78765789Y13511462D01*
X78471544Y13559992D01*
X78052196Y13576797D01*
X77485635Y13578667D01*
X77074486Y13577121D01*
X76650631Y13566661D01*
X76355752Y13540304D01*
X76166699Y13491173D01*
X76060322Y13412395D01*
X76013472Y13297095D01*
X76003000Y13138400D01*
X76003000Y12901334D01*
X76980515Y12901334D01*
X77178564Y12901014D01*
X77542467Y12895718D01*
X77786971Y12879290D01*
X77947168Y12845844D01*
X78058150Y12789494D01*
X78155009Y12704356D01*
X78285030Y12560902D01*
X78474094Y12270492D01*
X78543000Y12017900D01*
X78542955Y12015106D01*
X78523661Y11972098D01*
X78455585Y11939629D01*
X78318638Y11916270D01*
X78092730Y11900591D01*
X77757769Y11891161D01*
X77293667Y11886552D01*
X76680333Y11885334D01*
X74817667Y11885334D01*
X73547168Y11885334D01*
X73545940Y12233984D01*
X73538559Y12646290D01*
X73523266Y12937488D01*
X73497824Y13133052D01*
X73459996Y13258453D01*
X73407545Y13339167D01*
X73360809Y13382675D01*
X73266325Y13431464D01*
X73116872Y13463724D01*
X72883868Y13482722D01*
X72538731Y13491725D01*
X72052878Y13494000D01*
X71836982Y13494447D01*
X71372209Y13492973D01*
X71029530Y13470831D01*
X70790413Y13406808D01*
X70636328Y13279689D01*
X70548741Y13068263D01*
X70509124Y12751315D01*
X70498942Y12307632D01*
X70499493Y11857759D01*
X70499667Y11716000D01*
X70499667Y10276667D01*
X68107833Y10277158D01*
X67979816Y10277241D01*
X67130586Y10281646D01*
X66432656Y10293786D01*
X65870249Y10315140D01*
X65427585Y10347187D01*
X65088886Y10391409D01*
X64838372Y10449284D01*
X64660266Y10522293D01*
X64538788Y10611916D01*
X64444253Y10770145D01*
X64364288Y11071311D01*
X64326443Y11443739D01*
X64332868Y11724764D01*
X65519097Y11724764D01*
X65530908Y11494483D01*
X65593590Y11329470D01*
X65605727Y11317191D01*
X65684368Y11278469D01*
X65831155Y11249671D01*
X66066318Y11229511D01*
X66410088Y11216703D01*
X66882694Y11209962D01*
X67504367Y11208000D01*
X69314333Y11208000D01*
X69314333Y11857759D01*
X69314333Y12507518D01*
X69096083Y12302259D01*
X69059201Y12268344D01*
X68977759Y12206113D01*
X68877241Y12159935D01*
X68732612Y12126520D01*
X68518834Y12102575D01*
X68210872Y12084812D01*
X67783689Y12069940D01*
X67212249Y12054667D01*
X65546667Y12012334D01*
X65519723Y11731636D01*
X65519097Y11724764D01*
X64332868Y11724764D01*
X64335401Y11835572D01*
X64395845Y12194951D01*
X64444097Y12354027D01*
X64523718Y12522696D01*
X64641149Y12649152D01*
X64818310Y12740496D01*
X65077122Y12803826D01*
X65439505Y12846243D01*
X65927380Y12874846D01*
X66562667Y12896735D01*
X68171333Y12943667D01*
X68171333Y13282334D01*
X68171333Y13621000D01*
X66689667Y13663334D01*
X66152634Y13681229D01*
X65693969Y13706141D01*
X65356207Y13741836D01*
X65113857Y13793999D01*
X64941425Y13868316D01*
X64813418Y13970475D01*
X64704342Y14106161D01*
X64631667Y14213475D01*
X64583544Y14310808D01*
X64588778Y14384085D01*
X64663938Y14436702D01*
X64825592Y14472056D01*
X65090307Y14493542D01*
X65474651Y14504556D01*
X65995193Y14508494D01*
X66668500Y14508752D01*
X67184947Y14507737D01*
X67782107Y14502256D01*
X68244399Y14488831D01*
X68591979Y14463909D01*
X68845003Y14423942D01*
X69023627Y14365378D01*
X69148006Y14284666D01*
X69238297Y14178255D01*
X69314656Y14042595D01*
X69441978Y13789212D01*
X69669928Y14050171D01*
X69694096Y14076468D01*
X69946947Y14275444D01*
X70229762Y14410566D01*
X70285546Y14424595D01*
X70561256Y14463459D01*
X70950902Y14491203D01*
X71419110Y14508022D01*
X71930505Y14514109D01*
X72449713Y14509661D01*
X72941357Y14494870D01*
X73370063Y14469932D01*
X73700455Y14435042D01*
X73897160Y14390393D01*
X74106262Y14280987D01*
X74457118Y13960074D01*
X74694168Y13523195D01*
X74723177Y13442532D01*
X74781768Y13298371D01*
X74806907Y13299938D01*
X74813951Y13436067D01*
X74821735Y13536495D01*
X74922984Y13866554D01*
X75109479Y14127253D01*
X75198668Y14202057D01*
X75321060Y14278780D01*
X75473025Y14335704D01*
X75677853Y14375743D01*
X75958835Y14401810D01*
X76339262Y14416822D01*
X76842425Y14423692D01*
X77491615Y14425334D01*
X78042007Y14424831D01*
X78532460Y14421839D01*
X78897794Y14414331D01*
X79161587Y14400286D01*
X79347418Y14377682D01*
X79478867Y14344497D01*
X79579511Y14298710D01*
X79672930Y14238299D01*
X79862971Y14090683D01*
X80119462Y13791655D01*
X80280756Y13412497D01*
X80367512Y13117445D01*
X80472785Y13468817D01*
X80670755Y13851030D01*
X81000465Y14152355D01*
X81432565Y14343602D01*
X81496175Y14357049D01*
X81774241Y14386779D01*
X82186598Y14405994D01*
X82707838Y14413807D01*
X83312548Y14409328D01*
X83390811Y14407930D01*
X84030527Y14389534D01*
X84527273Y14356797D01*
X84904722Y14303147D01*
X85186544Y14222014D01*
X85396413Y14106825D01*
X85558000Y13951011D01*
X85694977Y13748000D01*
X85725172Y13693076D01*
X85769182Y13591404D01*
X85803620Y13464354D01*
X85829975Y13291363D01*
X85849735Y13051864D01*
X85864390Y12725293D01*
X85875427Y12291085D01*
X85877831Y12139334D01*
X85884335Y11728676D01*
G37*
%TD*%
M02*
