%TF.GenerationSoftware,KiCad,Pcbnew,10.0.1*%
%TF.CreationDate,2026-05-19T21:18:18+07:00*%
%TF.ProjectId,ExpansionBoard-V2.0,45787061-6e73-4696-9f6e-426f6172642d,rev?*%
%TF.SameCoordinates,PX5f5e100PY5f5e100*%
%TF.FileFunction,Copper,L2,Bot*%
%TF.FilePolarity,Positive*%
%FSLAX46Y46*%
G04 Gerber Fmt 4.6, Leading zero omitted, Abs format (unit mm)*
G04 Created by KiCad (PCBNEW 10.0.1) date 2026-05-19 21:18:18*
%MOMM*%
%LPD*%
G01*
G04 APERTURE LIST*
G04 Aperture macros list*
%AMRoundRect*
0 Rectangle with rounded corners*
0 $1 Rounding radius*
0 $2 $3 $4 $5 $6 $7 $8 $9 X,Y pos of 4 corners*
0 Add a 4 corners polygon primitive as box body*
4,1,4,$2,$3,$4,$5,$6,$7,$8,$9,$2,$3,0*
0 Add four circle primitives for the rounded corners*
1,1,$1+$1,$2,$3*
1,1,$1+$1,$4,$5*
1,1,$1+$1,$6,$7*
1,1,$1+$1,$8,$9*
0 Add four rect primitives between the rounded corners*
20,1,$1+$1,$2,$3,$4,$5,0*
20,1,$1+$1,$4,$5,$6,$7,0*
20,1,$1+$1,$6,$7,$8,$9,0*
20,1,$1+$1,$8,$9,$2,$3,0*%
G04 Aperture macros list end*
%TA.AperFunction,ComponentPad*%
%ADD10R,1.700000X1.700000*%
%TD*%
%TA.AperFunction,ComponentPad*%
%ADD11O,1.700000X1.700000*%
%TD*%
%TA.AperFunction,ComponentPad*%
%ADD12C,1.440000*%
%TD*%
%TA.AperFunction,ComponentPad*%
%ADD13R,2.000000X2.000000*%
%TD*%
%TA.AperFunction,ComponentPad*%
%ADD14C,2.000000*%
%TD*%
%TA.AperFunction,ComponentPad*%
%ADD15RoundRect,0.250000X-0.350000X-0.625000X0.350000X-0.625000X0.350000X0.625000X-0.350000X0.625000X0*%
%TD*%
%TA.AperFunction,ComponentPad*%
%ADD16O,1.200000X1.750000*%
%TD*%
%TA.AperFunction,ComponentPad*%
%ADD17C,1.500000*%
%TD*%
%TA.AperFunction,ViaPad*%
%ADD18C,0.800000*%
%TD*%
G04 APERTURE END LIST*
D10*
%TO.P,J4,1,Pin_1_1*%
%TO.N,GND*%
X93980000Y7620000D03*
D11*
%TO.P,J4,2,Pin_2_2*%
X96520000Y7620000D03*
%TO.P,J4,3,Pin_3_3*%
%TO.N,/D52*%
X93980000Y10160000D03*
%TO.P,J4,4,Pin_4_4*%
%TO.N,/D53*%
X96520000Y10160000D03*
%TO.P,J4,5,Pin_5_5*%
%TO.N,/D50*%
X93980000Y12700000D03*
%TO.P,J4,6,Pin_6_6*%
%TO.N,/D51*%
X96520000Y12700000D03*
%TO.P,J4,7,Pin_7_7*%
%TO.N,/48*%
X93980000Y15240000D03*
%TO.P,J4,8,Pin_8_8*%
%TO.N,/49*%
X96520000Y15240000D03*
%TO.P,J4,9,Pin_9_9*%
%TO.N,/\u002A46*%
X93980000Y17780000D03*
%TO.P,J4,10,Pin_10_10*%
%TO.N,/47*%
X96520000Y17780000D03*
%TO.P,J4,11,Pin_11_11*%
%TO.N,/\u002A44*%
X93980000Y20320000D03*
%TO.P,J4,12,Pin_12_12*%
%TO.N,/\u002A45*%
X96520000Y20320000D03*
%TO.P,J4,13,Pin_13_13*%
%TO.N,/42*%
X93980000Y22860000D03*
%TO.P,J4,14,Pin_14_14*%
%TO.N,/43*%
X96520000Y22860000D03*
%TO.P,J4,15,Pin_15_15*%
%TO.N,/40*%
X93980000Y25400000D03*
%TO.P,J4,16,Pin_16_16*%
%TO.N,/41*%
X96520000Y25400000D03*
%TO.P,J4,17,Pin_17_17*%
%TO.N,/38*%
X93980000Y27940000D03*
%TO.P,J4,18,Pin_18_18*%
%TO.N,/39*%
X96520000Y27940000D03*
%TO.P,J4,19,Pin_19_19*%
%TO.N,/36*%
X93980000Y30480000D03*
%TO.P,J4,20,Pin_20_20*%
%TO.N,/37*%
X96520000Y30480000D03*
%TO.P,J4,21,Pin_21_21*%
%TO.N,/34*%
X93980000Y33020000D03*
%TO.P,J4,22,Pin_22_22*%
%TO.N,/35*%
X96520000Y33020000D03*
%TO.P,J4,23,Pin_23_23*%
%TO.N,/32*%
X93980000Y35560000D03*
%TO.P,J4,24,Pin_24_24*%
%TO.N,/33*%
X96520000Y35560000D03*
%TO.P,J4,25,Pin_25_25*%
%TO.N,/30*%
X93980000Y38100000D03*
%TO.P,J4,26,Pin_26_26*%
%TO.N,/31*%
X96520000Y38100000D03*
%TO.P,J4,27,Pin_27_27*%
%TO.N,/D28*%
X93980000Y40640000D03*
%TO.P,J4,28,Pin_28_28*%
%TO.N,/D29*%
X96520000Y40640000D03*
%TO.P,J4,29,Pin_29_29*%
%TO.N,/D26*%
X93980000Y43180000D03*
%TO.P,J4,30,Pin_30_30*%
%TO.N,/D27*%
X96520000Y43180000D03*
%TO.P,J4,31,Pin_31_31*%
%TO.N,/D24*%
X93980000Y45720000D03*
%TO.P,J4,32,Pin_32_32*%
%TO.N,/D25*%
X96520000Y45720000D03*
%TO.P,J4,33,Pin_33_33*%
%TO.N,/D22*%
X93980000Y48260000D03*
%TO.P,J4,34,Pin_34_34*%
%TO.N,/D23*%
X96520000Y48260000D03*
%TO.P,J4,35,Pin_35_35*%
%TO.N,+5V*%
X93980000Y50800000D03*
%TO.P,J4,36,Pin_36_36*%
X96520000Y50800000D03*
%TD*%
D10*
%TO.P,J1,1,Pin_1_1*%
%TO.N,unconnected-(J1-Pin_1-Pad1)*%
X27940000Y2540000D03*
D11*
%TO.P,J1,2,Pin_2_2*%
%TO.N,/IOREF*%
X30480000Y2540000D03*
%TO.P,J1,3,Pin_3_3*%
%TO.N,/~{RESET}*%
X33020000Y2540000D03*
%TO.P,J1,4,Pin_4_4*%
%TO.N,+3V3*%
X35560000Y2540000D03*
%TO.P,J1,5,Pin_5_5*%
%TO.N,+5V*%
X38100000Y2540000D03*
%TO.P,J1,6,Pin_6_6*%
%TO.N,GND*%
X40640000Y2540000D03*
%TO.P,J1,7,Pin_7_7*%
X43180000Y2540000D03*
%TO.P,J1,8,Pin_8_8*%
%TO.N,VCC*%
X45720000Y2540000D03*
%TD*%
D10*
%TO.P,J2,1,Pin_1_1*%
%TO.N,/A0*%
X50800000Y2540000D03*
D11*
%TO.P,J2,2,Pin_2_2*%
%TO.N,/A1*%
X53340000Y2540000D03*
%TO.P,J2,3,Pin_3_3*%
%TO.N,/A2*%
X55880000Y2540000D03*
%TO.P,J2,4,Pin_4_4*%
%TO.N,/A3*%
X58420000Y2540000D03*
%TO.P,J2,5,Pin_5_5*%
%TO.N,/A4*%
X60960000Y2540000D03*
%TO.P,J2,6,Pin_6_6*%
%TO.N,/A5*%
X63500000Y2540000D03*
%TO.P,J2,7,Pin_7_7*%
%TO.N,/A6*%
X66040000Y2540000D03*
%TO.P,J2,8,Pin_8_8*%
%TO.N,/A7*%
X68580000Y2540000D03*
%TD*%
D10*
%TO.P,J3,1,Pin_1_1*%
%TO.N,/A8*%
X73660000Y2540000D03*
D11*
%TO.P,J3,2,Pin_2_2*%
%TO.N,/A9*%
X76200000Y2540000D03*
%TO.P,J3,3,Pin_3_3*%
%TO.N,/A10*%
X78740000Y2540000D03*
%TO.P,J3,4,Pin_4_4*%
%TO.N,/A11*%
X81280000Y2540000D03*
%TO.P,J3,5,Pin_5_5*%
%TO.N,/A12*%
X83820000Y2540000D03*
%TO.P,J3,6,Pin_6_6*%
%TO.N,/A13*%
X86360000Y2540000D03*
%TO.P,J3,7,Pin_7_7*%
%TO.N,/A14*%
X88900000Y2540000D03*
%TO.P,J3,8,Pin_8_8*%
%TO.N,/A15*%
X91440000Y2540000D03*
%TD*%
D10*
%TO.P,J5,1,Pin_1_1*%
%TO.N,/SCL{slash}21*%
X18796000Y50800000D03*
D11*
%TO.P,J5,2,Pin_2_2*%
%TO.N,/SDA{slash}20*%
X21336000Y50800000D03*
%TO.P,J5,3,Pin_3_3*%
%TO.N,/AREF*%
X23876000Y50800000D03*
%TO.P,J5,4,Pin_4_4*%
%TO.N,GND*%
X26416000Y50800000D03*
%TO.P,J5,5,Pin_5_5*%
%TO.N,/D13*%
X28956000Y50800000D03*
%TO.P,J5,6,Pin_6_6*%
%TO.N,/D12*%
X31496000Y50800000D03*
%TO.P,J5,7,Pin_7_7*%
%TO.N,/D11*%
X34036000Y50800000D03*
%TO.P,J5,8,Pin_8_8*%
%TO.N,/D10*%
X36576000Y50800000D03*
%TO.P,J5,9,Pin_9_9*%
%TO.N,/D9*%
X39116000Y50800000D03*
%TO.P,J5,10,Pin_10_10*%
%TO.N,/D8*%
X41656000Y50800000D03*
%TD*%
D10*
%TO.P,J6,1,Pin_1_1*%
%TO.N,/D7*%
X45720000Y50800000D03*
D11*
%TO.P,J6,2,Pin_2_2*%
%TO.N,/D6*%
X48260000Y50800000D03*
%TO.P,J6,3,Pin_3_3*%
%TO.N,/D5*%
X50800000Y50800000D03*
%TO.P,J6,4,Pin_4_4*%
%TO.N,/D4*%
X53340000Y50800000D03*
%TO.P,J6,5,Pin_5_5*%
%TO.N,/D3*%
X55880000Y50800000D03*
%TO.P,J6,6,Pin_6_6*%
%TO.N,/D2*%
X58420000Y50800000D03*
%TO.P,J6,7,Pin_7_7*%
%TO.N,/TX0{slash}1*%
X60960000Y50800000D03*
%TO.P,J6,8,Pin_8_8*%
%TO.N,/RX0{slash}0*%
X63500000Y50800000D03*
%TD*%
D10*
%TO.P,J7,1,Pin_1_1*%
%TO.N,/TX3{slash}14*%
X68580000Y50800000D03*
D11*
%TO.P,J7,2,Pin_2_2*%
%TO.N,/RX3{slash}15*%
X71120000Y50800000D03*
%TO.P,J7,3,Pin_3_3*%
%TO.N,/TX2{slash}16*%
X73660000Y50800000D03*
%TO.P,J7,4,Pin_4_4*%
%TO.N,/RX2{slash}17*%
X76200000Y50800000D03*
%TO.P,J7,5,Pin_5_5*%
%TO.N,/TX1{slash}18*%
X78740000Y50800000D03*
%TO.P,J7,6,Pin_6_6*%
%TO.N,/RX1{slash}19*%
X81280000Y50800000D03*
%TO.P,J7,7,Pin_7_7*%
%TO.N,/SDA{slash}20*%
X83820000Y50800000D03*
%TO.P,J7,8,Pin_8_8*%
%TO.N,/SCL{slash}21*%
X86360000Y50800000D03*
%TD*%
D12*
%TO.P,RV2,1,1_1*%
%TO.N,+5V*%
X40060000Y31585000D03*
%TO.P,RV2,2,2_2*%
%TO.N,/A1*%
X42600000Y29045000D03*
%TO.P,RV2,3,3_3*%
%TO.N,GND*%
X45140000Y31585000D03*
%TD*%
%TO.P,RV1,1,1_1*%
%TO.N,+5V*%
X40060000Y15585000D03*
%TO.P,RV1,2,2_2*%
%TO.N,/A0*%
X42600000Y13045000D03*
%TO.P,RV1,3,3_3*%
%TO.N,GND*%
X45140000Y15585000D03*
%TD*%
D13*
%TO.P,BZ1,1,+_1*%
%TO.N,+5V*%
X5029216Y19800000D03*
D14*
%TO.P,BZ1,2,-_2*%
%TO.N,Net-(BZ1--)*%
X10029216Y19800000D03*
%TD*%
D15*
%TO.P,J11,1,Pin_1_1*%
%TO.N,GND*%
X53600000Y35900000D03*
D16*
%TO.P,J11,2,Pin_2_2*%
%TO.N,+5V*%
X55600000Y35900000D03*
%TO.P,J11,3,Pin_3_3*%
%TO.N,/SDA{slash}20*%
X57600000Y35900000D03*
%TO.P,J11,4,Pin_4_4*%
%TO.N,/SCL{slash}21*%
X59600000Y35900000D03*
%TD*%
D14*
%TO.P,SW4,1,1_1*%
%TO.N,GND*%
X19009078Y12700000D03*
X25509078Y12700000D03*
%TO.P,SW4,2,2_2*%
%TO.N,Net-(C4-Pad1)*%
X19009078Y8200000D03*
X25509078Y8200000D03*
%TD*%
D15*
%TO.P,J10,1,Pin_1_1*%
%TO.N,GND*%
X53600000Y43200000D03*
D16*
%TO.P,J10,2,Pin_2_2*%
%TO.N,+5V*%
X55600000Y43200000D03*
%TO.P,J10,3,Pin_3_3*%
%TO.N,/TX1{slash}18*%
X57600000Y43200000D03*
%TO.P,J10,4,Pin_4_4*%
%TO.N,/RX1{slash}19*%
X59600000Y43200000D03*
%TD*%
D15*
%TO.P,J9,1,Pin_1_1*%
%TO.N,GND*%
X53600000Y21650000D03*
D16*
%TO.P,J9,2,Pin_2_2*%
%TO.N,+5V*%
X55600000Y21650000D03*
%TO.P,J9,3,Pin_3_3*%
%TO.N,/D50*%
X57600000Y21650000D03*
%TO.P,J9,4,Pin_4_4*%
%TO.N,/D51*%
X59600000Y21650000D03*
%TO.P,J9,5,Pin_5_5*%
%TO.N,/D52*%
X61600000Y21650000D03*
%TO.P,J9,6,Pin_6_6*%
%TO.N,/D53*%
X63600000Y21650000D03*
%TD*%
D14*
%TO.P,SW1,1,1_1*%
%TO.N,GND*%
X19009078Y44300000D03*
X25509078Y44300000D03*
%TO.P,SW1,2,2_2*%
%TO.N,Net-(C1-Pad1)*%
X19009078Y39800000D03*
X25509078Y39800000D03*
%TD*%
%TO.P,SW2,1,1_1*%
%TO.N,GND*%
X19009078Y33750000D03*
X25509078Y33750000D03*
%TO.P,SW2,2,2_2*%
%TO.N,Net-(C2-Pad1)*%
X19009078Y29250000D03*
X25509078Y29250000D03*
%TD*%
D15*
%TO.P,J8,1,Pin_1_1*%
%TO.N,GND*%
X53600000Y14000000D03*
D16*
%TO.P,J8,2,Pin_2_2*%
%TO.N,+5V*%
X55600000Y14000000D03*
%TO.P,J8,3,Pin_3_3*%
%TO.N,/D50*%
X57600000Y14000000D03*
%TO.P,J8,4,Pin_4_4*%
%TO.N,/D51*%
X59600000Y14000000D03*
%TO.P,J8,5,Pin_5_5*%
%TO.N,/D52*%
X61600000Y14000000D03*
%TO.P,J8,6,Pin_6_6*%
%TO.N,/D53*%
X63600000Y14000000D03*
%TD*%
D14*
%TO.P,SW3,1,1_1*%
%TO.N,GND*%
X19009078Y23250000D03*
X25509078Y23250000D03*
%TO.P,SW3,2,2_2*%
%TO.N,Net-(C3-Pad1)*%
X19009078Y18750000D03*
X25509078Y18750000D03*
%TD*%
D17*
%TO.P,R14,1*%
%TO.N,+5V*%
X39300000Y42600000D03*
%TO.P,R14,2*%
%TO.N,/A2*%
X42700000Y42600000D03*
%TD*%
D15*
%TO.P,J12,1,Pin_1_1*%
%TO.N,GND*%
X53600000Y28900000D03*
D16*
%TO.P,J12,2,Pin_2_2*%
%TO.N,+5V*%
X55600000Y28900000D03*
%TO.P,J12,3,Pin_3_3*%
%TO.N,/SDA{slash}20*%
X57600000Y28900000D03*
%TO.P,J12,4,Pin_4_4*%
%TO.N,/SCL{slash}21*%
X59600000Y28900000D03*
%TD*%
D18*
%TO.N,GND*%
X86200000Y39600000D03*
X86600000Y30800000D03*
X8675000Y9475000D03*
X86600000Y17400000D03*
X86600000Y12800000D03*
X86600000Y45000000D03*
X7850000Y45300000D03*
X86600000Y26000000D03*
X86600000Y21800000D03*
X7825000Y34600000D03*
X86600000Y35600000D03*
%TD*%
%TA.AperFunction,Conductor*%
%TO.N,GND*%
G36*
X42714075Y2732993D02*
G01*
X42680000Y2605826D01*
X42680000Y2474174D01*
X42714075Y2347007D01*
X42746988Y2290000D01*
X41073012Y2290000D01*
X41105925Y2347007D01*
X41140000Y2474174D01*
X41140000Y2605826D01*
X41105925Y2732993D01*
X41073012Y2790000D01*
X42746988Y2790000D01*
X42714075Y2732993D01*
G37*
%TD.AperFunction*%
%TA.AperFunction,Conductor*%
G36*
X96054075Y7812993D02*
G01*
X96020000Y7685826D01*
X96020000Y7554174D01*
X96054075Y7427007D01*
X96086988Y7370000D01*
X94413012Y7370000D01*
X94445925Y7427007D01*
X94480000Y7554174D01*
X94480000Y7685826D01*
X94445925Y7812993D01*
X94413012Y7870000D01*
X96086988Y7870000D01*
X96054075Y7812993D01*
G37*
%TD.AperFunction*%
%TA.AperFunction,Conductor*%
G36*
X98067230Y53019815D02*
G01*
X98095751Y52994521D01*
X98162115Y52914267D01*
X98681806Y52285804D01*
X98731060Y52226242D01*
X98758612Y52162034D01*
X98759500Y52147221D01*
X98759500Y50839562D01*
X98759500Y40600438D01*
X98762129Y40590628D01*
X98779979Y40524009D01*
X98779981Y40524006D01*
X98808415Y40474758D01*
X98808415Y40474755D01*
X98808417Y40474755D01*
X98819539Y40455491D01*
X98819541Y40455488D01*
X101263181Y38011848D01*
X101296666Y37950525D01*
X101299500Y37924167D01*
X101299500Y3985833D01*
X101279815Y3918794D01*
X101263181Y3898152D01*
X98819541Y1454513D01*
X98819535Y1454505D01*
X98779982Y1385996D01*
X98779979Y1385991D01*
X98766326Y1335038D01*
X98762085Y1319207D01*
X98759500Y1309561D01*
X98759500Y770126D01*
X98758439Y753942D01*
X98758439Y753941D01*
X98745906Y658744D01*
X98737528Y627475D01*
X98703916Y546330D01*
X98687730Y518297D01*
X98634266Y448622D01*
X98611378Y425734D01*
X98541703Y372270D01*
X98513670Y356084D01*
X98432525Y322472D01*
X98401256Y314094D01*
X98306059Y301561D01*
X98289874Y300500D01*
X770126Y300500D01*
X753941Y301561D01*
X658743Y314094D01*
X627474Y322472D01*
X546329Y356084D01*
X518296Y372270D01*
X448621Y425734D01*
X425733Y448622D01*
X372269Y518297D01*
X356084Y546327D01*
X322470Y627479D01*
X314094Y658741D01*
X301561Y753942D01*
X300500Y770126D01*
X300500Y2665962D01*
X12369500Y2665962D01*
X12369500Y2414039D01*
X12408910Y2165215D01*
X12486760Y1925617D01*
X12601132Y1701152D01*
X12749201Y1497351D01*
X12749205Y1497346D01*
X12927345Y1319206D01*
X12927350Y1319202D01*
X13037587Y1239111D01*
X13131155Y1171130D01*
X13274184Y1098253D01*
X13355616Y1056761D01*
X13355618Y1056761D01*
X13355621Y1056759D01*
X13595215Y978910D01*
X13844038Y939500D01*
X13844039Y939500D01*
X14095961Y939500D01*
X14095962Y939500D01*
X14344785Y978910D01*
X14584379Y1056759D01*
X14808845Y1171130D01*
X15012656Y1319207D01*
X15190793Y1497344D01*
X15338870Y1701155D01*
X15453241Y1925621D01*
X15531090Y2165215D01*
X15570500Y2414038D01*
X15570500Y2665962D01*
X15531090Y2914785D01*
X15453241Y3154379D01*
X15453239Y3154382D01*
X15453239Y3154384D01*
X15403498Y3252006D01*
X15338870Y3378845D01*
X15295416Y3438655D01*
X26581500Y3438655D01*
X26581500Y1641346D01*
X26588011Y1580798D01*
X26588011Y1580796D01*
X26619138Y1497344D01*
X26639111Y1443796D01*
X26726739Y1326739D01*
X26843796Y1239111D01*
X26980799Y1188011D01*
X27008050Y1185082D01*
X27041345Y1181501D01*
X27041362Y1181500D01*
X28838638Y1181500D01*
X28838654Y1181501D01*
X28865692Y1184409D01*
X28899201Y1188011D01*
X29036204Y1239111D01*
X29153261Y1326739D01*
X29240889Y1443796D01*
X29285957Y1564629D01*
X29327827Y1620558D01*
X29393291Y1644975D01*
X29461564Y1630123D01*
X29489818Y1608972D01*
X29594996Y1503794D01*
X29767991Y1378106D01*
X29861438Y1330493D01*
X29958516Y1281028D01*
X29958519Y1281027D01*
X30060200Y1247990D01*
X30161884Y1214951D01*
X30373084Y1181500D01*
X30373085Y1181500D01*
X30586915Y1181500D01*
X30586916Y1181500D01*
X30798116Y1214951D01*
X31001483Y1281028D01*
X31192009Y1378106D01*
X31365004Y1503794D01*
X31516206Y1654996D01*
X31641894Y1827991D01*
X31641896Y1827996D01*
X31644270Y1831868D01*
X31696080Y1878746D01*
X31765009Y1890171D01*
X31829173Y1862517D01*
X31855730Y1831868D01*
X31858103Y1827995D01*
X31858105Y1827992D01*
X31858106Y1827991D01*
X31983794Y1654996D01*
X32134996Y1503794D01*
X32307991Y1378106D01*
X32401438Y1330493D01*
X32498516Y1281028D01*
X32498519Y1281027D01*
X32600200Y1247990D01*
X32701884Y1214951D01*
X32913084Y1181500D01*
X32913085Y1181500D01*
X33126915Y1181500D01*
X33126916Y1181500D01*
X33338116Y1214951D01*
X33541483Y1281028D01*
X33732009Y1378106D01*
X33905004Y1503794D01*
X34056206Y1654996D01*
X34181894Y1827991D01*
X34181896Y1827996D01*
X34184270Y1831868D01*
X34236080Y1878746D01*
X34305009Y1890171D01*
X34369173Y1862517D01*
X34395730Y1831868D01*
X34398103Y1827995D01*
X34398105Y1827992D01*
X34398106Y1827991D01*
X34523794Y1654996D01*
X34674996Y1503794D01*
X34847991Y1378106D01*
X34941438Y1330493D01*
X35038516Y1281028D01*
X35038519Y1281027D01*
X35140200Y1247990D01*
X35241884Y1214951D01*
X35453084Y1181500D01*
X35453085Y1181500D01*
X35666915Y1181500D01*
X35666916Y1181500D01*
X35878116Y1214951D01*
X36081483Y1281028D01*
X36272009Y1378106D01*
X36445004Y1503794D01*
X36596206Y1654996D01*
X36721894Y1827991D01*
X36721896Y1827996D01*
X36724270Y1831868D01*
X36776080Y1878746D01*
X36845009Y1890171D01*
X36909173Y1862517D01*
X36935730Y1831868D01*
X36938103Y1827995D01*
X36938105Y1827992D01*
X36938106Y1827991D01*
X37063794Y1654996D01*
X37214996Y1503794D01*
X37387991Y1378106D01*
X37481438Y1330493D01*
X37578516Y1281028D01*
X37578519Y1281027D01*
X37680200Y1247990D01*
X37781884Y1214951D01*
X37993084Y1181500D01*
X37993085Y1181500D01*
X38206915Y1181500D01*
X38206916Y1181500D01*
X38418116Y1214951D01*
X38621483Y1281028D01*
X38812009Y1378106D01*
X38985004Y1503794D01*
X39136206Y1654996D01*
X39261894Y1827991D01*
X39264283Y1832681D01*
X39312254Y1883478D01*
X39380074Y1900276D01*
X39446210Y1877742D01*
X39482201Y1836212D01*
X39482832Y1836598D01*
X39485164Y1832793D01*
X39485251Y1832692D01*
X39485376Y1832446D01*
X39610272Y1660541D01*
X39610276Y1660536D01*
X39760535Y1510277D01*
X39760540Y1510273D01*
X39932442Y1385380D01*
X40121782Y1288905D01*
X40323871Y1223243D01*
X40390000Y1212769D01*
X40390000Y2106988D01*
X40447007Y2074075D01*
X40574174Y2040000D01*
X40705826Y2040000D01*
X40832993Y2074075D01*
X40890000Y2106988D01*
X40890000Y1212770D01*
X40956126Y1223243D01*
X40956129Y1223243D01*
X41158217Y1288905D01*
X41347557Y1385380D01*
X41519459Y1510273D01*
X41519464Y1510277D01*
X41669723Y1660536D01*
X41669727Y1660541D01*
X41794620Y1832442D01*
X41799514Y1842046D01*
X41847488Y1892843D01*
X41915308Y1909639D01*
X41981444Y1887103D01*
X42020486Y1842046D01*
X42025379Y1832442D01*
X42150272Y1660541D01*
X42150276Y1660536D01*
X42300535Y1510277D01*
X42300540Y1510273D01*
X42472442Y1385380D01*
X42661782Y1288905D01*
X42863871Y1223243D01*
X42930000Y1212769D01*
X42930000Y2106988D01*
X42987007Y2074075D01*
X43114174Y2040000D01*
X43245826Y2040000D01*
X43372993Y2074075D01*
X43430000Y2106988D01*
X43430000Y1212770D01*
X43496126Y1223243D01*
X43496129Y1223243D01*
X43698217Y1288905D01*
X43887557Y1385380D01*
X44059459Y1510273D01*
X44059464Y1510277D01*
X44209723Y1660536D01*
X44209727Y1660541D01*
X44334619Y1832440D01*
X44334738Y1832673D01*
X44334808Y1832748D01*
X44337168Y1836598D01*
X44337976Y1836103D01*
X44382707Y1883474D01*
X44450526Y1900277D01*
X44516663Y1877746D01*
X44555712Y1832689D01*
X44558105Y1827992D01*
X44600002Y1770326D01*
X44683794Y1654996D01*
X44834996Y1503794D01*
X45007991Y1378106D01*
X45101438Y1330493D01*
X45198516Y1281028D01*
X45198519Y1281027D01*
X45300200Y1247990D01*
X45401884Y1214951D01*
X45613084Y1181500D01*
X45613085Y1181500D01*
X45826915Y1181500D01*
X45826916Y1181500D01*
X46038116Y1214951D01*
X46241483Y1281028D01*
X46432009Y1378106D01*
X46605004Y1503794D01*
X46756206Y1654996D01*
X46881894Y1827991D01*
X46978972Y2018517D01*
X47045049Y2221884D01*
X47078500Y2433084D01*
X47078500Y2646916D01*
X47045049Y2858116D01*
X46978972Y3061483D01*
X46978972Y3061484D01*
X46931639Y3154379D01*
X46881894Y3252009D01*
X46756206Y3425004D01*
X46742555Y3438655D01*
X49441500Y3438655D01*
X49441500Y1641346D01*
X49448011Y1580798D01*
X49448011Y1580796D01*
X49479138Y1497344D01*
X49499111Y1443796D01*
X49586739Y1326739D01*
X49703796Y1239111D01*
X49840799Y1188011D01*
X49868050Y1185082D01*
X49901345Y1181501D01*
X49901362Y1181500D01*
X51698638Y1181500D01*
X51698654Y1181501D01*
X51725692Y1184409D01*
X51759201Y1188011D01*
X51896204Y1239111D01*
X52013261Y1326739D01*
X52100889Y1443796D01*
X52145957Y1564629D01*
X52187827Y1620558D01*
X52253291Y1644975D01*
X52321564Y1630123D01*
X52349818Y1608972D01*
X52454996Y1503794D01*
X52627991Y1378106D01*
X52721438Y1330493D01*
X52818516Y1281028D01*
X52818519Y1281027D01*
X52920200Y1247990D01*
X53021884Y1214951D01*
X53233084Y1181500D01*
X53233085Y1181500D01*
X53446915Y1181500D01*
X53446916Y1181500D01*
X53658116Y1214951D01*
X53861483Y1281028D01*
X54052009Y1378106D01*
X54225004Y1503794D01*
X54376206Y1654996D01*
X54501894Y1827991D01*
X54501896Y1827996D01*
X54504270Y1831868D01*
X54556080Y1878746D01*
X54625009Y1890171D01*
X54689173Y1862517D01*
X54715730Y1831868D01*
X54718103Y1827995D01*
X54718105Y1827992D01*
X54718106Y1827991D01*
X54843794Y1654996D01*
X54994996Y1503794D01*
X55167991Y1378106D01*
X55261438Y1330493D01*
X55358516Y1281028D01*
X55358519Y1281027D01*
X55460200Y1247990D01*
X55561884Y1214951D01*
X55773084Y1181500D01*
X55773085Y1181500D01*
X55986915Y1181500D01*
X55986916Y1181500D01*
X56198116Y1214951D01*
X56401483Y1281028D01*
X56592009Y1378106D01*
X56765004Y1503794D01*
X56916206Y1654996D01*
X57041894Y1827991D01*
X57041896Y1827996D01*
X57044270Y1831868D01*
X57096080Y1878746D01*
X57165009Y1890171D01*
X57229173Y1862517D01*
X57255730Y1831868D01*
X57258103Y1827995D01*
X57258105Y1827992D01*
X57258106Y1827991D01*
X57383794Y1654996D01*
X57534996Y1503794D01*
X57707991Y1378106D01*
X57801438Y1330493D01*
X57898516Y1281028D01*
X57898519Y1281027D01*
X58000200Y1247990D01*
X58101884Y1214951D01*
X58313084Y1181500D01*
X58313085Y1181500D01*
X58526915Y1181500D01*
X58526916Y1181500D01*
X58738116Y1214951D01*
X58941483Y1281028D01*
X59132009Y1378106D01*
X59305004Y1503794D01*
X59456206Y1654996D01*
X59581894Y1827991D01*
X59581896Y1827996D01*
X59584270Y1831868D01*
X59636080Y1878746D01*
X59705009Y1890171D01*
X59769173Y1862517D01*
X59795730Y1831868D01*
X59798103Y1827995D01*
X59798105Y1827992D01*
X59798106Y1827991D01*
X59923794Y1654996D01*
X60074996Y1503794D01*
X60247991Y1378106D01*
X60341438Y1330493D01*
X60438516Y1281028D01*
X60438519Y1281027D01*
X60540200Y1247990D01*
X60641884Y1214951D01*
X60853084Y1181500D01*
X60853085Y1181500D01*
X61066915Y1181500D01*
X61066916Y1181500D01*
X61278116Y1214951D01*
X61481483Y1281028D01*
X61672009Y1378106D01*
X61845004Y1503794D01*
X61996206Y1654996D01*
X62121894Y1827991D01*
X62121896Y1827996D01*
X62124270Y1831868D01*
X62176080Y1878746D01*
X62245009Y1890171D01*
X62309173Y1862517D01*
X62335730Y1831868D01*
X62338103Y1827995D01*
X62338105Y1827992D01*
X62338106Y1827991D01*
X62463794Y1654996D01*
X62614996Y1503794D01*
X62787991Y1378106D01*
X62881438Y1330493D01*
X62978516Y1281028D01*
X62978519Y1281027D01*
X63080200Y1247990D01*
X63181884Y1214951D01*
X63393084Y1181500D01*
X63393085Y1181500D01*
X63606915Y1181500D01*
X63606916Y1181500D01*
X63818116Y1214951D01*
X64021483Y1281028D01*
X64212009Y1378106D01*
X64385004Y1503794D01*
X64536206Y1654996D01*
X64661894Y1827991D01*
X64661896Y1827996D01*
X64664270Y1831868D01*
X64716080Y1878746D01*
X64785009Y1890171D01*
X64849173Y1862517D01*
X64875730Y1831868D01*
X64878103Y1827995D01*
X64878105Y1827992D01*
X64878106Y1827991D01*
X65003794Y1654996D01*
X65154996Y1503794D01*
X65327991Y1378106D01*
X65421438Y1330493D01*
X65518516Y1281028D01*
X65518519Y1281027D01*
X65620200Y1247990D01*
X65721884Y1214951D01*
X65933084Y1181500D01*
X65933085Y1181500D01*
X66146915Y1181500D01*
X66146916Y1181500D01*
X66358116Y1214951D01*
X66561483Y1281028D01*
X66752009Y1378106D01*
X66925004Y1503794D01*
X67076206Y1654996D01*
X67201894Y1827991D01*
X67201896Y1827996D01*
X67204270Y1831868D01*
X67256080Y1878746D01*
X67325009Y1890171D01*
X67389173Y1862517D01*
X67415730Y1831868D01*
X67418103Y1827995D01*
X67418105Y1827992D01*
X67418106Y1827991D01*
X67543794Y1654996D01*
X67694996Y1503794D01*
X67867991Y1378106D01*
X67961438Y1330493D01*
X68058516Y1281028D01*
X68058519Y1281027D01*
X68160200Y1247990D01*
X68261884Y1214951D01*
X68473084Y1181500D01*
X68473085Y1181500D01*
X68686915Y1181500D01*
X68686916Y1181500D01*
X68898116Y1214951D01*
X69101483Y1281028D01*
X69292009Y1378106D01*
X69465004Y1503794D01*
X69616206Y1654996D01*
X69741894Y1827991D01*
X69838972Y2018517D01*
X69905049Y2221884D01*
X69938500Y2433084D01*
X69938500Y2646916D01*
X69905049Y2858116D01*
X69838972Y3061483D01*
X69838972Y3061484D01*
X69791639Y3154379D01*
X69741894Y3252009D01*
X69616206Y3425004D01*
X69602555Y3438655D01*
X72301500Y3438655D01*
X72301500Y1641346D01*
X72308011Y1580798D01*
X72308011Y1580796D01*
X72339138Y1497344D01*
X72359111Y1443796D01*
X72446739Y1326739D01*
X72563796Y1239111D01*
X72700799Y1188011D01*
X72728050Y1185082D01*
X72761345Y1181501D01*
X72761362Y1181500D01*
X74558638Y1181500D01*
X74558654Y1181501D01*
X74585692Y1184409D01*
X74619201Y1188011D01*
X74756204Y1239111D01*
X74873261Y1326739D01*
X74960889Y1443796D01*
X75005957Y1564629D01*
X75047827Y1620558D01*
X75113291Y1644975D01*
X75181564Y1630123D01*
X75209818Y1608972D01*
X75314996Y1503794D01*
X75487991Y1378106D01*
X75581438Y1330493D01*
X75678516Y1281028D01*
X75678519Y1281027D01*
X75780200Y1247990D01*
X75881884Y1214951D01*
X76093084Y1181500D01*
X76093085Y1181500D01*
X76306915Y1181500D01*
X76306916Y1181500D01*
X76518116Y1214951D01*
X76721483Y1281028D01*
X76912009Y1378106D01*
X77085004Y1503794D01*
X77236206Y1654996D01*
X77361894Y1827991D01*
X77361896Y1827996D01*
X77364270Y1831868D01*
X77416080Y1878746D01*
X77485009Y1890171D01*
X77549173Y1862517D01*
X77575730Y1831868D01*
X77578103Y1827995D01*
X77578105Y1827992D01*
X77578106Y1827991D01*
X77703794Y1654996D01*
X77854996Y1503794D01*
X78027991Y1378106D01*
X78121438Y1330493D01*
X78218516Y1281028D01*
X78218519Y1281027D01*
X78320200Y1247990D01*
X78421884Y1214951D01*
X78633084Y1181500D01*
X78633085Y1181500D01*
X78846915Y1181500D01*
X78846916Y1181500D01*
X79058116Y1214951D01*
X79261483Y1281028D01*
X79452009Y1378106D01*
X79625004Y1503794D01*
X79776206Y1654996D01*
X79901894Y1827991D01*
X79901896Y1827996D01*
X79904270Y1831868D01*
X79956080Y1878746D01*
X80025009Y1890171D01*
X80089173Y1862517D01*
X80115730Y1831868D01*
X80118103Y1827995D01*
X80118105Y1827992D01*
X80118106Y1827991D01*
X80243794Y1654996D01*
X80394996Y1503794D01*
X80567991Y1378106D01*
X80661438Y1330493D01*
X80758516Y1281028D01*
X80758519Y1281027D01*
X80860200Y1247990D01*
X80961884Y1214951D01*
X81173084Y1181500D01*
X81173085Y1181500D01*
X81386915Y1181500D01*
X81386916Y1181500D01*
X81598116Y1214951D01*
X81801483Y1281028D01*
X81992009Y1378106D01*
X82165004Y1503794D01*
X82316206Y1654996D01*
X82441894Y1827991D01*
X82441896Y1827996D01*
X82444270Y1831868D01*
X82496080Y1878746D01*
X82565009Y1890171D01*
X82629173Y1862517D01*
X82655730Y1831868D01*
X82658103Y1827995D01*
X82658105Y1827992D01*
X82658106Y1827991D01*
X82783794Y1654996D01*
X82934996Y1503794D01*
X83107991Y1378106D01*
X83201438Y1330493D01*
X83298516Y1281028D01*
X83298519Y1281027D01*
X83400200Y1247990D01*
X83501884Y1214951D01*
X83713084Y1181500D01*
X83713085Y1181500D01*
X83926915Y1181500D01*
X83926916Y1181500D01*
X84138116Y1214951D01*
X84341483Y1281028D01*
X84532009Y1378106D01*
X84705004Y1503794D01*
X84856206Y1654996D01*
X84981894Y1827991D01*
X84981896Y1827996D01*
X84984270Y1831868D01*
X85036080Y1878746D01*
X85105009Y1890171D01*
X85169173Y1862517D01*
X85195730Y1831868D01*
X85198103Y1827995D01*
X85198105Y1827992D01*
X85198106Y1827991D01*
X85323794Y1654996D01*
X85474996Y1503794D01*
X85647991Y1378106D01*
X85741438Y1330493D01*
X85838516Y1281028D01*
X85838519Y1281027D01*
X85940200Y1247990D01*
X86041884Y1214951D01*
X86253084Y1181500D01*
X86253085Y1181500D01*
X86466915Y1181500D01*
X86466916Y1181500D01*
X86678116Y1214951D01*
X86881483Y1281028D01*
X87072009Y1378106D01*
X87245004Y1503794D01*
X87396206Y1654996D01*
X87521894Y1827991D01*
X87521896Y1827996D01*
X87524270Y1831868D01*
X87576080Y1878746D01*
X87645009Y1890171D01*
X87709173Y1862517D01*
X87735730Y1831868D01*
X87738103Y1827995D01*
X87738105Y1827992D01*
X87738106Y1827991D01*
X87863794Y1654996D01*
X88014996Y1503794D01*
X88187991Y1378106D01*
X88281438Y1330493D01*
X88378516Y1281028D01*
X88378519Y1281027D01*
X88480200Y1247990D01*
X88581884Y1214951D01*
X88793084Y1181500D01*
X88793085Y1181500D01*
X89006915Y1181500D01*
X89006916Y1181500D01*
X89218116Y1214951D01*
X89421483Y1281028D01*
X89612009Y1378106D01*
X89785004Y1503794D01*
X89936206Y1654996D01*
X90061894Y1827991D01*
X90061896Y1827996D01*
X90064270Y1831868D01*
X90116080Y1878746D01*
X90185009Y1890171D01*
X90249173Y1862517D01*
X90275730Y1831868D01*
X90278103Y1827995D01*
X90278105Y1827992D01*
X90278106Y1827991D01*
X90403794Y1654996D01*
X90554996Y1503794D01*
X90727991Y1378106D01*
X90821438Y1330493D01*
X90918516Y1281028D01*
X90918519Y1281027D01*
X91020200Y1247990D01*
X91121884Y1214951D01*
X91333084Y1181500D01*
X91333085Y1181500D01*
X91546915Y1181500D01*
X91546916Y1181500D01*
X91758116Y1214951D01*
X91961483Y1281028D01*
X92152009Y1378106D01*
X92325004Y1503794D01*
X92476206Y1654996D01*
X92601894Y1827991D01*
X92698972Y2018517D01*
X92765049Y2221884D01*
X92798500Y2433084D01*
X92798500Y2646916D01*
X92795483Y2665962D01*
X94919500Y2665962D01*
X94919500Y2414039D01*
X94958910Y2165215D01*
X95036760Y1925617D01*
X95151132Y1701152D01*
X95299201Y1497351D01*
X95299205Y1497346D01*
X95477345Y1319206D01*
X95477350Y1319202D01*
X95587587Y1239111D01*
X95681155Y1171130D01*
X95824184Y1098253D01*
X95905616Y1056761D01*
X95905618Y1056761D01*
X95905621Y1056759D01*
X96145215Y978910D01*
X96394038Y939500D01*
X96394039Y939500D01*
X96645961Y939500D01*
X96645962Y939500D01*
X96894785Y978910D01*
X97134379Y1056759D01*
X97358845Y1171130D01*
X97562656Y1319207D01*
X97740793Y1497344D01*
X97888870Y1701155D01*
X98003241Y1925621D01*
X98081090Y2165215D01*
X98120500Y2414038D01*
X98120500Y2665962D01*
X98081090Y2914785D01*
X98003241Y3154379D01*
X98003239Y3154382D01*
X98003239Y3154384D01*
X97953498Y3252006D01*
X97888870Y3378845D01*
X97842602Y3442528D01*
X97740798Y3582650D01*
X97740794Y3582655D01*
X97562654Y3760795D01*
X97562649Y3760799D01*
X97358848Y3908868D01*
X97358847Y3908869D01*
X97358845Y3908870D01*
X97288747Y3944587D01*
X97134383Y4023240D01*
X96894785Y4101090D01*
X96645962Y4140500D01*
X96394038Y4140500D01*
X96269626Y4120795D01*
X96145214Y4101090D01*
X95905616Y4023240D01*
X95681151Y3908868D01*
X95477350Y3760799D01*
X95477345Y3760795D01*
X95299205Y3582655D01*
X95299201Y3582650D01*
X95151132Y3378849D01*
X95036760Y3154384D01*
X94958910Y2914786D01*
X94919500Y2665962D01*
X92795483Y2665962D01*
X92765049Y2858116D01*
X92698972Y3061483D01*
X92698972Y3061484D01*
X92643495Y3170362D01*
X92601894Y3252009D01*
X92476206Y3425004D01*
X92325004Y3576206D01*
X92152009Y3701894D01*
X91961483Y3798973D01*
X91961480Y3798974D01*
X91758117Y3865049D01*
X91652516Y3881775D01*
X91546916Y3898500D01*
X91333084Y3898500D01*
X91262684Y3887350D01*
X91121882Y3865049D01*
X90918519Y3798974D01*
X90918516Y3798973D01*
X90727990Y3701894D01*
X90554993Y3576204D01*
X90403796Y3425007D01*
X90278105Y3252009D01*
X90275727Y3248127D01*
X90223914Y3201252D01*
X90154984Y3189831D01*
X90090822Y3217488D01*
X90064273Y3248127D01*
X90061894Y3252009D01*
X90061891Y3252013D01*
X89936206Y3425004D01*
X89785004Y3576206D01*
X89612009Y3701894D01*
X89421483Y3798973D01*
X89421480Y3798974D01*
X89218117Y3865049D01*
X89112516Y3881775D01*
X89006916Y3898500D01*
X88793084Y3898500D01*
X88722684Y3887350D01*
X88581882Y3865049D01*
X88378519Y3798974D01*
X88378516Y3798973D01*
X88187990Y3701894D01*
X88014993Y3576204D01*
X87863796Y3425007D01*
X87738105Y3252009D01*
X87735727Y3248127D01*
X87683914Y3201252D01*
X87614984Y3189831D01*
X87550822Y3217488D01*
X87524273Y3248127D01*
X87521894Y3252009D01*
X87521891Y3252013D01*
X87396206Y3425004D01*
X87245004Y3576206D01*
X87072009Y3701894D01*
X86881483Y3798973D01*
X86881480Y3798974D01*
X86678117Y3865049D01*
X86572516Y3881775D01*
X86466916Y3898500D01*
X86253084Y3898500D01*
X86182684Y3887350D01*
X86041882Y3865049D01*
X85838519Y3798974D01*
X85838516Y3798973D01*
X85647990Y3701894D01*
X85474993Y3576204D01*
X85323796Y3425007D01*
X85198105Y3252009D01*
X85195727Y3248127D01*
X85143914Y3201252D01*
X85074984Y3189831D01*
X85010822Y3217488D01*
X84984273Y3248127D01*
X84981894Y3252009D01*
X84981891Y3252013D01*
X84856206Y3425004D01*
X84705004Y3576206D01*
X84532009Y3701894D01*
X84341483Y3798973D01*
X84341480Y3798974D01*
X84138117Y3865049D01*
X84032516Y3881775D01*
X83926916Y3898500D01*
X83713084Y3898500D01*
X83642684Y3887350D01*
X83501882Y3865049D01*
X83298519Y3798974D01*
X83298516Y3798973D01*
X83107990Y3701894D01*
X82934993Y3576204D01*
X82783796Y3425007D01*
X82658105Y3252009D01*
X82655727Y3248127D01*
X82603914Y3201252D01*
X82534984Y3189831D01*
X82470822Y3217488D01*
X82444273Y3248127D01*
X82441894Y3252009D01*
X82441891Y3252013D01*
X82316206Y3425004D01*
X82165004Y3576206D01*
X81992009Y3701894D01*
X81801483Y3798973D01*
X81801480Y3798974D01*
X81598117Y3865049D01*
X81492516Y3881775D01*
X81386916Y3898500D01*
X81173084Y3898500D01*
X81102684Y3887350D01*
X80961882Y3865049D01*
X80758519Y3798974D01*
X80758516Y3798973D01*
X80567990Y3701894D01*
X80394993Y3576204D01*
X80243796Y3425007D01*
X80118105Y3252009D01*
X80115727Y3248127D01*
X80063914Y3201252D01*
X79994984Y3189831D01*
X79930822Y3217488D01*
X79904273Y3248127D01*
X79901894Y3252009D01*
X79901891Y3252013D01*
X79776206Y3425004D01*
X79625004Y3576206D01*
X79452009Y3701894D01*
X79261483Y3798973D01*
X79261480Y3798974D01*
X79058117Y3865049D01*
X78952516Y3881775D01*
X78846916Y3898500D01*
X78633084Y3898500D01*
X78562684Y3887350D01*
X78421882Y3865049D01*
X78218519Y3798974D01*
X78218516Y3798973D01*
X78027990Y3701894D01*
X77854993Y3576204D01*
X77703796Y3425007D01*
X77578105Y3252009D01*
X77575727Y3248127D01*
X77523914Y3201252D01*
X77454984Y3189831D01*
X77390822Y3217488D01*
X77364273Y3248127D01*
X77361894Y3252009D01*
X77361891Y3252013D01*
X77236206Y3425004D01*
X77085004Y3576206D01*
X76912009Y3701894D01*
X76721483Y3798973D01*
X76721480Y3798974D01*
X76518117Y3865049D01*
X76412516Y3881775D01*
X76306916Y3898500D01*
X76093084Y3898500D01*
X76022684Y3887350D01*
X75881882Y3865049D01*
X75678519Y3798974D01*
X75678516Y3798973D01*
X75487990Y3701894D01*
X75314997Y3576207D01*
X75209818Y3471028D01*
X75148495Y3437544D01*
X75078803Y3442528D01*
X75022870Y3484400D01*
X75005958Y3515371D01*
X74960889Y3636204D01*
X74873261Y3753261D01*
X74756204Y3840889D01*
X74619203Y3891989D01*
X74558654Y3898500D01*
X74558638Y3898500D01*
X72761362Y3898500D01*
X72761345Y3898500D01*
X72700797Y3891989D01*
X72700795Y3891989D01*
X72563795Y3840889D01*
X72446739Y3753261D01*
X72359111Y3636205D01*
X72308011Y3499205D01*
X72308011Y3499203D01*
X72301500Y3438655D01*
X69602555Y3438655D01*
X69465004Y3576206D01*
X69292009Y3701894D01*
X69101483Y3798973D01*
X69101480Y3798974D01*
X68898117Y3865049D01*
X68792516Y3881775D01*
X68686916Y3898500D01*
X68473084Y3898500D01*
X68402684Y3887350D01*
X68261882Y3865049D01*
X68058519Y3798974D01*
X68058516Y3798973D01*
X67867990Y3701894D01*
X67694993Y3576204D01*
X67543796Y3425007D01*
X67418105Y3252009D01*
X67415727Y3248127D01*
X67363914Y3201252D01*
X67294984Y3189831D01*
X67230822Y3217488D01*
X67204273Y3248127D01*
X67201894Y3252009D01*
X67201891Y3252013D01*
X67076206Y3425004D01*
X66925004Y3576206D01*
X66752009Y3701894D01*
X66561483Y3798973D01*
X66561480Y3798974D01*
X66358117Y3865049D01*
X66252516Y3881775D01*
X66146916Y3898500D01*
X65933084Y3898500D01*
X65862684Y3887350D01*
X65721882Y3865049D01*
X65518519Y3798974D01*
X65518516Y3798973D01*
X65327990Y3701894D01*
X65154993Y3576204D01*
X65003796Y3425007D01*
X64878105Y3252009D01*
X64875727Y3248127D01*
X64823914Y3201252D01*
X64754984Y3189831D01*
X64690822Y3217488D01*
X64664273Y3248127D01*
X64661894Y3252009D01*
X64661891Y3252013D01*
X64536206Y3425004D01*
X64385004Y3576206D01*
X64212009Y3701894D01*
X64021483Y3798973D01*
X64021480Y3798974D01*
X63818117Y3865049D01*
X63712516Y3881775D01*
X63606916Y3898500D01*
X63393084Y3898500D01*
X63322684Y3887350D01*
X63181882Y3865049D01*
X62978519Y3798974D01*
X62978516Y3798973D01*
X62787990Y3701894D01*
X62614993Y3576204D01*
X62463796Y3425007D01*
X62338105Y3252009D01*
X62335727Y3248127D01*
X62283914Y3201252D01*
X62214984Y3189831D01*
X62150822Y3217488D01*
X62124273Y3248127D01*
X62121894Y3252009D01*
X62121891Y3252013D01*
X61996206Y3425004D01*
X61845004Y3576206D01*
X61672009Y3701894D01*
X61481483Y3798973D01*
X61481480Y3798974D01*
X61278117Y3865049D01*
X61172516Y3881775D01*
X61066916Y3898500D01*
X60853084Y3898500D01*
X60782684Y3887350D01*
X60641882Y3865049D01*
X60438519Y3798974D01*
X60438516Y3798973D01*
X60247990Y3701894D01*
X60074993Y3576204D01*
X59923796Y3425007D01*
X59798105Y3252009D01*
X59795727Y3248127D01*
X59743914Y3201252D01*
X59674984Y3189831D01*
X59610822Y3217488D01*
X59584273Y3248127D01*
X59581894Y3252009D01*
X59581891Y3252013D01*
X59456206Y3425004D01*
X59305004Y3576206D01*
X59132009Y3701894D01*
X58941483Y3798973D01*
X58941480Y3798974D01*
X58738117Y3865049D01*
X58632516Y3881775D01*
X58526916Y3898500D01*
X58313084Y3898500D01*
X58242684Y3887350D01*
X58101882Y3865049D01*
X57898519Y3798974D01*
X57898516Y3798973D01*
X57707990Y3701894D01*
X57534993Y3576204D01*
X57383796Y3425007D01*
X57258105Y3252009D01*
X57255727Y3248127D01*
X57203914Y3201252D01*
X57134984Y3189831D01*
X57070822Y3217488D01*
X57044273Y3248127D01*
X57041894Y3252009D01*
X57041891Y3252013D01*
X56916206Y3425004D01*
X56765004Y3576206D01*
X56592009Y3701894D01*
X56401483Y3798973D01*
X56401480Y3798974D01*
X56198117Y3865049D01*
X56092516Y3881775D01*
X55986916Y3898500D01*
X55773084Y3898500D01*
X55702684Y3887350D01*
X55561882Y3865049D01*
X55358519Y3798974D01*
X55358516Y3798973D01*
X55167990Y3701894D01*
X54994993Y3576204D01*
X54843796Y3425007D01*
X54718105Y3252009D01*
X54715727Y3248127D01*
X54663914Y3201252D01*
X54594984Y3189831D01*
X54530822Y3217488D01*
X54504273Y3248127D01*
X54501894Y3252009D01*
X54501891Y3252013D01*
X54376206Y3425004D01*
X54225004Y3576206D01*
X54052009Y3701894D01*
X53861483Y3798973D01*
X53861480Y3798974D01*
X53658117Y3865049D01*
X53552516Y3881775D01*
X53446916Y3898500D01*
X53233084Y3898500D01*
X53162684Y3887350D01*
X53021882Y3865049D01*
X52818519Y3798974D01*
X52818516Y3798973D01*
X52627990Y3701894D01*
X52454997Y3576207D01*
X52349818Y3471028D01*
X52288495Y3437544D01*
X52218803Y3442528D01*
X52162870Y3484400D01*
X52145958Y3515371D01*
X52100889Y3636204D01*
X52013261Y3753261D01*
X51896204Y3840889D01*
X51759203Y3891989D01*
X51698654Y3898500D01*
X51698638Y3898500D01*
X49901362Y3898500D01*
X49901345Y3898500D01*
X49840797Y3891989D01*
X49840795Y3891989D01*
X49703795Y3840889D01*
X49586739Y3753261D01*
X49499111Y3636205D01*
X49448011Y3499205D01*
X49448011Y3499203D01*
X49441500Y3438655D01*
X46742555Y3438655D01*
X46605004Y3576206D01*
X46432009Y3701894D01*
X46241483Y3798973D01*
X46241480Y3798974D01*
X46038117Y3865049D01*
X45932516Y3881775D01*
X45826916Y3898500D01*
X45613084Y3898500D01*
X45542684Y3887350D01*
X45401882Y3865049D01*
X45198519Y3798974D01*
X45198516Y3798973D01*
X45007990Y3701894D01*
X44834993Y3576204D01*
X44683796Y3425007D01*
X44558103Y3252006D01*
X44555709Y3247307D01*
X44507731Y3196515D01*
X44439908Y3179725D01*
X44373775Y3202268D01*
X44337800Y3243790D01*
X44337168Y3243402D01*
X44334829Y3247219D01*
X44334743Y3247318D01*
X44334620Y3247559D01*
X44209727Y3419460D01*
X44209723Y3419465D01*
X44059464Y3569724D01*
X44059459Y3569728D01*
X43887557Y3694621D01*
X43698215Y3791097D01*
X43496124Y3856759D01*
X43430000Y3867232D01*
X43430000Y2973012D01*
X43372993Y3005925D01*
X43245826Y3040000D01*
X43114174Y3040000D01*
X42987007Y3005925D01*
X42930000Y2973012D01*
X42930000Y3867232D01*
X42929999Y3867232D01*
X42863875Y3856759D01*
X42661784Y3791097D01*
X42472442Y3694621D01*
X42300540Y3569728D01*
X42300535Y3569724D01*
X42150276Y3419465D01*
X42150272Y3419460D01*
X42025377Y3247556D01*
X42020484Y3237952D01*
X41972509Y3187156D01*
X41904688Y3170362D01*
X41838553Y3192900D01*
X41799516Y3237952D01*
X41794622Y3247556D01*
X41669727Y3419460D01*
X41669723Y3419465D01*
X41519464Y3569724D01*
X41519459Y3569728D01*
X41347557Y3694621D01*
X41158215Y3791097D01*
X40956124Y3856759D01*
X40890000Y3867232D01*
X40890000Y2973012D01*
X40832993Y3005925D01*
X40705826Y3040000D01*
X40574174Y3040000D01*
X40447007Y3005925D01*
X40390000Y2973012D01*
X40390000Y3867232D01*
X40389999Y3867232D01*
X40323875Y3856759D01*
X40121784Y3791097D01*
X39932442Y3694621D01*
X39760540Y3569728D01*
X39760535Y3569724D01*
X39610276Y3419465D01*
X39610272Y3419460D01*
X39485376Y3247554D01*
X39485374Y3247552D01*
X39485246Y3247299D01*
X39485172Y3247221D01*
X39482832Y3243402D01*
X39482029Y3243894D01*
X39437264Y3196511D01*
X39369441Y3179726D01*
X39303309Y3202273D01*
X39264285Y3247317D01*
X39261895Y3252008D01*
X39230472Y3295258D01*
X39136206Y3425004D01*
X38985004Y3576206D01*
X38812009Y3701894D01*
X38621483Y3798973D01*
X38621480Y3798974D01*
X38418117Y3865049D01*
X38312516Y3881775D01*
X38206916Y3898500D01*
X37993084Y3898500D01*
X37922684Y3887350D01*
X37781882Y3865049D01*
X37578519Y3798974D01*
X37578516Y3798973D01*
X37387990Y3701894D01*
X37214993Y3576204D01*
X37063796Y3425007D01*
X36938105Y3252009D01*
X36935727Y3248127D01*
X36883914Y3201252D01*
X36814984Y3189831D01*
X36750822Y3217488D01*
X36724273Y3248127D01*
X36721894Y3252009D01*
X36721891Y3252013D01*
X36596206Y3425004D01*
X36445004Y3576206D01*
X36272009Y3701894D01*
X36081483Y3798973D01*
X36081480Y3798974D01*
X35878117Y3865049D01*
X35772516Y3881775D01*
X35666916Y3898500D01*
X35453084Y3898500D01*
X35382684Y3887350D01*
X35241882Y3865049D01*
X35038519Y3798974D01*
X35038516Y3798973D01*
X34847990Y3701894D01*
X34674993Y3576204D01*
X34523796Y3425007D01*
X34398105Y3252009D01*
X34395727Y3248127D01*
X34343914Y3201252D01*
X34274984Y3189831D01*
X34210822Y3217488D01*
X34184273Y3248127D01*
X34181894Y3252009D01*
X34181891Y3252013D01*
X34056206Y3425004D01*
X33905004Y3576206D01*
X33732009Y3701894D01*
X33541483Y3798973D01*
X33541480Y3798974D01*
X33338117Y3865049D01*
X33232516Y3881775D01*
X33126916Y3898500D01*
X32913084Y3898500D01*
X32842684Y3887350D01*
X32701882Y3865049D01*
X32498519Y3798974D01*
X32498516Y3798973D01*
X32307990Y3701894D01*
X32134993Y3576204D01*
X31983796Y3425007D01*
X31858105Y3252009D01*
X31855727Y3248127D01*
X31803914Y3201252D01*
X31734984Y3189831D01*
X31670822Y3217488D01*
X31644273Y3248127D01*
X31641894Y3252009D01*
X31641891Y3252013D01*
X31516206Y3425004D01*
X31365004Y3576206D01*
X31192009Y3701894D01*
X31001483Y3798973D01*
X31001480Y3798974D01*
X30798117Y3865049D01*
X30692516Y3881775D01*
X30586916Y3898500D01*
X30373084Y3898500D01*
X30302684Y3887350D01*
X30161882Y3865049D01*
X29958519Y3798974D01*
X29958516Y3798973D01*
X29767990Y3701894D01*
X29594997Y3576207D01*
X29489818Y3471028D01*
X29428495Y3437544D01*
X29358803Y3442528D01*
X29302870Y3484400D01*
X29285958Y3515371D01*
X29240889Y3636204D01*
X29153261Y3753261D01*
X29036204Y3840889D01*
X28899203Y3891989D01*
X28838654Y3898500D01*
X28838638Y3898500D01*
X27041362Y3898500D01*
X27041345Y3898500D01*
X26980797Y3891989D01*
X26980795Y3891989D01*
X26843795Y3840889D01*
X26726739Y3753261D01*
X26639111Y3636205D01*
X26588011Y3499205D01*
X26588011Y3499203D01*
X26581500Y3438655D01*
X15295416Y3438655D01*
X15292602Y3442528D01*
X15190798Y3582650D01*
X15190794Y3582655D01*
X15012654Y3760795D01*
X15012649Y3760799D01*
X14808848Y3908868D01*
X14808847Y3908869D01*
X14808845Y3908870D01*
X14738747Y3944587D01*
X14584383Y4023240D01*
X14344785Y4101090D01*
X14095962Y4140500D01*
X13844038Y4140500D01*
X13719626Y4120795D01*
X13595214Y4101090D01*
X13355616Y4023240D01*
X13131151Y3908868D01*
X12927350Y3760799D01*
X12927345Y3760795D01*
X12749205Y3582655D01*
X12749201Y3582650D01*
X12601132Y3378849D01*
X12486760Y3154384D01*
X12408910Y2914786D01*
X12369500Y2665962D01*
X300500Y2665962D01*
X300500Y8318728D01*
X17500578Y8318728D01*
X17500578Y8081273D01*
X17537721Y7846759D01*
X17611097Y7620933D01*
X17709908Y7427007D01*
X17718893Y7409373D01*
X17858458Y7217278D01*
X18026356Y7049380D01*
X18218451Y6909815D01*
X18318406Y6858886D01*
X18430010Y6802020D01*
X18430012Y6802020D01*
X18430015Y6802018D01*
X18551062Y6762688D01*
X18655836Y6728644D01*
X18890351Y6691500D01*
X18890356Y6691500D01*
X19127805Y6691500D01*
X19362319Y6728644D01*
X19398309Y6740338D01*
X19588141Y6802018D01*
X19799705Y6909815D01*
X19991800Y7049380D01*
X20159698Y7217278D01*
X20299263Y7409373D01*
X20407060Y7620937D01*
X20480434Y7846759D01*
X20493144Y7927007D01*
X20517578Y8081273D01*
X20517578Y8318728D01*
X24000578Y8318728D01*
X24000578Y8081273D01*
X24037721Y7846759D01*
X24111097Y7620933D01*
X24209908Y7427007D01*
X24218893Y7409373D01*
X24358458Y7217278D01*
X24526356Y7049380D01*
X24718451Y6909815D01*
X24818406Y6858886D01*
X24930010Y6802020D01*
X24930012Y6802020D01*
X24930015Y6802018D01*
X25051062Y6762688D01*
X25155836Y6728644D01*
X25390351Y6691500D01*
X25390356Y6691500D01*
X25627805Y6691500D01*
X25862319Y6728644D01*
X25898309Y6740338D01*
X26088141Y6802018D01*
X26299705Y6909815D01*
X26491800Y7049380D01*
X26659698Y7217278D01*
X26799263Y7409373D01*
X26907060Y7620937D01*
X26947683Y7745962D01*
X64439500Y7745962D01*
X64439500Y7494038D01*
X64450117Y7427007D01*
X64478910Y7245215D01*
X64556760Y7005617D01*
X64671132Y6781152D01*
X64819201Y6577351D01*
X64819205Y6577346D01*
X64997345Y6399206D01*
X64997350Y6399202D01*
X65039051Y6368905D01*
X65201155Y6251130D01*
X65344184Y6178253D01*
X65425616Y6136761D01*
X65425618Y6136761D01*
X65425621Y6136759D01*
X65665215Y6058910D01*
X65914038Y6019500D01*
X65914039Y6019500D01*
X66165961Y6019500D01*
X66165962Y6019500D01*
X66414785Y6058910D01*
X66654379Y6136759D01*
X66878845Y6251130D01*
X67082656Y6399207D01*
X67260793Y6577344D01*
X67408870Y6781155D01*
X67523241Y7005621D01*
X67601090Y7245215D01*
X67640500Y7494038D01*
X67640500Y7745962D01*
X67601090Y7994785D01*
X67523241Y8234379D01*
X67523239Y8234382D01*
X67523239Y8234384D01*
X67475764Y8327558D01*
X67408870Y8458845D01*
X67343342Y8549037D01*
X67260798Y8662650D01*
X67260794Y8662655D01*
X67082654Y8840795D01*
X67082649Y8840799D01*
X66878848Y8988868D01*
X66878847Y8988869D01*
X66878845Y8988870D01*
X66793811Y9032197D01*
X66654383Y9103240D01*
X66414785Y9181090D01*
X66404462Y9182725D01*
X66165962Y9220500D01*
X65914038Y9220500D01*
X65789626Y9200795D01*
X65665214Y9181090D01*
X65425616Y9103240D01*
X65201151Y8988868D01*
X64997350Y8840799D01*
X64997345Y8840795D01*
X64819205Y8662655D01*
X64819201Y8662650D01*
X64671132Y8458849D01*
X64556760Y8234384D01*
X64487135Y8020099D01*
X64478910Y7994785D01*
X64439500Y7745962D01*
X26947683Y7745962D01*
X26980434Y7846759D01*
X27003879Y7994786D01*
X27017578Y8081273D01*
X27017578Y8318728D01*
X26980434Y8553242D01*
X26928822Y8712087D01*
X26907060Y8779063D01*
X26907058Y8779066D01*
X26907058Y8779068D01*
X26821114Y8947741D01*
X26799263Y8990627D01*
X26659698Y9182722D01*
X26491800Y9350620D01*
X26299705Y9490185D01*
X26282903Y9498746D01*
X26088145Y9597981D01*
X25862319Y9671357D01*
X25627805Y9708500D01*
X25627800Y9708500D01*
X25390356Y9708500D01*
X25390351Y9708500D01*
X25155836Y9671357D01*
X24930010Y9597981D01*
X24718450Y9490185D01*
X24526353Y9350618D01*
X24358460Y9182725D01*
X24218893Y8990628D01*
X24111097Y8779068D01*
X24037721Y8553242D01*
X24000578Y8318728D01*
X20517578Y8318728D01*
X20480434Y8553242D01*
X20428822Y8712087D01*
X20407060Y8779063D01*
X20407058Y8779066D01*
X20407058Y8779068D01*
X20321114Y8947741D01*
X20299263Y8990627D01*
X20159698Y9182722D01*
X19991800Y9350620D01*
X19799705Y9490185D01*
X19782903Y9498746D01*
X19588145Y9597981D01*
X19362319Y9671357D01*
X19127805Y9708500D01*
X19127800Y9708500D01*
X18890356Y9708500D01*
X18890351Y9708500D01*
X18655836Y9671357D01*
X18430010Y9597981D01*
X18218450Y9490185D01*
X18026353Y9350618D01*
X17858460Y9182725D01*
X17718893Y8990628D01*
X17611097Y8779068D01*
X17537721Y8553242D01*
X17500578Y8318728D01*
X300500Y8318728D01*
X300500Y12818053D01*
X17509078Y12818053D01*
X17509078Y12581948D01*
X17546012Y12348753D01*
X17618975Y12124198D01*
X17726165Y11913826D01*
X17786416Y11830896D01*
X17786418Y11830895D01*
X18485290Y12529767D01*
X18496560Y12487708D01*
X18568968Y12362292D01*
X18671370Y12259890D01*
X18796786Y12187482D01*
X18838843Y12176213D01*
X18139971Y11477342D01*
X18222906Y11417086D01*
X18433275Y11309898D01*
X18657830Y11236935D01*
X18657829Y11236935D01*
X18891026Y11200000D01*
X19127130Y11200000D01*
X19360325Y11236935D01*
X19584880Y11309898D01*
X19795241Y11417082D01*
X19795247Y11417086D01*
X19878182Y11477342D01*
X19878183Y11477342D01*
X19179311Y12176213D01*
X19221370Y12187482D01*
X19346786Y12259890D01*
X19449188Y12362292D01*
X19521596Y12487708D01*
X19532865Y12529766D01*
X20231736Y11830895D01*
X20231736Y11830896D01*
X20291992Y11913831D01*
X20291996Y11913837D01*
X20399180Y12124198D01*
X20472143Y12348753D01*
X20509078Y12581948D01*
X20509078Y12818053D01*
X24009078Y12818053D01*
X24009078Y12581948D01*
X24046012Y12348753D01*
X24118975Y12124198D01*
X24226165Y11913826D01*
X24286416Y11830896D01*
X24286418Y11830895D01*
X24985290Y12529767D01*
X24996560Y12487708D01*
X25068968Y12362292D01*
X25171370Y12259890D01*
X25296786Y12187482D01*
X25338843Y12176213D01*
X24639971Y11477342D01*
X24722906Y11417086D01*
X24933275Y11309898D01*
X25157830Y11236935D01*
X25157829Y11236935D01*
X25391026Y11200000D01*
X25627130Y11200000D01*
X25860325Y11236935D01*
X26084880Y11309898D01*
X26295241Y11417082D01*
X26295247Y11417086D01*
X26378182Y11477342D01*
X26378183Y11477342D01*
X25679311Y12176213D01*
X25721370Y12187482D01*
X25846786Y12259890D01*
X25949188Y12362292D01*
X26021596Y12487708D01*
X26032865Y12529766D01*
X26731736Y11830895D01*
X26731736Y11830896D01*
X26791992Y11913831D01*
X26791996Y11913837D01*
X26899180Y12124198D01*
X26972143Y12348753D01*
X27009078Y12581948D01*
X27009078Y12818053D01*
X26972143Y13051248D01*
X26953626Y13108239D01*
X26942759Y13141685D01*
X41371500Y13141685D01*
X41371500Y12948316D01*
X41401750Y12757325D01*
X41461502Y12573423D01*
X41461503Y12573420D01*
X41549294Y12401123D01*
X41662946Y12244693D01*
X41662950Y12244688D01*
X41799687Y12107951D01*
X41799692Y12107947D01*
X41936139Y12008814D01*
X41956126Y11994292D01*
X42068756Y11936905D01*
X42128419Y11906504D01*
X42128422Y11906503D01*
X42220373Y11876627D01*
X42312326Y11846750D01*
X42503315Y11816500D01*
X42503316Y11816500D01*
X42696684Y11816500D01*
X42696685Y11816500D01*
X42887674Y11846750D01*
X43071580Y11906504D01*
X43243874Y11994292D01*
X43400314Y12107952D01*
X43537048Y12244686D01*
X43650708Y12401126D01*
X43738496Y12573420D01*
X43798250Y12757326D01*
X43828500Y12948315D01*
X43828500Y13141685D01*
X43798250Y13332674D01*
X43738496Y13516580D01*
X43738496Y13516581D01*
X43650708Y13688874D01*
X43621935Y13728477D01*
X43621934Y13728480D01*
X43537053Y13845308D01*
X43537049Y13845313D01*
X43400312Y13982050D01*
X43400307Y13982054D01*
X43243877Y14095706D01*
X43243876Y14095707D01*
X43243874Y14095708D01*
X43188675Y14123834D01*
X43071580Y14183497D01*
X43071577Y14183498D01*
X42887675Y14243250D01*
X42792179Y14258375D01*
X42696685Y14273500D01*
X42503315Y14273500D01*
X42439652Y14263417D01*
X42312324Y14243250D01*
X42128422Y14183498D01*
X42128419Y14183497D01*
X41956122Y14095706D01*
X41799692Y13982054D01*
X41799687Y13982050D01*
X41662950Y13845313D01*
X41662946Y13845308D01*
X41549294Y13688878D01*
X41461503Y13516581D01*
X41461502Y13516578D01*
X41401750Y13332676D01*
X41371500Y13141685D01*
X26942759Y13141685D01*
X26899180Y13275803D01*
X26791992Y13486172D01*
X26731736Y13569106D01*
X26731736Y13569107D01*
X26032865Y12870235D01*
X26021596Y12912292D01*
X25949188Y13037708D01*
X25846786Y13140110D01*
X25721370Y13212518D01*
X25679312Y13223788D01*
X26378183Y13922660D01*
X26378182Y13922662D01*
X26295252Y13982913D01*
X26084880Y14090103D01*
X25860325Y14163066D01*
X25860326Y14163066D01*
X25627130Y14200000D01*
X25391026Y14200000D01*
X25157830Y14163066D01*
X24933275Y14090103D01*
X24722908Y13982916D01*
X24639972Y13922660D01*
X25338844Y13223788D01*
X25296786Y13212518D01*
X25171370Y13140110D01*
X25068968Y13037708D01*
X24996560Y12912292D01*
X24985290Y12870234D01*
X24286418Y13569106D01*
X24226162Y13486170D01*
X24118975Y13275803D01*
X24046012Y13051248D01*
X24009078Y12818053D01*
X20509078Y12818053D01*
X20472143Y13051248D01*
X20399180Y13275803D01*
X20291992Y13486172D01*
X20231736Y13569106D01*
X20231736Y13569107D01*
X19532865Y12870235D01*
X19521596Y12912292D01*
X19449188Y13037708D01*
X19346786Y13140110D01*
X19221370Y13212518D01*
X19179312Y13223788D01*
X19878183Y13922660D01*
X19878182Y13922661D01*
X19795252Y13982913D01*
X19584880Y14090103D01*
X19360325Y14163066D01*
X19360326Y14163066D01*
X19127130Y14200000D01*
X18891026Y14200000D01*
X18657830Y14163066D01*
X18433275Y14090103D01*
X18222908Y13982916D01*
X18139972Y13922660D01*
X18838844Y13223788D01*
X18796786Y13212518D01*
X18671370Y13140110D01*
X18568968Y13037708D01*
X18496560Y12912292D01*
X18485290Y12870234D01*
X17786418Y13569106D01*
X17726162Y13486170D01*
X17618975Y13275803D01*
X17546012Y13051248D01*
X17509078Y12818053D01*
X300500Y12818053D01*
X300500Y15681685D01*
X38831500Y15681685D01*
X38831500Y15488316D01*
X38861750Y15297325D01*
X38921502Y15113423D01*
X38921503Y15113420D01*
X38980752Y14997139D01*
X39007766Y14944120D01*
X39009294Y14941123D01*
X39122946Y14784693D01*
X39122950Y14784688D01*
X39259687Y14647951D01*
X39259692Y14647947D01*
X39396139Y14548814D01*
X39416126Y14534292D01*
X39528756Y14476905D01*
X39588419Y14446504D01*
X39588422Y14446503D01*
X39680373Y14416627D01*
X39772326Y14386750D01*
X39963315Y14356500D01*
X39963316Y14356500D01*
X40156684Y14356500D01*
X40156685Y14356500D01*
X40347674Y14386750D01*
X40531580Y14446504D01*
X40703874Y14534292D01*
X40860314Y14647952D01*
X40997048Y14784686D01*
X41110708Y14941126D01*
X41198496Y15113420D01*
X41258250Y15297326D01*
X41288500Y15488315D01*
X41288500Y15681016D01*
X43920000Y15681016D01*
X43920000Y15488985D01*
X43950040Y15299316D01*
X44009383Y15116679D01*
X44096561Y14945585D01*
X44117798Y14916354D01*
X44740000Y15538555D01*
X44740000Y15532339D01*
X44767259Y15430606D01*
X44819920Y15339394D01*
X44894394Y15264920D01*
X44985606Y15212259D01*
X45087339Y15185000D01*
X45093554Y15185000D01*
X44471351Y14562800D01*
X44471352Y14562799D01*
X44500577Y14541566D01*
X44671678Y14454384D01*
X44854315Y14395041D01*
X45043985Y14365000D01*
X45236015Y14365000D01*
X45425684Y14395041D01*
X45608321Y14454384D01*
X45779419Y14541564D01*
X45808646Y14562799D01*
X45808646Y14562800D01*
X45780991Y14590455D01*
X45696459Y14674987D01*
X52500000Y14674987D01*
X52500000Y14250000D01*
X53319670Y14250000D01*
X53299925Y14230255D01*
X53250556Y14144745D01*
X53225000Y14049370D01*
X53225000Y13950630D01*
X53250556Y13855255D01*
X53299925Y13769745D01*
X53319670Y13750000D01*
X52500001Y13750000D01*
X52500001Y13325014D01*
X52510494Y13222303D01*
X52565641Y13055881D01*
X52565643Y13055876D01*
X52657684Y12906655D01*
X52781654Y12782685D01*
X52930875Y12690644D01*
X52930880Y12690642D01*
X53097302Y12635495D01*
X53097309Y12635494D01*
X53200019Y12625001D01*
X53349999Y12625001D01*
X53350000Y12625002D01*
X53350000Y13719670D01*
X53369745Y13699925D01*
X53455255Y13650556D01*
X53550630Y13625000D01*
X53649370Y13625000D01*
X53744745Y13650556D01*
X53830255Y13699925D01*
X53850000Y13719670D01*
X53850000Y12625001D01*
X53999972Y12625001D01*
X53999986Y12625002D01*
X54102697Y12635495D01*
X54269119Y12690642D01*
X54269124Y12690644D01*
X54418345Y12782685D01*
X54542317Y12906657D01*
X54577630Y12963909D01*
X54629577Y13010634D01*
X54698539Y13021857D01*
X54762622Y12994014D01*
X54770850Y12986494D01*
X54877862Y12879482D01*
X54877867Y12879478D01*
X54962412Y12818053D01*
X55019019Y12776926D01*
X55120646Y12725144D01*
X55174483Y12697712D01*
X55174486Y12697711D01*
X55257455Y12670754D01*
X55340426Y12643795D01*
X55512759Y12616500D01*
X55512760Y12616500D01*
X55687240Y12616500D01*
X55687241Y12616500D01*
X55859574Y12643795D01*
X56025516Y12697712D01*
X56180981Y12776926D01*
X56322139Y12879483D01*
X56445517Y13002861D01*
X56470835Y13037708D01*
X56499682Y13077412D01*
X56555011Y13120078D01*
X56624625Y13126057D01*
X56686420Y13093452D01*
X56700318Y13077412D01*
X56754477Y13002868D01*
X56754481Y13002863D01*
X56877862Y12879482D01*
X56877867Y12879478D01*
X56962412Y12818053D01*
X57019019Y12776926D01*
X57120646Y12725144D01*
X57174483Y12697712D01*
X57174486Y12697711D01*
X57257455Y12670754D01*
X57340426Y12643795D01*
X57512759Y12616500D01*
X57512760Y12616500D01*
X57687240Y12616500D01*
X57687241Y12616500D01*
X57859574Y12643795D01*
X58025516Y12697712D01*
X58180981Y12776926D01*
X58322139Y12879483D01*
X58445517Y13002861D01*
X58470835Y13037708D01*
X58499682Y13077412D01*
X58555011Y13120078D01*
X58624625Y13126057D01*
X58686420Y13093452D01*
X58700318Y13077412D01*
X58754477Y13002868D01*
X58754481Y13002863D01*
X58877862Y12879482D01*
X58877867Y12879478D01*
X58962412Y12818053D01*
X59019019Y12776926D01*
X59120646Y12725144D01*
X59174483Y12697712D01*
X59174486Y12697711D01*
X59257455Y12670754D01*
X59340426Y12643795D01*
X59512759Y12616500D01*
X59512760Y12616500D01*
X59687240Y12616500D01*
X59687241Y12616500D01*
X59859574Y12643795D01*
X60025516Y12697712D01*
X60180981Y12776926D01*
X60322139Y12879483D01*
X60445517Y13002861D01*
X60470835Y13037708D01*
X60499682Y13077412D01*
X60555011Y13120078D01*
X60624625Y13126057D01*
X60686420Y13093452D01*
X60700318Y13077412D01*
X60754477Y13002868D01*
X60754481Y13002863D01*
X60877862Y12879482D01*
X60877867Y12879478D01*
X60962412Y12818053D01*
X61019019Y12776926D01*
X61120646Y12725144D01*
X61174483Y12697712D01*
X61174486Y12697711D01*
X61257455Y12670754D01*
X61340426Y12643795D01*
X61512759Y12616500D01*
X61512760Y12616500D01*
X61687240Y12616500D01*
X61687241Y12616500D01*
X61859574Y12643795D01*
X62025516Y12697712D01*
X62180981Y12776926D01*
X62322139Y12879483D01*
X62445517Y13002861D01*
X62470835Y13037708D01*
X62499682Y13077412D01*
X62555011Y13120078D01*
X62624625Y13126057D01*
X62686420Y13093452D01*
X62700318Y13077412D01*
X62754477Y13002868D01*
X62754481Y13002863D01*
X62877862Y12879482D01*
X62877867Y12879478D01*
X62962412Y12818053D01*
X63019019Y12776926D01*
X63120646Y12725144D01*
X63174483Y12697712D01*
X63174486Y12697711D01*
X63257455Y12670754D01*
X63340426Y12643795D01*
X63512759Y12616500D01*
X63512760Y12616500D01*
X63687240Y12616500D01*
X63687241Y12616500D01*
X63859574Y12643795D01*
X64025516Y12697712D01*
X64180981Y12776926D01*
X64322139Y12879483D01*
X64445517Y13002861D01*
X64548074Y13144019D01*
X64627288Y13299484D01*
X64681205Y13465426D01*
X64708500Y13637759D01*
X64708500Y14362241D01*
X64681205Y14534574D01*
X64654246Y14617545D01*
X64627289Y14700514D01*
X64627288Y14700517D01*
X64584397Y14784693D01*
X64548074Y14855981D01*
X64500193Y14921884D01*
X64445522Y14997133D01*
X64445518Y14997138D01*
X64322137Y15120519D01*
X64322132Y15120523D01*
X64180984Y15223072D01*
X64180983Y15223073D01*
X64180981Y15223074D01*
X64131175Y15248452D01*
X64025516Y15302289D01*
X64025513Y15302290D01*
X63859575Y15356205D01*
X63740914Y15374999D01*
X63687241Y15383500D01*
X63512759Y15383500D01*
X63459092Y15375000D01*
X63340424Y15356205D01*
X63174486Y15302290D01*
X63174483Y15302289D01*
X63019015Y15223072D01*
X62877867Y15120523D01*
X62877862Y15120519D01*
X62754481Y14997138D01*
X62700318Y14922588D01*
X62644988Y14879923D01*
X62575375Y14873944D01*
X62513580Y14906550D01*
X62499682Y14922588D01*
X62445518Y14997138D01*
X62322137Y15120519D01*
X62322132Y15120523D01*
X62180984Y15223072D01*
X62180983Y15223073D01*
X62180981Y15223074D01*
X62131175Y15248452D01*
X62025516Y15302289D01*
X62025513Y15302290D01*
X61859575Y15356205D01*
X61740914Y15374999D01*
X61687241Y15383500D01*
X61512759Y15383500D01*
X61459092Y15375000D01*
X61340424Y15356205D01*
X61174486Y15302290D01*
X61174483Y15302289D01*
X61019015Y15223072D01*
X60877867Y15120523D01*
X60877862Y15120519D01*
X60754481Y14997138D01*
X60700318Y14922588D01*
X60644988Y14879923D01*
X60575375Y14873944D01*
X60513580Y14906550D01*
X60499682Y14922588D01*
X60445518Y14997138D01*
X60322137Y15120519D01*
X60322132Y15120523D01*
X60180984Y15223072D01*
X60180983Y15223073D01*
X60180981Y15223074D01*
X60131175Y15248452D01*
X60025516Y15302289D01*
X60025513Y15302290D01*
X59859575Y15356205D01*
X59740914Y15374999D01*
X59687241Y15383500D01*
X59512759Y15383500D01*
X59459092Y15375000D01*
X59340424Y15356205D01*
X59174486Y15302290D01*
X59174483Y15302289D01*
X59019015Y15223072D01*
X58877867Y15120523D01*
X58877862Y15120519D01*
X58754481Y14997138D01*
X58700318Y14922588D01*
X58644988Y14879923D01*
X58575375Y14873944D01*
X58513580Y14906550D01*
X58499682Y14922588D01*
X58445518Y14997138D01*
X58322137Y15120519D01*
X58322132Y15120523D01*
X58180984Y15223072D01*
X58180983Y15223073D01*
X58180981Y15223074D01*
X58131175Y15248452D01*
X58025516Y15302289D01*
X58025513Y15302290D01*
X57859575Y15356205D01*
X57740914Y15374999D01*
X57687241Y15383500D01*
X57512759Y15383500D01*
X57459092Y15375000D01*
X57340424Y15356205D01*
X57174486Y15302290D01*
X57174483Y15302289D01*
X57019015Y15223072D01*
X56877867Y15120523D01*
X56877862Y15120519D01*
X56754481Y14997138D01*
X56700318Y14922588D01*
X56644988Y14879923D01*
X56575375Y14873944D01*
X56513580Y14906550D01*
X56499682Y14922588D01*
X56445518Y14997138D01*
X56322137Y15120519D01*
X56322132Y15120523D01*
X56180984Y15223072D01*
X56180983Y15223073D01*
X56180981Y15223074D01*
X56131175Y15248452D01*
X56025516Y15302289D01*
X56025513Y15302290D01*
X55859575Y15356205D01*
X55740914Y15374999D01*
X55687241Y15383500D01*
X55512759Y15383500D01*
X55459092Y15375000D01*
X55340424Y15356205D01*
X55174486Y15302290D01*
X55174483Y15302289D01*
X55019015Y15223072D01*
X54877868Y15120524D01*
X54770850Y15013506D01*
X54709527Y14980022D01*
X54639835Y14985006D01*
X54583902Y15026878D01*
X54577630Y15036092D01*
X54542317Y15093344D01*
X54418345Y15217316D01*
X54269124Y15309357D01*
X54269119Y15309359D01*
X54102697Y15364506D01*
X54102690Y15364507D01*
X53999986Y15375000D01*
X53850000Y15375000D01*
X53850000Y14280330D01*
X53830255Y14300075D01*
X53744745Y14349444D01*
X53649370Y14375000D01*
X53550630Y14375000D01*
X53455255Y14349444D01*
X53369745Y14300075D01*
X53350000Y14280330D01*
X53350000Y15375000D01*
X53200027Y15375000D01*
X53200012Y15374999D01*
X53097302Y15364506D01*
X52930880Y15309359D01*
X52930875Y15309357D01*
X52781654Y15217316D01*
X52657684Y15093346D01*
X52565643Y14944125D01*
X52565641Y14944120D01*
X52510494Y14777698D01*
X52510493Y14777691D01*
X52500000Y14674987D01*
X45696459Y14674987D01*
X45186447Y15185000D01*
X45192661Y15185000D01*
X45294394Y15212259D01*
X45385606Y15264920D01*
X45460080Y15339394D01*
X45512741Y15430606D01*
X45540000Y15532339D01*
X45540000Y15538554D01*
X46162200Y14916354D01*
X46162201Y14916354D01*
X46183436Y14945581D01*
X46270616Y15116679D01*
X46329959Y15299316D01*
X46360000Y15488985D01*
X46360000Y15681016D01*
X46329959Y15870685D01*
X46270616Y16053322D01*
X46183434Y16224423D01*
X46162201Y16253648D01*
X46162200Y16253649D01*
X45540000Y15631448D01*
X45540000Y15637661D01*
X45512741Y15739394D01*
X45460080Y15830606D01*
X45385606Y15905080D01*
X45294394Y15957741D01*
X45192661Y15985000D01*
X45186447Y15985000D01*
X45808646Y16607202D01*
X45779415Y16628439D01*
X45608321Y16715617D01*
X45425684Y16774960D01*
X45236015Y16805000D01*
X45043985Y16805000D01*
X44854315Y16774960D01*
X44671678Y16715617D01*
X44500578Y16628436D01*
X44471352Y16607202D01*
X44471351Y16607202D01*
X45093554Y15985000D01*
X45087339Y15985000D01*
X44985606Y15957741D01*
X44894394Y15905080D01*
X44819920Y15830606D01*
X44767259Y15739394D01*
X44740000Y15637661D01*
X44740000Y15631447D01*
X44117798Y16253649D01*
X44117798Y16253648D01*
X44096564Y16224422D01*
X44009383Y16053322D01*
X43950040Y15870685D01*
X43920000Y15681016D01*
X41288500Y15681016D01*
X41288500Y15681685D01*
X41258250Y15872674D01*
X41228373Y15964627D01*
X41198497Y16056578D01*
X41198496Y16056581D01*
X41163631Y16125007D01*
X41110708Y16228874D01*
X41076321Y16276204D01*
X40997053Y16385308D01*
X40997049Y16385313D01*
X40860312Y16522050D01*
X40860307Y16522054D01*
X40703877Y16635706D01*
X40703876Y16635707D01*
X40703874Y16635708D01*
X40648675Y16663834D01*
X40531580Y16723497D01*
X40531577Y16723498D01*
X40347675Y16783250D01*
X40210351Y16805000D01*
X40156685Y16813500D01*
X39963315Y16813500D01*
X39909649Y16805000D01*
X39772324Y16783250D01*
X39588422Y16723498D01*
X39588419Y16723497D01*
X39416122Y16635706D01*
X39259692Y16522054D01*
X39259687Y16522050D01*
X39122950Y16385313D01*
X39122946Y16385308D01*
X39009294Y16228878D01*
X38921503Y16056581D01*
X38921502Y16056578D01*
X38861750Y15872676D01*
X38831500Y15681685D01*
X300500Y15681685D01*
X300500Y20848655D01*
X3520716Y20848655D01*
X3520716Y18751346D01*
X3527227Y18690798D01*
X3527227Y18690796D01*
X3549427Y18631278D01*
X3578327Y18553796D01*
X3665955Y18436739D01*
X3783012Y18349111D01*
X3837886Y18328644D01*
X3910711Y18301481D01*
X3920015Y18298011D01*
X3947266Y18295082D01*
X3980561Y18291501D01*
X3980578Y18291500D01*
X6077854Y18291500D01*
X6077870Y18291501D01*
X6104908Y18294409D01*
X6138417Y18298011D01*
X6275420Y18349111D01*
X6392477Y18436739D01*
X6480105Y18553796D01*
X6531205Y18690799D01*
X6534807Y18724308D01*
X6537715Y18751346D01*
X6537716Y18751363D01*
X6537716Y19918728D01*
X8520716Y19918728D01*
X8520716Y19681273D01*
X8557859Y19446759D01*
X8631235Y19220933D01*
X8739031Y19009373D01*
X8878596Y18817278D01*
X9046494Y18649380D01*
X9238589Y18509815D01*
X9338544Y18458886D01*
X9450148Y18402020D01*
X9450150Y18402020D01*
X9450153Y18402018D01*
X9571200Y18362688D01*
X9675974Y18328644D01*
X9910489Y18291500D01*
X9910494Y18291500D01*
X10147943Y18291500D01*
X10382457Y18328644D01*
X10608279Y18402018D01*
X10819843Y18509815D01*
X11011938Y18649380D01*
X11179836Y18817278D01*
X11217217Y18868728D01*
X17500578Y18868728D01*
X17500578Y18631273D01*
X17537721Y18396759D01*
X17611097Y18170933D01*
X17718893Y17959373D01*
X17858458Y17767278D01*
X18026356Y17599380D01*
X18218451Y17459815D01*
X18318406Y17408886D01*
X18430010Y17352020D01*
X18430012Y17352020D01*
X18430015Y17352018D01*
X18551062Y17312688D01*
X18655836Y17278644D01*
X18890351Y17241500D01*
X18890356Y17241500D01*
X19127805Y17241500D01*
X19362319Y17278644D01*
X19404837Y17292459D01*
X19588141Y17352018D01*
X19799705Y17459815D01*
X19991800Y17599380D01*
X20159698Y17767278D01*
X20299263Y17959373D01*
X20407060Y18170937D01*
X20480434Y18396759D01*
X20487481Y18441252D01*
X20517578Y18631273D01*
X20517578Y18868728D01*
X24000578Y18868728D01*
X24000578Y18631273D01*
X24037721Y18396759D01*
X24111097Y18170933D01*
X24218893Y17959373D01*
X24358458Y17767278D01*
X24526356Y17599380D01*
X24718451Y17459815D01*
X24818406Y17408886D01*
X24930010Y17352020D01*
X24930012Y17352020D01*
X24930015Y17352018D01*
X25051062Y17312688D01*
X25155836Y17278644D01*
X25390351Y17241500D01*
X25390356Y17241500D01*
X25627805Y17241500D01*
X25862319Y17278644D01*
X25904837Y17292459D01*
X26088141Y17352018D01*
X26299705Y17459815D01*
X26491800Y17599380D01*
X26659698Y17767278D01*
X26799263Y17959373D01*
X26907060Y18170937D01*
X26980434Y18396759D01*
X26987481Y18441252D01*
X27017578Y18631273D01*
X27017578Y18868728D01*
X26980434Y19103242D01*
X26907058Y19329068D01*
X26799262Y19540628D01*
X26747503Y19611868D01*
X26659698Y19732722D01*
X26491800Y19900620D01*
X26299705Y20040185D01*
X26088145Y20147981D01*
X25862319Y20221357D01*
X25627805Y20258500D01*
X25627800Y20258500D01*
X25390356Y20258500D01*
X25390351Y20258500D01*
X25155836Y20221357D01*
X24930010Y20147981D01*
X24718450Y20040185D01*
X24526353Y19900618D01*
X24358460Y19732725D01*
X24218893Y19540628D01*
X24111097Y19329068D01*
X24037721Y19103242D01*
X24000578Y18868728D01*
X20517578Y18868728D01*
X20480434Y19103242D01*
X20407058Y19329068D01*
X20299262Y19540628D01*
X20247503Y19611868D01*
X20159698Y19732722D01*
X19991800Y19900620D01*
X19799705Y20040185D01*
X19588145Y20147981D01*
X19362319Y20221357D01*
X19127805Y20258500D01*
X19127800Y20258500D01*
X18890356Y20258500D01*
X18890351Y20258500D01*
X18655836Y20221357D01*
X18430010Y20147981D01*
X18218450Y20040185D01*
X18026353Y19900618D01*
X17858460Y19732725D01*
X17718893Y19540628D01*
X17611097Y19329068D01*
X17537721Y19103242D01*
X17500578Y18868728D01*
X11217217Y18868728D01*
X11319401Y19009373D01*
X11427198Y19220937D01*
X11500572Y19446759D01*
X11515439Y19540627D01*
X11537716Y19681273D01*
X11537716Y19918728D01*
X11500572Y20153242D01*
X11454903Y20293796D01*
X11427198Y20379063D01*
X11427196Y20379066D01*
X11427196Y20379068D01*
X11350555Y20529483D01*
X11319401Y20590627D01*
X11179836Y20782722D01*
X11011938Y20950620D01*
X10819843Y21090185D01*
X10770305Y21115426D01*
X10608283Y21197981D01*
X10382457Y21271357D01*
X10147943Y21308500D01*
X10147938Y21308500D01*
X9910494Y21308500D01*
X9910489Y21308500D01*
X9675974Y21271357D01*
X9450148Y21197981D01*
X9238588Y21090185D01*
X9046491Y20950618D01*
X8878598Y20782725D01*
X8739031Y20590628D01*
X8631235Y20379068D01*
X8557859Y20153242D01*
X8520716Y19918728D01*
X6537716Y19918728D01*
X6537716Y20848638D01*
X6537715Y20848655D01*
X6534373Y20879730D01*
X6531205Y20909201D01*
X6515756Y20950620D01*
X6486847Y21028127D01*
X6480105Y21046204D01*
X6392477Y21163261D01*
X6275420Y21250889D01*
X6138419Y21301989D01*
X6077870Y21308500D01*
X6077854Y21308500D01*
X3980578Y21308500D01*
X3980561Y21308500D01*
X3920013Y21301989D01*
X3920011Y21301989D01*
X3783011Y21250889D01*
X3665955Y21163261D01*
X3578327Y21046205D01*
X3527227Y20909205D01*
X3527227Y20909203D01*
X3520716Y20848655D01*
X300500Y20848655D01*
X300500Y23368053D01*
X17509078Y23368053D01*
X17509078Y23131948D01*
X17546012Y22898753D01*
X17618975Y22674198D01*
X17726165Y22463826D01*
X17786416Y22380896D01*
X17786418Y22380895D01*
X18485290Y23079767D01*
X18496560Y23037708D01*
X18568968Y22912292D01*
X18671370Y22809890D01*
X18796786Y22737482D01*
X18838843Y22726213D01*
X18139971Y22027342D01*
X18222906Y21967086D01*
X18433275Y21859898D01*
X18657830Y21786935D01*
X18657829Y21786935D01*
X18891026Y21750000D01*
X19127130Y21750000D01*
X19360325Y21786935D01*
X19584880Y21859898D01*
X19795241Y21967082D01*
X19795247Y21967086D01*
X19878182Y22027342D01*
X19878183Y22027342D01*
X19179311Y22726213D01*
X19221370Y22737482D01*
X19346786Y22809890D01*
X19449188Y22912292D01*
X19521596Y23037708D01*
X19532865Y23079766D01*
X20231736Y22380895D01*
X20231736Y22380896D01*
X20291992Y22463831D01*
X20291996Y22463837D01*
X20399180Y22674198D01*
X20472143Y22898753D01*
X20509078Y23131948D01*
X20509078Y23368053D01*
X24009078Y23368053D01*
X24009078Y23131948D01*
X24046012Y22898753D01*
X24118975Y22674198D01*
X24226165Y22463826D01*
X24286416Y22380896D01*
X24286418Y22380895D01*
X24985290Y23079767D01*
X24996560Y23037708D01*
X25068968Y22912292D01*
X25171370Y22809890D01*
X25296786Y22737482D01*
X25338843Y22726213D01*
X24639971Y22027342D01*
X24722906Y21967086D01*
X24933275Y21859898D01*
X25157830Y21786935D01*
X25157829Y21786935D01*
X25391026Y21750000D01*
X25627130Y21750000D01*
X25860325Y21786935D01*
X26084880Y21859898D01*
X26295241Y21967082D01*
X26295247Y21967086D01*
X26378182Y22027342D01*
X26378183Y22027342D01*
X26080538Y22324987D01*
X52500000Y22324987D01*
X52500000Y21900000D01*
X53319670Y21900000D01*
X53299925Y21880255D01*
X53250556Y21794745D01*
X53225000Y21699370D01*
X53225000Y21600630D01*
X53250556Y21505255D01*
X53299925Y21419745D01*
X53319670Y21400000D01*
X52500001Y21400000D01*
X52500001Y20975014D01*
X52510494Y20872303D01*
X52565641Y20705881D01*
X52565643Y20705876D01*
X52657684Y20556655D01*
X52781654Y20432685D01*
X52930875Y20340644D01*
X52930880Y20340642D01*
X53097302Y20285495D01*
X53097309Y20285494D01*
X53200019Y20275001D01*
X53349999Y20275001D01*
X53350000Y20275002D01*
X53350000Y21369670D01*
X53369745Y21349925D01*
X53455255Y21300556D01*
X53550630Y21275000D01*
X53649370Y21275000D01*
X53744745Y21300556D01*
X53830255Y21349925D01*
X53850000Y21369670D01*
X53850000Y20275001D01*
X53999972Y20275001D01*
X53999986Y20275002D01*
X54102697Y20285495D01*
X54269119Y20340642D01*
X54269124Y20340644D01*
X54418345Y20432685D01*
X54542317Y20556657D01*
X54577630Y20613909D01*
X54629577Y20660634D01*
X54698539Y20671857D01*
X54762622Y20644014D01*
X54770850Y20636494D01*
X54877862Y20529482D01*
X54877867Y20529478D01*
X55000984Y20440029D01*
X55019019Y20426926D01*
X55112945Y20379068D01*
X55174483Y20347712D01*
X55174486Y20347711D01*
X55257455Y20320754D01*
X55340426Y20293795D01*
X55512759Y20266500D01*
X55512760Y20266500D01*
X55687240Y20266500D01*
X55687241Y20266500D01*
X55859574Y20293795D01*
X56025516Y20347712D01*
X56180981Y20426926D01*
X56322139Y20529483D01*
X56445517Y20652861D01*
X56484035Y20705876D01*
X56499682Y20727412D01*
X56555011Y20770078D01*
X56624625Y20776057D01*
X56686420Y20743452D01*
X56700318Y20727412D01*
X56754477Y20652868D01*
X56754481Y20652863D01*
X56877862Y20529482D01*
X56877867Y20529478D01*
X57000984Y20440029D01*
X57019019Y20426926D01*
X57112945Y20379068D01*
X57174483Y20347712D01*
X57174486Y20347711D01*
X57257455Y20320754D01*
X57340426Y20293795D01*
X57512759Y20266500D01*
X57512760Y20266500D01*
X57687240Y20266500D01*
X57687241Y20266500D01*
X57859574Y20293795D01*
X58025516Y20347712D01*
X58180981Y20426926D01*
X58322139Y20529483D01*
X58445517Y20652861D01*
X58484035Y20705876D01*
X58499682Y20727412D01*
X58555011Y20770078D01*
X58624625Y20776057D01*
X58686420Y20743452D01*
X58700318Y20727412D01*
X58754477Y20652868D01*
X58754481Y20652863D01*
X58877862Y20529482D01*
X58877867Y20529478D01*
X59000984Y20440029D01*
X59019019Y20426926D01*
X59112945Y20379068D01*
X59174483Y20347712D01*
X59174486Y20347711D01*
X59257455Y20320754D01*
X59340426Y20293795D01*
X59512759Y20266500D01*
X59512760Y20266500D01*
X59687240Y20266500D01*
X59687241Y20266500D01*
X59859574Y20293795D01*
X60025516Y20347712D01*
X60180981Y20426926D01*
X60322139Y20529483D01*
X60445517Y20652861D01*
X60484035Y20705876D01*
X60499682Y20727412D01*
X60555011Y20770078D01*
X60624625Y20776057D01*
X60686420Y20743452D01*
X60700318Y20727412D01*
X60754477Y20652868D01*
X60754481Y20652863D01*
X60877862Y20529482D01*
X60877867Y20529478D01*
X61000984Y20440029D01*
X61019019Y20426926D01*
X61112945Y20379068D01*
X61174483Y20347712D01*
X61174486Y20347711D01*
X61257455Y20320754D01*
X61340426Y20293795D01*
X61512759Y20266500D01*
X61512760Y20266500D01*
X61687240Y20266500D01*
X61687241Y20266500D01*
X61859574Y20293795D01*
X62025516Y20347712D01*
X62180981Y20426926D01*
X62322139Y20529483D01*
X62445517Y20652861D01*
X62484035Y20705876D01*
X62499682Y20727412D01*
X62555011Y20770078D01*
X62624625Y20776057D01*
X62686420Y20743452D01*
X62700318Y20727412D01*
X62754477Y20652868D01*
X62754481Y20652863D01*
X62877862Y20529482D01*
X62877867Y20529478D01*
X63000984Y20440029D01*
X63019019Y20426926D01*
X63112945Y20379068D01*
X63174483Y20347712D01*
X63174486Y20347711D01*
X63257455Y20320754D01*
X63340426Y20293795D01*
X63512759Y20266500D01*
X63512760Y20266500D01*
X63687240Y20266500D01*
X63687241Y20266500D01*
X63859574Y20293795D01*
X64025516Y20347712D01*
X64180981Y20426926D01*
X64322139Y20529483D01*
X64445517Y20652861D01*
X64548074Y20794019D01*
X64627288Y20949484D01*
X64681205Y21115426D01*
X64708500Y21287759D01*
X64708500Y22012241D01*
X64681205Y22184574D01*
X64627288Y22350516D01*
X64627288Y22350517D01*
X64569553Y22463826D01*
X64548074Y22505981D01*
X64511334Y22556550D01*
X64445522Y22647133D01*
X64445518Y22647138D01*
X64322137Y22770519D01*
X64322132Y22770523D01*
X64180984Y22873072D01*
X64180983Y22873073D01*
X64180981Y22873074D01*
X64104012Y22912292D01*
X64025516Y22952289D01*
X64025513Y22952290D01*
X63859575Y23006205D01*
X63740914Y23024999D01*
X63687241Y23033500D01*
X63512759Y23033500D01*
X63459092Y23025000D01*
X63340424Y23006205D01*
X63174486Y22952290D01*
X63174483Y22952289D01*
X63019015Y22873072D01*
X62877867Y22770523D01*
X62877862Y22770519D01*
X62754481Y22647138D01*
X62700318Y22572588D01*
X62644988Y22529923D01*
X62575375Y22523944D01*
X62513580Y22556550D01*
X62499682Y22572588D01*
X62445518Y22647138D01*
X62322137Y22770519D01*
X62322132Y22770523D01*
X62180984Y22873072D01*
X62180983Y22873073D01*
X62180981Y22873074D01*
X62104012Y22912292D01*
X62025516Y22952289D01*
X62025513Y22952290D01*
X61859575Y23006205D01*
X61740914Y23024999D01*
X61687241Y23033500D01*
X61512759Y23033500D01*
X61459092Y23025000D01*
X61340424Y23006205D01*
X61174486Y22952290D01*
X61174483Y22952289D01*
X61019015Y22873072D01*
X60877867Y22770523D01*
X60877862Y22770519D01*
X60754481Y22647138D01*
X60700318Y22572588D01*
X60644988Y22529923D01*
X60575375Y22523944D01*
X60513580Y22556550D01*
X60499682Y22572588D01*
X60445518Y22647138D01*
X60322137Y22770519D01*
X60322132Y22770523D01*
X60180984Y22873072D01*
X60180983Y22873073D01*
X60180981Y22873074D01*
X60104012Y22912292D01*
X60025516Y22952289D01*
X60025513Y22952290D01*
X59859575Y23006205D01*
X59740914Y23024999D01*
X59687241Y23033500D01*
X59512759Y23033500D01*
X59459092Y23025000D01*
X59340424Y23006205D01*
X59174486Y22952290D01*
X59174483Y22952289D01*
X59019015Y22873072D01*
X58877867Y22770523D01*
X58877862Y22770519D01*
X58754481Y22647138D01*
X58700318Y22572588D01*
X58644988Y22529923D01*
X58575375Y22523944D01*
X58513580Y22556550D01*
X58499682Y22572588D01*
X58445518Y22647138D01*
X58322137Y22770519D01*
X58322132Y22770523D01*
X58180984Y22873072D01*
X58180983Y22873073D01*
X58180981Y22873074D01*
X58104012Y22912292D01*
X58025516Y22952289D01*
X58025513Y22952290D01*
X57859575Y23006205D01*
X57740914Y23024999D01*
X57687241Y23033500D01*
X57512759Y23033500D01*
X57459092Y23025000D01*
X57340424Y23006205D01*
X57174486Y22952290D01*
X57174483Y22952289D01*
X57019015Y22873072D01*
X56877867Y22770523D01*
X56877862Y22770519D01*
X56754481Y22647138D01*
X56700318Y22572588D01*
X56644988Y22529923D01*
X56575375Y22523944D01*
X56513580Y22556550D01*
X56499682Y22572588D01*
X56445518Y22647138D01*
X56322137Y22770519D01*
X56322132Y22770523D01*
X56180984Y22873072D01*
X56180983Y22873073D01*
X56180981Y22873074D01*
X56104012Y22912292D01*
X56025516Y22952289D01*
X56025513Y22952290D01*
X55859575Y23006205D01*
X55740914Y23024999D01*
X55687241Y23033500D01*
X55512759Y23033500D01*
X55459092Y23025000D01*
X55340424Y23006205D01*
X55174486Y22952290D01*
X55174483Y22952289D01*
X55019015Y22873072D01*
X54877868Y22770524D01*
X54770850Y22663506D01*
X54709527Y22630022D01*
X54639835Y22635006D01*
X54583902Y22676878D01*
X54577630Y22686092D01*
X54542317Y22743344D01*
X54418345Y22867316D01*
X54269124Y22959357D01*
X54269119Y22959359D01*
X54102697Y23014506D01*
X54102690Y23014507D01*
X53999986Y23025000D01*
X53850000Y23025000D01*
X53850000Y21930330D01*
X53830255Y21950075D01*
X53744745Y21999444D01*
X53649370Y22025000D01*
X53550630Y22025000D01*
X53455255Y21999444D01*
X53369745Y21950075D01*
X53350000Y21930330D01*
X53350000Y23025000D01*
X53200027Y23025000D01*
X53200012Y23024999D01*
X53097302Y23014506D01*
X52930880Y22959359D01*
X52930875Y22959357D01*
X52781654Y22867316D01*
X52657684Y22743346D01*
X52565643Y22594125D01*
X52565641Y22594120D01*
X52510494Y22427698D01*
X52510493Y22427691D01*
X52500000Y22324987D01*
X26080538Y22324987D01*
X25679311Y22726213D01*
X25721370Y22737482D01*
X25846786Y22809890D01*
X25949188Y22912292D01*
X26021596Y23037708D01*
X26032865Y23079766D01*
X26731736Y22380895D01*
X26731736Y22380896D01*
X26746360Y22401022D01*
X26746361Y22401024D01*
X26791988Y22463824D01*
X26791996Y22463837D01*
X26899180Y22674198D01*
X26972143Y22898753D01*
X27009078Y23131948D01*
X27009078Y23368053D01*
X26972143Y23601248D01*
X26899180Y23825803D01*
X26791992Y24036172D01*
X26731736Y24119106D01*
X26731736Y24119107D01*
X26032865Y23420235D01*
X26021596Y23462292D01*
X25949188Y23587708D01*
X25846786Y23690110D01*
X25721370Y23762518D01*
X25679312Y23773788D01*
X26378183Y24472660D01*
X26378182Y24472662D01*
X26295252Y24532913D01*
X26084880Y24640103D01*
X25860325Y24713066D01*
X25860326Y24713066D01*
X25627130Y24750000D01*
X25391026Y24750000D01*
X25157830Y24713066D01*
X24933275Y24640103D01*
X24722908Y24532916D01*
X24639972Y24472660D01*
X25338844Y23773788D01*
X25296786Y23762518D01*
X25171370Y23690110D01*
X25068968Y23587708D01*
X24996560Y23462292D01*
X24985290Y23420234D01*
X24286418Y24119106D01*
X24226162Y24036170D01*
X24118975Y23825803D01*
X24046012Y23601248D01*
X24009078Y23368053D01*
X20509078Y23368053D01*
X20472143Y23601248D01*
X20399180Y23825803D01*
X20291992Y24036172D01*
X20231736Y24119106D01*
X20231736Y24119107D01*
X19532865Y23420235D01*
X19521596Y23462292D01*
X19449188Y23587708D01*
X19346786Y23690110D01*
X19221370Y23762518D01*
X19179312Y23773788D01*
X19878183Y24472660D01*
X19878182Y24472661D01*
X19795252Y24532913D01*
X19584880Y24640103D01*
X19360325Y24713066D01*
X19360326Y24713066D01*
X19127130Y24750000D01*
X18891026Y24750000D01*
X18657830Y24713066D01*
X18433275Y24640103D01*
X18222908Y24532916D01*
X18139972Y24472660D01*
X18838844Y23773788D01*
X18796786Y23762518D01*
X18671370Y23690110D01*
X18568968Y23587708D01*
X18496560Y23462292D01*
X18485290Y23420234D01*
X17786418Y24119106D01*
X17726162Y24036170D01*
X17618975Y23825803D01*
X17546012Y23601248D01*
X17509078Y23368053D01*
X300500Y23368053D01*
X300500Y29368728D01*
X17500578Y29368728D01*
X17500578Y29131273D01*
X17537721Y28896759D01*
X17611097Y28670933D01*
X17660783Y28573420D01*
X17718893Y28459373D01*
X17858458Y28267278D01*
X18026356Y28099380D01*
X18218451Y27959815D01*
X18292948Y27921857D01*
X18430010Y27852020D01*
X18430012Y27852020D01*
X18430015Y27852018D01*
X18488285Y27833085D01*
X18655836Y27778644D01*
X18890351Y27741500D01*
X18890356Y27741500D01*
X19127805Y27741500D01*
X19362319Y27778644D01*
X19364901Y27779483D01*
X19588141Y27852018D01*
X19799705Y27959815D01*
X19991800Y28099380D01*
X20159698Y28267278D01*
X20299263Y28459373D01*
X20407060Y28670937D01*
X20480434Y28896759D01*
X20503873Y29044745D01*
X20517578Y29131273D01*
X20517578Y29368728D01*
X24000578Y29368728D01*
X24000578Y29131273D01*
X24037721Y28896759D01*
X24111097Y28670933D01*
X24160783Y28573420D01*
X24218893Y28459373D01*
X24358458Y28267278D01*
X24526356Y28099380D01*
X24718451Y27959815D01*
X24792948Y27921857D01*
X24930010Y27852020D01*
X24930012Y27852020D01*
X24930015Y27852018D01*
X24988285Y27833085D01*
X25155836Y27778644D01*
X25390351Y27741500D01*
X25390356Y27741500D01*
X25627805Y27741500D01*
X25862319Y27778644D01*
X25864901Y27779483D01*
X26088141Y27852018D01*
X26299705Y27959815D01*
X26491800Y28099380D01*
X26659698Y28267278D01*
X26799263Y28459373D01*
X26907060Y28670937D01*
X26980434Y28896759D01*
X27003873Y29044745D01*
X27017578Y29131273D01*
X27017578Y29141685D01*
X41371500Y29141685D01*
X41371500Y28948316D01*
X41401750Y28757325D01*
X41461502Y28573423D01*
X41461503Y28573420D01*
X41486175Y28525000D01*
X41535832Y28427542D01*
X41549294Y28401123D01*
X41662946Y28244693D01*
X41662950Y28244688D01*
X41799687Y28107951D01*
X41799692Y28107947D01*
X41936139Y28008814D01*
X41956126Y27994292D01*
X42031522Y27955876D01*
X42128419Y27906504D01*
X42128422Y27906503D01*
X42190005Y27886494D01*
X42312326Y27846750D01*
X42503315Y27816500D01*
X42503316Y27816500D01*
X42696684Y27816500D01*
X42696685Y27816500D01*
X42887674Y27846750D01*
X43071580Y27906504D01*
X43243874Y27994292D01*
X43400314Y28107952D01*
X43537048Y28244686D01*
X43650708Y28401126D01*
X43738496Y28573420D01*
X43747539Y28601252D01*
X43792517Y28739680D01*
X43792517Y28739681D01*
X43798249Y28757323D01*
X43798248Y28757323D01*
X43798250Y28757326D01*
X43828500Y28948315D01*
X43828500Y29141685D01*
X43798250Y29332674D01*
X43738496Y29516580D01*
X43737363Y29518803D01*
X43735814Y29521845D01*
X43708736Y29574987D01*
X52500000Y29574987D01*
X52500000Y29150000D01*
X53319670Y29150000D01*
X53299925Y29130255D01*
X53250556Y29044745D01*
X53225000Y28949370D01*
X53225000Y28850630D01*
X53250556Y28755255D01*
X53299925Y28669745D01*
X53319670Y28650000D01*
X52500001Y28650000D01*
X52500001Y28225014D01*
X52510494Y28122303D01*
X52565641Y27955881D01*
X52565643Y27955876D01*
X52657684Y27806655D01*
X52781654Y27682685D01*
X52930875Y27590644D01*
X52930880Y27590642D01*
X53097302Y27535495D01*
X53097309Y27535494D01*
X53200019Y27525001D01*
X53349999Y27525001D01*
X53350000Y27525002D01*
X53350000Y28619670D01*
X53369745Y28599925D01*
X53455255Y28550556D01*
X53550630Y28525000D01*
X53649370Y28525000D01*
X53744745Y28550556D01*
X53830255Y28599925D01*
X53850000Y28619670D01*
X53850000Y27525001D01*
X53999972Y27525001D01*
X53999986Y27525002D01*
X54102697Y27535495D01*
X54269119Y27590642D01*
X54269124Y27590644D01*
X54418345Y27682685D01*
X54542317Y27806657D01*
X54577630Y27863909D01*
X54629577Y27910634D01*
X54698539Y27921857D01*
X54762622Y27894014D01*
X54770850Y27886494D01*
X54877862Y27779482D01*
X54877867Y27779478D01*
X54930140Y27741500D01*
X55019019Y27676926D01*
X55120646Y27625144D01*
X55174483Y27597712D01*
X55174486Y27597711D01*
X55257455Y27570754D01*
X55340426Y27543795D01*
X55512759Y27516500D01*
X55512760Y27516500D01*
X55687240Y27516500D01*
X55687241Y27516500D01*
X55859574Y27543795D01*
X56025516Y27597712D01*
X56180981Y27676926D01*
X56322139Y27779483D01*
X56445517Y27902861D01*
X56484035Y27955876D01*
X56499682Y27977412D01*
X56555011Y28020078D01*
X56624625Y28026057D01*
X56686420Y27993452D01*
X56700318Y27977412D01*
X56754477Y27902868D01*
X56754481Y27902863D01*
X56877862Y27779482D01*
X56877867Y27779478D01*
X56930140Y27741500D01*
X57019019Y27676926D01*
X57120646Y27625144D01*
X57174483Y27597712D01*
X57174486Y27597711D01*
X57257455Y27570754D01*
X57340426Y27543795D01*
X57512759Y27516500D01*
X57512760Y27516500D01*
X57687240Y27516500D01*
X57687241Y27516500D01*
X57859574Y27543795D01*
X58025516Y27597712D01*
X58180981Y27676926D01*
X58322139Y27779483D01*
X58445517Y27902861D01*
X58484035Y27955876D01*
X58499682Y27977412D01*
X58555011Y28020078D01*
X58624625Y28026057D01*
X58686420Y27993452D01*
X58700318Y27977412D01*
X58754477Y27902868D01*
X58754481Y27902863D01*
X58877862Y27779482D01*
X58877867Y27779478D01*
X58930140Y27741500D01*
X59019019Y27676926D01*
X59120646Y27625144D01*
X59174483Y27597712D01*
X59174486Y27597711D01*
X59257455Y27570754D01*
X59340426Y27543795D01*
X59512759Y27516500D01*
X59512760Y27516500D01*
X59687240Y27516500D01*
X59687241Y27516500D01*
X59859574Y27543795D01*
X60025516Y27597712D01*
X60180981Y27676926D01*
X60322139Y27779483D01*
X60445517Y27902861D01*
X60548074Y28044019D01*
X60627288Y28199484D01*
X60681205Y28365426D01*
X60708500Y28537759D01*
X60708500Y29262241D01*
X60681205Y29434574D01*
X60635583Y29574987D01*
X60627289Y29600514D01*
X60627288Y29600517D01*
X60582265Y29688878D01*
X60548074Y29755981D01*
X60502473Y29818746D01*
X60445522Y29897133D01*
X60445518Y29897138D01*
X60322137Y30020519D01*
X60322132Y30020523D01*
X60180984Y30123072D01*
X60180983Y30123073D01*
X60180981Y30123074D01*
X60104813Y30161884D01*
X60025516Y30202289D01*
X60025513Y30202290D01*
X59859575Y30256205D01*
X59740914Y30274999D01*
X59687241Y30283500D01*
X59512759Y30283500D01*
X59459092Y30275000D01*
X59340424Y30256205D01*
X59174486Y30202290D01*
X59174483Y30202289D01*
X59019015Y30123072D01*
X58877867Y30020523D01*
X58877862Y30020519D01*
X58754481Y29897138D01*
X58700318Y29822588D01*
X58644988Y29779923D01*
X58575375Y29773944D01*
X58513580Y29806550D01*
X58499682Y29822588D01*
X58445518Y29897138D01*
X58322137Y30020519D01*
X58322132Y30020523D01*
X58180984Y30123072D01*
X58180983Y30123073D01*
X58180981Y30123074D01*
X58104813Y30161884D01*
X58025516Y30202289D01*
X58025513Y30202290D01*
X57859575Y30256205D01*
X57740914Y30274999D01*
X57687241Y30283500D01*
X57512759Y30283500D01*
X57459092Y30275000D01*
X57340424Y30256205D01*
X57174486Y30202290D01*
X57174483Y30202289D01*
X57019015Y30123072D01*
X56877867Y30020523D01*
X56877862Y30020519D01*
X56754481Y29897138D01*
X56700318Y29822588D01*
X56644988Y29779923D01*
X56575375Y29773944D01*
X56513580Y29806550D01*
X56499682Y29822588D01*
X56445518Y29897138D01*
X56322137Y30020519D01*
X56322132Y30020523D01*
X56180984Y30123072D01*
X56180983Y30123073D01*
X56180981Y30123074D01*
X56104813Y30161884D01*
X56025516Y30202289D01*
X56025513Y30202290D01*
X55859575Y30256205D01*
X55740914Y30274999D01*
X55687241Y30283500D01*
X55512759Y30283500D01*
X55459092Y30275000D01*
X55340424Y30256205D01*
X55174486Y30202290D01*
X55174483Y30202289D01*
X55019015Y30123072D01*
X54877868Y30020524D01*
X54770850Y29913506D01*
X54709527Y29880022D01*
X54639835Y29885006D01*
X54583902Y29926878D01*
X54577630Y29936092D01*
X54542317Y29993344D01*
X54418345Y30117316D01*
X54269124Y30209357D01*
X54269119Y30209359D01*
X54102697Y30264506D01*
X54102690Y30264507D01*
X53999986Y30275000D01*
X53850000Y30275000D01*
X53850000Y29180330D01*
X53830255Y29200075D01*
X53744745Y29249444D01*
X53649370Y29275000D01*
X53550630Y29275000D01*
X53455255Y29249444D01*
X53369745Y29200075D01*
X53350000Y29180330D01*
X53350000Y30275000D01*
X53200027Y30275000D01*
X53200012Y30274999D01*
X53097302Y30264506D01*
X52930880Y30209359D01*
X52930875Y30209357D01*
X52781654Y30117316D01*
X52657684Y29993346D01*
X52565643Y29844125D01*
X52565641Y29844120D01*
X52510494Y29677698D01*
X52510493Y29677691D01*
X52500000Y29574987D01*
X43708736Y29574987D01*
X43698541Y29594996D01*
X43650708Y29688874D01*
X43601949Y29755985D01*
X43537053Y29845308D01*
X43537049Y29845313D01*
X43400312Y29982050D01*
X43400307Y29982054D01*
X43243877Y30095706D01*
X43243876Y30095707D01*
X43243874Y30095708D01*
X43188675Y30123834D01*
X43071580Y30183497D01*
X43071577Y30183498D01*
X42887675Y30243250D01*
X42753464Y30264507D01*
X42696685Y30273500D01*
X42503315Y30273500D01*
X42446536Y30264507D01*
X42312324Y30243250D01*
X42128422Y30183498D01*
X42128419Y30183497D01*
X41956122Y30095706D01*
X41799692Y29982054D01*
X41799687Y29982050D01*
X41662950Y29845313D01*
X41662946Y29845308D01*
X41549294Y29688878D01*
X41461503Y29516581D01*
X41461502Y29516578D01*
X41401750Y29332676D01*
X41371500Y29141685D01*
X27017578Y29141685D01*
X27017578Y29368728D01*
X26980434Y29603242D01*
X26924969Y29773944D01*
X26907060Y29829063D01*
X26907058Y29829066D01*
X26907058Y29829068D01*
X26841100Y29958517D01*
X26799263Y30040627D01*
X26659698Y30232722D01*
X26491800Y30400620D01*
X26299705Y30540185D01*
X26296995Y30541566D01*
X26088145Y30647981D01*
X25862319Y30721357D01*
X25627805Y30758500D01*
X25627800Y30758500D01*
X25390356Y30758500D01*
X25390351Y30758500D01*
X25155836Y30721357D01*
X24930010Y30647981D01*
X24718450Y30540185D01*
X24526353Y30400618D01*
X24358460Y30232725D01*
X24218893Y30040628D01*
X24111097Y29829068D01*
X24037721Y29603242D01*
X24000578Y29368728D01*
X20517578Y29368728D01*
X20480434Y29603242D01*
X20424969Y29773944D01*
X20407060Y29829063D01*
X20407058Y29829066D01*
X20407058Y29829068D01*
X20341100Y29958517D01*
X20299263Y30040627D01*
X20159698Y30232722D01*
X19991800Y30400620D01*
X19799705Y30540185D01*
X19796995Y30541566D01*
X19588145Y30647981D01*
X19362319Y30721357D01*
X19127805Y30758500D01*
X19127800Y30758500D01*
X18890356Y30758500D01*
X18890351Y30758500D01*
X18655836Y30721357D01*
X18430010Y30647981D01*
X18218450Y30540185D01*
X18026353Y30400618D01*
X17858460Y30232725D01*
X17718893Y30040628D01*
X17611097Y29829068D01*
X17537721Y29603242D01*
X17500578Y29368728D01*
X300500Y29368728D01*
X300500Y31681685D01*
X38831500Y31681685D01*
X38831500Y31488316D01*
X38861750Y31297325D01*
X38921502Y31113423D01*
X38921503Y31113420D01*
X38978538Y31001484D01*
X39007022Y30945581D01*
X39009294Y30941123D01*
X39122946Y30784693D01*
X39122950Y30784688D01*
X39259687Y30647951D01*
X39259692Y30647947D01*
X39343695Y30586916D01*
X39416126Y30534292D01*
X39528756Y30476905D01*
X39588419Y30446504D01*
X39588422Y30446503D01*
X39680373Y30416627D01*
X39772326Y30386750D01*
X39963315Y30356500D01*
X39963316Y30356500D01*
X40156684Y30356500D01*
X40156685Y30356500D01*
X40347674Y30386750D01*
X40531580Y30446504D01*
X40703874Y30534292D01*
X40860314Y30647952D01*
X40997048Y30784686D01*
X41110708Y30941126D01*
X41198496Y31113420D01*
X41258250Y31297326D01*
X41288500Y31488315D01*
X41288500Y31681016D01*
X43920000Y31681016D01*
X43920000Y31488985D01*
X43950040Y31299316D01*
X44009383Y31116679D01*
X44096561Y30945585D01*
X44117798Y30916354D01*
X44740000Y31538555D01*
X44740000Y31532339D01*
X44767259Y31430606D01*
X44819920Y31339394D01*
X44894394Y31264920D01*
X44985606Y31212259D01*
X45087339Y31185000D01*
X45093554Y31185000D01*
X44471351Y30562800D01*
X44471352Y30562799D01*
X44500577Y30541566D01*
X44671678Y30454384D01*
X44854315Y30395041D01*
X45043985Y30365000D01*
X45236015Y30365000D01*
X45425684Y30395041D01*
X45608321Y30454384D01*
X45779419Y30541564D01*
X45808646Y30562799D01*
X45808646Y30562800D01*
X45186447Y31185000D01*
X45192661Y31185000D01*
X45294394Y31212259D01*
X45385606Y31264920D01*
X45460080Y31339394D01*
X45512741Y31430606D01*
X45540000Y31532339D01*
X45540000Y31538554D01*
X46162200Y30916354D01*
X46162201Y30916354D01*
X46183436Y30945581D01*
X46270616Y31116679D01*
X46329959Y31299316D01*
X46360000Y31488985D01*
X46360000Y31681016D01*
X46329959Y31870685D01*
X46270616Y32053322D01*
X46183434Y32224423D01*
X46162201Y32253648D01*
X46162200Y32253649D01*
X45540000Y31631448D01*
X45540000Y31637661D01*
X45512741Y31739394D01*
X45460080Y31830606D01*
X45385606Y31905080D01*
X45294394Y31957741D01*
X45192661Y31985000D01*
X45186447Y31985000D01*
X45808646Y32607202D01*
X45779415Y32628439D01*
X45608321Y32715617D01*
X45425684Y32774960D01*
X45236015Y32805000D01*
X45043985Y32805000D01*
X44854315Y32774960D01*
X44671678Y32715617D01*
X44500578Y32628436D01*
X44471352Y32607202D01*
X44471351Y32607202D01*
X45093554Y31985000D01*
X45087339Y31985000D01*
X44985606Y31957741D01*
X44894394Y31905080D01*
X44819920Y31830606D01*
X44767259Y31739394D01*
X44740000Y31637661D01*
X44740000Y31631447D01*
X44117798Y32253649D01*
X44117798Y32253648D01*
X44096564Y32224422D01*
X44009383Y32053322D01*
X43950040Y31870685D01*
X43920000Y31681016D01*
X41288500Y31681016D01*
X41288500Y31681685D01*
X41258250Y31872674D01*
X41222144Y31983797D01*
X41198497Y32056578D01*
X41198496Y32056581D01*
X41158541Y32134996D01*
X41110708Y32228874D01*
X41092708Y32253649D01*
X40997053Y32385308D01*
X40997049Y32385313D01*
X40860312Y32522050D01*
X40860307Y32522054D01*
X40703877Y32635706D01*
X40703876Y32635707D01*
X40703874Y32635708D01*
X40648675Y32663834D01*
X40531580Y32723497D01*
X40531577Y32723498D01*
X40347675Y32783250D01*
X40210351Y32805000D01*
X40156685Y32813500D01*
X39963315Y32813500D01*
X39909649Y32805000D01*
X39772324Y32783250D01*
X39588422Y32723498D01*
X39588419Y32723497D01*
X39416122Y32635706D01*
X39259692Y32522054D01*
X39259687Y32522050D01*
X39122950Y32385313D01*
X39122946Y32385308D01*
X39009294Y32228878D01*
X38921503Y32056581D01*
X38921502Y32056578D01*
X38861750Y31872676D01*
X38831500Y31681685D01*
X300500Y31681685D01*
X300500Y33868053D01*
X17509078Y33868053D01*
X17509078Y33631948D01*
X17546012Y33398753D01*
X17618975Y33174198D01*
X17726165Y32963826D01*
X17786416Y32880896D01*
X17786418Y32880895D01*
X18485290Y33579767D01*
X18496560Y33537708D01*
X18568968Y33412292D01*
X18671370Y33309890D01*
X18796786Y33237482D01*
X18838843Y33226213D01*
X18139971Y32527342D01*
X18222906Y32467086D01*
X18433275Y32359898D01*
X18657830Y32286935D01*
X18657829Y32286935D01*
X18891026Y32250000D01*
X19127130Y32250000D01*
X19360325Y32286935D01*
X19584880Y32359898D01*
X19795241Y32467082D01*
X19795247Y32467086D01*
X19878182Y32527342D01*
X19878183Y32527342D01*
X19179311Y33226213D01*
X19221370Y33237482D01*
X19346786Y33309890D01*
X19449188Y33412292D01*
X19521596Y33537708D01*
X19532865Y33579766D01*
X20231736Y32880895D01*
X20231736Y32880896D01*
X20291992Y32963831D01*
X20291996Y32963837D01*
X20399180Y33174198D01*
X20472143Y33398753D01*
X20509078Y33631948D01*
X20509078Y33868053D01*
X24009078Y33868053D01*
X24009078Y33631948D01*
X24046012Y33398753D01*
X24118975Y33174198D01*
X24226165Y32963826D01*
X24286416Y32880896D01*
X24286418Y32880895D01*
X24985290Y33579767D01*
X24996560Y33537708D01*
X25068968Y33412292D01*
X25171370Y33309890D01*
X25296786Y33237482D01*
X25338843Y33226213D01*
X24639971Y32527342D01*
X24722906Y32467086D01*
X24933275Y32359898D01*
X25157830Y32286935D01*
X25157829Y32286935D01*
X25391026Y32250000D01*
X25627130Y32250000D01*
X25860325Y32286935D01*
X26084880Y32359898D01*
X26295241Y32467082D01*
X26295247Y32467086D01*
X26378182Y32527342D01*
X26378183Y32527342D01*
X25679311Y33226213D01*
X25721370Y33237482D01*
X25846786Y33309890D01*
X25949188Y33412292D01*
X26021596Y33537708D01*
X26032865Y33579766D01*
X26731736Y32880895D01*
X26731736Y32880896D01*
X26791992Y32963831D01*
X26791996Y32963837D01*
X26899180Y33174198D01*
X26972143Y33398753D01*
X27009078Y33631948D01*
X27009078Y33868053D01*
X26972143Y34101248D01*
X26899180Y34325803D01*
X26791992Y34536172D01*
X26731736Y34619106D01*
X26731736Y34619107D01*
X26032865Y33920235D01*
X26021596Y33962292D01*
X25949188Y34087708D01*
X25846786Y34190110D01*
X25721370Y34262518D01*
X25679312Y34273788D01*
X26378183Y34972660D01*
X26378182Y34972662D01*
X26295252Y35032913D01*
X26084880Y35140103D01*
X25860325Y35213066D01*
X25860326Y35213066D01*
X25627130Y35250000D01*
X25391026Y35250000D01*
X25157830Y35213066D01*
X24933275Y35140103D01*
X24722908Y35032916D01*
X24639972Y34972660D01*
X25338844Y34273788D01*
X25296786Y34262518D01*
X25171370Y34190110D01*
X25068968Y34087708D01*
X24996560Y33962292D01*
X24985290Y33920234D01*
X24286418Y34619106D01*
X24226162Y34536170D01*
X24118975Y34325803D01*
X24046012Y34101248D01*
X24009078Y33868053D01*
X20509078Y33868053D01*
X20472143Y34101248D01*
X20399180Y34325803D01*
X20291992Y34536172D01*
X20231736Y34619106D01*
X20231736Y34619107D01*
X19532865Y33920235D01*
X19521596Y33962292D01*
X19449188Y34087708D01*
X19346786Y34190110D01*
X19221370Y34262518D01*
X19179312Y34273788D01*
X19878183Y34972660D01*
X19878182Y34972661D01*
X19795252Y35032913D01*
X19584880Y35140103D01*
X19360325Y35213066D01*
X19360326Y35213066D01*
X19127130Y35250000D01*
X18891026Y35250000D01*
X18657830Y35213066D01*
X18433275Y35140103D01*
X18222908Y35032916D01*
X18139972Y34972660D01*
X18838844Y34273788D01*
X18796786Y34262518D01*
X18671370Y34190110D01*
X18568968Y34087708D01*
X18496560Y33962292D01*
X18485290Y33920234D01*
X17786418Y34619106D01*
X17726162Y34536170D01*
X17618975Y34325803D01*
X17546012Y34101248D01*
X17509078Y33868053D01*
X300500Y33868053D01*
X300500Y36574987D01*
X52500000Y36574987D01*
X52500000Y36150000D01*
X53319670Y36150000D01*
X53299925Y36130255D01*
X53250556Y36044745D01*
X53225000Y35949370D01*
X53225000Y35850630D01*
X53250556Y35755255D01*
X53299925Y35669745D01*
X53319670Y35650000D01*
X52500001Y35650000D01*
X52500001Y35225014D01*
X52510494Y35122303D01*
X52565641Y34955881D01*
X52565643Y34955876D01*
X52657684Y34806655D01*
X52781654Y34682685D01*
X52930875Y34590644D01*
X52930880Y34590642D01*
X53097302Y34535495D01*
X53097309Y34535494D01*
X53200019Y34525001D01*
X53349999Y34525001D01*
X53350000Y34525002D01*
X53350000Y35619670D01*
X53369745Y35599925D01*
X53455255Y35550556D01*
X53550630Y35525000D01*
X53649370Y35525000D01*
X53744745Y35550556D01*
X53830255Y35599925D01*
X53850000Y35619670D01*
X53850000Y34525001D01*
X53999972Y34525001D01*
X53999986Y34525002D01*
X54102697Y34535495D01*
X54269119Y34590642D01*
X54269124Y34590644D01*
X54418345Y34682685D01*
X54542317Y34806657D01*
X54577630Y34863909D01*
X54629577Y34910634D01*
X54698539Y34921857D01*
X54762622Y34894014D01*
X54770850Y34886494D01*
X54877862Y34779482D01*
X54877867Y34779478D01*
X54958143Y34721155D01*
X55019019Y34676926D01*
X55120646Y34625144D01*
X55174483Y34597712D01*
X55174486Y34597711D01*
X55257455Y34570754D01*
X55340426Y34543795D01*
X55512759Y34516500D01*
X55512760Y34516500D01*
X55687240Y34516500D01*
X55687241Y34516500D01*
X55859574Y34543795D01*
X56025516Y34597712D01*
X56180981Y34676926D01*
X56322139Y34779483D01*
X56445517Y34902861D01*
X56484035Y34955876D01*
X56499682Y34977412D01*
X56555011Y35020078D01*
X56624625Y35026057D01*
X56686420Y34993452D01*
X56700318Y34977412D01*
X56754477Y34902868D01*
X56754481Y34902863D01*
X56877862Y34779482D01*
X56877867Y34779478D01*
X56958143Y34721155D01*
X57019019Y34676926D01*
X57120646Y34625144D01*
X57174483Y34597712D01*
X57174486Y34597711D01*
X57257455Y34570754D01*
X57340426Y34543795D01*
X57512759Y34516500D01*
X57512760Y34516500D01*
X57687240Y34516500D01*
X57687241Y34516500D01*
X57859574Y34543795D01*
X58025516Y34597712D01*
X58180981Y34676926D01*
X58322139Y34779483D01*
X58445517Y34902861D01*
X58484035Y34955876D01*
X58499682Y34977412D01*
X58555011Y35020078D01*
X58624625Y35026057D01*
X58686420Y34993452D01*
X58700318Y34977412D01*
X58754477Y34902868D01*
X58754481Y34902863D01*
X58877862Y34779482D01*
X58877867Y34779478D01*
X58958143Y34721155D01*
X59019019Y34676926D01*
X59120646Y34625144D01*
X59174483Y34597712D01*
X59174486Y34597711D01*
X59257455Y34570754D01*
X59340426Y34543795D01*
X59512759Y34516500D01*
X59512760Y34516500D01*
X59687240Y34516500D01*
X59687241Y34516500D01*
X59859574Y34543795D01*
X60025516Y34597712D01*
X60180981Y34676926D01*
X60322139Y34779483D01*
X60445517Y34902861D01*
X60548074Y35044019D01*
X60627288Y35199484D01*
X60681205Y35365426D01*
X60708500Y35537759D01*
X60708500Y35685962D01*
X64439500Y35685962D01*
X64439500Y35434039D01*
X64478910Y35185215D01*
X64556760Y34945617D01*
X64606504Y34847991D01*
X64641410Y34779483D01*
X64671132Y34721152D01*
X64819201Y34517351D01*
X64819205Y34517346D01*
X64997345Y34339206D01*
X64997350Y34339202D01*
X65139286Y34236080D01*
X65201155Y34191130D01*
X65344184Y34118253D01*
X65425616Y34076761D01*
X65425618Y34076761D01*
X65425621Y34076759D01*
X65665215Y33998910D01*
X65914038Y33959500D01*
X65914039Y33959500D01*
X66165961Y33959500D01*
X66165962Y33959500D01*
X66414785Y33998910D01*
X66654379Y34076759D01*
X66878845Y34191130D01*
X67082656Y34339207D01*
X67260793Y34517344D01*
X67408870Y34721155D01*
X67523241Y34945621D01*
X67601090Y35185215D01*
X67640500Y35434038D01*
X67640500Y35685962D01*
X67601090Y35934785D01*
X67523241Y36174379D01*
X67523239Y36174382D01*
X67523239Y36174384D01*
X67473496Y36272009D01*
X67408870Y36398845D01*
X67265481Y36596204D01*
X67260798Y36602650D01*
X67260794Y36602655D01*
X67082654Y36780795D01*
X67082649Y36780799D01*
X66878848Y36928868D01*
X66878847Y36928869D01*
X66878845Y36928870D01*
X66808747Y36964587D01*
X66654383Y37043240D01*
X66414785Y37121090D01*
X66402259Y37123074D01*
X66165962Y37160500D01*
X65914038Y37160500D01*
X65789626Y37140795D01*
X65665214Y37121090D01*
X65425616Y37043240D01*
X65201151Y36928868D01*
X64997350Y36780799D01*
X64997345Y36780795D01*
X64819205Y36602655D01*
X64819201Y36602650D01*
X64671132Y36398849D01*
X64556760Y36174384D01*
X64478910Y35934786D01*
X64439500Y35685962D01*
X60708500Y35685962D01*
X60708500Y36262241D01*
X60681205Y36434574D01*
X60628689Y36596204D01*
X60627289Y36600514D01*
X60627288Y36600517D01*
X60565442Y36721894D01*
X60548074Y36755981D01*
X60505206Y36814984D01*
X60445522Y36897133D01*
X60445518Y36897138D01*
X60322137Y37020519D01*
X60322132Y37020523D01*
X60180984Y37123072D01*
X60180983Y37123073D01*
X60180981Y37123074D01*
X60107529Y37160500D01*
X60025516Y37202289D01*
X60025513Y37202290D01*
X59859575Y37256205D01*
X59740914Y37274999D01*
X59687241Y37283500D01*
X59512759Y37283500D01*
X59459092Y37275000D01*
X59340424Y37256205D01*
X59174486Y37202290D01*
X59174483Y37202289D01*
X59019015Y37123072D01*
X58877867Y37020523D01*
X58877862Y37020519D01*
X58754481Y36897138D01*
X58700318Y36822588D01*
X58644988Y36779923D01*
X58575375Y36773944D01*
X58513580Y36806550D01*
X58499682Y36822588D01*
X58445518Y36897138D01*
X58322137Y37020519D01*
X58322132Y37020523D01*
X58180984Y37123072D01*
X58180983Y37123073D01*
X58180981Y37123074D01*
X58107529Y37160500D01*
X58025516Y37202289D01*
X58025513Y37202290D01*
X57859575Y37256205D01*
X57740914Y37274999D01*
X57687241Y37283500D01*
X57512759Y37283500D01*
X57459092Y37275000D01*
X57340424Y37256205D01*
X57174486Y37202290D01*
X57174483Y37202289D01*
X57019015Y37123072D01*
X56877867Y37020523D01*
X56877862Y37020519D01*
X56754481Y36897138D01*
X56700318Y36822588D01*
X56644988Y36779923D01*
X56575375Y36773944D01*
X56513580Y36806550D01*
X56499682Y36822588D01*
X56445518Y36897138D01*
X56322137Y37020519D01*
X56322132Y37020523D01*
X56180984Y37123072D01*
X56180983Y37123073D01*
X56180981Y37123074D01*
X56107529Y37160500D01*
X56025516Y37202289D01*
X56025513Y37202290D01*
X55859575Y37256205D01*
X55740914Y37274999D01*
X55687241Y37283500D01*
X55512759Y37283500D01*
X55459092Y37275000D01*
X55340424Y37256205D01*
X55174486Y37202290D01*
X55174483Y37202289D01*
X55019015Y37123072D01*
X54877868Y37020524D01*
X54770850Y36913506D01*
X54709527Y36880022D01*
X54639835Y36885006D01*
X54583902Y36926878D01*
X54577630Y36936092D01*
X54542317Y36993344D01*
X54418345Y37117316D01*
X54269124Y37209357D01*
X54269119Y37209359D01*
X54102697Y37264506D01*
X54102690Y37264507D01*
X53999986Y37275000D01*
X53850000Y37275000D01*
X53850000Y36180330D01*
X53830255Y36200075D01*
X53744745Y36249444D01*
X53649370Y36275000D01*
X53550630Y36275000D01*
X53455255Y36249444D01*
X53369745Y36200075D01*
X53350000Y36180330D01*
X53350000Y37275000D01*
X53200027Y37275000D01*
X53200012Y37274999D01*
X53097302Y37264506D01*
X52930880Y37209359D01*
X52930875Y37209357D01*
X52781654Y37117316D01*
X52657684Y36993346D01*
X52565643Y36844125D01*
X52565641Y36844120D01*
X52510494Y36677698D01*
X52510493Y36677691D01*
X52500000Y36574987D01*
X300500Y36574987D01*
X300500Y39918728D01*
X17500578Y39918728D01*
X17500578Y39681273D01*
X17537721Y39446759D01*
X17611097Y39220933D01*
X17718893Y39009373D01*
X17858458Y38817278D01*
X18026356Y38649380D01*
X18218451Y38509815D01*
X18318406Y38458886D01*
X18430010Y38402020D01*
X18430012Y38402020D01*
X18430015Y38402018D01*
X18551062Y38362688D01*
X18655836Y38328644D01*
X18890351Y38291500D01*
X18890356Y38291500D01*
X19127805Y38291500D01*
X19362319Y38328644D01*
X19398685Y38340460D01*
X19588141Y38402018D01*
X19799705Y38509815D01*
X19991800Y38649380D01*
X20159698Y38817278D01*
X20299263Y39009373D01*
X20407060Y39220937D01*
X20480434Y39446759D01*
X20505306Y39603794D01*
X20517578Y39681273D01*
X20517578Y39918728D01*
X24000578Y39918728D01*
X24000578Y39681273D01*
X24037721Y39446759D01*
X24111097Y39220933D01*
X24218893Y39009373D01*
X24358458Y38817278D01*
X24526356Y38649380D01*
X24718451Y38509815D01*
X24818406Y38458886D01*
X24930010Y38402020D01*
X24930012Y38402020D01*
X24930015Y38402018D01*
X25051062Y38362688D01*
X25155836Y38328644D01*
X25390351Y38291500D01*
X25390356Y38291500D01*
X25627805Y38291500D01*
X25862319Y38328644D01*
X25898685Y38340460D01*
X26088141Y38402018D01*
X26299705Y38509815D01*
X26491800Y38649380D01*
X26659698Y38817278D01*
X26799263Y39009373D01*
X26907060Y39220937D01*
X26980434Y39446759D01*
X27005306Y39603794D01*
X27017578Y39681273D01*
X27017578Y39918728D01*
X26980434Y40153242D01*
X26925639Y40321883D01*
X26907060Y40379063D01*
X26907058Y40379066D01*
X26907058Y40379068D01*
X26833205Y40524011D01*
X26799263Y40590627D01*
X26659698Y40782722D01*
X26491800Y40950620D01*
X26299705Y41090185D01*
X26226388Y41127542D01*
X26088145Y41197981D01*
X25862319Y41271357D01*
X25627805Y41308500D01*
X25627800Y41308500D01*
X25390356Y41308500D01*
X25390351Y41308500D01*
X25155836Y41271357D01*
X24930010Y41197981D01*
X24718450Y41090185D01*
X24526353Y40950618D01*
X24358460Y40782725D01*
X24218893Y40590628D01*
X24111097Y40379068D01*
X24037721Y40153242D01*
X24000578Y39918728D01*
X20517578Y39918728D01*
X20480434Y40153242D01*
X20425639Y40321883D01*
X20407060Y40379063D01*
X20407058Y40379066D01*
X20407058Y40379068D01*
X20333205Y40524011D01*
X20299263Y40590627D01*
X20159698Y40782722D01*
X19991800Y40950620D01*
X19799705Y41090185D01*
X19726388Y41127542D01*
X19588145Y41197981D01*
X19362319Y41271357D01*
X19127805Y41308500D01*
X19127800Y41308500D01*
X18890356Y41308500D01*
X18890351Y41308500D01*
X18655836Y41271357D01*
X18430010Y41197981D01*
X18218450Y41090185D01*
X18026353Y40950618D01*
X17858460Y40782725D01*
X17718893Y40590628D01*
X17611097Y40379068D01*
X17537721Y40153242D01*
X17500578Y39918728D01*
X300500Y39918728D01*
X300500Y42699052D01*
X38041500Y42699052D01*
X38041500Y42500949D01*
X38072487Y42305300D01*
X38133703Y42116899D01*
X38205024Y41976926D01*
X38223634Y41940402D01*
X38340070Y41780142D01*
X38480142Y41640070D01*
X38640402Y41523634D01*
X38723790Y41481146D01*
X38816898Y41433704D01*
X38816900Y41433704D01*
X38816903Y41433702D01*
X38917888Y41400890D01*
X39005299Y41372488D01*
X39200949Y41341500D01*
X39200954Y41341500D01*
X39399051Y41341500D01*
X39594700Y41372488D01*
X39783097Y41433702D01*
X39959598Y41523634D01*
X40119858Y41640070D01*
X40259930Y41780142D01*
X40376366Y41940402D01*
X40466298Y42116903D01*
X40527512Y42305300D01*
X40533644Y42344016D01*
X40558500Y42500949D01*
X40558500Y42699052D01*
X41441500Y42699052D01*
X41441500Y42500949D01*
X41472487Y42305300D01*
X41533703Y42116899D01*
X41605024Y41976926D01*
X41623634Y41940402D01*
X41740070Y41780142D01*
X41880142Y41640070D01*
X42040402Y41523634D01*
X42123790Y41481146D01*
X42216898Y41433704D01*
X42216900Y41433704D01*
X42216903Y41433702D01*
X42317888Y41400890D01*
X42405299Y41372488D01*
X42600949Y41341500D01*
X42600954Y41341500D01*
X42799051Y41341500D01*
X42994700Y41372488D01*
X43183097Y41433702D01*
X43359598Y41523634D01*
X43519858Y41640070D01*
X43659930Y41780142D01*
X43776366Y41940402D01*
X43866298Y42116903D01*
X43927512Y42305300D01*
X43933644Y42344016D01*
X43958500Y42500949D01*
X43958500Y42699052D01*
X43927512Y42894701D01*
X43905306Y42963043D01*
X43902913Y42970405D01*
X43866298Y43083097D01*
X43866296Y43083100D01*
X43866296Y43083102D01*
X43776365Y43259599D01*
X43756518Y43286916D01*
X43659930Y43419858D01*
X43519858Y43559930D01*
X43359598Y43676366D01*
X43183097Y43766298D01*
X43105503Y43791510D01*
X42994700Y43827513D01*
X42799051Y43858500D01*
X42799046Y43858500D01*
X42600954Y43858500D01*
X42600949Y43858500D01*
X42405299Y43827513D01*
X42216898Y43766297D01*
X42040401Y43676366D01*
X41948967Y43609935D01*
X41880142Y43559930D01*
X41880140Y43559928D01*
X41880139Y43559928D01*
X41740072Y43419861D01*
X41740072Y43419860D01*
X41740070Y43419858D01*
X41690065Y43351033D01*
X41623634Y43259599D01*
X41533703Y43083102D01*
X41472487Y42894701D01*
X41441500Y42699052D01*
X40558500Y42699052D01*
X40527512Y42894701D01*
X40499110Y42982112D01*
X40466298Y43083097D01*
X40466296Y43083100D01*
X40466296Y43083102D01*
X40376365Y43259599D01*
X40356518Y43286916D01*
X40259930Y43419858D01*
X40119858Y43559930D01*
X39959598Y43676366D01*
X39783101Y43766297D01*
X39594700Y43827513D01*
X39399051Y43858500D01*
X39399046Y43858500D01*
X39200954Y43858500D01*
X39200949Y43858500D01*
X39005299Y43827513D01*
X38816898Y43766297D01*
X38640401Y43676366D01*
X38548967Y43609935D01*
X38480142Y43559930D01*
X38480140Y43559928D01*
X38480139Y43559928D01*
X38340072Y43419861D01*
X38340072Y43419860D01*
X38340070Y43419858D01*
X38290065Y43351033D01*
X38223634Y43259599D01*
X38133703Y43083102D01*
X38072487Y42894701D01*
X38041500Y42699052D01*
X300500Y42699052D01*
X300500Y44418053D01*
X17509078Y44418053D01*
X17509078Y44181948D01*
X17546012Y43948753D01*
X17618975Y43724198D01*
X17726165Y43513826D01*
X17786416Y43430896D01*
X17786418Y43430895D01*
X18485290Y44129767D01*
X18496560Y44087708D01*
X18568968Y43962292D01*
X18671370Y43859890D01*
X18796786Y43787482D01*
X18838843Y43776213D01*
X18139971Y43077342D01*
X18222906Y43017086D01*
X18433275Y42909898D01*
X18657830Y42836935D01*
X18657829Y42836935D01*
X18891026Y42800000D01*
X19127130Y42800000D01*
X19360325Y42836935D01*
X19584880Y42909898D01*
X19795241Y43017082D01*
X19795247Y43017086D01*
X19878182Y43077342D01*
X19878183Y43077342D01*
X19179311Y43776213D01*
X19221370Y43787482D01*
X19346786Y43859890D01*
X19449188Y43962292D01*
X19521596Y44087708D01*
X19532865Y44129766D01*
X20231736Y43430895D01*
X20231736Y43430896D01*
X20291992Y43513831D01*
X20291996Y43513837D01*
X20399180Y43724198D01*
X20472143Y43948753D01*
X20509078Y44181948D01*
X20509078Y44418053D01*
X24009078Y44418053D01*
X24009078Y44181948D01*
X24046012Y43948753D01*
X24118975Y43724198D01*
X24226165Y43513826D01*
X24286416Y43430896D01*
X24286418Y43430895D01*
X24985290Y44129767D01*
X24996560Y44087708D01*
X25068968Y43962292D01*
X25171370Y43859890D01*
X25296786Y43787482D01*
X25338843Y43776213D01*
X24639971Y43077342D01*
X24722906Y43017086D01*
X24933275Y42909898D01*
X25157830Y42836935D01*
X25157829Y42836935D01*
X25391026Y42800000D01*
X25627130Y42800000D01*
X25793757Y42826391D01*
X25860325Y42836935D01*
X26084880Y42909898D01*
X26295241Y43017082D01*
X26295247Y43017086D01*
X26378182Y43077342D01*
X26378183Y43077342D01*
X25679311Y43776213D01*
X25721370Y43787482D01*
X25846786Y43859890D01*
X25949188Y43962292D01*
X26021596Y44087708D01*
X26032865Y44129766D01*
X26731736Y43430895D01*
X26731736Y43430896D01*
X26791992Y43513831D01*
X26791996Y43513837D01*
X26899180Y43724198D01*
X26948175Y43874987D01*
X52500000Y43874987D01*
X52500000Y43450000D01*
X53319670Y43450000D01*
X53299925Y43430255D01*
X53250556Y43344745D01*
X53225000Y43249370D01*
X53225000Y43150630D01*
X53250556Y43055255D01*
X53299925Y42969745D01*
X53319670Y42950000D01*
X52500001Y42950000D01*
X52500001Y42525014D01*
X52510494Y42422303D01*
X52565641Y42255881D01*
X52565643Y42255876D01*
X52657684Y42106655D01*
X52781654Y41982685D01*
X52930875Y41890644D01*
X52930880Y41890642D01*
X53097302Y41835495D01*
X53097309Y41835494D01*
X53200019Y41825001D01*
X53349999Y41825001D01*
X53350000Y41825002D01*
X53350000Y42919670D01*
X53369745Y42899925D01*
X53455255Y42850556D01*
X53550630Y42825000D01*
X53649370Y42825000D01*
X53744745Y42850556D01*
X53830255Y42899925D01*
X53850000Y42919670D01*
X53850000Y41825001D01*
X53999972Y41825001D01*
X53999986Y41825002D01*
X54102697Y41835495D01*
X54269119Y41890642D01*
X54269124Y41890644D01*
X54418345Y41982685D01*
X54542317Y42106657D01*
X54577630Y42163909D01*
X54629577Y42210634D01*
X54698539Y42221857D01*
X54762622Y42194014D01*
X54770850Y42186494D01*
X54877862Y42079482D01*
X54877867Y42079478D01*
X54965614Y42015727D01*
X55019019Y41976926D01*
X55090701Y41940402D01*
X55174483Y41897712D01*
X55174486Y41897711D01*
X55257455Y41870754D01*
X55340426Y41843795D01*
X55512759Y41816500D01*
X55512760Y41816500D01*
X55687240Y41816500D01*
X55687241Y41816500D01*
X55859574Y41843795D01*
X56025516Y41897712D01*
X56180981Y41976926D01*
X56322139Y42079483D01*
X56445517Y42202861D01*
X56484035Y42255876D01*
X56499682Y42277412D01*
X56555011Y42320078D01*
X56624625Y42326057D01*
X56686420Y42293452D01*
X56700318Y42277412D01*
X56754477Y42202868D01*
X56754481Y42202863D01*
X56877862Y42079482D01*
X56877867Y42079478D01*
X56965614Y42015727D01*
X57019019Y41976926D01*
X57090701Y41940402D01*
X57174483Y41897712D01*
X57174486Y41897711D01*
X57257455Y41870754D01*
X57340426Y41843795D01*
X57512759Y41816500D01*
X57512760Y41816500D01*
X57687240Y41816500D01*
X57687241Y41816500D01*
X57859574Y41843795D01*
X58025516Y41897712D01*
X58180981Y41976926D01*
X58322139Y42079483D01*
X58445517Y42202861D01*
X58484035Y42255876D01*
X58499682Y42277412D01*
X58555011Y42320078D01*
X58624625Y42326057D01*
X58686420Y42293452D01*
X58700318Y42277412D01*
X58754477Y42202868D01*
X58754481Y42202863D01*
X58877862Y42079482D01*
X58877867Y42079478D01*
X58965614Y42015727D01*
X59019019Y41976926D01*
X59090701Y41940402D01*
X59174483Y41897712D01*
X59174486Y41897711D01*
X59257455Y41870754D01*
X59340426Y41843795D01*
X59512759Y41816500D01*
X59512760Y41816500D01*
X59687240Y41816500D01*
X59687241Y41816500D01*
X59859574Y41843795D01*
X60025516Y41897712D01*
X60180981Y41976926D01*
X60322139Y42079483D01*
X60445517Y42202861D01*
X60548074Y42344019D01*
X60627288Y42499484D01*
X60681205Y42665426D01*
X60708500Y42837759D01*
X60708500Y43073087D01*
X92621499Y43073087D01*
X92654951Y42861883D01*
X92721026Y42658520D01*
X92721027Y42658517D01*
X92789051Y42525014D01*
X92818106Y42467991D01*
X92943794Y42294996D01*
X93094996Y42143794D01*
X93183520Y42079478D01*
X93267991Y42018106D01*
X93271873Y42015727D01*
X93318748Y41963914D01*
X93330169Y41894984D01*
X93302512Y41830822D01*
X93271873Y41804273D01*
X93267991Y41801895D01*
X93094993Y41676204D01*
X92943796Y41525007D01*
X92818106Y41352010D01*
X92721027Y41161484D01*
X92721026Y41161481D01*
X92654951Y40958118D01*
X92653763Y40950618D01*
X92621500Y40746916D01*
X92621500Y40533084D01*
X92633790Y40455491D01*
X92654951Y40321883D01*
X92721026Y40118520D01*
X92721027Y40118517D01*
X92792245Y39978746D01*
X92818106Y39927991D01*
X92943794Y39754996D01*
X93094996Y39603794D01*
X93267991Y39478106D01*
X93271873Y39475727D01*
X93318748Y39423914D01*
X93330169Y39354984D01*
X93302512Y39290822D01*
X93271873Y39264273D01*
X93267991Y39261895D01*
X93094993Y39136204D01*
X92943796Y38985007D01*
X92818106Y38812010D01*
X92721027Y38621484D01*
X92721026Y38621481D01*
X92654951Y38418118D01*
X92652401Y38402018D01*
X92621500Y38206916D01*
X92621500Y37993084D01*
X92638225Y37887484D01*
X92654951Y37781883D01*
X92721026Y37578520D01*
X92721027Y37578517D01*
X92792245Y37438746D01*
X92818106Y37387991D01*
X92943794Y37214996D01*
X93094996Y37063794D01*
X93267991Y36938106D01*
X93271873Y36935727D01*
X93318748Y36883914D01*
X93330169Y36814984D01*
X93302512Y36750822D01*
X93271873Y36724273D01*
X93267991Y36721895D01*
X93094993Y36596204D01*
X92943796Y36445007D01*
X92818106Y36272010D01*
X92721027Y36081484D01*
X92721026Y36081481D01*
X92654951Y35878118D01*
X92624517Y35685962D01*
X92621500Y35666916D01*
X92621500Y35453084D01*
X92624517Y35434038D01*
X92654951Y35241883D01*
X92721026Y35038520D01*
X92721027Y35038517D01*
X92790147Y34902863D01*
X92818106Y34847991D01*
X92943794Y34674996D01*
X93094996Y34523794D01*
X93267991Y34398106D01*
X93271873Y34395727D01*
X93318748Y34343914D01*
X93330169Y34274984D01*
X93302512Y34210822D01*
X93271873Y34184273D01*
X93267991Y34181895D01*
X93094993Y34056204D01*
X92943796Y33905007D01*
X92818106Y33732010D01*
X92721027Y33541484D01*
X92721026Y33541481D01*
X92654951Y33338118D01*
X92621500Y33126916D01*
X92621500Y32913085D01*
X92654951Y32701883D01*
X92721026Y32498520D01*
X92721027Y32498517D01*
X92791658Y32359898D01*
X92818106Y32307991D01*
X92943794Y32134996D01*
X93094996Y31983794D01*
X93267991Y31858106D01*
X93271873Y31855727D01*
X93318748Y31803914D01*
X93330169Y31734984D01*
X93302512Y31670822D01*
X93271873Y31644273D01*
X93267991Y31641895D01*
X93094993Y31516204D01*
X92943796Y31365007D01*
X92818106Y31192010D01*
X92721027Y31001484D01*
X92721026Y31001481D01*
X92654951Y30798118D01*
X92654951Y30798116D01*
X92621500Y30586916D01*
X92621500Y30373084D01*
X92624127Y30356500D01*
X92654951Y30161883D01*
X92721026Y29958520D01*
X92721027Y29958517D01*
X92786988Y29829063D01*
X92818106Y29767991D01*
X92943794Y29594996D01*
X93094996Y29443794D01*
X93198316Y29368728D01*
X93267991Y29318106D01*
X93271873Y29315727D01*
X93318748Y29263914D01*
X93330169Y29194984D01*
X93302512Y29130822D01*
X93271873Y29104273D01*
X93267991Y29101895D01*
X93094993Y28976204D01*
X92943796Y28825007D01*
X92818106Y28652010D01*
X92721027Y28461484D01*
X92721026Y28461481D01*
X92654951Y28258118D01*
X92621500Y28046916D01*
X92621500Y27833085D01*
X92654951Y27621883D01*
X92721026Y27418520D01*
X92721027Y27418517D01*
X92792245Y27278746D01*
X92818106Y27227991D01*
X92943794Y27054996D01*
X93094996Y26903794D01*
X93267991Y26778106D01*
X93271873Y26775727D01*
X93318748Y26723914D01*
X93330169Y26654984D01*
X93302512Y26590822D01*
X93271873Y26564273D01*
X93267991Y26561895D01*
X93094993Y26436204D01*
X92943796Y26285007D01*
X92818106Y26112010D01*
X92721027Y25921484D01*
X92721026Y25921481D01*
X92654951Y25718118D01*
X92621500Y25506916D01*
X92621500Y25293085D01*
X92654951Y25081883D01*
X92721026Y24878520D01*
X92721027Y24878517D01*
X92816131Y24691868D01*
X92818106Y24687991D01*
X92943794Y24514996D01*
X93094996Y24363794D01*
X93267991Y24238106D01*
X93271873Y24235727D01*
X93318748Y24183914D01*
X93330169Y24114984D01*
X93302512Y24050822D01*
X93271873Y24024273D01*
X93267991Y24021895D01*
X93094993Y23896204D01*
X92943796Y23745007D01*
X92818106Y23572010D01*
X92721027Y23381484D01*
X92721026Y23381481D01*
X92654951Y23178118D01*
X92627723Y23006205D01*
X92621500Y22966916D01*
X92621500Y22753084D01*
X92623043Y22743344D01*
X92654951Y22541883D01*
X92721026Y22338520D01*
X92721027Y22338517D01*
X92792245Y22198746D01*
X92818106Y22147991D01*
X92943794Y21974996D01*
X93094996Y21823794D01*
X93196565Y21750000D01*
X93267991Y21698106D01*
X93271873Y21695727D01*
X93318748Y21643914D01*
X93330169Y21574984D01*
X93302512Y21510822D01*
X93271873Y21484273D01*
X93267991Y21481895D01*
X93094993Y21356204D01*
X92943796Y21205007D01*
X92818106Y21032010D01*
X92721027Y20841484D01*
X92721026Y20841481D01*
X92654951Y20638118D01*
X92621500Y20426916D01*
X92621500Y20213085D01*
X92654951Y20001883D01*
X92721026Y19798520D01*
X92721027Y19798517D01*
X92792245Y19658746D01*
X92818106Y19607991D01*
X92943794Y19434996D01*
X93094996Y19283794D01*
X93181517Y19220933D01*
X93267991Y19158106D01*
X93271873Y19155727D01*
X93318748Y19103914D01*
X93330169Y19034984D01*
X93302512Y18970822D01*
X93271873Y18944273D01*
X93267991Y18941895D01*
X93094993Y18816204D01*
X92943796Y18665007D01*
X92818106Y18492010D01*
X92721027Y18301484D01*
X92721026Y18301481D01*
X92654951Y18098118D01*
X92621500Y17886916D01*
X92621500Y17673085D01*
X92654951Y17461883D01*
X92721026Y17258520D01*
X92721027Y17258517D01*
X92792245Y17118746D01*
X92818106Y17067991D01*
X92943794Y16894996D01*
X93094996Y16743794D01*
X93243764Y16635708D01*
X93267991Y16618106D01*
X93271873Y16615727D01*
X93318748Y16563914D01*
X93330169Y16494984D01*
X93302512Y16430822D01*
X93271873Y16404273D01*
X93267991Y16401895D01*
X93094993Y16276204D01*
X92943796Y16125007D01*
X92818106Y15952010D01*
X92721027Y15761484D01*
X92721026Y15761481D01*
X92654951Y15558118D01*
X92634755Y15430606D01*
X92621500Y15346916D01*
X92621500Y15133084D01*
X92627794Y15093346D01*
X92654951Y14921883D01*
X92721026Y14718520D01*
X92721027Y14718517D01*
X92792245Y14578746D01*
X92818106Y14527991D01*
X92943794Y14354996D01*
X93094996Y14203794D01*
X93243764Y14095708D01*
X93267991Y14078106D01*
X93271873Y14075727D01*
X93318748Y14023914D01*
X93330169Y13954984D01*
X93302512Y13890822D01*
X93271873Y13864273D01*
X93267991Y13861895D01*
X93094993Y13736204D01*
X92943796Y13585007D01*
X92818106Y13412010D01*
X92721027Y13221484D01*
X92721026Y13221481D01*
X92654951Y13018118D01*
X92632993Y12879482D01*
X92621500Y12806916D01*
X92621500Y12593084D01*
X92638190Y12487708D01*
X92654951Y12381883D01*
X92721026Y12178520D01*
X92721027Y12178517D01*
X92792245Y12038746D01*
X92818106Y11987991D01*
X92943794Y11814996D01*
X93094996Y11663794D01*
X93267991Y11538106D01*
X93271873Y11535727D01*
X93318748Y11483914D01*
X93330169Y11414984D01*
X93302512Y11350822D01*
X93271873Y11324273D01*
X93267991Y11321895D01*
X93094993Y11196204D01*
X92943796Y11045007D01*
X92818106Y10872010D01*
X92721027Y10681484D01*
X92721026Y10681481D01*
X92654951Y10478118D01*
X92621500Y10266916D01*
X92621500Y10053085D01*
X92654951Y9841883D01*
X92721026Y9638520D01*
X92721027Y9638517D01*
X92792245Y9498746D01*
X92818106Y9447991D01*
X92943794Y9274996D01*
X92943796Y9274994D01*
X93055578Y9163212D01*
X93089063Y9101889D01*
X93084079Y9032197D01*
X93042207Y8976264D01*
X93011230Y8959349D01*
X92887913Y8913355D01*
X92887906Y8913351D01*
X92772812Y8827191D01*
X92772809Y8827188D01*
X92686649Y8712094D01*
X92686645Y8712087D01*
X92636403Y8577380D01*
X92636401Y8577373D01*
X92630000Y8517845D01*
X92630000Y7870000D01*
X93546988Y7870000D01*
X93514075Y7812993D01*
X93480000Y7685826D01*
X93480000Y7554174D01*
X93514075Y7427007D01*
X93546988Y7370000D01*
X92630000Y7370000D01*
X92630000Y6722156D01*
X92636401Y6662628D01*
X92636403Y6662621D01*
X92686645Y6527914D01*
X92686649Y6527907D01*
X92772809Y6412813D01*
X92772812Y6412810D01*
X92887906Y6326650D01*
X92887913Y6326646D01*
X93022620Y6276404D01*
X93022627Y6276402D01*
X93082155Y6270001D01*
X93082172Y6270000D01*
X93730000Y6270000D01*
X93730000Y7186988D01*
X93787007Y7154075D01*
X93914174Y7120000D01*
X94045826Y7120000D01*
X94172993Y7154075D01*
X94230000Y7186988D01*
X94230000Y6270000D01*
X94877828Y6270000D01*
X94877844Y6270001D01*
X94937372Y6276402D01*
X94937379Y6276404D01*
X95072086Y6326646D01*
X95072093Y6326650D01*
X95187187Y6412810D01*
X95187190Y6412813D01*
X95273350Y6527907D01*
X95273354Y6527914D01*
X95322614Y6659987D01*
X95364485Y6715921D01*
X95429949Y6740338D01*
X95498222Y6725487D01*
X95526477Y6704335D01*
X95640535Y6590277D01*
X95640540Y6590273D01*
X95812442Y6465380D01*
X96001782Y6368905D01*
X96203871Y6303243D01*
X96270000Y6292769D01*
X96270000Y7186988D01*
X96327007Y7154075D01*
X96454174Y7120000D01*
X96585826Y7120000D01*
X96712993Y7154075D01*
X96770000Y7186988D01*
X96770000Y6292770D01*
X96836126Y6303243D01*
X96836129Y6303243D01*
X97038217Y6368905D01*
X97227557Y6465380D01*
X97399459Y6590273D01*
X97399464Y6590277D01*
X97549723Y6740536D01*
X97549727Y6740541D01*
X97674620Y6912443D01*
X97771095Y7101783D01*
X97836757Y7303871D01*
X97836757Y7303874D01*
X97847231Y7370000D01*
X96953012Y7370000D01*
X96985925Y7427007D01*
X97020000Y7554174D01*
X97020000Y7685826D01*
X96985925Y7812993D01*
X96953012Y7870000D01*
X97847231Y7870000D01*
X97836757Y7936127D01*
X97836757Y7936130D01*
X97771095Y8138218D01*
X97674620Y8327558D01*
X97549727Y8499460D01*
X97549723Y8499465D01*
X97399464Y8649724D01*
X97399459Y8649728D01*
X97227553Y8774624D01*
X97227554Y8774624D01*
X97227308Y8774749D01*
X97227231Y8774822D01*
X97223402Y8777168D01*
X97223895Y8777973D01*
X97176515Y8822726D01*
X97159724Y8890549D01*
X97182266Y8956682D01*
X97227319Y8995717D01*
X97232009Y8998106D01*
X97405004Y9123794D01*
X97556206Y9274996D01*
X97681894Y9447991D01*
X97778972Y9638517D01*
X97845049Y9841884D01*
X97878500Y10053084D01*
X97878500Y10266916D01*
X97845049Y10478116D01*
X97778972Y10681483D01*
X97778972Y10681484D01*
X97681893Y10872010D01*
X97556206Y11045004D01*
X97405004Y11196206D01*
X97232009Y11321894D01*
X97232005Y11321897D01*
X97228132Y11324270D01*
X97181254Y11376080D01*
X97169829Y11445009D01*
X97197483Y11509173D01*
X97228132Y11535730D01*
X97232005Y11538104D01*
X97232004Y11538104D01*
X97232009Y11538106D01*
X97405004Y11663794D01*
X97556206Y11814996D01*
X97681894Y11987991D01*
X97778972Y12178517D01*
X97845049Y12381884D01*
X97878500Y12593084D01*
X97878500Y12806916D01*
X97845049Y13018116D01*
X97778972Y13221483D01*
X97778972Y13221484D01*
X97681893Y13412010D01*
X97643084Y13465426D01*
X97556206Y13585004D01*
X97405004Y13736206D01*
X97232009Y13861894D01*
X97232005Y13861897D01*
X97228132Y13864270D01*
X97181254Y13916080D01*
X97169829Y13985009D01*
X97197483Y14049173D01*
X97228132Y14075730D01*
X97232005Y14078104D01*
X97232004Y14078104D01*
X97232009Y14078106D01*
X97405004Y14203794D01*
X97556206Y14354996D01*
X97681894Y14527991D01*
X97778972Y14718517D01*
X97845049Y14921884D01*
X97878500Y15133084D01*
X97878500Y15346916D01*
X97845049Y15558116D01*
X97778972Y15761483D01*
X97778972Y15761484D01*
X97707756Y15901252D01*
X97681894Y15952009D01*
X97556206Y16125004D01*
X97405004Y16276206D01*
X97232009Y16401894D01*
X97232005Y16401897D01*
X97228132Y16404270D01*
X97181254Y16456080D01*
X97169829Y16525009D01*
X97197483Y16589173D01*
X97228132Y16615730D01*
X97232005Y16618104D01*
X97232004Y16618104D01*
X97232009Y16618106D01*
X97405004Y16743794D01*
X97556206Y16894996D01*
X97681894Y17067991D01*
X97778972Y17258517D01*
X97845049Y17461884D01*
X97878500Y17673084D01*
X97878500Y17886916D01*
X97845049Y18098116D01*
X97782216Y18291500D01*
X97778973Y18301481D01*
X97778972Y18301484D01*
X97713575Y18429831D01*
X97681894Y18492009D01*
X97556206Y18665004D01*
X97405004Y18816206D01*
X97232009Y18941894D01*
X97232005Y18941897D01*
X97228132Y18944270D01*
X97181254Y18996080D01*
X97169829Y19065009D01*
X97197483Y19129173D01*
X97228132Y19155730D01*
X97232005Y19158104D01*
X97232004Y19158104D01*
X97232009Y19158106D01*
X97405004Y19283794D01*
X97556206Y19434996D01*
X97681894Y19607991D01*
X97778972Y19798517D01*
X97845049Y20001884D01*
X97878500Y20213084D01*
X97878500Y20426916D01*
X97845049Y20638116D01*
X97798064Y20782722D01*
X97778973Y20841481D01*
X97778972Y20841484D01*
X97681893Y21032010D01*
X97556206Y21205004D01*
X97405004Y21356206D01*
X97232009Y21481894D01*
X97232005Y21481897D01*
X97228132Y21484270D01*
X97181254Y21536080D01*
X97169829Y21605009D01*
X97197483Y21669173D01*
X97228132Y21695730D01*
X97232005Y21698104D01*
X97232004Y21698104D01*
X97232009Y21698106D01*
X97405004Y21823794D01*
X97556206Y21974996D01*
X97681894Y22147991D01*
X97778972Y22338517D01*
X97845049Y22541884D01*
X97878500Y22753084D01*
X97878500Y22966916D01*
X97845049Y23178116D01*
X97778972Y23381483D01*
X97778972Y23381484D01*
X97681893Y23572010D01*
X97670488Y23587708D01*
X97556206Y23745004D01*
X97405004Y23896206D01*
X97232009Y24021894D01*
X97232005Y24021897D01*
X97228132Y24024270D01*
X97181254Y24076080D01*
X97169829Y24145009D01*
X97197483Y24209173D01*
X97228132Y24235730D01*
X97232005Y24238104D01*
X97232004Y24238104D01*
X97232009Y24238106D01*
X97405004Y24363794D01*
X97556206Y24514996D01*
X97681894Y24687991D01*
X97778972Y24878517D01*
X97845049Y25081884D01*
X97878500Y25293084D01*
X97878500Y25506916D01*
X97845049Y25718116D01*
X97778972Y25921483D01*
X97778972Y25921484D01*
X97681893Y26112010D01*
X97556206Y26285004D01*
X97405004Y26436206D01*
X97232009Y26561894D01*
X97232005Y26561897D01*
X97228132Y26564270D01*
X97181254Y26616080D01*
X97169829Y26685009D01*
X97197483Y26749173D01*
X97228132Y26775730D01*
X97232005Y26778104D01*
X97232004Y26778104D01*
X97232009Y26778106D01*
X97405004Y26903794D01*
X97556206Y27054996D01*
X97681894Y27227991D01*
X97778972Y27418517D01*
X97845049Y27621884D01*
X97878500Y27833084D01*
X97878500Y28046916D01*
X97845049Y28258116D01*
X97778972Y28461483D01*
X97778972Y28461484D01*
X97683872Y28648127D01*
X97681894Y28652009D01*
X97556206Y28825004D01*
X97405004Y28976206D01*
X97232009Y29101894D01*
X97232005Y29101897D01*
X97228132Y29104270D01*
X97181254Y29156080D01*
X97169829Y29225009D01*
X97197483Y29289173D01*
X97228132Y29315730D01*
X97232005Y29318104D01*
X97232004Y29318104D01*
X97232009Y29318106D01*
X97405004Y29443794D01*
X97556206Y29594996D01*
X97681894Y29767991D01*
X97778972Y29958517D01*
X97845049Y30161884D01*
X97878500Y30373084D01*
X97878500Y30586916D01*
X97845049Y30798116D01*
X97798583Y30941126D01*
X97778973Y31001481D01*
X97778972Y31001484D01*
X97681893Y31192010D01*
X97556206Y31365004D01*
X97405004Y31516206D01*
X97232009Y31641894D01*
X97232005Y31641897D01*
X97228132Y31644270D01*
X97181254Y31696080D01*
X97169829Y31765009D01*
X97197483Y31829173D01*
X97228132Y31855730D01*
X97232005Y31858104D01*
X97232004Y31858104D01*
X97232009Y31858106D01*
X97405004Y31983794D01*
X97556206Y32134996D01*
X97681894Y32307991D01*
X97778972Y32498517D01*
X97845049Y32701884D01*
X97878500Y32913084D01*
X97878500Y33126916D01*
X97845049Y33338116D01*
X97778972Y33541483D01*
X97778972Y33541484D01*
X97681893Y33732010D01*
X97556206Y33905004D01*
X97405004Y34056206D01*
X97232009Y34181894D01*
X97232005Y34181897D01*
X97228132Y34184270D01*
X97181254Y34236080D01*
X97169829Y34305009D01*
X97197483Y34369173D01*
X97228132Y34395730D01*
X97232005Y34398104D01*
X97232004Y34398104D01*
X97232009Y34398106D01*
X97405004Y34523794D01*
X97556206Y34674996D01*
X97681894Y34847991D01*
X97778972Y35038517D01*
X97845049Y35241884D01*
X97878500Y35453084D01*
X97878500Y35666916D01*
X97845049Y35878116D01*
X97778972Y36081483D01*
X97778972Y36081484D01*
X97681893Y36272010D01*
X97589742Y36398845D01*
X97556206Y36445004D01*
X97405004Y36596206D01*
X97232009Y36721894D01*
X97232005Y36721897D01*
X97228132Y36724270D01*
X97181254Y36776080D01*
X97169829Y36845009D01*
X97197483Y36909173D01*
X97228132Y36935730D01*
X97232005Y36938104D01*
X97232004Y36938104D01*
X97232009Y36938106D01*
X97405004Y37063794D01*
X97556206Y37214996D01*
X97681894Y37387991D01*
X97778972Y37578517D01*
X97845049Y37781884D01*
X97878500Y37993084D01*
X97878500Y38206916D01*
X97845049Y38418116D01*
X97778972Y38621483D01*
X97778972Y38621484D01*
X97681893Y38812010D01*
X97678066Y38817278D01*
X97556206Y38985004D01*
X97405004Y39136206D01*
X97232009Y39261894D01*
X97232005Y39261897D01*
X97228132Y39264270D01*
X97181254Y39316080D01*
X97169829Y39385009D01*
X97197483Y39449173D01*
X97228132Y39475730D01*
X97232005Y39478104D01*
X97232004Y39478104D01*
X97232009Y39478106D01*
X97405004Y39603794D01*
X97556206Y39754996D01*
X97681894Y39927991D01*
X97778972Y40118517D01*
X97845049Y40321884D01*
X97878500Y40533084D01*
X97878500Y40746916D01*
X97845049Y40958116D01*
X97778972Y41161483D01*
X97778972Y41161484D01*
X97699483Y41317488D01*
X97681894Y41352009D01*
X97556206Y41525004D01*
X97405004Y41676206D01*
X97232009Y41801894D01*
X97232005Y41801897D01*
X97228132Y41804270D01*
X97181254Y41856080D01*
X97169829Y41925009D01*
X97197483Y41989173D01*
X97228132Y42015730D01*
X97232005Y42018104D01*
X97232004Y42018104D01*
X97232009Y42018106D01*
X97405004Y42143794D01*
X97556206Y42294996D01*
X97681894Y42467991D01*
X97778972Y42658517D01*
X97845049Y42861884D01*
X97878500Y43073084D01*
X97878500Y43286916D01*
X97845049Y43498116D01*
X97778972Y43701483D01*
X97778972Y43701484D01*
X97699483Y43857488D01*
X97681894Y43892009D01*
X97556206Y44065004D01*
X97405004Y44216206D01*
X97232009Y44341894D01*
X97232005Y44341897D01*
X97228132Y44344270D01*
X97181254Y44396080D01*
X97169829Y44465009D01*
X97197483Y44529173D01*
X97228132Y44555730D01*
X97232005Y44558104D01*
X97232004Y44558104D01*
X97232009Y44558106D01*
X97405004Y44683794D01*
X97556206Y44834996D01*
X97681894Y45007991D01*
X97778972Y45198517D01*
X97845049Y45401884D01*
X97878500Y45613084D01*
X97878500Y45826916D01*
X97845049Y46038116D01*
X97778972Y46241483D01*
X97778972Y46241484D01*
X97681893Y46432010D01*
X97556206Y46605004D01*
X97405004Y46756206D01*
X97232009Y46881894D01*
X97232005Y46881897D01*
X97228132Y46884270D01*
X97181254Y46936080D01*
X97169829Y47005009D01*
X97197483Y47069173D01*
X97228132Y47095730D01*
X97232005Y47098104D01*
X97232004Y47098104D01*
X97232009Y47098106D01*
X97405004Y47223794D01*
X97556206Y47374996D01*
X97681894Y47547991D01*
X97778972Y47738517D01*
X97845049Y47941884D01*
X97878500Y48153084D01*
X97878500Y48366916D01*
X97845049Y48578116D01*
X97778972Y48781483D01*
X97778972Y48781484D01*
X97681893Y48972010D01*
X97556206Y49145004D01*
X97405004Y49296206D01*
X97232009Y49421894D01*
X97232005Y49421897D01*
X97228132Y49424270D01*
X97181254Y49476080D01*
X97169829Y49545009D01*
X97197483Y49609173D01*
X97228132Y49635730D01*
X97232005Y49638104D01*
X97232004Y49638104D01*
X97232009Y49638106D01*
X97405004Y49763794D01*
X97556206Y49914996D01*
X97681894Y50087991D01*
X97778972Y50278517D01*
X97845049Y50481884D01*
X97878500Y50693084D01*
X97878500Y50906916D01*
X97845049Y51118116D01*
X97778972Y51321483D01*
X97778972Y51321484D01*
X97729507Y51418562D01*
X97681894Y51512009D01*
X97556206Y51685004D01*
X97405004Y51836206D01*
X97232009Y51961894D01*
X97041483Y52058973D01*
X97041480Y52058974D01*
X96838117Y52125049D01*
X96698128Y52147221D01*
X96626916Y52158500D01*
X96413084Y52158500D01*
X96342684Y52147350D01*
X96201882Y52125049D01*
X95998519Y52058974D01*
X95998516Y52058973D01*
X95807990Y51961894D01*
X95634993Y51836204D01*
X95483796Y51685007D01*
X95358105Y51512009D01*
X95355727Y51508127D01*
X95303914Y51461252D01*
X95234984Y51449831D01*
X95170822Y51477488D01*
X95144273Y51508127D01*
X95141894Y51512009D01*
X95141891Y51512013D01*
X95016206Y51685004D01*
X94865004Y51836206D01*
X94692009Y51961894D01*
X94501483Y52058973D01*
X94501480Y52058974D01*
X94298117Y52125049D01*
X94158128Y52147221D01*
X94086916Y52158500D01*
X93873084Y52158500D01*
X93802684Y52147350D01*
X93661882Y52125049D01*
X93458519Y52058974D01*
X93458516Y52058973D01*
X93267990Y51961894D01*
X93094993Y51836204D01*
X92943796Y51685007D01*
X92818106Y51512010D01*
X92721027Y51321484D01*
X92721026Y51321481D01*
X92654951Y51118118D01*
X92654951Y51118116D01*
X92621500Y50906916D01*
X92621500Y50693084D01*
X92624517Y50674038D01*
X92654951Y50481883D01*
X92721026Y50278520D01*
X92721027Y50278517D01*
X92813917Y50096212D01*
X92818106Y50087991D01*
X92943794Y49914996D01*
X93094996Y49763794D01*
X93257979Y49645380D01*
X93267991Y49638106D01*
X93271873Y49635727D01*
X93318748Y49583914D01*
X93330169Y49514984D01*
X93302512Y49450822D01*
X93271873Y49424273D01*
X93267991Y49421895D01*
X93094993Y49296204D01*
X92943796Y49145007D01*
X92818106Y48972010D01*
X92721027Y48781484D01*
X92721026Y48781481D01*
X92654951Y48578118D01*
X92621500Y48366916D01*
X92621500Y48153085D01*
X92654951Y47941883D01*
X92721026Y47738520D01*
X92721027Y47738517D01*
X92792245Y47598746D01*
X92818106Y47547991D01*
X92943794Y47374996D01*
X93094996Y47223794D01*
X93267991Y47098106D01*
X93271873Y47095727D01*
X93318748Y47043914D01*
X93330169Y46974984D01*
X93302512Y46910822D01*
X93271873Y46884273D01*
X93267991Y46881895D01*
X93094993Y46756204D01*
X92943796Y46605007D01*
X92818106Y46432010D01*
X92721027Y46241484D01*
X92721026Y46241481D01*
X92654951Y46038118D01*
X92621500Y45826916D01*
X92621500Y45613085D01*
X92654951Y45401883D01*
X92721026Y45198520D01*
X92721027Y45198517D01*
X92792245Y45058746D01*
X92818106Y45007991D01*
X92943794Y44834996D01*
X93094996Y44683794D01*
X93244740Y44574999D01*
X93267991Y44558106D01*
X93271873Y44555727D01*
X93318748Y44503914D01*
X93330169Y44434984D01*
X93302512Y44370822D01*
X93271873Y44344273D01*
X93267991Y44341895D01*
X93094993Y44216204D01*
X92943796Y44065007D01*
X92818106Y43892010D01*
X92721027Y43701484D01*
X92721026Y43701481D01*
X92654951Y43498118D01*
X92621500Y43286916D01*
X92621500Y43073090D01*
X92621499Y43073087D01*
X60708500Y43073087D01*
X60708500Y43562241D01*
X60681205Y43734574D01*
X60646544Y43841252D01*
X60627289Y43900514D01*
X60627288Y43900517D01*
X60587961Y43977698D01*
X60548074Y44055981D01*
X60511334Y44106550D01*
X60445522Y44197133D01*
X60445518Y44197138D01*
X60322137Y44320519D01*
X60322132Y44320523D01*
X60180984Y44423072D01*
X60180983Y44423073D01*
X60180981Y44423074D01*
X60098680Y44465009D01*
X60025516Y44502289D01*
X60025513Y44502290D01*
X59859575Y44556205D01*
X59740914Y44574999D01*
X59687241Y44583500D01*
X59512759Y44583500D01*
X59459092Y44575000D01*
X59340424Y44556205D01*
X59174486Y44502290D01*
X59174483Y44502289D01*
X59019015Y44423072D01*
X58877867Y44320523D01*
X58877862Y44320519D01*
X58754481Y44197138D01*
X58700318Y44122588D01*
X58644988Y44079923D01*
X58575375Y44073944D01*
X58513580Y44106550D01*
X58499682Y44122588D01*
X58445518Y44197138D01*
X58322137Y44320519D01*
X58322132Y44320523D01*
X58180984Y44423072D01*
X58180983Y44423073D01*
X58180981Y44423074D01*
X58098680Y44465009D01*
X58025516Y44502289D01*
X58025513Y44502290D01*
X57859575Y44556205D01*
X57740914Y44574999D01*
X57687241Y44583500D01*
X57512759Y44583500D01*
X57459092Y44575000D01*
X57340424Y44556205D01*
X57174486Y44502290D01*
X57174483Y44502289D01*
X57019015Y44423072D01*
X56877867Y44320523D01*
X56877862Y44320519D01*
X56754481Y44197138D01*
X56700318Y44122588D01*
X56644988Y44079923D01*
X56575375Y44073944D01*
X56513580Y44106550D01*
X56499682Y44122588D01*
X56445518Y44197138D01*
X56322137Y44320519D01*
X56322132Y44320523D01*
X56180984Y44423072D01*
X56180983Y44423073D01*
X56180981Y44423074D01*
X56098680Y44465009D01*
X56025516Y44502289D01*
X56025513Y44502290D01*
X55859575Y44556205D01*
X55740914Y44574999D01*
X55687241Y44583500D01*
X55512759Y44583500D01*
X55459092Y44575000D01*
X55340424Y44556205D01*
X55174486Y44502290D01*
X55174483Y44502289D01*
X55019015Y44423072D01*
X54877868Y44320524D01*
X54770850Y44213506D01*
X54709527Y44180022D01*
X54639835Y44185006D01*
X54583902Y44226878D01*
X54577630Y44236092D01*
X54542317Y44293344D01*
X54418345Y44417316D01*
X54269124Y44509357D01*
X54269119Y44509359D01*
X54102697Y44564506D01*
X54102690Y44564507D01*
X53999986Y44575000D01*
X53850000Y44575000D01*
X53850000Y43480330D01*
X53830255Y43500075D01*
X53744745Y43549444D01*
X53649370Y43575000D01*
X53550630Y43575000D01*
X53455255Y43549444D01*
X53369745Y43500075D01*
X53350000Y43480330D01*
X53350000Y44575000D01*
X53200027Y44575000D01*
X53200012Y44574999D01*
X53097302Y44564506D01*
X52930880Y44509359D01*
X52930875Y44509357D01*
X52781654Y44417316D01*
X52657684Y44293346D01*
X52565643Y44144125D01*
X52565641Y44144120D01*
X52510494Y43977698D01*
X52510493Y43977691D01*
X52500000Y43874987D01*
X26948175Y43874987D01*
X26972143Y43948753D01*
X27009078Y44181948D01*
X27009078Y44418053D01*
X26972143Y44651248D01*
X26899180Y44875803D01*
X26791992Y45086172D01*
X26731736Y45169106D01*
X26731736Y45169107D01*
X26032865Y44470235D01*
X26021596Y44512292D01*
X25949188Y44637708D01*
X25846786Y44740110D01*
X25721370Y44812518D01*
X25679312Y44823788D01*
X26378183Y45522660D01*
X26378182Y45522662D01*
X26295252Y45582913D01*
X26084880Y45690103D01*
X25860325Y45763066D01*
X25860326Y45763066D01*
X25627130Y45800000D01*
X25391026Y45800000D01*
X25157830Y45763066D01*
X24933275Y45690103D01*
X24722908Y45582916D01*
X24639972Y45522660D01*
X25338844Y44823788D01*
X25296786Y44812518D01*
X25171370Y44740110D01*
X25068968Y44637708D01*
X24996560Y44512292D01*
X24985290Y44470234D01*
X24286418Y45169106D01*
X24226162Y45086170D01*
X24118975Y44875803D01*
X24046012Y44651248D01*
X24009078Y44418053D01*
X20509078Y44418053D01*
X20472143Y44651248D01*
X20399180Y44875803D01*
X20291992Y45086172D01*
X20231736Y45169106D01*
X20231736Y45169107D01*
X19532865Y44470235D01*
X19521596Y44512292D01*
X19449188Y44637708D01*
X19346786Y44740110D01*
X19221370Y44812518D01*
X19179312Y44823788D01*
X19878183Y45522660D01*
X19878182Y45522661D01*
X19795252Y45582913D01*
X19584880Y45690103D01*
X19360325Y45763066D01*
X19360326Y45763066D01*
X19127130Y45800000D01*
X18891026Y45800000D01*
X18657830Y45763066D01*
X18433275Y45690103D01*
X18222908Y45582916D01*
X18139972Y45522660D01*
X18838844Y44823788D01*
X18796786Y44812518D01*
X18671370Y44740110D01*
X18568968Y44637708D01*
X18496560Y44512292D01*
X18485290Y44470234D01*
X17786418Y45169106D01*
X17726162Y45086170D01*
X17618975Y44875803D01*
X17546012Y44651248D01*
X17509078Y44418053D01*
X300500Y44418053D01*
X300500Y50925962D01*
X13639500Y50925962D01*
X13639500Y50674039D01*
X13678910Y50425215D01*
X13756760Y50185617D01*
X13871132Y49961152D01*
X14019201Y49757351D01*
X14019205Y49757346D01*
X14197345Y49579206D01*
X14197350Y49579202D01*
X14307587Y49499111D01*
X14401155Y49431130D01*
X14544184Y49358253D01*
X14625616Y49316761D01*
X14625618Y49316761D01*
X14625621Y49316759D01*
X14865215Y49238910D01*
X15114038Y49199500D01*
X15114039Y49199500D01*
X15365961Y49199500D01*
X15365962Y49199500D01*
X15614785Y49238910D01*
X15854379Y49316759D01*
X16078845Y49431130D01*
X16282656Y49579207D01*
X16460793Y49757344D01*
X16608870Y49961155D01*
X16723241Y50185621D01*
X16801090Y50425215D01*
X16840500Y50674038D01*
X16840500Y50925962D01*
X16801090Y51174785D01*
X16723241Y51414379D01*
X16723239Y51414382D01*
X16723239Y51414384D01*
X16673498Y51512006D01*
X16608870Y51638845D01*
X16565416Y51698655D01*
X17437500Y51698655D01*
X17437500Y49901346D01*
X17444011Y49840798D01*
X17444011Y49840796D01*
X17475138Y49757344D01*
X17495111Y49703796D01*
X17582739Y49586739D01*
X17699796Y49499111D01*
X17836799Y49448011D01*
X17864050Y49445082D01*
X17897345Y49441501D01*
X17897362Y49441500D01*
X19694638Y49441500D01*
X19694654Y49441501D01*
X19721692Y49444409D01*
X19755201Y49448011D01*
X19892204Y49499111D01*
X20009261Y49586739D01*
X20096889Y49703796D01*
X20141957Y49824629D01*
X20183827Y49880558D01*
X20249291Y49904975D01*
X20317564Y49890123D01*
X20345818Y49868972D01*
X20450996Y49763794D01*
X20623991Y49638106D01*
X20680775Y49609173D01*
X20814516Y49541028D01*
X20814519Y49541027D01*
X20882399Y49518972D01*
X21017884Y49474951D01*
X21229084Y49441500D01*
X21229085Y49441500D01*
X21442915Y49441500D01*
X21442916Y49441500D01*
X21654116Y49474951D01*
X21857483Y49541028D01*
X22048009Y49638106D01*
X22221004Y49763794D01*
X22372206Y49914996D01*
X22497894Y50087991D01*
X22497896Y50087996D01*
X22500270Y50091868D01*
X22552080Y50138746D01*
X22621009Y50150171D01*
X22685173Y50122517D01*
X22711730Y50091868D01*
X22714103Y50087995D01*
X22714105Y50087992D01*
X22714106Y50087991D01*
X22839794Y49914996D01*
X22990996Y49763794D01*
X23163991Y49638106D01*
X23220775Y49609173D01*
X23354516Y49541028D01*
X23354519Y49541027D01*
X23422399Y49518972D01*
X23557884Y49474951D01*
X23769084Y49441500D01*
X23769085Y49441500D01*
X23982915Y49441500D01*
X23982916Y49441500D01*
X24194116Y49474951D01*
X24397483Y49541028D01*
X24588009Y49638106D01*
X24761004Y49763794D01*
X24912206Y49914996D01*
X25037894Y50087991D01*
X25040283Y50092681D01*
X25088254Y50143478D01*
X25156074Y50160276D01*
X25222210Y50137742D01*
X25258201Y50096212D01*
X25258832Y50096598D01*
X25261164Y50092793D01*
X25261251Y50092692D01*
X25261376Y50092446D01*
X25386272Y49920541D01*
X25386276Y49920536D01*
X25536535Y49770277D01*
X25536540Y49770273D01*
X25708442Y49645380D01*
X25897782Y49548905D01*
X26099871Y49483243D01*
X26166000Y49472769D01*
X26166000Y50366988D01*
X26223007Y50334075D01*
X26350174Y50300000D01*
X26481826Y50300000D01*
X26608993Y50334075D01*
X26666000Y50366988D01*
X26666000Y49472770D01*
X26732126Y49483243D01*
X26732129Y49483243D01*
X26934217Y49548905D01*
X27123557Y49645380D01*
X27295459Y49770273D01*
X27295464Y49770277D01*
X27445723Y49920536D01*
X27445727Y49920541D01*
X27570619Y50092440D01*
X27570738Y50092673D01*
X27570808Y50092748D01*
X27573168Y50096598D01*
X27573976Y50096103D01*
X27618707Y50143474D01*
X27686526Y50160277D01*
X27752663Y50137746D01*
X27791712Y50092689D01*
X27794105Y50087992D01*
X27836002Y50030326D01*
X27919794Y49914996D01*
X28070996Y49763794D01*
X28243991Y49638106D01*
X28300775Y49609173D01*
X28434516Y49541028D01*
X28434519Y49541027D01*
X28502399Y49518972D01*
X28637884Y49474951D01*
X28849084Y49441500D01*
X28849085Y49441500D01*
X29062915Y49441500D01*
X29062916Y49441500D01*
X29274116Y49474951D01*
X29477483Y49541028D01*
X29668009Y49638106D01*
X29841004Y49763794D01*
X29992206Y49914996D01*
X30117894Y50087991D01*
X30117896Y50087996D01*
X30120270Y50091868D01*
X30172080Y50138746D01*
X30241009Y50150171D01*
X30305173Y50122517D01*
X30331730Y50091868D01*
X30334103Y50087995D01*
X30334105Y50087992D01*
X30334106Y50087991D01*
X30459794Y49914996D01*
X30610996Y49763794D01*
X30783991Y49638106D01*
X30840775Y49609173D01*
X30974516Y49541028D01*
X30974519Y49541027D01*
X31042399Y49518972D01*
X31177884Y49474951D01*
X31389084Y49441500D01*
X31389085Y49441500D01*
X31602915Y49441500D01*
X31602916Y49441500D01*
X31814116Y49474951D01*
X32017483Y49541028D01*
X32208009Y49638106D01*
X32381004Y49763794D01*
X32532206Y49914996D01*
X32657894Y50087991D01*
X32657896Y50087996D01*
X32660270Y50091868D01*
X32712080Y50138746D01*
X32781009Y50150171D01*
X32845173Y50122517D01*
X32871730Y50091868D01*
X32874103Y50087995D01*
X32874105Y50087992D01*
X32874106Y50087991D01*
X32999794Y49914996D01*
X33150996Y49763794D01*
X33323991Y49638106D01*
X33380775Y49609173D01*
X33514516Y49541028D01*
X33514519Y49541027D01*
X33582399Y49518972D01*
X33717884Y49474951D01*
X33929084Y49441500D01*
X33929085Y49441500D01*
X34142915Y49441500D01*
X34142916Y49441500D01*
X34354116Y49474951D01*
X34557483Y49541028D01*
X34748009Y49638106D01*
X34921004Y49763794D01*
X35072206Y49914996D01*
X35197894Y50087991D01*
X35197896Y50087996D01*
X35200270Y50091868D01*
X35252080Y50138746D01*
X35321009Y50150171D01*
X35385173Y50122517D01*
X35411730Y50091868D01*
X35414103Y50087995D01*
X35414105Y50087992D01*
X35414106Y50087991D01*
X35539794Y49914996D01*
X35690996Y49763794D01*
X35863991Y49638106D01*
X35920775Y49609173D01*
X36054516Y49541028D01*
X36054519Y49541027D01*
X36122399Y49518972D01*
X36257884Y49474951D01*
X36469084Y49441500D01*
X36469085Y49441500D01*
X36682915Y49441500D01*
X36682916Y49441500D01*
X36894116Y49474951D01*
X37097483Y49541028D01*
X37288009Y49638106D01*
X37461004Y49763794D01*
X37612206Y49914996D01*
X37737894Y50087991D01*
X37737896Y50087996D01*
X37740270Y50091868D01*
X37792080Y50138746D01*
X37861009Y50150171D01*
X37925173Y50122517D01*
X37951730Y50091868D01*
X37954103Y50087995D01*
X37954105Y50087992D01*
X37954106Y50087991D01*
X38079794Y49914996D01*
X38230996Y49763794D01*
X38403991Y49638106D01*
X38460775Y49609173D01*
X38594516Y49541028D01*
X38594519Y49541027D01*
X38662399Y49518972D01*
X38797884Y49474951D01*
X39009084Y49441500D01*
X39009085Y49441500D01*
X39222915Y49441500D01*
X39222916Y49441500D01*
X39434116Y49474951D01*
X39637483Y49541028D01*
X39828009Y49638106D01*
X40001004Y49763794D01*
X40152206Y49914996D01*
X40277894Y50087991D01*
X40277896Y50087996D01*
X40280270Y50091868D01*
X40332080Y50138746D01*
X40401009Y50150171D01*
X40465173Y50122517D01*
X40491730Y50091868D01*
X40494103Y50087995D01*
X40494105Y50087992D01*
X40494106Y50087991D01*
X40619794Y49914996D01*
X40770996Y49763794D01*
X40943991Y49638106D01*
X41000775Y49609173D01*
X41134516Y49541028D01*
X41134519Y49541027D01*
X41202399Y49518972D01*
X41337884Y49474951D01*
X41549084Y49441500D01*
X41549085Y49441500D01*
X41762915Y49441500D01*
X41762916Y49441500D01*
X41974116Y49474951D01*
X42177483Y49541028D01*
X42368009Y49638106D01*
X42541004Y49763794D01*
X42692206Y49914996D01*
X42817894Y50087991D01*
X42914972Y50278517D01*
X42981049Y50481884D01*
X43014500Y50693084D01*
X43014500Y50906916D01*
X42981049Y51118116D01*
X42914972Y51321483D01*
X42914972Y51321484D01*
X42867639Y51414379D01*
X42817894Y51512009D01*
X42692206Y51685004D01*
X42678555Y51698655D01*
X44361500Y51698655D01*
X44361500Y49901346D01*
X44368011Y49840798D01*
X44368011Y49840796D01*
X44399138Y49757344D01*
X44419111Y49703796D01*
X44506739Y49586739D01*
X44623796Y49499111D01*
X44760799Y49448011D01*
X44788050Y49445082D01*
X44821345Y49441501D01*
X44821362Y49441500D01*
X46618638Y49441500D01*
X46618654Y49441501D01*
X46645692Y49444409D01*
X46679201Y49448011D01*
X46816204Y49499111D01*
X46933261Y49586739D01*
X47020889Y49703796D01*
X47065957Y49824629D01*
X47107827Y49880558D01*
X47173291Y49904975D01*
X47241564Y49890123D01*
X47269818Y49868972D01*
X47374996Y49763794D01*
X47547991Y49638106D01*
X47604775Y49609173D01*
X47738516Y49541028D01*
X47738519Y49541027D01*
X47806399Y49518972D01*
X47941884Y49474951D01*
X48153084Y49441500D01*
X48153085Y49441500D01*
X48366915Y49441500D01*
X48366916Y49441500D01*
X48578116Y49474951D01*
X48781483Y49541028D01*
X48972009Y49638106D01*
X49145004Y49763794D01*
X49296206Y49914996D01*
X49421894Y50087991D01*
X49421896Y50087996D01*
X49424270Y50091868D01*
X49476080Y50138746D01*
X49545009Y50150171D01*
X49609173Y50122517D01*
X49635730Y50091868D01*
X49638103Y50087995D01*
X49638105Y50087992D01*
X49638106Y50087991D01*
X49763794Y49914996D01*
X49914996Y49763794D01*
X50087991Y49638106D01*
X50144775Y49609173D01*
X50278516Y49541028D01*
X50278519Y49541027D01*
X50346399Y49518972D01*
X50481884Y49474951D01*
X50693084Y49441500D01*
X50693085Y49441500D01*
X50906915Y49441500D01*
X50906916Y49441500D01*
X51118116Y49474951D01*
X51321483Y49541028D01*
X51512009Y49638106D01*
X51685004Y49763794D01*
X51836206Y49914996D01*
X51961894Y50087991D01*
X51961896Y50087996D01*
X51964270Y50091868D01*
X52016080Y50138746D01*
X52085009Y50150171D01*
X52149173Y50122517D01*
X52175730Y50091868D01*
X52178103Y50087995D01*
X52178105Y50087992D01*
X52178106Y50087991D01*
X52303794Y49914996D01*
X52454996Y49763794D01*
X52627991Y49638106D01*
X52684775Y49609173D01*
X52818516Y49541028D01*
X52818519Y49541027D01*
X52886399Y49518972D01*
X53021884Y49474951D01*
X53233084Y49441500D01*
X53233085Y49441500D01*
X53446915Y49441500D01*
X53446916Y49441500D01*
X53658116Y49474951D01*
X53861483Y49541028D01*
X54052009Y49638106D01*
X54225004Y49763794D01*
X54376206Y49914996D01*
X54501894Y50087991D01*
X54501896Y50087996D01*
X54504270Y50091868D01*
X54556080Y50138746D01*
X54625009Y50150171D01*
X54689173Y50122517D01*
X54715730Y50091868D01*
X54718103Y50087995D01*
X54718105Y50087992D01*
X54718106Y50087991D01*
X54843794Y49914996D01*
X54994996Y49763794D01*
X55167991Y49638106D01*
X55224775Y49609173D01*
X55358516Y49541028D01*
X55358519Y49541027D01*
X55426399Y49518972D01*
X55561884Y49474951D01*
X55773084Y49441500D01*
X55773085Y49441500D01*
X55986915Y49441500D01*
X55986916Y49441500D01*
X56198116Y49474951D01*
X56401483Y49541028D01*
X56592009Y49638106D01*
X56765004Y49763794D01*
X56916206Y49914996D01*
X57041894Y50087991D01*
X57041896Y50087996D01*
X57044270Y50091868D01*
X57096080Y50138746D01*
X57165009Y50150171D01*
X57229173Y50122517D01*
X57255730Y50091868D01*
X57258103Y50087995D01*
X57258105Y50087992D01*
X57258106Y50087991D01*
X57383794Y49914996D01*
X57534996Y49763794D01*
X57707991Y49638106D01*
X57764775Y49609173D01*
X57898516Y49541028D01*
X57898519Y49541027D01*
X57966399Y49518972D01*
X58101884Y49474951D01*
X58313084Y49441500D01*
X58313085Y49441500D01*
X58526915Y49441500D01*
X58526916Y49441500D01*
X58738116Y49474951D01*
X58941483Y49541028D01*
X59132009Y49638106D01*
X59305004Y49763794D01*
X59456206Y49914996D01*
X59581894Y50087991D01*
X59581896Y50087996D01*
X59584270Y50091868D01*
X59636080Y50138746D01*
X59705009Y50150171D01*
X59769173Y50122517D01*
X59795730Y50091868D01*
X59798103Y50087995D01*
X59798105Y50087992D01*
X59798106Y50087991D01*
X59923794Y49914996D01*
X60074996Y49763794D01*
X60247991Y49638106D01*
X60304775Y49609173D01*
X60438516Y49541028D01*
X60438519Y49541027D01*
X60506399Y49518972D01*
X60641884Y49474951D01*
X60853084Y49441500D01*
X60853085Y49441500D01*
X61066915Y49441500D01*
X61066916Y49441500D01*
X61278116Y49474951D01*
X61481483Y49541028D01*
X61672009Y49638106D01*
X61845004Y49763794D01*
X61996206Y49914996D01*
X62121894Y50087991D01*
X62121896Y50087996D01*
X62124270Y50091868D01*
X62176080Y50138746D01*
X62245009Y50150171D01*
X62309173Y50122517D01*
X62335730Y50091868D01*
X62338103Y50087995D01*
X62338105Y50087992D01*
X62338106Y50087991D01*
X62463794Y49914996D01*
X62614996Y49763794D01*
X62787991Y49638106D01*
X62844775Y49609173D01*
X62978516Y49541028D01*
X62978519Y49541027D01*
X63046399Y49518972D01*
X63181884Y49474951D01*
X63393084Y49441500D01*
X63393085Y49441500D01*
X63606915Y49441500D01*
X63606916Y49441500D01*
X63818116Y49474951D01*
X64021483Y49541028D01*
X64212009Y49638106D01*
X64385004Y49763794D01*
X64536206Y49914996D01*
X64661894Y50087991D01*
X64758972Y50278517D01*
X64825049Y50481884D01*
X64858500Y50693084D01*
X64858500Y50906916D01*
X64825049Y51118116D01*
X64758972Y51321483D01*
X64758972Y51321484D01*
X64711639Y51414379D01*
X64661894Y51512009D01*
X64536206Y51685004D01*
X64522555Y51698655D01*
X67221500Y51698655D01*
X67221500Y49901346D01*
X67228011Y49840798D01*
X67228011Y49840796D01*
X67259138Y49757344D01*
X67279111Y49703796D01*
X67366739Y49586739D01*
X67483796Y49499111D01*
X67620799Y49448011D01*
X67648050Y49445082D01*
X67681345Y49441501D01*
X67681362Y49441500D01*
X69478638Y49441500D01*
X69478654Y49441501D01*
X69505692Y49444409D01*
X69539201Y49448011D01*
X69676204Y49499111D01*
X69793261Y49586739D01*
X69880889Y49703796D01*
X69925957Y49824629D01*
X69967827Y49880558D01*
X70033291Y49904975D01*
X70101564Y49890123D01*
X70129818Y49868972D01*
X70234996Y49763794D01*
X70407991Y49638106D01*
X70464775Y49609173D01*
X70598516Y49541028D01*
X70598519Y49541027D01*
X70666399Y49518972D01*
X70801884Y49474951D01*
X71013084Y49441500D01*
X71013085Y49441500D01*
X71226915Y49441500D01*
X71226916Y49441500D01*
X71438116Y49474951D01*
X71641483Y49541028D01*
X71832009Y49638106D01*
X72005004Y49763794D01*
X72156206Y49914996D01*
X72281894Y50087991D01*
X72281896Y50087996D01*
X72284270Y50091868D01*
X72336080Y50138746D01*
X72405009Y50150171D01*
X72469173Y50122517D01*
X72495730Y50091868D01*
X72498103Y50087995D01*
X72498105Y50087992D01*
X72498106Y50087991D01*
X72623794Y49914996D01*
X72774996Y49763794D01*
X72947991Y49638106D01*
X73004775Y49609173D01*
X73138516Y49541028D01*
X73138519Y49541027D01*
X73206399Y49518972D01*
X73341884Y49474951D01*
X73553084Y49441500D01*
X73553085Y49441500D01*
X73766915Y49441500D01*
X73766916Y49441500D01*
X73978116Y49474951D01*
X74181483Y49541028D01*
X74372009Y49638106D01*
X74545004Y49763794D01*
X74696206Y49914996D01*
X74821894Y50087991D01*
X74821896Y50087996D01*
X74824270Y50091868D01*
X74876080Y50138746D01*
X74945009Y50150171D01*
X75009173Y50122517D01*
X75035730Y50091868D01*
X75038103Y50087995D01*
X75038105Y50087992D01*
X75038106Y50087991D01*
X75163794Y49914996D01*
X75314996Y49763794D01*
X75487991Y49638106D01*
X75544775Y49609173D01*
X75678516Y49541028D01*
X75678519Y49541027D01*
X75746399Y49518972D01*
X75881884Y49474951D01*
X76093084Y49441500D01*
X76093085Y49441500D01*
X76306915Y49441500D01*
X76306916Y49441500D01*
X76518116Y49474951D01*
X76721483Y49541028D01*
X76912009Y49638106D01*
X77085004Y49763794D01*
X77236206Y49914996D01*
X77361894Y50087991D01*
X77361896Y50087996D01*
X77364270Y50091868D01*
X77416080Y50138746D01*
X77485009Y50150171D01*
X77549173Y50122517D01*
X77575730Y50091868D01*
X77578103Y50087995D01*
X77578105Y50087992D01*
X77578106Y50087991D01*
X77703794Y49914996D01*
X77854996Y49763794D01*
X78027991Y49638106D01*
X78084775Y49609173D01*
X78218516Y49541028D01*
X78218519Y49541027D01*
X78286399Y49518972D01*
X78421884Y49474951D01*
X78633084Y49441500D01*
X78633085Y49441500D01*
X78846915Y49441500D01*
X78846916Y49441500D01*
X79058116Y49474951D01*
X79261483Y49541028D01*
X79452009Y49638106D01*
X79625004Y49763794D01*
X79776206Y49914996D01*
X79901894Y50087991D01*
X79901896Y50087996D01*
X79904270Y50091868D01*
X79956080Y50138746D01*
X80025009Y50150171D01*
X80089173Y50122517D01*
X80115730Y50091868D01*
X80118103Y50087995D01*
X80118105Y50087992D01*
X80118106Y50087991D01*
X80243794Y49914996D01*
X80394996Y49763794D01*
X80567991Y49638106D01*
X80624775Y49609173D01*
X80758516Y49541028D01*
X80758519Y49541027D01*
X80826399Y49518972D01*
X80961884Y49474951D01*
X81173084Y49441500D01*
X81173085Y49441500D01*
X81386915Y49441500D01*
X81386916Y49441500D01*
X81598116Y49474951D01*
X81801483Y49541028D01*
X81992009Y49638106D01*
X82165004Y49763794D01*
X82316206Y49914996D01*
X82441894Y50087991D01*
X82441896Y50087996D01*
X82444270Y50091868D01*
X82496080Y50138746D01*
X82565009Y50150171D01*
X82629173Y50122517D01*
X82655730Y50091868D01*
X82658103Y50087995D01*
X82658105Y50087992D01*
X82658106Y50087991D01*
X82783794Y49914996D01*
X82934996Y49763794D01*
X83107991Y49638106D01*
X83164775Y49609173D01*
X83298516Y49541028D01*
X83298519Y49541027D01*
X83366399Y49518972D01*
X83501884Y49474951D01*
X83713084Y49441500D01*
X83713085Y49441500D01*
X83926915Y49441500D01*
X83926916Y49441500D01*
X84138116Y49474951D01*
X84341483Y49541028D01*
X84532009Y49638106D01*
X84705004Y49763794D01*
X84856206Y49914996D01*
X84981894Y50087991D01*
X84981896Y50087996D01*
X84984270Y50091868D01*
X85036080Y50138746D01*
X85105009Y50150171D01*
X85169173Y50122517D01*
X85195730Y50091868D01*
X85198103Y50087995D01*
X85198105Y50087992D01*
X85198106Y50087991D01*
X85323794Y49914996D01*
X85474996Y49763794D01*
X85647991Y49638106D01*
X85704775Y49609173D01*
X85838516Y49541028D01*
X85838519Y49541027D01*
X85906399Y49518972D01*
X86041884Y49474951D01*
X86253084Y49441500D01*
X86253085Y49441500D01*
X86466915Y49441500D01*
X86466916Y49441500D01*
X86678116Y49474951D01*
X86881483Y49541028D01*
X87072009Y49638106D01*
X87245004Y49763794D01*
X87396206Y49914996D01*
X87521894Y50087991D01*
X87618972Y50278517D01*
X87685049Y50481884D01*
X87718500Y50693084D01*
X87718500Y50906916D01*
X87715483Y50925962D01*
X88569500Y50925962D01*
X88569500Y50674039D01*
X88608910Y50425215D01*
X88686760Y50185617D01*
X88801132Y49961152D01*
X88949201Y49757351D01*
X88949205Y49757346D01*
X89127345Y49579206D01*
X89127350Y49579202D01*
X89237587Y49499111D01*
X89331155Y49431130D01*
X89474184Y49358253D01*
X89555616Y49316761D01*
X89555618Y49316761D01*
X89555621Y49316759D01*
X89795215Y49238910D01*
X90044038Y49199500D01*
X90044039Y49199500D01*
X90295961Y49199500D01*
X90295962Y49199500D01*
X90544785Y49238910D01*
X90784379Y49316759D01*
X91008845Y49431130D01*
X91212656Y49579207D01*
X91390793Y49757344D01*
X91538870Y49961155D01*
X91653241Y50185621D01*
X91731090Y50425215D01*
X91770500Y50674038D01*
X91770500Y50925962D01*
X91731090Y51174785D01*
X91653241Y51414379D01*
X91653239Y51414382D01*
X91653239Y51414384D01*
X91603498Y51512006D01*
X91538870Y51638845D01*
X91492602Y51702528D01*
X91390798Y51842650D01*
X91390794Y51842655D01*
X91212654Y52020795D01*
X91212649Y52020799D01*
X91008848Y52168868D01*
X91008847Y52168869D01*
X91008845Y52168870D01*
X90938747Y52204587D01*
X90784383Y52283240D01*
X90544785Y52361090D01*
X90368184Y52389061D01*
X90295962Y52400500D01*
X90044038Y52400500D01*
X89971816Y52389061D01*
X89795214Y52361090D01*
X89555616Y52283240D01*
X89331151Y52168868D01*
X89127350Y52020799D01*
X89127345Y52020795D01*
X88949205Y51842655D01*
X88949201Y51842650D01*
X88801132Y51638849D01*
X88686760Y51414384D01*
X88608910Y51174786D01*
X88569500Y50925962D01*
X87715483Y50925962D01*
X87685049Y51118116D01*
X87618972Y51321483D01*
X87618972Y51321484D01*
X87569507Y51418562D01*
X87521894Y51512009D01*
X87396206Y51685004D01*
X87245004Y51836206D01*
X87072009Y51961894D01*
X86881483Y52058973D01*
X86881480Y52058974D01*
X86678117Y52125049D01*
X86538128Y52147221D01*
X86466916Y52158500D01*
X86253084Y52158500D01*
X86182684Y52147350D01*
X86041882Y52125049D01*
X85838519Y52058974D01*
X85838516Y52058973D01*
X85647990Y51961894D01*
X85474993Y51836204D01*
X85323796Y51685007D01*
X85198105Y51512009D01*
X85195727Y51508127D01*
X85143914Y51461252D01*
X85074984Y51449831D01*
X85010822Y51477488D01*
X84984273Y51508127D01*
X84981894Y51512009D01*
X84981891Y51512013D01*
X84856206Y51685004D01*
X84705004Y51836206D01*
X84532009Y51961894D01*
X84341483Y52058973D01*
X84341480Y52058974D01*
X84138117Y52125049D01*
X83998128Y52147221D01*
X83926916Y52158500D01*
X83713084Y52158500D01*
X83642684Y52147350D01*
X83501882Y52125049D01*
X83298519Y52058974D01*
X83298516Y52058973D01*
X83107990Y51961894D01*
X82934993Y51836204D01*
X82783796Y51685007D01*
X82658105Y51512009D01*
X82655727Y51508127D01*
X82603914Y51461252D01*
X82534984Y51449831D01*
X82470822Y51477488D01*
X82444273Y51508127D01*
X82441894Y51512009D01*
X82441891Y51512013D01*
X82316206Y51685004D01*
X82165004Y51836206D01*
X81992009Y51961894D01*
X81801483Y52058973D01*
X81801480Y52058974D01*
X81598117Y52125049D01*
X81458128Y52147221D01*
X81386916Y52158500D01*
X81173084Y52158500D01*
X81102684Y52147350D01*
X80961882Y52125049D01*
X80758519Y52058974D01*
X80758516Y52058973D01*
X80567990Y51961894D01*
X80394993Y51836204D01*
X80243796Y51685007D01*
X80118105Y51512009D01*
X80115727Y51508127D01*
X80063914Y51461252D01*
X79994984Y51449831D01*
X79930822Y51477488D01*
X79904273Y51508127D01*
X79901894Y51512009D01*
X79901891Y51512013D01*
X79776206Y51685004D01*
X79625004Y51836206D01*
X79452009Y51961894D01*
X79261483Y52058973D01*
X79261480Y52058974D01*
X79058117Y52125049D01*
X78918128Y52147221D01*
X78846916Y52158500D01*
X78633084Y52158500D01*
X78562684Y52147350D01*
X78421882Y52125049D01*
X78218519Y52058974D01*
X78218516Y52058973D01*
X78027990Y51961894D01*
X77854993Y51836204D01*
X77703796Y51685007D01*
X77578105Y51512009D01*
X77575727Y51508127D01*
X77523914Y51461252D01*
X77454984Y51449831D01*
X77390822Y51477488D01*
X77364273Y51508127D01*
X77361894Y51512009D01*
X77361891Y51512013D01*
X77236206Y51685004D01*
X77085004Y51836206D01*
X76912009Y51961894D01*
X76721483Y52058973D01*
X76721480Y52058974D01*
X76518117Y52125049D01*
X76378128Y52147221D01*
X76306916Y52158500D01*
X76093084Y52158500D01*
X76022684Y52147350D01*
X75881882Y52125049D01*
X75678519Y52058974D01*
X75678516Y52058973D01*
X75487990Y51961894D01*
X75314993Y51836204D01*
X75163796Y51685007D01*
X75038105Y51512009D01*
X75035727Y51508127D01*
X74983914Y51461252D01*
X74914984Y51449831D01*
X74850822Y51477488D01*
X74824273Y51508127D01*
X74821894Y51512009D01*
X74821891Y51512013D01*
X74696206Y51685004D01*
X74545004Y51836206D01*
X74372009Y51961894D01*
X74181483Y52058973D01*
X74181480Y52058974D01*
X73978117Y52125049D01*
X73838128Y52147221D01*
X73766916Y52158500D01*
X73553084Y52158500D01*
X73482684Y52147350D01*
X73341882Y52125049D01*
X73138519Y52058974D01*
X73138516Y52058973D01*
X72947990Y51961894D01*
X72774993Y51836204D01*
X72623796Y51685007D01*
X72498105Y51512009D01*
X72495727Y51508127D01*
X72443914Y51461252D01*
X72374984Y51449831D01*
X72310822Y51477488D01*
X72284273Y51508127D01*
X72281894Y51512009D01*
X72281891Y51512013D01*
X72156206Y51685004D01*
X72005004Y51836206D01*
X71832009Y51961894D01*
X71641483Y52058973D01*
X71641480Y52058974D01*
X71438117Y52125049D01*
X71298128Y52147221D01*
X71226916Y52158500D01*
X71013084Y52158500D01*
X70942684Y52147350D01*
X70801882Y52125049D01*
X70598519Y52058974D01*
X70598516Y52058973D01*
X70407990Y51961894D01*
X70234997Y51836207D01*
X70129818Y51731028D01*
X70068495Y51697544D01*
X69998803Y51702528D01*
X69942870Y51744400D01*
X69925958Y51775371D01*
X69880889Y51896204D01*
X69793261Y52013261D01*
X69676204Y52100889D01*
X69539203Y52151989D01*
X69478654Y52158500D01*
X69478638Y52158500D01*
X67681362Y52158500D01*
X67681345Y52158500D01*
X67620797Y52151989D01*
X67620795Y52151989D01*
X67483795Y52100889D01*
X67366739Y52013261D01*
X67279111Y51896205D01*
X67228011Y51759205D01*
X67228011Y51759203D01*
X67221500Y51698655D01*
X64522555Y51698655D01*
X64385004Y51836206D01*
X64212009Y51961894D01*
X64021483Y52058973D01*
X64021480Y52058974D01*
X63818117Y52125049D01*
X63678128Y52147221D01*
X63606916Y52158500D01*
X63393084Y52158500D01*
X63322684Y52147350D01*
X63181882Y52125049D01*
X62978519Y52058974D01*
X62978516Y52058973D01*
X62787990Y51961894D01*
X62614993Y51836204D01*
X62463796Y51685007D01*
X62338105Y51512009D01*
X62335727Y51508127D01*
X62283914Y51461252D01*
X62214984Y51449831D01*
X62150822Y51477488D01*
X62124273Y51508127D01*
X62121894Y51512009D01*
X62121891Y51512013D01*
X61996206Y51685004D01*
X61845004Y51836206D01*
X61672009Y51961894D01*
X61481483Y52058973D01*
X61481480Y52058974D01*
X61278117Y52125049D01*
X61138128Y52147221D01*
X61066916Y52158500D01*
X60853084Y52158500D01*
X60782684Y52147350D01*
X60641882Y52125049D01*
X60438519Y52058974D01*
X60438516Y52058973D01*
X60247990Y51961894D01*
X60074993Y51836204D01*
X59923796Y51685007D01*
X59798105Y51512009D01*
X59795727Y51508127D01*
X59743914Y51461252D01*
X59674984Y51449831D01*
X59610822Y51477488D01*
X59584273Y51508127D01*
X59581894Y51512009D01*
X59581891Y51512013D01*
X59456206Y51685004D01*
X59305004Y51836206D01*
X59132009Y51961894D01*
X58941483Y52058973D01*
X58941480Y52058974D01*
X58738117Y52125049D01*
X58598128Y52147221D01*
X58526916Y52158500D01*
X58313084Y52158500D01*
X58242684Y52147350D01*
X58101882Y52125049D01*
X57898519Y52058974D01*
X57898516Y52058973D01*
X57707990Y51961894D01*
X57534993Y51836204D01*
X57383796Y51685007D01*
X57258105Y51512009D01*
X57255727Y51508127D01*
X57203914Y51461252D01*
X57134984Y51449831D01*
X57070822Y51477488D01*
X57044273Y51508127D01*
X57041894Y51512009D01*
X57041891Y51512013D01*
X56916206Y51685004D01*
X56765004Y51836206D01*
X56592009Y51961894D01*
X56401483Y52058973D01*
X56401480Y52058974D01*
X56198117Y52125049D01*
X56058128Y52147221D01*
X55986916Y52158500D01*
X55773084Y52158500D01*
X55702684Y52147350D01*
X55561882Y52125049D01*
X55358519Y52058974D01*
X55358516Y52058973D01*
X55167990Y51961894D01*
X54994993Y51836204D01*
X54843796Y51685007D01*
X54718105Y51512009D01*
X54715727Y51508127D01*
X54663914Y51461252D01*
X54594984Y51449831D01*
X54530822Y51477488D01*
X54504273Y51508127D01*
X54501894Y51512009D01*
X54501891Y51512013D01*
X54376206Y51685004D01*
X54225004Y51836206D01*
X54052009Y51961894D01*
X53861483Y52058973D01*
X53861480Y52058974D01*
X53658117Y52125049D01*
X53518128Y52147221D01*
X53446916Y52158500D01*
X53233084Y52158500D01*
X53162684Y52147350D01*
X53021882Y52125049D01*
X52818519Y52058974D01*
X52818516Y52058973D01*
X52627990Y51961894D01*
X52454993Y51836204D01*
X52303796Y51685007D01*
X52178105Y51512009D01*
X52175727Y51508127D01*
X52123914Y51461252D01*
X52054984Y51449831D01*
X51990822Y51477488D01*
X51964273Y51508127D01*
X51961894Y51512009D01*
X51961891Y51512013D01*
X51836206Y51685004D01*
X51685004Y51836206D01*
X51512009Y51961894D01*
X51321483Y52058973D01*
X51321480Y52058974D01*
X51118117Y52125049D01*
X50978128Y52147221D01*
X50906916Y52158500D01*
X50693084Y52158500D01*
X50622684Y52147350D01*
X50481882Y52125049D01*
X50278519Y52058974D01*
X50278516Y52058973D01*
X50087990Y51961894D01*
X49914993Y51836204D01*
X49763796Y51685007D01*
X49638105Y51512009D01*
X49635727Y51508127D01*
X49583914Y51461252D01*
X49514984Y51449831D01*
X49450822Y51477488D01*
X49424273Y51508127D01*
X49421894Y51512009D01*
X49421891Y51512013D01*
X49296206Y51685004D01*
X49145004Y51836206D01*
X48972009Y51961894D01*
X48781483Y52058973D01*
X48781480Y52058974D01*
X48578117Y52125049D01*
X48438128Y52147221D01*
X48366916Y52158500D01*
X48153084Y52158500D01*
X48082684Y52147350D01*
X47941882Y52125049D01*
X47738519Y52058974D01*
X47738516Y52058973D01*
X47547990Y51961894D01*
X47374997Y51836207D01*
X47269818Y51731028D01*
X47208495Y51697544D01*
X47138803Y51702528D01*
X47082870Y51744400D01*
X47065958Y51775371D01*
X47020889Y51896204D01*
X46933261Y52013261D01*
X46816204Y52100889D01*
X46679203Y52151989D01*
X46618654Y52158500D01*
X46618638Y52158500D01*
X44821362Y52158500D01*
X44821345Y52158500D01*
X44760797Y52151989D01*
X44760795Y52151989D01*
X44623795Y52100889D01*
X44506739Y52013261D01*
X44419111Y51896205D01*
X44368011Y51759205D01*
X44368011Y51759203D01*
X44361500Y51698655D01*
X42678555Y51698655D01*
X42541004Y51836206D01*
X42368009Y51961894D01*
X42177483Y52058973D01*
X42177480Y52058974D01*
X41974117Y52125049D01*
X41834128Y52147221D01*
X41762916Y52158500D01*
X41549084Y52158500D01*
X41478684Y52147350D01*
X41337882Y52125049D01*
X41134519Y52058974D01*
X41134516Y52058973D01*
X40943990Y51961894D01*
X40770993Y51836204D01*
X40619796Y51685007D01*
X40494105Y51512009D01*
X40491727Y51508127D01*
X40439914Y51461252D01*
X40370984Y51449831D01*
X40306822Y51477488D01*
X40280273Y51508127D01*
X40277894Y51512009D01*
X40277891Y51512013D01*
X40152206Y51685004D01*
X40001004Y51836206D01*
X39828009Y51961894D01*
X39637483Y52058973D01*
X39637480Y52058974D01*
X39434117Y52125049D01*
X39294128Y52147221D01*
X39222916Y52158500D01*
X39009084Y52158500D01*
X38938684Y52147350D01*
X38797882Y52125049D01*
X38594519Y52058974D01*
X38594516Y52058973D01*
X38403990Y51961894D01*
X38230993Y51836204D01*
X38079796Y51685007D01*
X37954105Y51512009D01*
X37951727Y51508127D01*
X37899914Y51461252D01*
X37830984Y51449831D01*
X37766822Y51477488D01*
X37740273Y51508127D01*
X37737894Y51512009D01*
X37737891Y51512013D01*
X37612206Y51685004D01*
X37461004Y51836206D01*
X37288009Y51961894D01*
X37097483Y52058973D01*
X37097480Y52058974D01*
X36894117Y52125049D01*
X36754128Y52147221D01*
X36682916Y52158500D01*
X36469084Y52158500D01*
X36398684Y52147350D01*
X36257882Y52125049D01*
X36054519Y52058974D01*
X36054516Y52058973D01*
X35863990Y51961894D01*
X35690993Y51836204D01*
X35539796Y51685007D01*
X35414105Y51512009D01*
X35411727Y51508127D01*
X35359914Y51461252D01*
X35290984Y51449831D01*
X35226822Y51477488D01*
X35200273Y51508127D01*
X35197894Y51512009D01*
X35197891Y51512013D01*
X35072206Y51685004D01*
X34921004Y51836206D01*
X34748009Y51961894D01*
X34557483Y52058973D01*
X34557480Y52058974D01*
X34354117Y52125049D01*
X34214128Y52147221D01*
X34142916Y52158500D01*
X33929084Y52158500D01*
X33858684Y52147350D01*
X33717882Y52125049D01*
X33514519Y52058974D01*
X33514516Y52058973D01*
X33323990Y51961894D01*
X33150993Y51836204D01*
X32999796Y51685007D01*
X32874105Y51512009D01*
X32871727Y51508127D01*
X32819914Y51461252D01*
X32750984Y51449831D01*
X32686822Y51477488D01*
X32660273Y51508127D01*
X32657894Y51512009D01*
X32657891Y51512013D01*
X32532206Y51685004D01*
X32381004Y51836206D01*
X32208009Y51961894D01*
X32017483Y52058973D01*
X32017480Y52058974D01*
X31814117Y52125049D01*
X31674128Y52147221D01*
X31602916Y52158500D01*
X31389084Y52158500D01*
X31318684Y52147350D01*
X31177882Y52125049D01*
X30974519Y52058974D01*
X30974516Y52058973D01*
X30783990Y51961894D01*
X30610993Y51836204D01*
X30459796Y51685007D01*
X30334105Y51512009D01*
X30331727Y51508127D01*
X30279914Y51461252D01*
X30210984Y51449831D01*
X30146822Y51477488D01*
X30120273Y51508127D01*
X30117894Y51512009D01*
X30117891Y51512013D01*
X29992206Y51685004D01*
X29841004Y51836206D01*
X29668009Y51961894D01*
X29477483Y52058973D01*
X29477480Y52058974D01*
X29274117Y52125049D01*
X29134128Y52147221D01*
X29062916Y52158500D01*
X28849084Y52158500D01*
X28778684Y52147350D01*
X28637882Y52125049D01*
X28434519Y52058974D01*
X28434516Y52058973D01*
X28243990Y51961894D01*
X28070993Y51836204D01*
X27919796Y51685007D01*
X27794103Y51512006D01*
X27791709Y51507307D01*
X27743731Y51456515D01*
X27675908Y51439725D01*
X27609775Y51462268D01*
X27573800Y51503790D01*
X27573168Y51503402D01*
X27570829Y51507219D01*
X27570743Y51507318D01*
X27570620Y51507559D01*
X27445727Y51679460D01*
X27445723Y51679465D01*
X27295464Y51829724D01*
X27295459Y51829728D01*
X27123557Y51954621D01*
X26934215Y52051097D01*
X26732124Y52116759D01*
X26666000Y52127232D01*
X26666000Y51233012D01*
X26608993Y51265925D01*
X26481826Y51300000D01*
X26350174Y51300000D01*
X26223007Y51265925D01*
X26166000Y51233012D01*
X26166000Y52127232D01*
X26165999Y52127232D01*
X26099875Y52116759D01*
X25897784Y52051097D01*
X25708442Y51954621D01*
X25536540Y51829728D01*
X25536535Y51829724D01*
X25386276Y51679465D01*
X25386272Y51679460D01*
X25261376Y51507554D01*
X25261374Y51507552D01*
X25261246Y51507299D01*
X25261172Y51507221D01*
X25258832Y51503402D01*
X25258029Y51503894D01*
X25213264Y51456511D01*
X25145441Y51439726D01*
X25079309Y51462273D01*
X25040285Y51507317D01*
X25037895Y51512008D01*
X25006472Y51555258D01*
X24912206Y51685004D01*
X24761004Y51836206D01*
X24588009Y51961894D01*
X24397483Y52058973D01*
X24397480Y52058974D01*
X24194117Y52125049D01*
X24054128Y52147221D01*
X23982916Y52158500D01*
X23769084Y52158500D01*
X23698684Y52147350D01*
X23557882Y52125049D01*
X23354519Y52058974D01*
X23354516Y52058973D01*
X23163990Y51961894D01*
X22990993Y51836204D01*
X22839796Y51685007D01*
X22714105Y51512009D01*
X22711727Y51508127D01*
X22659914Y51461252D01*
X22590984Y51449831D01*
X22526822Y51477488D01*
X22500273Y51508127D01*
X22497894Y51512009D01*
X22497891Y51512013D01*
X22372206Y51685004D01*
X22221004Y51836206D01*
X22048009Y51961894D01*
X21857483Y52058973D01*
X21857480Y52058974D01*
X21654117Y52125049D01*
X21514128Y52147221D01*
X21442916Y52158500D01*
X21229084Y52158500D01*
X21158684Y52147350D01*
X21017882Y52125049D01*
X20814519Y52058974D01*
X20814516Y52058973D01*
X20623990Y51961894D01*
X20450997Y51836207D01*
X20345818Y51731028D01*
X20284495Y51697544D01*
X20214803Y51702528D01*
X20158870Y51744400D01*
X20141958Y51775371D01*
X20096889Y51896204D01*
X20009261Y52013261D01*
X19892204Y52100889D01*
X19755203Y52151989D01*
X19694654Y52158500D01*
X19694638Y52158500D01*
X17897362Y52158500D01*
X17897345Y52158500D01*
X17836797Y52151989D01*
X17836795Y52151989D01*
X17699795Y52100889D01*
X17582739Y52013261D01*
X17495111Y51896205D01*
X17444011Y51759205D01*
X17444011Y51759203D01*
X17437500Y51698655D01*
X16565416Y51698655D01*
X16562602Y51702528D01*
X16460798Y51842650D01*
X16460794Y51842655D01*
X16282654Y52020795D01*
X16282649Y52020799D01*
X16078848Y52168868D01*
X16078847Y52168869D01*
X16078845Y52168870D01*
X16008747Y52204587D01*
X15854383Y52283240D01*
X15614785Y52361090D01*
X15438184Y52389061D01*
X15365962Y52400500D01*
X15114038Y52400500D01*
X15041816Y52389061D01*
X14865214Y52361090D01*
X14625616Y52283240D01*
X14401151Y52168868D01*
X14197350Y52020799D01*
X14197345Y52020795D01*
X14019205Y51842655D01*
X14019201Y51842650D01*
X13871132Y51638849D01*
X13756760Y51414384D01*
X13678910Y51174786D01*
X13639500Y50925962D01*
X300500Y50925962D01*
X300500Y52569875D01*
X301561Y52586059D01*
X305708Y52617562D01*
X314094Y52681262D01*
X322469Y52712520D01*
X356086Y52793677D01*
X372265Y52821699D01*
X425737Y52891384D01*
X448616Y52914263D01*
X518301Y52967735D01*
X546323Y52983914D01*
X627480Y53017531D01*
X658738Y53025906D01*
X736431Y53036134D01*
X753942Y53038439D01*
X770126Y53039500D01*
X809595Y53039500D01*
X96480438Y53039500D01*
X98000191Y53039500D01*
X98067230Y53019815D01*
G37*
%TD.AperFunction*%
%TD*%
M02*
